%TF.GenerationSoftware,KiCad,Pcbnew,(6.0.4)*%
%TF.CreationDate,2022-04-14T15:36:21+01:00*%
%TF.ProjectId,axo,61786f2e-6b69-4636-9164-5f7063625858,VERSION_HERE*%
%TF.SameCoordinates,Original*%
%TF.FileFunction,Copper,L2,Bot*%
%TF.FilePolarity,Positive*%
%FSLAX46Y46*%
G04 Gerber Fmt 4.6, Leading zero omitted, Abs format (unit mm)*
G04 Created by KiCad (PCBNEW (6.0.4)) date 2022-04-14 15:36:21*
%MOMM*%
%LPD*%
G01*
G04 APERTURE LIST*
G04 Aperture macros list*
%AMHorizOval*
0 Thick line with rounded ends*
0 $1 width*
0 $2 $3 position (X,Y) of the first rounded end (center of the circle)*
0 $4 $5 position (X,Y) of the second rounded end (center of the circle)*
0 Add line between two ends*
20,1,$1,$2,$3,$4,$5,0*
0 Add two circle primitives to create the rounded ends*
1,1,$1,$2,$3*
1,1,$1,$4,$5*%
%AMRotRect*
0 Rectangle, with rotation*
0 The origin of the aperture is its center*
0 $1 length*
0 $2 width*
0 $3 Rotation angle, in degrees counterclockwise*
0 Add horizontal line*
21,1,$1,$2,0,0,$3*%
G04 Aperture macros list end*
%TA.AperFunction,ComponentPad*%
%ADD10C,2.032000*%
%TD*%
%TA.AperFunction,ComponentPad*%
%ADD11RotRect,1.752600X1.752600X265.000000*%
%TD*%
%TA.AperFunction,ComponentPad*%
%ADD12C,1.752600*%
%TD*%
%TA.AperFunction,SMDPad,CuDef*%
%ADD13RotRect,2.600000X2.600000X15.000000*%
%TD*%
%TA.AperFunction,SMDPad,CuDef*%
%ADD14RotRect,2.600000X2.600000X355.000000*%
%TD*%
%TA.AperFunction,SMDPad,CuDef*%
%ADD15R,2.600000X2.600000*%
%TD*%
%TA.AperFunction,SMDPad,CuDef*%
%ADD16RotRect,2.600000X2.600000X5.000000*%
%TD*%
%TA.AperFunction,SMDPad,CuDef*%
%ADD17RotRect,2.600000X2.600000X330.000000*%
%TD*%
%TA.AperFunction,ComponentPad*%
%ADD18HorizOval,1.600000X-0.026147X-0.298858X0.026147X0.298858X0*%
%TD*%
%TA.AperFunction,SMDPad,CuDef*%
%ADD19RotRect,2.600000X2.600000X340.000000*%
%TD*%
%TA.AperFunction,Conductor*%
%ADD20C,0.250000*%
%TD*%
G04 APERTURE END LIST*
D10*
%TO.P,S6,1*%
%TO.N,P5*%
X129343877Y-144218590D03*
X139003136Y-141630400D03*
%TO.P,S6,2*%
%TO.N,GND*%
X134717026Y-144952939D03*
X134717026Y-144952939D03*
%TD*%
D11*
%TO.P,C1,1*%
%TO.N,RAW*%
X239724411Y-108740527D03*
D12*
%TO.P,C1,2*%
%TO.N,GND*%
X239503036Y-111270862D03*
%TO.P,C1,3*%
%TO.N,RST*%
X239281660Y-113801196D03*
%TO.P,C1,4*%
%TO.N,VCC*%
X239060284Y-116331531D03*
%TO.P,C1,5*%
%TO.N,P21*%
X238838909Y-118861865D03*
%TO.P,C1,6*%
%TO.N,P20*%
X238617533Y-121392200D03*
%TO.P,C1,7*%
%TO.N,P19*%
X238396158Y-123922535D03*
%TO.P,C1,8*%
%TO.N,P18*%
X238174782Y-126452869D03*
%TO.P,C1,9*%
%TO.N,P15*%
X237953406Y-128983204D03*
%TO.P,C1,10*%
%TO.N,P14*%
X237732031Y-131513538D03*
%TO.P,C1,11*%
%TO.N,P16*%
X237510655Y-134043873D03*
%TO.P,C1,12*%
%TO.N,P10*%
X237289280Y-136574207D03*
%TO.P,C1,13*%
%TO.N,P1*%
X254906418Y-110068781D03*
%TO.P,C1,14*%
%TO.N,P0*%
X254685043Y-112599115D03*
%TO.P,C1,15*%
%TO.N,GND*%
X254463667Y-115129450D03*
%TO.P,C1,16*%
X254242292Y-117659784D03*
%TO.P,C1,17*%
%TO.N,P2*%
X254020916Y-120190119D03*
%TO.P,C1,18*%
%TO.N,P3*%
X253799540Y-122720453D03*
%TO.P,C1,19*%
%TO.N,P4*%
X253578165Y-125250788D03*
%TO.P,C1,20*%
%TO.N,P5*%
X253356789Y-127781123D03*
%TO.P,C1,21*%
%TO.N,P6*%
X253135414Y-130311457D03*
%TO.P,C1,22*%
%TO.N,P7*%
X252914038Y-132841792D03*
%TO.P,C1,23*%
%TO.N,P8*%
X252692662Y-135372126D03*
%TO.P,C1,24*%
%TO.N,P9*%
X252471287Y-137902461D03*
%TD*%
D10*
%TO.P,S18,1*%
%TO.N,P18*%
X194463250Y-89810495D03*
X184463250Y-89810495D03*
%TO.P,S18,2*%
%TO.N,GND*%
X189463250Y-91910495D03*
X189463250Y-91910495D03*
%TD*%
%TO.P,S26,1*%
%TO.N,P10*%
X221117284Y-133482955D03*
X231079231Y-134354513D03*
%TO.P,S26,2*%
%TO.N,GND*%
X225915230Y-136010743D03*
X225915230Y-136010743D03*
%TD*%
D13*
%TO.P,S3,1*%
%TO.N,P6*%
X145335669Y-127562769D03*
%TO.P,S3,2*%
%TO.N,GND*%
X157061514Y-126698446D03*
%TD*%
D10*
%TO.P,S8,1*%
%TO.N,P4*%
X175656115Y-130638855D03*
X165694168Y-131510413D03*
%TO.P,S8,2*%
%TO.N,GND*%
X170858169Y-133166643D03*
X170858169Y-133166643D03*
%TD*%
%TO.P,S34,1*%
%TO.N,P9*%
X235859722Y-163110790D03*
X244519976Y-168110790D03*
%TO.P,S34,2*%
%TO.N,GND*%
X239139849Y-167429443D03*
X239139849Y-167429443D03*
%TD*%
D14*
%TO.P,S21,1*%
%TO.N,P14*%
X207482588Y-102593800D03*
%TO.P,S21,2*%
%TO.N,GND*%
X218796894Y-105792078D03*
%TD*%
D10*
%TO.P,S22,1*%
%TO.N,P14*%
X214876331Y-113027913D03*
X204914384Y-112156355D03*
%TO.P,S22,2*%
%TO.N,GND*%
X209712330Y-114684143D03*
X209712330Y-114684143D03*
%TD*%
D15*
%TO.P,S15,1*%
%TO.N,P19*%
X186188249Y-97060493D03*
%TO.P,S15,2*%
%TO.N,GND*%
X197738249Y-99260493D03*
%TD*%
D13*
%TO.P,S1,1*%
%TO.N,P7*%
X149735570Y-143983569D03*
%TO.P,S1,2*%
%TO.N,GND*%
X161461415Y-143119246D03*
%TD*%
%TO.P,S5,1*%
%TO.N,P5*%
X128486614Y-134354351D03*
%TO.P,S5,2*%
%TO.N,GND*%
X140212459Y-133490028D03*
%TD*%
D10*
%TO.P,S24,1*%
%TO.N,P16*%
X206395985Y-95220955D03*
X216357932Y-96092513D03*
%TO.P,S24,2*%
%TO.N,GND*%
X211193931Y-97748743D03*
X211193931Y-97748743D03*
%TD*%
%TO.P,S32,1*%
%TO.N,P8*%
X227736436Y-159322828D03*
X218339509Y-155902626D03*
%TO.P,S32,2*%
%TO.N,GND*%
X222319730Y-159586081D03*
X222319730Y-159586081D03*
%TD*%
D16*
%TO.P,S7,1*%
%TO.N,P4*%
X166562836Y-121647171D03*
%TO.P,S7,2*%
%TO.N,GND*%
X178260627Y-122832150D03*
%TD*%
%TO.P,S9,1*%
%TO.N,P3*%
X165081135Y-104711872D03*
%TO.P,S9,2*%
%TO.N,GND*%
X176778926Y-105896851D03*
%TD*%
D14*
%TO.P,S25,1*%
%TO.N,P10*%
X223685488Y-123920400D03*
%TO.P,S25,2*%
%TO.N,GND*%
X234999794Y-127118678D03*
%TD*%
D17*
%TO.P,S33,1*%
%TO.N,P9*%
X242228616Y-155529542D03*
%TO.P,S33,2*%
%TO.N,GND*%
X251131209Y-163209798D03*
%TD*%
D18*
%TO.P,T1,1*%
%TO.N,GND*%
X257527993Y-120607388D03*
X262110489Y-121008304D03*
%TO.P,T1,2*%
X262206360Y-119912490D03*
X257623865Y-119511574D03*
%TO.P,T1,3*%
%TO.N,P2*%
X257972488Y-115526795D03*
X262554983Y-115927711D03*
%TO.P,T1,4*%
%TO.N,VCC*%
X258233955Y-112538211D03*
X262816451Y-112939127D03*
%TD*%
D10*
%TO.P,S16,1*%
%TO.N,P19*%
X184463249Y-106810493D03*
X194463249Y-106810493D03*
%TO.P,S16,2*%
%TO.N,GND*%
X189463249Y-108910493D03*
X189463249Y-108910493D03*
%TD*%
D15*
%TO.P,S17,1*%
%TO.N,P18*%
X186188250Y-80060495D03*
%TO.P,S17,2*%
%TO.N,GND*%
X197738250Y-82260495D03*
%TD*%
D14*
%TO.P,S19,1*%
%TO.N,P15*%
X206000887Y-119529100D03*
%TO.P,S19,2*%
%TO.N,GND*%
X217315193Y-122727378D03*
%TD*%
D10*
%TO.P,S28,1*%
%TO.N,P20*%
X222598884Y-116547655D03*
X232560831Y-117419213D03*
%TO.P,S28,2*%
%TO.N,GND*%
X227396830Y-119075443D03*
X227396830Y-119075443D03*
%TD*%
D19*
%TO.P,S31,1*%
%TO.N,P8*%
X223295176Y-147330608D03*
%TO.P,S31,2*%
%TO.N,GND*%
X233396181Y-153348264D03*
%TD*%
D16*
%TO.P,S11,1*%
%TO.N,P0*%
X163599535Y-87776570D03*
%TO.P,S11,2*%
%TO.N,GND*%
X175297326Y-88961549D03*
%TD*%
D10*
%TO.P,S4,1*%
%TO.N,P6*%
X155852191Y-134838818D03*
X146192932Y-137427008D03*
%TO.P,S4,2*%
%TO.N,GND*%
X151566081Y-138161357D03*
X151566081Y-138161357D03*
%TD*%
%TO.P,S14,1*%
%TO.N,P1*%
X184463250Y-123810493D03*
X194463250Y-123810493D03*
%TO.P,S14,2*%
%TO.N,GND*%
X189463250Y-125910493D03*
X189463250Y-125910493D03*
%TD*%
%TO.P,S10,1*%
%TO.N,P3*%
X174174414Y-113703556D03*
X164212467Y-114575114D03*
%TO.P,S10,2*%
%TO.N,GND*%
X169376468Y-116231344D03*
X169376468Y-116231344D03*
%TD*%
%TO.P,S12,1*%
%TO.N,P0*%
X172692814Y-96768254D03*
X162730867Y-97639812D03*
%TO.P,S12,2*%
%TO.N,GND*%
X167894868Y-99296042D03*
X167894868Y-99296042D03*
%TD*%
D14*
%TO.P,S23,1*%
%TO.N,P16*%
X208964189Y-85658400D03*
%TO.P,S23,2*%
%TO.N,GND*%
X220278495Y-88856678D03*
%TD*%
D10*
%TO.P,S20,1*%
%TO.N,P15*%
X203432683Y-129091655D03*
X213394630Y-129963213D03*
%TO.P,S20,2*%
%TO.N,GND*%
X208230629Y-131619443D03*
X208230629Y-131619443D03*
%TD*%
%TO.P,S2,1*%
%TO.N,P7*%
X150592833Y-153847808D03*
X160252092Y-151259618D03*
%TO.P,S2,2*%
%TO.N,GND*%
X155965982Y-154582157D03*
X155965982Y-154582157D03*
%TD*%
D14*
%TO.P,S27,1*%
%TO.N,P20*%
X225167088Y-106985100D03*
%TO.P,S27,2*%
%TO.N,GND*%
X236481394Y-110183378D03*
%TD*%
D10*
%TO.P,S30,1*%
%TO.N,P21*%
X234042532Y-100483913D03*
X224080585Y-99612355D03*
%TO.P,S30,2*%
%TO.N,GND*%
X228878531Y-102140143D03*
X228878531Y-102140143D03*
%TD*%
D14*
%TO.P,S29,1*%
%TO.N,P21*%
X226648789Y-90049800D03*
%TO.P,S29,2*%
%TO.N,GND*%
X237963095Y-93248078D03*
%TD*%
D15*
%TO.P,S13,1*%
%TO.N,P1*%
X186188250Y-114060493D03*
%TO.P,S13,2*%
%TO.N,GND*%
X197738250Y-116260493D03*
%TD*%
D20*
%TO.N,P7*%
X151302043Y-152552931D02*
X150580283Y-153803061D01*
X151576367Y-150469238D02*
X149845494Y-144009533D01*
X151576367Y-150469238D02*
X151626230Y-150771256D01*
X151428375Y-152274109D02*
X151526770Y-151984247D01*
X151596279Y-151686138D02*
X151526770Y-151984247D01*
X151626230Y-150771256D02*
X151646250Y-151076708D01*
X151428375Y-152274109D02*
X151302043Y-152552931D01*
X151646250Y-151076708D02*
X151636234Y-151382650D01*
X151596279Y-151686138D02*
X151636234Y-151382650D01*
%TO.N,GND*%
X175981096Y-97059244D02*
X175273880Y-88975706D01*
X174585188Y-98722822D02*
X167871422Y-99310199D01*
X175653503Y-98098235D02*
X175551511Y-98219785D01*
X219187653Y-97831714D02*
X219286969Y-97707969D01*
X196814627Y-125757206D02*
X196668034Y-125817928D01*
X230593738Y-161340318D02*
X230597569Y-161152842D01*
X182928913Y-131357871D02*
X182404501Y-131462182D01*
X159467728Y-134589467D02*
X159550343Y-134495054D01*
X234227624Y-135545746D02*
X234168505Y-135692994D01*
X237238086Y-167396802D02*
X237569486Y-167429443D01*
X247049423Y-170244044D02*
X251106632Y-163216757D01*
X215705703Y-132152512D02*
X215559780Y-132214829D01*
X178893170Y-131616343D02*
X178846340Y-131603968D01*
X230249995Y-161646868D02*
X230243804Y-161579719D01*
X226177860Y-157425275D02*
X226470121Y-156987876D01*
X217916142Y-98374716D02*
X211202375Y-97787337D01*
X237167509Y-101713235D02*
X237108390Y-101860482D01*
X176535817Y-115564332D02*
X176388570Y-115623451D01*
X196934564Y-108672408D02*
X196794628Y-108747205D01*
X197209149Y-125493595D02*
X197086494Y-125594255D01*
X216433624Y-115319989D02*
X216592287Y-115318259D01*
X159071189Y-135500039D02*
X159005704Y-135644568D01*
X141912608Y-142864917D02*
X142017228Y-142745620D01*
X232954091Y-136614366D02*
X232796362Y-136631640D01*
X177474461Y-114192193D02*
X177457187Y-114349922D01*
X175743091Y-97967274D02*
X175653503Y-98098235D01*
X160412645Y-135119475D02*
X160742369Y-135229778D01*
X237108390Y-101860482D02*
X237035123Y-102001225D01*
X158729326Y-136030254D02*
X158613517Y-136138721D01*
X163327493Y-152129926D02*
X163406830Y-151992512D01*
X197432006Y-91288742D02*
X197331346Y-91411397D01*
X249150427Y-111323271D02*
X249674839Y-111427584D01*
X256460121Y-123710605D02*
X256392022Y-123731263D01*
X141912608Y-142864917D02*
X141796798Y-142973384D01*
X159689064Y-136504783D02*
X159792639Y-136599147D01*
X178755369Y-131789321D02*
X178761561Y-131855870D01*
X159550343Y-134495054D02*
X159175495Y-134005959D01*
X176388570Y-115623451D02*
X176236237Y-115667852D01*
X178985974Y-131695709D02*
X179176955Y-131607150D01*
X216382842Y-131631408D02*
X216335564Y-131610308D01*
X230249995Y-161646868D02*
X230297805Y-161703934D01*
X235696318Y-118529000D02*
X235637199Y-118676247D01*
X248618316Y-111270862D02*
X240180800Y-111270862D01*
X229594335Y-161888358D02*
X229440211Y-161926072D01*
X175551511Y-98219785D02*
X175438096Y-98330753D01*
X216467223Y-131745843D02*
X216372490Y-131757204D01*
X162611705Y-152737228D02*
X162463203Y-152793121D01*
X178648923Y-131963574D02*
X178544693Y-132087790D01*
X178755369Y-131789321D02*
X178846340Y-131603968D01*
X216550181Y-131320472D02*
X216484789Y-131338970D01*
X189942896Y-126738972D02*
X189150756Y-126738972D01*
X234227624Y-135545746D02*
X234272025Y-135393413D01*
X179100060Y-131221082D02*
X179149967Y-131288516D01*
X216518296Y-131253539D02*
X216550181Y-131320472D01*
X207232106Y-132617966D02*
X208230629Y-131619443D01*
X218023544Y-114232366D02*
X217964426Y-114379614D01*
X178877337Y-131523730D02*
X178893170Y-131616343D01*
X219579721Y-96978809D02*
X219550464Y-97134760D01*
X218387810Y-98323060D02*
X218232534Y-98355712D01*
X190735551Y-126027566D02*
X190765969Y-125932200D01*
X235696318Y-118529000D02*
X235740719Y-118376667D01*
X216799680Y-131693161D02*
X216736867Y-131681132D01*
X245875314Y-170974151D02*
X245716982Y-170984529D01*
X197402007Y-108248741D02*
X197301347Y-108371396D01*
X235769975Y-118220715D02*
X235740719Y-118376667D01*
X188985769Y-126771395D02*
X189138479Y-126646581D01*
X216678567Y-131410806D02*
X216608752Y-131345876D01*
X159207865Y-134708936D02*
X159147622Y-134484107D01*
X176236237Y-115667852D02*
X176080285Y-115697108D01*
X140212459Y-129715631D02*
X140212459Y-133490028D01*
X160404163Y-135551955D02*
X160192392Y-135731232D01*
X215408451Y-132262543D02*
X215253174Y-132295194D01*
X218232534Y-98355712D02*
X218074805Y-98372986D01*
X216750016Y-115300985D02*
X216592287Y-115318259D01*
X256010039Y-124041222D02*
X255973319Y-124102969D01*
X216335564Y-131610308D02*
X216383784Y-131533905D01*
X141245359Y-143279839D02*
X134735588Y-145024125D01*
X233676694Y-136305777D02*
X233545733Y-136395365D01*
X159314013Y-134596740D02*
X159207865Y-134708936D01*
X230602925Y-161428975D02*
X230638799Y-161587624D01*
X217705133Y-114776989D02*
X217804450Y-114653243D01*
X216654638Y-131326743D02*
X216678567Y-131410806D01*
X218097202Y-113924081D02*
X218804420Y-105840543D01*
X197748248Y-90404909D02*
X197748248Y-82290493D01*
X197301347Y-108371396D02*
X197189149Y-108483594D01*
X220278495Y-88856678D02*
X217315193Y-122727378D01*
X255880009Y-124375943D02*
X251131209Y-163209798D01*
X216128888Y-131858132D02*
X216237450Y-131738977D01*
X244951772Y-170806107D02*
X239115272Y-167436403D01*
X163472315Y-151847983D02*
X163406830Y-151992512D01*
X219076686Y-97945129D02*
X218955135Y-98047122D01*
X197748248Y-90404909D02*
X197732695Y-90562818D01*
X163523318Y-151697732D02*
X163472315Y-151847983D01*
X234578066Y-119564966D02*
X234422790Y-119597618D01*
X179065213Y-131259467D02*
X178999510Y-131261234D01*
X175314350Y-98430070D02*
X175438096Y-98330753D01*
X260392806Y-122725987D02*
X262110489Y-121008304D01*
X159706935Y-134651187D02*
X159467728Y-134589467D01*
X194239615Y-130686861D02*
X194596242Y-131043488D01*
X230269003Y-161486530D02*
X230243804Y-161579719D01*
X142109651Y-142616644D02*
X142188987Y-142479230D01*
X219373678Y-97575084D02*
X219286969Y-97707969D01*
X190315807Y-126559304D02*
X190162293Y-126661878D01*
X227707569Y-151529486D02*
X227516933Y-151989724D01*
X179454033Y-131489424D02*
X179578525Y-131514590D01*
X179239010Y-131529181D02*
X179264017Y-131576341D01*
X216736867Y-131681132D02*
X216756399Y-131611061D01*
X206751647Y-132974299D02*
X207000629Y-132807934D01*
X239999276Y-111252984D02*
X239820377Y-111217399D01*
X230243804Y-161579719D02*
X230203763Y-161547737D01*
X219579721Y-96978809D02*
X220286939Y-88895272D01*
X176933191Y-115305040D02*
X176809445Y-115404356D01*
X177457187Y-114349922D02*
X177424536Y-114505198D01*
X196212659Y-91940494D02*
X189473250Y-91940494D01*
X179149967Y-131288516D02*
X179244244Y-131382575D01*
X259480777Y-123335385D02*
X259141893Y-123475755D01*
X215253174Y-132295194D02*
X215095445Y-132312468D01*
X230607457Y-161663504D02*
X230638799Y-161587624D01*
X218097202Y-113924081D02*
X218067945Y-114080033D01*
X254392810Y-115083792D02*
X254398827Y-115114034D01*
X255894696Y-124305181D02*
X255880009Y-124375943D01*
X217964426Y-114379614D02*
X217891159Y-114520358D01*
X158487634Y-136235314D02*
X158352889Y-136319104D01*
X160412645Y-135119475D02*
X160252963Y-135207970D01*
X216968004Y-131924660D02*
X216823412Y-131836303D01*
X246031867Y-170948304D02*
X245875314Y-170974151D01*
X197625680Y-107830280D02*
X197564958Y-107976874D01*
X160742369Y-135229778D02*
X161088467Y-135285896D01*
X216756399Y-131611061D02*
X216799680Y-131693161D01*
X219649236Y-134605892D02*
X220062553Y-134945093D01*
X235145389Y-119289028D02*
X235266939Y-119187036D01*
X258066082Y-123689746D02*
X256600738Y-123689746D01*
X175881728Y-97682239D02*
X175929441Y-97530912D01*
X230597569Y-161152842D02*
X230560525Y-161096724D01*
X258431122Y-123653794D02*
X258066082Y-123689746D01*
X198285666Y-133356896D02*
X197806853Y-133261654D01*
X190404342Y-126616868D02*
X190315807Y-126559304D01*
X256051750Y-123982730D02*
X256010039Y-124041222D01*
X197738250Y-82260495D02*
X197738250Y-116260493D01*
X227516933Y-151989724D02*
X227372326Y-152466430D01*
X254295952Y-115311499D02*
X254279651Y-115341995D01*
X239316444Y-111008665D02*
X239164782Y-110907327D01*
X176080285Y-115697108D02*
X169366518Y-116284485D01*
X158210580Y-136389283D02*
X158062078Y-136445176D01*
X230626488Y-160958148D02*
X230597569Y-161152842D01*
X220062553Y-134945093D02*
X220507128Y-135242148D01*
X236346505Y-102639170D02*
X236200582Y-102701487D01*
X196668034Y-125817928D02*
X196516195Y-125863988D01*
X177314506Y-114802448D02*
X177238186Y-114941561D01*
X217202542Y-115158303D02*
X217056619Y-115220620D01*
X160192392Y-135731232D02*
X160268012Y-135437889D01*
X239023782Y-110791612D02*
X238894803Y-110662633D01*
X216601046Y-131757961D02*
X216467223Y-131745843D01*
X219506063Y-97287094D02*
X219446945Y-97434341D01*
X235457179Y-166554495D02*
X235714595Y-166765751D01*
X228966173Y-161946769D02*
X229124610Y-161955419D01*
X230050300Y-147763060D02*
X229905692Y-148239765D01*
X178973335Y-131059417D02*
X178958491Y-131212836D01*
X178544693Y-132087790D02*
X178431277Y-132198758D01*
X233109368Y-136581715D02*
X233260697Y-136534001D01*
X196360572Y-125894943D02*
X196516195Y-125863988D01*
X216406335Y-131696560D02*
X216382842Y-131631408D01*
X159184126Y-134879358D02*
X159178935Y-135037945D01*
X159689064Y-136504783D02*
X159563560Y-136036398D01*
X254245931Y-115451844D02*
X254253174Y-115415427D01*
X142254472Y-142334701D02*
X142305475Y-142184450D01*
X245246552Y-170922595D02*
X245401079Y-170958626D01*
X235991477Y-166950758D02*
X235714595Y-166765751D01*
X214936782Y-132314198D02*
X208223017Y-131726818D01*
X197422008Y-125258741D02*
X197510162Y-125126810D01*
X217472615Y-114992397D02*
X217341654Y-115081984D01*
X237737785Y-110183378D02*
X236481394Y-110183378D01*
X219373678Y-97575084D02*
X219446945Y-97434341D01*
X178761561Y-131855870D02*
X178648923Y-131963574D01*
X246031867Y-170948304D02*
X246185132Y-170907237D01*
X197189149Y-108483594D02*
X197066494Y-108584255D01*
X220507128Y-135242148D02*
X220978679Y-135494197D01*
X250680487Y-111787411D02*
X251152037Y-112039460D01*
X238098208Y-110236843D02*
X238272756Y-110289792D01*
X197691740Y-124688440D02*
X197645680Y-124840280D01*
X235377907Y-119073621D02*
X235266939Y-119187036D01*
X157061514Y-126698446D02*
X155203683Y-124840615D01*
X254398827Y-115114034D02*
X254398827Y-115144869D01*
X230203763Y-161547737D02*
X230269003Y-161486530D01*
X230753208Y-161822177D02*
X230676499Y-161683149D01*
X197738249Y-124374908D02*
X197722696Y-124532817D01*
X216684055Y-131778254D02*
X216601046Y-131757961D01*
X197702696Y-107522817D02*
X197671740Y-107678440D01*
X197701739Y-90718441D02*
X197655679Y-90870281D01*
X182404501Y-131462182D02*
X181872390Y-131514590D01*
X179578525Y-131514590D02*
X179418907Y-131538072D01*
X230839271Y-161936587D02*
X230688849Y-161836977D01*
X175314350Y-98430070D02*
X175181465Y-98516779D01*
X255973319Y-124102969D02*
X255941369Y-124168517D01*
X225844134Y-157831922D02*
X224641624Y-159034433D01*
X195674807Y-132122052D02*
X196052185Y-132431758D01*
X179065213Y-131259467D02*
X179100060Y-131221082D01*
X229884381Y-140710405D02*
X229679765Y-140216419D01*
X161088467Y-135285896D02*
X160686734Y-135403366D01*
X254263953Y-115379894D02*
X254253174Y-115415427D01*
X222508741Y-135958336D02*
X221984328Y-135854024D01*
X178973914Y-130923089D02*
X178267061Y-122843711D01*
X230688849Y-161836977D02*
X230753208Y-161822177D01*
X230638799Y-161587624D02*
X230676499Y-161683149D01*
X159005704Y-135644568D02*
X158926368Y-135781981D01*
X216654638Y-131326743D02*
X216617174Y-131121319D01*
X235769975Y-118220715D02*
X236477195Y-110137178D01*
X217056619Y-115220620D02*
X216905292Y-115268333D01*
X251596612Y-112336515D02*
X252009930Y-112675716D01*
X224984990Y-136167464D02*
X225496652Y-136322676D01*
X190332232Y-126853763D02*
X190438331Y-126803750D01*
X216406335Y-131696560D02*
X216467223Y-131745843D01*
X193864995Y-130312241D02*
X194239615Y-130686861D01*
X179326490Y-131435847D02*
X179261322Y-131461459D01*
X215975778Y-131986606D02*
X215844816Y-132076193D01*
X160252963Y-135207970D02*
X160132492Y-134977727D01*
X196370568Y-91924942D02*
X196212659Y-91940494D01*
X159706935Y-134651187D02*
X160132492Y-134977727D01*
X162888759Y-152583259D02*
X162754014Y-152667049D01*
X197645680Y-124840280D02*
X197584959Y-124986874D01*
X205630654Y-133375396D02*
X205332648Y-133404746D01*
X178973914Y-130923089D02*
X179029008Y-131085350D01*
X215844816Y-132076193D02*
X215705703Y-132152512D01*
X168120489Y-135181709D02*
X167771857Y-135251055D01*
X234729393Y-119517253D02*
X234578066Y-119564966D01*
X196954563Y-125682409D02*
X197086494Y-125594255D01*
X178973335Y-131059417D02*
X178973914Y-130923089D01*
X226906763Y-137076396D02*
X226462189Y-136779341D01*
X254363879Y-115029665D02*
X254381010Y-115055304D01*
X160686734Y-135403366D02*
X160742369Y-135229778D01*
X228655643Y-161883239D02*
X228809348Y-161922631D01*
X142367407Y-141714020D02*
X142357030Y-141555688D01*
X195309496Y-131756742D02*
X195674807Y-132122052D01*
X163559349Y-151543205D02*
X163580060Y-151385889D01*
X216372490Y-131757204D02*
X216239810Y-131797928D01*
X239477309Y-111094649D02*
X239645829Y-111164451D01*
X236049255Y-102749200D02*
X235893979Y-102781851D01*
X198285666Y-133356896D02*
X198771508Y-133404746D01*
X197564958Y-107976874D02*
X197490161Y-108116810D01*
X232637699Y-136633370D02*
X225923935Y-136045991D01*
X162463203Y-152793121D02*
X155953432Y-154537410D01*
X169672866Y-134351946D02*
X169398091Y-134577448D01*
X158874093Y-133463285D02*
X159175495Y-134005959D01*
X196360572Y-125894943D02*
X196202664Y-125910495D01*
X193501171Y-129948416D02*
X193864995Y-130312241D01*
X256460121Y-123710605D02*
X256529918Y-123696722D01*
X236849098Y-102257855D02*
X236948414Y-102134110D01*
X190417411Y-126435545D02*
X190488021Y-126265078D01*
X224641624Y-159034433D02*
X224479326Y-159167627D01*
X227320081Y-137415597D02*
X228791460Y-138886976D01*
X230593738Y-161340318D02*
X230602925Y-161428975D01*
X233109368Y-136581715D02*
X232954091Y-136614366D01*
X235563932Y-118816990D02*
X235477223Y-118949875D01*
X158926368Y-135781981D02*
X158833946Y-135910957D01*
X178648923Y-131963574D02*
X178755369Y-131789321D01*
X256326276Y-123758497D02*
X256263515Y-123792043D01*
X190372662Y-126019116D02*
X189354639Y-126440794D01*
X216617174Y-131121319D02*
X216571457Y-131070262D01*
X179261322Y-131461459D02*
X179239010Y-131529181D01*
X188522430Y-126960048D02*
X188985769Y-126771395D01*
X163585251Y-151227302D02*
X163580060Y-151385889D01*
X234095238Y-135833739D02*
X234168505Y-135692994D01*
X214936782Y-132314198D02*
X215095445Y-132312468D01*
X237963095Y-93248078D02*
X234999794Y-127118678D01*
X230412835Y-161326749D02*
X230468703Y-161249942D01*
X176535817Y-115564332D02*
X176676560Y-115491065D01*
X159158224Y-135195260D02*
X159178935Y-135037945D01*
X227942398Y-151090151D02*
X228219159Y-150675950D01*
X237035123Y-102001225D02*
X236948414Y-102134110D01*
X258431122Y-123653794D02*
X258790881Y-123582234D01*
X228791460Y-138886976D02*
X229130661Y-139300294D01*
X245246552Y-170922595D02*
X245096301Y-170871592D01*
X223724698Y-159524540D02*
X223518777Y-159565501D01*
X163327493Y-152129926D02*
X163235071Y-152258902D01*
X160268012Y-135437889D02*
X160404163Y-135551955D01*
X197219148Y-91523595D02*
X197331346Y-91411397D01*
X237241166Y-101404950D02*
X237948384Y-93321411D01*
X233909212Y-136090370D02*
X233798244Y-136203785D01*
X216736867Y-131681132D02*
X216686345Y-131725499D01*
X216571457Y-131070262D02*
X216600816Y-130913104D01*
X178999510Y-131261234D02*
X178942039Y-131302331D01*
X197718249Y-107364908D02*
X197702696Y-107522817D01*
X190450738Y-126059663D02*
X190484103Y-126143226D01*
X234106398Y-119616622D02*
X227392630Y-119029242D01*
X193501171Y-129948416D02*
X193137347Y-129584592D01*
X159510685Y-135839069D02*
X159664340Y-136003580D01*
X158833946Y-135910957D02*
X158729326Y-136030254D01*
X197594958Y-91016875D02*
X197520160Y-91156811D01*
X234095238Y-135833739D02*
X234008529Y-135966624D01*
X229203466Y-149553538D02*
X228887438Y-149938618D01*
X207232106Y-132617966D02*
X207000629Y-132807934D01*
X215408451Y-132262543D02*
X215559780Y-132214829D01*
X230468703Y-161249942D02*
X230484760Y-161319536D01*
X159800531Y-136920782D02*
X161461415Y-143119246D01*
X190484103Y-126143226D02*
X190555993Y-126173385D01*
X221472666Y-135698813D02*
X220978679Y-135494197D01*
X188522430Y-126960048D02*
X188199851Y-127173892D01*
X230203688Y-161701470D02*
X230249995Y-161646868D01*
X177476191Y-114033530D02*
X177474461Y-114192193D01*
X255941369Y-124168517D02*
X255915196Y-124235881D01*
X197718249Y-107364908D02*
X197718249Y-99250495D01*
X197402007Y-108248741D02*
X197490161Y-108116810D01*
X223925614Y-159463593D02*
X223724698Y-159524540D01*
X178942039Y-131302331D02*
X178958491Y-131212836D01*
X236592816Y-167235170D02*
X236911480Y-167331836D01*
X235477223Y-118949875D02*
X235377907Y-119073621D01*
X228809348Y-161922631D02*
X228966173Y-161946769D01*
X229283132Y-161948498D02*
X229124610Y-161955419D01*
X162611705Y-152737228D02*
X162754014Y-152667049D01*
X223309831Y-159586081D02*
X222319730Y-159586081D01*
X178877337Y-131523730D02*
X178942039Y-131302331D01*
X190555993Y-126173385D02*
X190488021Y-126265078D01*
X197219148Y-91523595D02*
X197096493Y-91624255D01*
X250680487Y-111787411D02*
X250186501Y-111582795D01*
X216608752Y-131345876D02*
X216550181Y-131320472D01*
X185264004Y-130109739D02*
X184850687Y-130448940D01*
X179261322Y-131461459D02*
X179244244Y-131382575D01*
X230546778Y-161706795D02*
X230538566Y-161763632D01*
X145087475Y-124840615D02*
X140212459Y-129715631D01*
X254245931Y-115451844D02*
X254242292Y-115488797D01*
X227226314Y-154495049D02*
X227174751Y-155018572D01*
X252009930Y-112675716D02*
X254363879Y-115029665D01*
X159314013Y-134596740D02*
X159467728Y-134589467D01*
X196340570Y-108884942D02*
X196182661Y-108900494D01*
X196954563Y-125682409D02*
X196814627Y-125757206D01*
X230039593Y-141222067D02*
X230143905Y-141746479D01*
X254381010Y-115203599D02*
X254392811Y-115175111D01*
X189202604Y-126517210D02*
X189354639Y-126440794D01*
X216484789Y-131338970D02*
X216383784Y-131533905D01*
X167771857Y-135251055D02*
X167418108Y-135285896D01*
X236738131Y-102371270D02*
X236616580Y-102473263D01*
X230542702Y-161354292D02*
X230593738Y-161340318D01*
X190998666Y-125910495D02*
X190735551Y-126027566D01*
X174893473Y-98649165D02*
X174741140Y-98693566D01*
X141670915Y-143069977D02*
X141536170Y-143153767D01*
X216686345Y-131725499D02*
X216684055Y-131778254D01*
X158487634Y-136235314D02*
X158613517Y-136138721D01*
X238098208Y-110236843D02*
X237919309Y-110201257D01*
X141393861Y-143223946D02*
X141245359Y-143279839D01*
X238753803Y-110546918D02*
X238894803Y-110662633D01*
X183440575Y-131202660D02*
X182928913Y-131357871D01*
X190494594Y-125983985D02*
X190450738Y-126059663D01*
X177238186Y-114941561D02*
X177148598Y-115072522D01*
X178958491Y-131212836D02*
X178999510Y-131261234D01*
X159664340Y-136003580D02*
X159563560Y-136036398D01*
X230560525Y-161096724D02*
X230626488Y-160958148D01*
X228535186Y-150290869D02*
X228887438Y-149938618D01*
X179418907Y-131538072D02*
X179454033Y-131489424D01*
X256600738Y-123689746D02*
X256529918Y-123696722D01*
X190494594Y-125983985D02*
X190765969Y-125932200D01*
X230688849Y-161836977D02*
X230538566Y-161763632D01*
X163549026Y-150912417D02*
X163574874Y-151068970D01*
X230448045Y-161733471D02*
X230546778Y-161706795D01*
X260392806Y-122725987D02*
X260109260Y-122958687D01*
X190417411Y-126435545D02*
X190404342Y-126616868D01*
X178033902Y-132458051D02*
X178174646Y-132384784D01*
X142341505Y-142029923D02*
X142305475Y-142184450D01*
X245401079Y-170958626D02*
X245558395Y-170979337D01*
X230546778Y-161706795D02*
X230607457Y-161663504D01*
X230560525Y-161096724D02*
X230468703Y-161249942D01*
X234301281Y-135237461D02*
X235008499Y-127153927D01*
X179454033Y-131489424D02*
X179326490Y-131435847D01*
X190765969Y-125932200D02*
X190998666Y-125910495D01*
X216383784Y-131533905D02*
X216382842Y-131631408D01*
X238753803Y-110546918D02*
X238602141Y-110445580D01*
X177376823Y-114656525D02*
X177424536Y-114505198D01*
X179029008Y-131085350D02*
X178973335Y-131059417D01*
X236616580Y-102473263D02*
X236485618Y-102562851D01*
X181872390Y-131514590D02*
X179578525Y-131514590D01*
X230196314Y-146778719D02*
X230147485Y-147274477D01*
X197321348Y-125381396D02*
X197209149Y-125493595D01*
X228655643Y-161883239D02*
X222322668Y-159578226D01*
X239645829Y-111164451D02*
X239820377Y-111217399D01*
X189138479Y-126646581D02*
X189150756Y-126738972D01*
X219550464Y-97134760D02*
X219506063Y-97287094D01*
X237238086Y-167396802D02*
X236911480Y-167331836D01*
X235577587Y-102800856D02*
X228863820Y-102213477D01*
X227275141Y-152955016D02*
X227372326Y-152466430D01*
X234008529Y-135966624D02*
X233909212Y-136090370D01*
X197422008Y-125258741D02*
X197321348Y-125381396D01*
X224460578Y-136063152D02*
X223928467Y-136010743D01*
X189942896Y-126738972D02*
X190162293Y-126661878D01*
X159550343Y-134495054D02*
X159706935Y-134651187D01*
X235577587Y-102800856D02*
X235736250Y-102799126D01*
X169102535Y-134774932D02*
X169398091Y-134577448D01*
X239023782Y-110791612D02*
X239164782Y-110907327D01*
X254363879Y-115229238D02*
X254337099Y-115256018D01*
X183440575Y-131202660D02*
X183934561Y-130998044D01*
X246852380Y-170492316D02*
X246736571Y-170600783D01*
X178909274Y-131742810D02*
X178923706Y-131670970D01*
X256149335Y-123876725D02*
X256098165Y-123927895D01*
X179149967Y-131288516D02*
X179065213Y-131259467D01*
X197066494Y-108584255D02*
X196934564Y-108672408D01*
X179264017Y-131576341D02*
X179176955Y-131607150D01*
X174741140Y-98693566D02*
X174585188Y-98722822D01*
X160132492Y-134977727D02*
X160412645Y-135119475D01*
X238441275Y-110359595D02*
X238272756Y-110289792D01*
X169672866Y-134351946D02*
X170858169Y-133166643D01*
X224984990Y-136167464D02*
X224460578Y-136063152D01*
X190372662Y-126019116D02*
X190494594Y-125983985D01*
X192773522Y-129220767D02*
X193137347Y-129584592D01*
X159158224Y-135195260D02*
X159122193Y-135349788D01*
X179176955Y-131607150D02*
X179239010Y-131529181D01*
X216571457Y-131070262D02*
X216518296Y-131253539D01*
X237167509Y-101713235D02*
X237211910Y-101560902D01*
X251152037Y-112039460D02*
X251596612Y-112336515D01*
X177734321Y-132561571D02*
X177578369Y-132590827D01*
X196678031Y-91847927D02*
X196824625Y-91787206D01*
X178923706Y-131670970D02*
X178985974Y-131695709D01*
X158062078Y-136445176D02*
X151552307Y-138189462D01*
X235736250Y-102799126D02*
X235893979Y-102781851D01*
X230147485Y-147274477D02*
X230050300Y-147763060D01*
X235991477Y-166950758D02*
X236285160Y-167107734D01*
X178307531Y-132298075D02*
X178431277Y-132198758D01*
X178307531Y-132298075D02*
X178174646Y-132384784D01*
X230203763Y-161547737D02*
X230060708Y-161660052D01*
X142109651Y-142616644D02*
X142017228Y-142745620D01*
X249674839Y-111427584D02*
X250186501Y-111582795D01*
X196340570Y-108884942D02*
X196496193Y-108853987D01*
X178985974Y-131695709D02*
X178909274Y-131742810D01*
X227226314Y-154495049D02*
X227226314Y-153450774D01*
X244951772Y-170806107D02*
X245096301Y-170871592D01*
X254392810Y-115083792D02*
X254381010Y-115055304D01*
X194952869Y-131400115D02*
X194596242Y-131043488D01*
X197432006Y-91288742D02*
X197520160Y-91156811D01*
X196648033Y-108807927D02*
X196794628Y-108747205D01*
X230203688Y-161701470D02*
X230043741Y-161720543D01*
X230542702Y-161354292D02*
X230484760Y-161319536D01*
X159793828Y-136068657D02*
X159664340Y-136003580D01*
X259141893Y-123475755D02*
X258790881Y-123582234D01*
X233676694Y-136305777D02*
X233798244Y-136203785D01*
X229884381Y-140710405D02*
X230039593Y-141222067D01*
X206751647Y-132974299D02*
X206487557Y-133115458D01*
X216968004Y-131924660D02*
X219649236Y-134605892D01*
X159175495Y-134005959D02*
X158996613Y-133920533D01*
X216372490Y-131757204D02*
X216406335Y-131696560D01*
X159792639Y-136599147D02*
X159800531Y-136920782D01*
X189354639Y-126440794D02*
X189186313Y-126586107D01*
X237569486Y-167429443D02*
X239139849Y-167429443D01*
X159793828Y-136068657D02*
X159956160Y-136039095D01*
X190315807Y-126559304D02*
X190417411Y-126435545D01*
X229480226Y-149139336D02*
X229203466Y-149553538D01*
X224304754Y-159284273D02*
X224119589Y-159383246D01*
X254398827Y-115144869D02*
X254392811Y-115175111D01*
X190488021Y-126265078D02*
X190484103Y-126143226D01*
X227275141Y-152955016D02*
X227226314Y-153450774D01*
X249150427Y-111323271D02*
X248618316Y-111270862D01*
X216905292Y-115268333D02*
X216750016Y-115300985D01*
X233406620Y-136471684D02*
X233260697Y-136534001D01*
X229440211Y-161926072D02*
X229283132Y-161948498D01*
X160192392Y-135731232D02*
X159956160Y-136039095D01*
X141796798Y-142973384D02*
X141670915Y-143069977D01*
X197691740Y-124688440D02*
X197722696Y-124532817D01*
X189138479Y-126646581D02*
X189186313Y-126586107D01*
X232637699Y-136633370D02*
X232796362Y-136631640D01*
X218955135Y-98047122D02*
X218824173Y-98136710D01*
X197584959Y-124986874D02*
X197510162Y-125126810D01*
X168460644Y-135078524D02*
X168120489Y-135181709D01*
X230196314Y-142278590D02*
X230196314Y-146778719D01*
X175040721Y-98590046D02*
X175181465Y-98516779D01*
X226718102Y-156523937D02*
X226470121Y-156987876D01*
X163130451Y-152378199D02*
X163014642Y-152486666D01*
X159207865Y-134708936D02*
X159510685Y-135839069D01*
X246333634Y-170851345D02*
X246185132Y-170907237D01*
X197732695Y-90562818D02*
X197701739Y-90718441D01*
X141536170Y-143153767D02*
X141393861Y-143223946D01*
X206210903Y-133230051D02*
X205924349Y-133316977D01*
X229427716Y-139744869D02*
X229679765Y-140216419D01*
X190998666Y-125910495D02*
X196202664Y-125910495D01*
X177376823Y-114656525D02*
X177314506Y-114802448D01*
X190162293Y-126661878D02*
X190142204Y-126777311D01*
X236285160Y-167107734D02*
X236592816Y-167235170D01*
X217472615Y-114992397D02*
X217594165Y-114890404D01*
X177476191Y-114033530D02*
X176768976Y-105949992D01*
X177046606Y-115194072D02*
X176933191Y-115305040D01*
X216600816Y-130913104D02*
X216617174Y-131121319D01*
X230297805Y-161703934D02*
X230203688Y-161701470D01*
X254295952Y-115311499D02*
X254315163Y-115282748D01*
X216882680Y-131819817D02*
X216799680Y-131693161D01*
X236849098Y-102257855D02*
X236738131Y-102371270D01*
X159871440Y-136228342D02*
X159793828Y-136068657D01*
X216239810Y-131797928D02*
X216128888Y-131858132D01*
X229427716Y-139744869D02*
X229130661Y-139300294D01*
X216823412Y-131836303D02*
X216684055Y-131778254D01*
X230043741Y-161720543D02*
X229908443Y-161759048D01*
X226177860Y-157425275D02*
X225844134Y-157831922D01*
X163585251Y-151227302D02*
X163574874Y-151068970D01*
X247049423Y-170244044D02*
X246957000Y-170373020D01*
X222508741Y-135958336D02*
X223040852Y-136010743D01*
X237241166Y-101404950D02*
X237211910Y-101560902D01*
X190450738Y-126059663D02*
X190372662Y-126019116D01*
X160404163Y-135551955D02*
X160686734Y-135403366D01*
X159792639Y-136599147D02*
X159871440Y-136228342D01*
X178761561Y-131855870D02*
X178909274Y-131742810D01*
X197738249Y-124374908D02*
X197738250Y-116260494D01*
X216882680Y-131819817D02*
X216968004Y-131924660D01*
X188651473Y-126847483D02*
X188522430Y-126960048D01*
X190527488Y-126974734D02*
X192773522Y-129220767D01*
X175743091Y-97967274D02*
X175819411Y-97828162D01*
X236346505Y-102639170D02*
X236485618Y-102562851D01*
X175981096Y-97059244D02*
X175979366Y-97217907D01*
X178923706Y-131670970D02*
X178893170Y-131616343D01*
X217916142Y-98374716D02*
X218074805Y-98372986D01*
X184850687Y-130448940D02*
X184406112Y-130745995D01*
X227942398Y-151090151D02*
X227707569Y-151529486D01*
X190404342Y-126616868D02*
X190438331Y-126803750D01*
X223040852Y-136010743D02*
X223928467Y-136010743D01*
X221472666Y-135698813D02*
X221984328Y-135854024D01*
X196678031Y-91847927D02*
X196526191Y-91893987D01*
X217705133Y-114776989D02*
X217594165Y-114890404D01*
X189150756Y-126738972D02*
X188985769Y-126771395D01*
X159956160Y-136039095D02*
X159871440Y-136228342D01*
X219187653Y-97831714D02*
X219076686Y-97945129D01*
X246610687Y-170697377D02*
X246475943Y-170781167D01*
X196648033Y-108807927D02*
X196496193Y-108853987D01*
X190555993Y-126173385D02*
X190735551Y-126027566D01*
X175962092Y-97375636D02*
X175979366Y-97217907D01*
X237919309Y-110201257D02*
X237737785Y-110183378D01*
X230143905Y-141746479D02*
X230196314Y-142278590D01*
X142254472Y-142334701D02*
X142188987Y-142479230D01*
X159173748Y-134721026D02*
X159184126Y-134879358D01*
X216601046Y-131757961D02*
X216686345Y-131725499D01*
X194952869Y-131400115D02*
X195309496Y-131756742D01*
X235637199Y-118676247D02*
X235563932Y-118816990D01*
X159147901Y-134564473D02*
X157047739Y-126726550D01*
X158352889Y-136319104D02*
X158210580Y-136389283D01*
X225990638Y-136527292D02*
X226462189Y-136779341D01*
X230269003Y-161486530D02*
X230412835Y-161326749D01*
X159147901Y-134564473D02*
X159173748Y-134721026D01*
X235145389Y-119289028D02*
X235014428Y-119378616D01*
X230626488Y-160958148D02*
X233399119Y-153340409D01*
X230753208Y-161822177D02*
X230839271Y-161936587D01*
X196458103Y-132702984D02*
X196888650Y-132933116D01*
X185264004Y-130109739D02*
X188199851Y-127173892D01*
X158996613Y-133920533D02*
X158874093Y-133463285D01*
X169102535Y-134774932D02*
X168789047Y-134942495D01*
X163559349Y-151543205D02*
X163523318Y-151697732D01*
X175297326Y-88961549D02*
X178260627Y-122832150D01*
X256326276Y-123758497D02*
X256392022Y-123731263D01*
X216600816Y-130913104D02*
X217307582Y-122834754D01*
X245558395Y-170979337D02*
X245716982Y-170984529D01*
X229715056Y-148700002D02*
X229480226Y-149139336D01*
X254381010Y-115203599D02*
X254363879Y-115229238D01*
X197594958Y-91016875D02*
X197655679Y-90870281D01*
X176809445Y-115404356D02*
X176676560Y-115491065D01*
X230676499Y-161683149D02*
X230607457Y-161663504D01*
X256204345Y-123831580D02*
X256263515Y-123792043D01*
X142331182Y-141399135D02*
X140231020Y-133561213D01*
X178033902Y-132458051D02*
X177886654Y-132517170D01*
X234875316Y-119454936D02*
X234729393Y-119517253D01*
X177578369Y-132590827D02*
X170864603Y-133178204D01*
X256204345Y-123831580D02*
X256149335Y-123876725D01*
X229715056Y-148700002D02*
X229905692Y-148239765D01*
X254242292Y-115488797D02*
X254242292Y-117659784D01*
X226906763Y-137076396D02*
X227320081Y-137415597D01*
X189186313Y-126586107D02*
X189202604Y-126517210D01*
X190142204Y-126777311D02*
X190332232Y-126853763D01*
X159147622Y-134484107D02*
X159314013Y-134596740D01*
X216237450Y-131738977D02*
X216239810Y-131797928D01*
X227072122Y-155534519D02*
X226919416Y-156037923D01*
X239316444Y-111008665D02*
X239477309Y-111094649D01*
X142362216Y-141872607D02*
X142341505Y-142029923D01*
X175962092Y-97375636D02*
X175929441Y-97530912D01*
X142367407Y-141714020D02*
X142362216Y-141872607D01*
X188199851Y-127173892D02*
X188651473Y-126847483D01*
X246333634Y-170851345D02*
X246475943Y-170781167D01*
X226718102Y-156523937D02*
X226919416Y-156037923D01*
X256098165Y-123927895D02*
X256051750Y-123982730D01*
X216484789Y-131338970D02*
X216518296Y-131253539D01*
X177886654Y-132517170D02*
X177734321Y-132561571D01*
X217891159Y-114520358D02*
X217804450Y-114653243D01*
X230060708Y-161660052D02*
X230043741Y-161720543D01*
X163130451Y-152378199D02*
X163235071Y-152258902D01*
X196888650Y-132933116D02*
X197339682Y-133119940D01*
X254279651Y-115341995D02*
X254263953Y-115379894D01*
X162888759Y-152583259D02*
X163014642Y-152486666D01*
X225496652Y-136322676D02*
X225990638Y-136527292D01*
X190438331Y-126803750D02*
X190527488Y-126974734D01*
X230484760Y-161319536D02*
X230412835Y-161326749D01*
X246852380Y-170492316D02*
X246957000Y-170373020D01*
X205924349Y-133316977D02*
X205630654Y-133375396D01*
X197671740Y-107678440D02*
X197625680Y-107830280D01*
X235014428Y-119378616D02*
X234875316Y-119454936D01*
X179244244Y-131382575D02*
X179326490Y-131435847D01*
X218387810Y-98323060D02*
X218539137Y-98275347D01*
X216823412Y-131836303D02*
X216882680Y-131819817D01*
X188651473Y-126847483D02*
X189202604Y-126517210D01*
X234106398Y-119616622D02*
X234265061Y-119614892D01*
X216608752Y-131345876D02*
X216654638Y-131326743D01*
X190142204Y-126777311D02*
X189942896Y-126738972D01*
X163549026Y-150912417D02*
X161448864Y-143074498D01*
X155203683Y-124840615D02*
X145087475Y-124840615D01*
X196964561Y-91712409D02*
X196824625Y-91787206D01*
X230839271Y-161936587D02*
X235457179Y-166554495D01*
X159563560Y-136036398D02*
X159510685Y-135839069D01*
X215975778Y-131986606D02*
X216128888Y-131858132D01*
X236200582Y-102701487D02*
X236049255Y-102749200D01*
X228535186Y-150290869D02*
X228219159Y-150675950D01*
X190527488Y-126974734D02*
X190332232Y-126853763D01*
X197096493Y-91624255D02*
X196964561Y-91712409D01*
X184406112Y-130745995D02*
X183934561Y-130998044D01*
X216433624Y-115319989D02*
X209719856Y-114732609D01*
X218685060Y-98213030D02*
X218539137Y-98275347D01*
X198771508Y-133404746D02*
X205332648Y-133404746D01*
X142331182Y-141399135D02*
X142357030Y-141555688D01*
X196458103Y-132702984D02*
X196052185Y-132431758D01*
X239999276Y-111252984D02*
X240180800Y-111270862D01*
X260109260Y-122958687D02*
X259804272Y-123162473D01*
X178846340Y-131603968D02*
X178877337Y-131523730D01*
X227174751Y-155018572D02*
X227072122Y-155534519D01*
X196526191Y-91893987D02*
X196370568Y-91924942D01*
X255894696Y-124305181D02*
X255915196Y-124235881D01*
X175881728Y-97682239D02*
X175819411Y-97828162D01*
X229744021Y-161835718D02*
X229594335Y-161888358D01*
X197339682Y-133119940D02*
X197806853Y-133261654D01*
X160268012Y-135437889D02*
X160252963Y-135207970D01*
X230297805Y-161703934D02*
X230448045Y-161733471D01*
X238441275Y-110359595D02*
X238602141Y-110445580D01*
X206487557Y-133115458D02*
X206210903Y-133230051D01*
X216756399Y-131611061D02*
X216678567Y-131410806D01*
X234301281Y-135237461D02*
X234272025Y-135393413D01*
X177148598Y-115072522D02*
X177046606Y-115194072D01*
X230538566Y-161763632D02*
X230448045Y-161733471D01*
X233545733Y-136395365D02*
X233406620Y-136471684D01*
X217202542Y-115158303D02*
X217341654Y-115081984D01*
X159147622Y-134484107D02*
X158996613Y-133920533D01*
X259804272Y-123162473D02*
X259480777Y-123335385D01*
X224479326Y-159167627D02*
X224304754Y-159284273D01*
X196182661Y-108900494D02*
X189443250Y-108900494D01*
X230602925Y-161428975D02*
X230542702Y-161354292D01*
X223925614Y-159463593D02*
X224119589Y-159383246D01*
X218685060Y-98213030D02*
X218824173Y-98136710D01*
X234422790Y-119597618D02*
X234265061Y-119614892D01*
X159071189Y-135500039D02*
X159122193Y-135349788D01*
X229744021Y-161835718D02*
X229908443Y-161759048D01*
X175040721Y-98590046D02*
X174893473Y-98649165D01*
X229908443Y-161759048D02*
X230060708Y-161660052D01*
X168460644Y-135078524D02*
X168789047Y-134942495D01*
X167418108Y-135285896D02*
X161088467Y-135285896D01*
X223518777Y-159565501D02*
X223309831Y-159586081D01*
X159800531Y-136920782D02*
X159689064Y-136504783D01*
X216335564Y-131610308D02*
X216237450Y-131738977D01*
X246610687Y-170697377D02*
X246736571Y-170600783D01*
X218067945Y-114080033D02*
X218023544Y-114232366D01*
X179418907Y-131538072D02*
X179264017Y-131576341D01*
X254337099Y-115256018D02*
X254315163Y-115282748D01*
X179100060Y-131221082D02*
X179029008Y-131085350D01*
%TO.N,P6*%
X147027250Y-135926164D02*
X147125645Y-135636302D01*
X146900918Y-136204986D02*
X146179158Y-137455113D01*
X147195155Y-135338193D02*
X147125645Y-135636302D01*
X147175242Y-134121293D02*
X147225105Y-134423311D01*
X147245125Y-134728763D02*
X147235109Y-135034705D01*
X147225105Y-134423311D02*
X147245125Y-134728763D01*
X147027250Y-135926164D02*
X146900918Y-136204986D01*
X147235109Y-135034705D02*
X147195155Y-135338193D01*
X147175242Y-134121293D02*
X145444369Y-127661585D01*
%TO.N,P5*%
X130084199Y-143039650D02*
X129362439Y-144289776D01*
X130428406Y-141563427D02*
X130418390Y-141869369D01*
X130358523Y-140955957D02*
X130408386Y-141257975D01*
X130378435Y-142172857D02*
X130418390Y-141869369D01*
X130378435Y-142172857D02*
X130308926Y-142470966D01*
X130210531Y-142760828D02*
X130084199Y-143039650D01*
X130358523Y-140955957D02*
X128627650Y-134496248D01*
X130308926Y-142470966D02*
X130210531Y-142760828D01*
X130428406Y-141563427D02*
X130408386Y-141257975D01*
%TO.N,P4*%
X166628480Y-130416171D02*
X165700602Y-131521973D01*
X167223801Y-129022146D02*
X167160811Y-129321701D01*
X167160811Y-129321701D02*
X167068763Y-129613641D01*
X167260466Y-128411770D02*
X167257126Y-128717858D01*
X166948543Y-129895152D02*
X166801310Y-130163523D01*
X167068763Y-129613641D02*
X166948543Y-129895152D01*
X167223801Y-129022146D02*
X167257126Y-128717858D01*
X166801310Y-130163523D02*
X166628480Y-130416171D01*
X167260466Y-128411770D02*
X166677606Y-121749636D01*
%TO.N,P3*%
X165725716Y-112128427D02*
X165759041Y-111824139D01*
X165570678Y-112719922D02*
X165450458Y-113001433D01*
X165303224Y-113269804D02*
X165450458Y-113001433D01*
X165725716Y-112128427D02*
X165662726Y-112427982D01*
X165303224Y-113269804D02*
X165130395Y-113522452D01*
X165662726Y-112427982D02*
X165570678Y-112719922D01*
X165762381Y-111518051D02*
X165179521Y-104855917D01*
X165130395Y-113522452D02*
X164202517Y-114628254D01*
X165762381Y-111518051D02*
X165759041Y-111824139D01*
%TO.N,P0*%
X163955362Y-96027147D02*
X163808129Y-96295518D01*
X164267285Y-94543765D02*
X163684425Y-87881631D01*
X164267285Y-94543765D02*
X164263945Y-94849853D01*
X163808129Y-96295518D02*
X163635299Y-96548166D01*
X164075582Y-95745636D02*
X163955362Y-96027147D01*
X164075582Y-95745636D02*
X164167631Y-95453696D01*
X163635299Y-96548166D02*
X162707421Y-97653968D01*
X164263945Y-94849853D02*
X164230621Y-95154141D01*
X164230621Y-95154141D02*
X164167631Y-95453696D01*
%TO.N,P1*%
X186278463Y-114173627D02*
X186272045Y-114158131D01*
X186286605Y-114206129D02*
X186283333Y-114189677D01*
X185483973Y-122789770D02*
X184463249Y-123810493D01*
X185678165Y-122553147D02*
X185848228Y-122298628D01*
X185678165Y-122553147D02*
X185483973Y-122789770D01*
X186244180Y-114116425D02*
X186254820Y-114129392D01*
X186288250Y-114222822D02*
X186288250Y-120848079D01*
X185992526Y-122028667D02*
X185848228Y-122298628D01*
X186258245Y-121152711D02*
X186198526Y-121452936D01*
X186286605Y-114206129D02*
X186288250Y-114222822D01*
X186264139Y-114143339D02*
X186272045Y-114158131D01*
X186198526Y-121452936D02*
X186109668Y-121745861D01*
X186288250Y-120848079D02*
X186258245Y-121152711D01*
X186244180Y-114116425D02*
X186188251Y-114060494D01*
X186278463Y-114173627D02*
X186283333Y-114189677D01*
X186254820Y-114129392D02*
X186264139Y-114143339D01*
X186109668Y-121745861D02*
X185992526Y-122028667D01*
%TO.N,P19*%
X186268249Y-103838079D02*
X186268251Y-97150495D01*
X185463973Y-105779771D02*
X184443250Y-106800494D01*
X185658165Y-105543148D02*
X185463973Y-105779771D01*
X186178526Y-104442936D02*
X186238245Y-104142711D01*
X186089668Y-104735861D02*
X185972526Y-105018668D01*
X185972526Y-105018668D02*
X185828228Y-105288629D01*
X186178526Y-104442936D02*
X186089668Y-104735861D01*
X185658165Y-105543148D02*
X185828228Y-105288629D01*
X186268249Y-103838079D02*
X186238245Y-104142711D01*
%TO.N,P18*%
X185688166Y-88583148D02*
X185493974Y-88819771D01*
X185688166Y-88583148D02*
X185858230Y-88328629D01*
X186298251Y-86878080D02*
X186298251Y-80190496D01*
X186208528Y-87482937D02*
X186268247Y-87182712D01*
X185493974Y-88819771D02*
X184473249Y-89840494D01*
X186119670Y-87775862D02*
X186002528Y-88058668D01*
X186298251Y-86878080D02*
X186268247Y-87182712D01*
X186002528Y-88058668D02*
X185858230Y-88328629D01*
X186208528Y-87482937D02*
X186119670Y-87775862D01*
%TO.N,P15*%
X205103824Y-127557270D02*
X205245169Y-127285749D01*
X205103824Y-127557270D02*
X204936548Y-127813628D01*
X205359219Y-127001683D02*
X205444877Y-126707805D01*
X204744949Y-128052355D02*
X204530873Y-128271153D01*
X205501318Y-126406947D02*
X205444877Y-126707805D01*
X204530873Y-128271153D02*
X203425072Y-129199031D01*
X205501318Y-126406947D02*
X206084181Y-119744813D01*
X204936548Y-127813628D02*
X204744949Y-128052355D01*
X205359219Y-127001683D02*
X205245169Y-127285749D01*
%TO.N,P14*%
X206941717Y-109713595D02*
X206856059Y-110007474D01*
X206998158Y-109412737D02*
X206941717Y-109713595D01*
X206600666Y-110563060D02*
X206433389Y-110819418D01*
X206027714Y-111276944D02*
X204921910Y-112204822D01*
X206241790Y-111058146D02*
X206027714Y-111276944D01*
X206600666Y-110563060D02*
X206742010Y-110291540D01*
X206433389Y-110819418D02*
X206241790Y-111058146D01*
X206856059Y-110007474D02*
X206742010Y-110291540D01*
X206998158Y-109412737D02*
X207581019Y-102750603D01*
%TO.N,P16*%
X208338578Y-93062202D02*
X208224528Y-93346268D01*
X207724308Y-94112874D02*
X207915907Y-93874146D01*
X208224528Y-93346268D02*
X208083184Y-93617788D01*
X208083184Y-93617788D02*
X207915907Y-93874146D01*
X208480677Y-92467465D02*
X209063539Y-85805331D01*
X208424236Y-92768323D02*
X208338578Y-93062202D01*
X207724308Y-94112874D02*
X207510231Y-94331672D01*
X207510231Y-94331672D02*
X206404429Y-95259550D01*
X208480677Y-92467465D02*
X208424236Y-92768323D01*
%TO.N,P10*%
X223145794Y-131026977D02*
X223060136Y-131320856D01*
X222804743Y-131876442D02*
X222946087Y-131604922D01*
X222804743Y-131876442D02*
X222637465Y-132132800D01*
X223202235Y-130726119D02*
X223785098Y-124063985D01*
X222231789Y-132590326D02*
X221125988Y-133518204D01*
X223060136Y-131320856D02*
X222946087Y-131604922D01*
X223202235Y-130726119D02*
X223145794Y-131026977D01*
X222445866Y-132371528D02*
X222231789Y-132590326D01*
X222637465Y-132132800D02*
X222445866Y-132371528D01*
%TO.N,P20*%
X224528833Y-114304107D02*
X224414784Y-114588173D01*
X223700488Y-115573577D02*
X222594684Y-116501456D01*
X224614491Y-114010228D02*
X224528833Y-114304107D01*
X224670932Y-113709370D02*
X225253792Y-107047236D01*
X223914564Y-115354779D02*
X224106163Y-115116051D01*
X224273440Y-114859693D02*
X224106163Y-115116051D01*
X224670932Y-113709370D02*
X224614491Y-114010228D01*
X223914564Y-115354779D02*
X223700488Y-115573577D01*
X224273440Y-114859693D02*
X224414784Y-114588173D01*
%TO.N,P21*%
X225171675Y-98757810D02*
X224065874Y-99685688D01*
X226142120Y-96893604D02*
X226085679Y-97194462D01*
X226085679Y-97194462D02*
X226000022Y-97488340D01*
X225744627Y-98043927D02*
X225577350Y-98300285D01*
X226142120Y-96893604D02*
X226724982Y-90231471D01*
X225885971Y-97772406D02*
X225744627Y-98043927D01*
X225385751Y-98539012D02*
X225171675Y-98757810D01*
X226000022Y-97488340D02*
X225885971Y-97772406D01*
X225385751Y-98539012D02*
X225577350Y-98300285D01*
%TO.N,P8*%
X220938209Y-154011193D02*
X220779410Y-154272887D01*
X219650724Y-155284710D02*
X218342448Y-155894770D01*
X219914135Y-155128774D02*
X219650724Y-155284710D01*
X220779410Y-154272887D02*
X220595724Y-154517756D01*
X221070594Y-153735193D02*
X220938209Y-154011193D01*
X220160993Y-154947770D02*
X219914135Y-155128774D01*
X221070594Y-153735193D02*
X223357882Y-147450925D01*
X220388921Y-154743442D02*
X220160993Y-154947770D01*
X220388921Y-154743442D02*
X220595724Y-154517756D01*
%TO.N,P9*%
X238050452Y-162339278D02*
X238293303Y-162152932D01*
X238896849Y-161464719D02*
X242240641Y-155673106D01*
X237229480Y-162744136D02*
X235835145Y-163117749D01*
X238516719Y-161943680D02*
X238718549Y-161713537D01*
X238050452Y-162339278D02*
X237790506Y-162500922D01*
X237790506Y-162500922D02*
X237515967Y-162636310D01*
X237515967Y-162636310D02*
X237229480Y-162744136D01*
X238516719Y-161943680D02*
X238293303Y-162152932D01*
X238896849Y-161464719D02*
X238718549Y-161713537D01*
%TO.N,VCC*%
X260971613Y-114294408D02*
X261002065Y-114141314D01*
X255660167Y-122517195D02*
X255466793Y-122437097D01*
X254144074Y-121460345D02*
X254123049Y-121462391D01*
X255660167Y-122517195D02*
X255860460Y-122577953D01*
X245574824Y-121339013D02*
X245050411Y-121234701D01*
X253938505Y-121406063D02*
X253827566Y-121391420D01*
X261682493Y-113158848D02*
X261774158Y-113097600D01*
X253992384Y-121419800D02*
X253938505Y-121406063D01*
X254393264Y-121562347D02*
X254344295Y-121534070D01*
X261682493Y-113158848D02*
X261597274Y-113228786D01*
X254150433Y-121461914D02*
X254174647Y-121467523D01*
X261316212Y-118151123D02*
X261298827Y-118375354D01*
X254508439Y-121685832D02*
X254488011Y-121672733D01*
X254485241Y-121628231D02*
X254475217Y-121618207D01*
X254174647Y-121467523D02*
X253992384Y-121419800D01*
X260965129Y-119201711D02*
X258866235Y-121743711D01*
X261268502Y-117704702D02*
X261306053Y-117926449D01*
X261045768Y-116780008D02*
X261009120Y-116529316D01*
X254537366Y-121680356D02*
X254554668Y-121697657D01*
X244044762Y-120874874D02*
X244538749Y-121079490D01*
X254488011Y-121672733D02*
X254123049Y-121462391D01*
X254174647Y-121467523D02*
X254222431Y-121483591D01*
X254393264Y-121562347D02*
X254484174Y-121632091D01*
X254495290Y-121638280D02*
X254485241Y-121628231D01*
X254416385Y-121575555D02*
X254453300Y-121600220D01*
X261180690Y-113710073D02*
X261267411Y-113580286D01*
X254488011Y-121672733D02*
X254518260Y-121683016D01*
X257271058Y-122605513D02*
X256965331Y-122639301D01*
X254647653Y-121790642D02*
X254924601Y-122067588D01*
X261871384Y-113045632D02*
X261973235Y-113003444D01*
X257862193Y-122438608D02*
X258140447Y-122307511D01*
X261254158Y-118595777D02*
X261182875Y-118809085D01*
X261107109Y-113847733D02*
X261047376Y-113991944D01*
X258402615Y-122146642D02*
X258645524Y-121957947D01*
X254076725Y-121443191D02*
X253938505Y-121406063D01*
X261180690Y-113710073D02*
X261107109Y-113847733D01*
X254508439Y-121685832D02*
X254584009Y-121739525D01*
X257571223Y-122538344D02*
X257271058Y-122605513D01*
X243573211Y-120622825D02*
X243128637Y-120325770D01*
X254144074Y-121460345D02*
X254150433Y-121461914D01*
X254606941Y-121749931D02*
X254647653Y-121790642D01*
X258402615Y-122146642D02*
X258140447Y-122307511D01*
X254123049Y-121462391D02*
X254076725Y-121443191D01*
X255860460Y-122577953D02*
X256065745Y-122618786D01*
X257862193Y-122438608D02*
X257571223Y-122538344D01*
X244538749Y-121079490D02*
X245050411Y-121234701D01*
X254495290Y-121638280D02*
X254515398Y-121658388D01*
X253827566Y-121391420D02*
X253992384Y-121419800D01*
X254475217Y-121618207D02*
X254453300Y-121600220D01*
X242715319Y-119986569D02*
X239060284Y-116331531D01*
X254584009Y-121739525D02*
X254606941Y-121749931D01*
X254518260Y-121683016D02*
X254527479Y-121684982D01*
X260956314Y-115803026D02*
X260956314Y-114449748D01*
X254647653Y-121790642D02*
X254584009Y-121739525D01*
X261871384Y-113045632D02*
X261774158Y-113097600D01*
X261198545Y-117470542D02*
X261268502Y-117704702D01*
X254416385Y-121575555D02*
X254393264Y-121562347D01*
X242715319Y-119986569D02*
X243128637Y-120325770D01*
X262078730Y-112971442D02*
X261973235Y-113003444D01*
X256274044Y-122639301D02*
X256965331Y-122639301D01*
X245574824Y-121339013D02*
X246106935Y-121391420D01*
X254946373Y-122089363D02*
X255108170Y-122222146D01*
X254475217Y-121618207D02*
X254946373Y-122089363D01*
X261366434Y-113459626D02*
X261267411Y-113580286D01*
X254076725Y-121443191D02*
X254144074Y-121460345D01*
X255282202Y-122338431D02*
X255108170Y-122222146D01*
X261086048Y-119012079D02*
X261182875Y-118809085D01*
X261316212Y-118151123D02*
X261306053Y-117926449D01*
X261045768Y-116780008D02*
X261088327Y-117011984D01*
X260982734Y-116287911D02*
X261009120Y-116529316D01*
X254606941Y-121749931D02*
X254554668Y-121697657D01*
X256065745Y-122618786D02*
X256274044Y-122639301D01*
X254222431Y-121483591D02*
X254150433Y-121461914D01*
X243573211Y-120622825D02*
X244044762Y-120874874D01*
X262296569Y-112939127D02*
X262816451Y-112939127D01*
X254344295Y-121534070D02*
X254416385Y-121575555D01*
X254515398Y-121658388D02*
X254537366Y-121680356D01*
X261088327Y-117011984D02*
X261139276Y-117242263D01*
X258866235Y-121743711D02*
X258645524Y-121957947D01*
X262186856Y-112949934D02*
X262078730Y-112971442D01*
X260982734Y-116287911D02*
X260965124Y-116045709D01*
X260956314Y-115803026D02*
X260965124Y-116045709D01*
X261597274Y-113228786D02*
X261366434Y-113459626D01*
X254515398Y-121658388D02*
X254484174Y-121632091D01*
X254518260Y-121683016D02*
X254508439Y-121685832D01*
X261086048Y-119012079D02*
X260965129Y-119201711D01*
X260971613Y-114294408D02*
X260956314Y-114449748D01*
X254453300Y-121600220D02*
X254485241Y-121628231D01*
X254554668Y-121697657D02*
X254527479Y-121684982D01*
X261047376Y-113991944D02*
X261002065Y-114141314D01*
X262296569Y-112939127D02*
X262186856Y-112949934D01*
X254527479Y-121684982D02*
X254537366Y-121680356D01*
X255282202Y-122338431D02*
X255466793Y-122437097D01*
X254344295Y-121534070D02*
X254222431Y-121483591D01*
X254484174Y-121632091D02*
X254495290Y-121638280D01*
X246106935Y-121391420D02*
X253827566Y-121391420D01*
X261298827Y-118375354D02*
X261254158Y-118595777D01*
X261139276Y-117242263D02*
X261198545Y-117470542D01*
%TO.N,P2*%
X257804243Y-116395091D02*
X257750690Y-116460345D01*
X257890935Y-116250454D02*
X257851142Y-116324902D01*
X257750690Y-116460345D02*
X254020916Y-120190119D01*
X257947744Y-116091683D02*
X257964213Y-116008890D01*
X257923239Y-116172464D02*
X257890935Y-116250454D01*
X257972488Y-115924880D02*
X257972488Y-115526795D01*
X257947744Y-116091683D02*
X257923239Y-116172464D01*
X257804243Y-116395091D02*
X257851142Y-116324902D01*
X257972488Y-115924880D02*
X257964213Y-116008890D01*
%TD*%
%TA.AperFunction,Conductor*%
%TO.N,P2*%
G36*
X258020369Y-115139694D02*
G01*
X258021693Y-115141636D01*
X258533880Y-116084577D01*
X258534818Y-116093483D01*
X258531641Y-116098660D01*
X258411967Y-116211901D01*
X258411438Y-116212372D01*
X258298234Y-116307205D01*
X258297681Y-116307640D01*
X258193555Y-116384705D01*
X258193087Y-116385034D01*
X258094285Y-116450936D01*
X258094035Y-116451099D01*
X258007810Y-116505493D01*
X257996783Y-116512449D01*
X257897624Y-116575667D01*
X257793032Y-116647233D01*
X257679375Y-116733692D01*
X257679251Y-116733798D01*
X257601551Y-116800149D01*
X257553021Y-116841590D01*
X257428035Y-116960620D01*
X257418607Y-116969598D01*
X257410252Y-116972822D01*
X257402265Y-116969398D01*
X257241289Y-116808422D01*
X257237862Y-116800149D01*
X257240743Y-116792460D01*
X257291887Y-116733798D01*
X257323424Y-116697624D01*
X257382708Y-116600060D01*
X257415275Y-116506164D01*
X257424988Y-116414101D01*
X257415709Y-116322032D01*
X257391300Y-116228120D01*
X257355623Y-116130527D01*
X257312540Y-116027415D01*
X257265979Y-115917102D01*
X257265847Y-115916775D01*
X257222623Y-115805084D01*
X257222833Y-115796131D01*
X257226007Y-115791904D01*
X258003885Y-115138264D01*
X258012424Y-115135565D01*
X258020369Y-115139694D01*
G37*
%TD.AperFunction*%
%TD*%
%TA.AperFunction,Conductor*%
%TO.N,P2*%
G36*
X255175202Y-118874766D02*
G01*
X255336269Y-119035833D01*
X255339696Y-119044106D01*
X255336686Y-119051939D01*
X255205842Y-119197096D01*
X255107730Y-119338038D01*
X255042117Y-119470353D01*
X255001336Y-119597884D01*
X254977719Y-119724472D01*
X254977697Y-119724678D01*
X254963596Y-119853957D01*
X254951316Y-119989992D01*
X254951275Y-119990375D01*
X254933211Y-120136577D01*
X254933080Y-120137396D01*
X254901615Y-120297681D01*
X254901358Y-120298731D01*
X254851104Y-120469473D01*
X254845481Y-120476441D01*
X254840111Y-120477867D01*
X254092330Y-120492485D01*
X253723263Y-120499699D01*
X253714924Y-120496434D01*
X253711336Y-120487772D01*
X253728725Y-119598237D01*
X253733168Y-119370925D01*
X253736756Y-119362722D01*
X253741562Y-119359931D01*
X253912304Y-119309677D01*
X253913354Y-119309420D01*
X253965963Y-119299092D01*
X254073652Y-119277953D01*
X254074445Y-119277826D01*
X254184410Y-119264239D01*
X254220660Y-119259760D01*
X254221043Y-119259719D01*
X254357078Y-119247439D01*
X254486563Y-119233316D01*
X254486759Y-119233279D01*
X254486762Y-119233279D01*
X254612798Y-119209765D01*
X254612800Y-119209764D01*
X254613151Y-119209699D01*
X254740682Y-119168918D01*
X254872997Y-119103305D01*
X255013939Y-119005193D01*
X255159096Y-118874349D01*
X255167535Y-118871355D01*
X255175202Y-118874766D01*
G37*
%TD.AperFunction*%
%TD*%
%TA.AperFunction,Conductor*%
%TO.N,VCC*%
G36*
X262258589Y-112378025D02*
G01*
X263203113Y-112931314D01*
X263208519Y-112938452D01*
X263207294Y-112947323D01*
X263205309Y-112949842D01*
X262473848Y-113653253D01*
X262465509Y-113656518D01*
X262460255Y-113655156D01*
X262355893Y-113599791D01*
X262355372Y-113599497D01*
X262251355Y-113537301D01*
X262251217Y-113537217D01*
X262153216Y-113476772D01*
X262153212Y-113476770D01*
X262153104Y-113476703D01*
X262059429Y-113422698D01*
X261968647Y-113379989D01*
X261968228Y-113379864D01*
X261879757Y-113353496D01*
X261879752Y-113353495D01*
X261879131Y-113353310D01*
X261878480Y-113353267D01*
X261878479Y-113353267D01*
X261790064Y-113347451D01*
X261790063Y-113347451D01*
X261789256Y-113347398D01*
X261697396Y-113366988D01*
X261601926Y-113416816D01*
X261509433Y-113494700D01*
X261500899Y-113497407D01*
X261493625Y-113494023D01*
X261332694Y-113333092D01*
X261329267Y-113324819D01*
X261332671Y-113316568D01*
X261453288Y-113195294D01*
X261561330Y-113085346D01*
X261653352Y-112990516D01*
X261734137Y-112906320D01*
X261734171Y-112906284D01*
X261734201Y-112906253D01*
X261808470Y-112828276D01*
X261881133Y-112751902D01*
X261881142Y-112751911D01*
X261881155Y-112751879D01*
X261956911Y-112672714D01*
X262040586Y-112586230D01*
X262136943Y-112487967D01*
X262244376Y-112379872D01*
X262252639Y-112376420D01*
X262258589Y-112378025D01*
G37*
%TD.AperFunction*%
%TD*%
%TA.AperFunction,Conductor*%
%TO.N,VCC*%
G36*
X239119767Y-116028932D02*
G01*
X239879479Y-116043783D01*
X239887682Y-116047371D01*
X239890472Y-116052176D01*
X239940726Y-116222918D01*
X239940983Y-116223967D01*
X239972448Y-116384255D01*
X239972579Y-116385074D01*
X239990643Y-116531276D01*
X239990684Y-116531659D01*
X240002964Y-116667694D01*
X240017087Y-116797179D01*
X240040704Y-116923767D01*
X240081485Y-117051298D01*
X240147098Y-117183613D01*
X240245210Y-117324555D01*
X240245454Y-117324825D01*
X240245455Y-117324827D01*
X240376054Y-117469710D01*
X240379048Y-117478150D01*
X240375637Y-117485817D01*
X240214571Y-117646883D01*
X240206298Y-117650310D01*
X240198464Y-117647301D01*
X240053572Y-117516697D01*
X240053307Y-117516458D01*
X239912365Y-117418346D01*
X239780050Y-117352733D01*
X239652519Y-117311952D01*
X239652168Y-117311887D01*
X239652166Y-117311886D01*
X239526130Y-117288372D01*
X239526127Y-117288372D01*
X239525931Y-117288335D01*
X239396446Y-117274212D01*
X239260411Y-117261932D01*
X239260028Y-117261891D01*
X239223778Y-117257412D01*
X239113813Y-117243825D01*
X239113020Y-117243698D01*
X239005331Y-117222559D01*
X238952722Y-117212231D01*
X238951672Y-117211974D01*
X238780930Y-117161719D01*
X238773962Y-117156096D01*
X238772536Y-117150724D01*
X238770593Y-117051298D01*
X238754420Y-116223967D01*
X238750704Y-116033878D01*
X238753969Y-116025539D01*
X238762631Y-116021951D01*
X239119767Y-116028932D01*
G37*
%TD.AperFunction*%
%TD*%
%TA.AperFunction,Conductor*%
%TO.N,P9*%
G36*
X236260283Y-162164447D02*
G01*
X236261393Y-162164780D01*
X236439205Y-162227917D01*
X236440041Y-162228252D01*
X236595630Y-162297567D01*
X236596035Y-162297756D01*
X236737897Y-162367635D01*
X236798634Y-162396431D01*
X236873913Y-162432121D01*
X236873925Y-162432126D01*
X236874104Y-162432211D01*
X237012821Y-162485636D01*
X237162396Y-162522151D01*
X237162851Y-162522188D01*
X237162855Y-162522189D01*
X237330724Y-162535959D01*
X237330727Y-162535959D01*
X237331178Y-162535996D01*
X237527516Y-162521413D01*
X237748919Y-162474918D01*
X237757720Y-162476571D01*
X237762624Y-162483339D01*
X237773024Y-162522151D01*
X237821596Y-162703424D01*
X237820427Y-162712302D01*
X237813938Y-162717571D01*
X237598894Y-162788022D01*
X237421518Y-162873573D01*
X237421147Y-162873829D01*
X237421143Y-162873832D01*
X237282604Y-162969699D01*
X237282601Y-162969701D01*
X237282223Y-162969963D01*
X237170895Y-163076374D01*
X237077420Y-163191992D01*
X236991685Y-163316002D01*
X236991643Y-163316064D01*
X236991636Y-163316075D01*
X236903702Y-163447402D01*
X236903443Y-163447773D01*
X236803248Y-163585570D01*
X236802683Y-163586286D01*
X236680168Y-163729781D01*
X236679366Y-163730631D01*
X236606833Y-163800148D01*
X236530092Y-163873698D01*
X236521749Y-163876948D01*
X236516343Y-163875494D01*
X235379635Y-163247970D01*
X235374049Y-163240971D01*
X235375276Y-163231676D01*
X235533407Y-162969963D01*
X235826126Y-162485499D01*
X236046746Y-162120363D01*
X236053957Y-162115055D01*
X236059556Y-162115053D01*
X236260283Y-162164447D01*
G37*
%TD.AperFunction*%
%TD*%
%TA.AperFunction,Conductor*%
%TO.N,P8*%
G36*
X218523047Y-154896950D02*
G01*
X218567360Y-154899561D01*
X218568482Y-154899682D01*
X218715776Y-154922753D01*
X218758001Y-154929366D01*
X218758856Y-154929533D01*
X218783488Y-154935312D01*
X218927264Y-154969046D01*
X218927679Y-154969152D01*
X219074883Y-155009428D01*
X219082326Y-155011464D01*
X219082349Y-155011470D01*
X219082379Y-155011478D01*
X219191550Y-155039490D01*
X219230389Y-155049456D01*
X219230596Y-155049493D01*
X219230601Y-155049494D01*
X219378625Y-155075902D01*
X219378631Y-155075903D01*
X219378997Y-155075968D01*
X219535494Y-155083903D01*
X219535938Y-155083857D01*
X219535942Y-155083857D01*
X219706793Y-155066206D01*
X219706792Y-155066206D01*
X219707229Y-155066161D01*
X219707644Y-155066053D01*
X219707650Y-155066052D01*
X219832135Y-155033691D01*
X219901548Y-155015646D01*
X219901883Y-155015511D01*
X219901886Y-155015510D01*
X220016899Y-154969152D01*
X220115511Y-154929405D01*
X220124464Y-154929491D01*
X220130488Y-154935312D01*
X220226767Y-155141782D01*
X220227157Y-155150729D01*
X220221666Y-155157052D01*
X220109522Y-155216827D01*
X220018893Y-155265134D01*
X219856036Y-155381201D01*
X219855721Y-155381508D01*
X219855718Y-155381510D01*
X219733107Y-155500808D01*
X219733103Y-155500813D01*
X219732786Y-155501121D01*
X219639050Y-155625981D01*
X219564729Y-155756864D01*
X219499729Y-155894856D01*
X219499701Y-155894918D01*
X219499691Y-155894940D01*
X219434036Y-156040860D01*
X219433860Y-156041233D01*
X219357498Y-156196123D01*
X219357087Y-156196884D01*
X219259982Y-156361854D01*
X219259368Y-156362792D01*
X219136066Y-156532671D01*
X219128433Y-156537353D01*
X219122875Y-156536890D01*
X217891889Y-156123845D01*
X217885136Y-156117965D01*
X217884673Y-156108600D01*
X217910390Y-156040860D01*
X218251711Y-155141782D01*
X218345512Y-154894699D01*
X218351652Y-154888181D01*
X218357136Y-154887172D01*
X218523047Y-154896950D01*
G37*
%TD.AperFunction*%
%TD*%
%TA.AperFunction,Conductor*%
%TO.N,P21*%
G36*
X225544633Y-98296110D02*
G01*
X225691114Y-98470679D01*
X225693806Y-98479220D01*
X225690159Y-98486730D01*
X225525267Y-98641523D01*
X225401061Y-98794218D01*
X225315805Y-98940622D01*
X225259696Y-99084114D01*
X225222929Y-99228072D01*
X225222893Y-99228268D01*
X225195700Y-99375875D01*
X225195691Y-99375925D01*
X225168256Y-99530627D01*
X225168146Y-99531172D01*
X225130756Y-99696036D01*
X225130490Y-99697012D01*
X225073398Y-99875553D01*
X225072954Y-99876721D01*
X224989589Y-100065223D01*
X224983109Y-100071403D01*
X224977526Y-100072111D01*
X224335069Y-99996744D01*
X223687974Y-99920832D01*
X223680157Y-99916466D01*
X223677780Y-99907397D01*
X223852766Y-98793859D01*
X223879344Y-98624729D01*
X223884013Y-98617088D01*
X223889206Y-98614969D01*
X224087307Y-98585982D01*
X224088462Y-98585873D01*
X224272151Y-98577647D01*
X224273040Y-98577641D01*
X224439595Y-98582916D01*
X224440006Y-98582936D01*
X224594492Y-98593306D01*
X224657526Y-98596302D01*
X224741360Y-98600288D01*
X224741372Y-98600288D01*
X224741602Y-98600299D01*
X224741841Y-98600291D01*
X224741851Y-98600291D01*
X224811405Y-98597944D01*
X224886113Y-98595423D01*
X224886500Y-98595356D01*
X224886505Y-98595356D01*
X224989735Y-98577627D01*
X225032993Y-98570198D01*
X225187210Y-98516146D01*
X225353732Y-98424788D01*
X225445920Y-98356001D01*
X225528673Y-98294254D01*
X225537353Y-98292053D01*
X225544633Y-98296110D01*
G37*
%TD.AperFunction*%
%TD*%
%TA.AperFunction,Conductor*%
%TO.N,P20*%
G36*
X224058155Y-115124773D02*
G01*
X224204591Y-115299289D01*
X224207283Y-115307830D01*
X224203620Y-115315354D01*
X224151886Y-115363744D01*
X224046875Y-115461966D01*
X224037538Y-115470699D01*
X223911915Y-115623651D01*
X223825564Y-115770305D01*
X223769201Y-115914325D01*
X223733540Y-116059379D01*
X223709297Y-116209132D01*
X223709284Y-116209225D01*
X223687216Y-116367049D01*
X223687160Y-116367412D01*
X223657999Y-116536990D01*
X223657830Y-116537800D01*
X223612365Y-116722714D01*
X223612053Y-116723766D01*
X223543644Y-116920343D01*
X223537688Y-116927031D01*
X223532240Y-116928193D01*
X222234395Y-116888902D01*
X222226229Y-116885226D01*
X222223077Y-116876396D01*
X222233680Y-116723766D01*
X222313062Y-115581087D01*
X222317054Y-115573072D01*
X222322018Y-115570519D01*
X222528747Y-115521179D01*
X222529875Y-115520967D01*
X222637424Y-115506233D01*
X222721119Y-115494768D01*
X222722023Y-115494680D01*
X222776375Y-115491514D01*
X222895458Y-115484578D01*
X222895929Y-115484560D01*
X223056989Y-115481679D01*
X223210730Y-115477114D01*
X223291775Y-115468990D01*
X223361852Y-115461966D01*
X223361855Y-115461965D01*
X223362199Y-115461931D01*
X223516680Y-115427193D01*
X223679455Y-115363962D01*
X223855807Y-115263300D01*
X223856100Y-115263079D01*
X223856105Y-115263076D01*
X224039730Y-115124773D01*
X224042154Y-115122948D01*
X224050823Y-115120708D01*
X224058155Y-115124773D01*
G37*
%TD.AperFunction*%
%TD*%
%TA.AperFunction,Conductor*%
%TO.N,P10*%
G36*
X222604763Y-132128646D02*
G01*
X222751214Y-132303180D01*
X222753906Y-132311721D01*
X222750243Y-132319246D01*
X222582185Y-132476413D01*
X222454855Y-132630987D01*
X222366651Y-132778956D01*
X222307877Y-132923882D01*
X222268834Y-133069325D01*
X222239825Y-133218846D01*
X222239815Y-133218902D01*
X222211194Y-133375775D01*
X222211096Y-133376253D01*
X222173224Y-133543895D01*
X222172982Y-133544800D01*
X222116198Y-133726925D01*
X222115791Y-133728029D01*
X222033550Y-133921001D01*
X222027154Y-133927268D01*
X222021615Y-133928055D01*
X220729745Y-133797781D01*
X220721859Y-133793541D01*
X220719334Y-133784512D01*
X220899999Y-132498716D01*
X220904543Y-132491000D01*
X220909678Y-132488800D01*
X221112815Y-132455247D01*
X221113939Y-132455117D01*
X221301954Y-132442500D01*
X221302814Y-132442474D01*
X221473198Y-132443599D01*
X221473594Y-132443609D01*
X221540522Y-132446315D01*
X221631488Y-132449994D01*
X221631531Y-132449995D01*
X221631534Y-132449995D01*
X221651055Y-132450399D01*
X221781863Y-132453103D01*
X221782080Y-132453090D01*
X221782091Y-132453090D01*
X221929254Y-132444402D01*
X221929255Y-132444402D01*
X221929643Y-132444379D01*
X222079968Y-132415271D01*
X222080401Y-132415112D01*
X222237553Y-132357390D01*
X222237558Y-132357388D01*
X222237982Y-132357232D01*
X222238376Y-132357012D01*
X222238384Y-132357008D01*
X222408482Y-132261905D01*
X222408483Y-132261904D01*
X222408827Y-132261712D01*
X222588783Y-132126805D01*
X222597457Y-132124585D01*
X222604763Y-132128646D01*
G37*
%TD.AperFunction*%
%TD*%
%TA.AperFunction,Conductor*%
%TO.N,P16*%
G36*
X207883203Y-93869991D02*
G01*
X207994753Y-94002930D01*
X208029656Y-94044526D01*
X208032348Y-94053067D01*
X208028685Y-94060592D01*
X207896181Y-94184528D01*
X207860705Y-94217710D01*
X207860463Y-94218004D01*
X207860462Y-94218005D01*
X207733737Y-94371908D01*
X207733733Y-94371913D01*
X207733456Y-94372250D01*
X207645322Y-94520192D01*
X207586592Y-94665083D01*
X207586504Y-94665413D01*
X207586501Y-94665420D01*
X207547601Y-94810289D01*
X207547551Y-94810476D01*
X207547516Y-94810658D01*
X207547514Y-94810665D01*
X207518488Y-94959918D01*
X207518484Y-94959942D01*
X207489736Y-95116710D01*
X207489637Y-95117194D01*
X207451549Y-95284697D01*
X207451303Y-95285607D01*
X207394218Y-95467481D01*
X207393808Y-95468589D01*
X207311156Y-95661280D01*
X207304745Y-95667533D01*
X207299200Y-95668306D01*
X206007664Y-95534815D01*
X205999787Y-95530556D01*
X205997285Y-95521520D01*
X206040737Y-95217765D01*
X206181152Y-94236177D01*
X206185716Y-94228474D01*
X206190857Y-94226287D01*
X206393670Y-94193324D01*
X206394795Y-94193196D01*
X206399406Y-94192899D01*
X206582560Y-94181103D01*
X206583416Y-94181080D01*
X206753523Y-94182659D01*
X206753907Y-94182669D01*
X206778950Y-94183746D01*
X206911550Y-94189449D01*
X206911584Y-94189450D01*
X206911607Y-94189451D01*
X206922274Y-94189697D01*
X207061532Y-94192907D01*
X207061537Y-94192907D01*
X207061757Y-94192912D01*
X207209305Y-94184506D01*
X207209684Y-94184433D01*
X207209686Y-94184433D01*
X207293084Y-94168425D01*
X207359381Y-94155699D01*
X207359815Y-94155540D01*
X207359819Y-94155539D01*
X207516682Y-94098113D01*
X207516687Y-94098111D01*
X207517115Y-94097954D01*
X207687640Y-94002736D01*
X207867224Y-93868149D01*
X207875899Y-93865930D01*
X207883203Y-93869991D01*
G37*
%TD.AperFunction*%
%TD*%
%TA.AperFunction,Conductor*%
%TO.N,P14*%
G36*
X206400682Y-110815260D02*
G01*
X206461671Y-110887944D01*
X206547140Y-110989802D01*
X206549832Y-110998341D01*
X206546171Y-111005864D01*
X206409632Y-111133632D01*
X206378429Y-111162830D01*
X206251432Y-111317269D01*
X206163517Y-111465124D01*
X206104926Y-111609915D01*
X206065904Y-111755157D01*
X206065863Y-111755367D01*
X206036695Y-111904369D01*
X206007586Y-112060824D01*
X206007481Y-112061325D01*
X205968793Y-112228317D01*
X205968544Y-112229219D01*
X205934188Y-112336586D01*
X205910561Y-112410421D01*
X205910139Y-112411540D01*
X205826304Y-112603364D01*
X205819851Y-112609573D01*
X205814296Y-112610308D01*
X204523774Y-112467362D01*
X204515929Y-112463046D01*
X204513493Y-112453992D01*
X204706769Y-111170033D01*
X204711390Y-111162363D01*
X204716550Y-111160213D01*
X204918418Y-111128975D01*
X204919547Y-111128856D01*
X204929269Y-111128307D01*
X205106480Y-111118299D01*
X205107320Y-111118282D01*
X205183178Y-111119585D01*
X205276708Y-111121191D01*
X205277098Y-111121204D01*
X205383900Y-111126607D01*
X205434102Y-111129147D01*
X205434140Y-111129148D01*
X205434159Y-111129149D01*
X205503737Y-111131240D01*
X205583576Y-111133639D01*
X205583791Y-111133628D01*
X205583800Y-111133628D01*
X205730041Y-111126192D01*
X205730046Y-111126191D01*
X205730428Y-111126172D01*
X205879757Y-111098249D01*
X206036658Y-111041374D01*
X206206229Y-110947050D01*
X206384705Y-110813415D01*
X206393383Y-110811200D01*
X206400682Y-110815260D01*
G37*
%TD.AperFunction*%
%TD*%
%TA.AperFunction,Conductor*%
%TO.N,P15*%
G36*
X204903822Y-127809443D02*
G01*
X205050314Y-127984024D01*
X205053006Y-127992565D01*
X205049362Y-128000073D01*
X204945405Y-128097726D01*
X204883922Y-128155480D01*
X204759313Y-128308819D01*
X204759088Y-128309204D01*
X204759085Y-128309209D01*
X204703926Y-128403789D01*
X204673594Y-128455799D01*
X204616762Y-128599706D01*
X204578815Y-128743821D01*
X204578781Y-128743994D01*
X204549751Y-128891430D01*
X204549741Y-128891480D01*
X204519622Y-129045528D01*
X204519486Y-129046133D01*
X204478390Y-129209735D01*
X204478082Y-129210761D01*
X204416041Y-129387436D01*
X204415545Y-129388634D01*
X204326012Y-129574683D01*
X204319336Y-129580651D01*
X204313718Y-129581177D01*
X203029966Y-129386816D01*
X203022299Y-129382189D01*
X203020226Y-129373046D01*
X203264617Y-128097847D01*
X203269540Y-128090367D01*
X203274805Y-128088422D01*
X203397549Y-128074664D01*
X203470021Y-128066541D01*
X203471182Y-128066469D01*
X203652349Y-128064340D01*
X203653211Y-128064362D01*
X203817485Y-128074665D01*
X203817837Y-128074693D01*
X203970107Y-128089220D01*
X203970121Y-128089221D01*
X203970142Y-128089223D01*
X204114759Y-128099669D01*
X204114767Y-128099669D01*
X204114999Y-128099686D01*
X204115238Y-128099683D01*
X204115244Y-128099683D01*
X204256791Y-128097797D01*
X204256797Y-128097797D01*
X204257210Y-128097791D01*
X204322848Y-128087547D01*
X204401116Y-128075333D01*
X204401119Y-128075332D01*
X204401614Y-128075255D01*
X204553085Y-128023797D01*
X204716498Y-127935135D01*
X204887874Y-127807578D01*
X204896557Y-127805388D01*
X204903822Y-127809443D01*
G37*
%TD.AperFunction*%
%TD*%
%TA.AperFunction,Conductor*%
%TO.N,P18*%
G36*
X185825292Y-88327342D02*
G01*
X185986396Y-88488446D01*
X185989823Y-88496719D01*
X185986829Y-88504535D01*
X185833189Y-88675655D01*
X185832975Y-88675967D01*
X185832970Y-88675973D01*
X185799833Y-88724227D01*
X185719882Y-88840649D01*
X185644989Y-88995667D01*
X185599187Y-89145109D01*
X185573151Y-89293374D01*
X185573132Y-89293561D01*
X185557558Y-89444862D01*
X185543104Y-89603726D01*
X185543051Y-89604203D01*
X185520463Y-89774648D01*
X185520304Y-89775564D01*
X185480313Y-89962088D01*
X185480010Y-89963219D01*
X185415763Y-90162841D01*
X185409967Y-90169667D01*
X185404523Y-90170957D01*
X184106152Y-90159470D01*
X184097911Y-90155970D01*
X184094570Y-90147209D01*
X184156793Y-88850274D01*
X184160613Y-88842175D01*
X184165524Y-88839514D01*
X184365193Y-88787384D01*
X184366282Y-88787156D01*
X184552690Y-88757338D01*
X184553523Y-88757237D01*
X184676595Y-88746781D01*
X184723535Y-88742794D01*
X184723934Y-88742767D01*
X184881953Y-88734771D01*
X184881950Y-88734771D01*
X184881993Y-88734769D01*
X184882033Y-88734766D01*
X184882053Y-88734765D01*
X185032047Y-88724275D01*
X185032055Y-88724274D01*
X185032271Y-88724259D01*
X185178954Y-88702256D01*
X185326428Y-88659769D01*
X185326844Y-88659573D01*
X185326849Y-88659571D01*
X185478660Y-88588008D01*
X185479080Y-88587810D01*
X185479456Y-88587554D01*
X185479463Y-88587550D01*
X185640974Y-88477605D01*
X185640976Y-88477604D01*
X185641294Y-88477387D01*
X185809209Y-88326902D01*
X185817659Y-88323932D01*
X185825292Y-88327342D01*
G37*
%TD.AperFunction*%
%TD*%
%TA.AperFunction,Conductor*%
%TO.N,P19*%
G36*
X185795300Y-105287349D02*
G01*
X185956399Y-105448448D01*
X185959826Y-105456721D01*
X185956836Y-105464532D01*
X185805304Y-105633465D01*
X185693897Y-105796546D01*
X185620984Y-105949943D01*
X185577533Y-106098073D01*
X185554513Y-106245351D01*
X185554495Y-106245590D01*
X185554494Y-106245595D01*
X185542895Y-106396195D01*
X185533659Y-106554809D01*
X185533629Y-106555211D01*
X185517778Y-106725818D01*
X185517666Y-106726675D01*
X185486231Y-106913722D01*
X185485991Y-106914824D01*
X185432049Y-107115251D01*
X185426590Y-107122349D01*
X185421228Y-107123900D01*
X184123872Y-107176723D01*
X184115466Y-107173636D01*
X184111696Y-107165052D01*
X184109618Y-105866628D01*
X184113032Y-105858349D01*
X184117808Y-105855449D01*
X184303854Y-105796954D01*
X184318189Y-105792447D01*
X184319308Y-105792155D01*
X184506432Y-105753111D01*
X184507331Y-105752959D01*
X184678227Y-105731009D01*
X184678688Y-105730959D01*
X184714210Y-105727819D01*
X184837895Y-105716884D01*
X184837920Y-105716881D01*
X184837925Y-105716881D01*
X184989421Y-105701472D01*
X184989428Y-105701471D01*
X184989615Y-105701452D01*
X185138049Y-105675406D01*
X185138391Y-105675301D01*
X185138395Y-105675300D01*
X185287188Y-105629601D01*
X185287193Y-105629599D01*
X185287623Y-105629467D01*
X185288030Y-105629270D01*
X185442366Y-105554550D01*
X185442369Y-105554548D01*
X185442764Y-105554357D01*
X185584744Y-105456721D01*
X185607595Y-105441007D01*
X185607598Y-105441005D01*
X185607900Y-105440797D01*
X185779210Y-105286918D01*
X185787653Y-105283939D01*
X185795300Y-105287349D01*
G37*
%TD.AperFunction*%
%TD*%
%TA.AperFunction,Conductor*%
%TO.N,P1*%
G36*
X185815300Y-122297349D02*
G01*
X185976395Y-122458444D01*
X185979822Y-122466717D01*
X185976826Y-122474534D01*
X185823481Y-122645256D01*
X185710382Y-122809866D01*
X185635789Y-122964568D01*
X185590547Y-123113813D01*
X185565506Y-123262050D01*
X185565487Y-123262254D01*
X185565486Y-123262263D01*
X185551513Y-123413732D01*
X185539432Y-123573096D01*
X185539392Y-123573521D01*
X185520111Y-123744806D01*
X185519979Y-123745675D01*
X185484408Y-123933387D01*
X185484144Y-123934489D01*
X185425389Y-124135669D01*
X185419780Y-124142650D01*
X185414387Y-124144087D01*
X185316508Y-124146000D01*
X184116205Y-124169465D01*
X184107866Y-124166200D01*
X184104278Y-124157538D01*
X184129656Y-122859356D01*
X184133244Y-122851152D01*
X184138074Y-122848354D01*
X184339254Y-122789599D01*
X184340354Y-122789336D01*
X184528072Y-122753763D01*
X184528933Y-122753633D01*
X184621288Y-122743236D01*
X184700223Y-122734351D01*
X184700648Y-122734311D01*
X184860011Y-122722230D01*
X185011480Y-122708257D01*
X185011489Y-122708256D01*
X185011693Y-122708237D01*
X185159931Y-122683196D01*
X185160280Y-122683090D01*
X185160285Y-122683089D01*
X185230200Y-122661895D01*
X185309175Y-122637955D01*
X185463877Y-122563361D01*
X185628488Y-122450263D01*
X185799210Y-122296918D01*
X185807653Y-122293939D01*
X185815300Y-122297349D01*
G37*
%TD.AperFunction*%
%TD*%
%TA.AperFunction,Conductor*%
%TO.N,P0*%
G36*
X163922437Y-96028735D02*
G01*
X164096980Y-96175194D01*
X164101114Y-96183137D01*
X164098821Y-96191174D01*
X163963579Y-96371619D01*
X163867812Y-96542905D01*
X163867654Y-96543333D01*
X163867652Y-96543338D01*
X163809623Y-96700864D01*
X163809621Y-96700870D01*
X163809464Y-96701297D01*
X163779837Y-96851918D01*
X163770236Y-96999893D01*
X163770239Y-97000130D01*
X163771961Y-97150294D01*
X163771962Y-97150347D01*
X163771964Y-97150419D01*
X163771964Y-97150420D01*
X163776313Y-97308207D01*
X163776316Y-97308646D01*
X163774614Y-97478729D01*
X163774571Y-97479630D01*
X163758186Y-97667251D01*
X163758027Y-97668403D01*
X163719799Y-97870985D01*
X163714898Y-97878479D01*
X163709656Y-97880436D01*
X162567191Y-98013348D01*
X162440977Y-98028032D01*
X162419934Y-98030480D01*
X162411320Y-98028032D01*
X162406916Y-98019755D01*
X162396130Y-97879442D01*
X162307394Y-96725159D01*
X162310177Y-96716647D01*
X162314732Y-96713392D01*
X162507281Y-96636754D01*
X162508389Y-96636377D01*
X162690089Y-96584466D01*
X162690980Y-96584250D01*
X162858148Y-96550469D01*
X162858605Y-96550386D01*
X162942951Y-96536804D01*
X163014896Y-96525220D01*
X163093855Y-96511392D01*
X163163428Y-96499208D01*
X163163436Y-96499206D01*
X163163626Y-96499173D01*
X163163823Y-96499123D01*
X163163829Y-96499122D01*
X163202556Y-96489350D01*
X163308093Y-96462720D01*
X163308438Y-96462585D01*
X163308443Y-96462583D01*
X163451405Y-96406465D01*
X163451411Y-96406462D01*
X163451829Y-96406298D01*
X163598363Y-96320348D01*
X163751227Y-96195308D01*
X163906379Y-96029699D01*
X163914535Y-96026004D01*
X163922437Y-96028735D01*
G37*
%TD.AperFunction*%
%TD*%
%TA.AperFunction,Conductor*%
%TO.N,P3*%
G36*
X165417520Y-113003010D02*
G01*
X165592080Y-113149483D01*
X165596214Y-113157426D01*
X165593925Y-113165458D01*
X165503423Y-113286332D01*
X165458600Y-113346197D01*
X165362889Y-113517800D01*
X165304494Y-113676473D01*
X165274484Y-113827282D01*
X165263928Y-113975293D01*
X165263896Y-114125571D01*
X165263896Y-114125588D01*
X165265454Y-114282921D01*
X165265448Y-114283434D01*
X165259696Y-114452701D01*
X165259623Y-114453671D01*
X165237703Y-114640059D01*
X165237498Y-114641260D01*
X165192278Y-114842257D01*
X165187119Y-114849576D01*
X165181790Y-114851352D01*
X163887462Y-114954158D01*
X163878945Y-114951397D01*
X163874846Y-114942965D01*
X163862721Y-114641260D01*
X163822705Y-113645601D01*
X163825797Y-113637197D01*
X163830477Y-113634107D01*
X164021480Y-113566204D01*
X164022598Y-113565869D01*
X164202932Y-113521577D01*
X164203804Y-113521399D01*
X164277272Y-113509290D01*
X164369600Y-113494073D01*
X164370030Y-113494010D01*
X164491974Y-113478533D01*
X164524861Y-113474359D01*
X164671942Y-113453094D01*
X164814524Y-113420898D01*
X164862518Y-113403106D01*
X164955622Y-113368591D01*
X164955626Y-113368589D01*
X164956066Y-113368426D01*
X164994437Y-113346545D01*
X165099620Y-113286565D01*
X165099623Y-113286563D01*
X165100028Y-113286332D01*
X165249868Y-113165272D01*
X165258021Y-113156598D01*
X165401474Y-113003960D01*
X165409637Y-113000279D01*
X165417520Y-113003010D01*
G37*
%TD.AperFunction*%
%TD*%
%TA.AperFunction,Conductor*%
%TO.N,P4*%
G36*
X166915624Y-129896745D02*
G01*
X167090149Y-130043189D01*
X167094283Y-130051132D01*
X167091981Y-130059182D01*
X166953875Y-130242924D01*
X166910936Y-130318819D01*
X166855582Y-130416657D01*
X166855579Y-130416664D01*
X166855366Y-130417040D01*
X166794315Y-130577889D01*
X166761915Y-130730692D01*
X166749363Y-130880673D01*
X166749361Y-130880889D01*
X166747855Y-131033006D01*
X166747855Y-131033107D01*
X166748586Y-131192842D01*
X166748579Y-131193291D01*
X166742769Y-131365443D01*
X166742705Y-131366339D01*
X166721615Y-131556247D01*
X166721432Y-131557381D01*
X166677959Y-131762605D01*
X166672892Y-131769988D01*
X166667619Y-131771827D01*
X165374984Y-131894371D01*
X165366426Y-131891740D01*
X165362199Y-131883371D01*
X165323898Y-131193055D01*
X165290269Y-130586935D01*
X165293232Y-130578485D01*
X165297840Y-130575333D01*
X165492886Y-130502134D01*
X165493963Y-130501788D01*
X165677664Y-130452460D01*
X165678513Y-130452266D01*
X165847199Y-130420199D01*
X165847607Y-130420129D01*
X166004907Y-130395954D01*
X166004948Y-130395947D01*
X166004996Y-130395940D01*
X166005068Y-130395928D01*
X166154265Y-130370291D01*
X166154273Y-130370289D01*
X166154490Y-130370252D01*
X166154710Y-130370196D01*
X166154717Y-130370195D01*
X166299127Y-130333757D01*
X166299132Y-130333755D01*
X166299502Y-130333662D01*
X166299855Y-130333523D01*
X166299860Y-130333521D01*
X166443215Y-130276911D01*
X166443220Y-130276909D01*
X166443652Y-130276738D01*
X166590560Y-130190045D01*
X166743847Y-130064150D01*
X166756027Y-130051132D01*
X166800847Y-130003225D01*
X166899560Y-129897715D01*
X166907714Y-129894014D01*
X166915624Y-129896745D01*
G37*
%TD.AperFunction*%
%TD*%
%TA.AperFunction,Conductor*%
%TO.N,P5*%
G36*
X130276756Y-142478236D02*
G01*
X130474105Y-142592176D01*
X130479555Y-142599279D01*
X130478694Y-142607588D01*
X130376087Y-142810432D01*
X130375958Y-142810801D01*
X130375958Y-142810802D01*
X130314981Y-142985821D01*
X130310994Y-142997264D01*
X130310912Y-142997712D01*
X130287242Y-143127044D01*
X130280338Y-143164764D01*
X130280325Y-143165215D01*
X130280325Y-143165220D01*
X130277976Y-143249895D01*
X130276045Y-143319489D01*
X130290041Y-143467995D01*
X130290074Y-143468197D01*
X130290074Y-143468198D01*
X130314251Y-143616840D01*
X130340555Y-143772300D01*
X130340635Y-143772850D01*
X130360961Y-143941280D01*
X130361038Y-143942286D01*
X130367411Y-144130354D01*
X130367387Y-144131597D01*
X130352387Y-144338138D01*
X130348370Y-144346142D01*
X130343358Y-144348689D01*
X129078396Y-144641464D01*
X129069564Y-144639991D01*
X129064266Y-144632256D01*
X128821152Y-143356807D01*
X128822969Y-143348038D01*
X128827139Y-143344293D01*
X129004130Y-143249895D01*
X129005182Y-143249399D01*
X129175594Y-143179250D01*
X129176420Y-143178946D01*
X129335193Y-143127162D01*
X129335576Y-143127044D01*
X129484522Y-143084047D01*
X129484619Y-143084019D01*
X129625481Y-143040208D01*
X129625692Y-143040123D01*
X129625700Y-143040120D01*
X129759398Y-142986175D01*
X129759402Y-142986173D01*
X129759774Y-142986023D01*
X129889294Y-142911822D01*
X130015837Y-142807963D01*
X130141202Y-142664807D01*
X130141422Y-142664472D01*
X130141427Y-142664465D01*
X130261123Y-142481953D01*
X130268526Y-142476914D01*
X130276756Y-142478236D01*
G37*
%TD.AperFunction*%
%TD*%
%TA.AperFunction,Conductor*%
%TO.N,P6*%
G36*
X147093492Y-135643583D02*
G01*
X147290820Y-135757510D01*
X147296271Y-135764615D01*
X147295409Y-135772927D01*
X147193475Y-135974318D01*
X147128865Y-136159817D01*
X147128784Y-136160268D01*
X147128783Y-136160270D01*
X147115791Y-136232209D01*
X147098833Y-136326101D01*
X147098823Y-136326558D01*
X147098823Y-136326563D01*
X147098695Y-136332726D01*
X147095632Y-136479727D01*
X147095671Y-136480086D01*
X147095671Y-136480094D01*
X147107872Y-136593404D01*
X147111517Y-136627253D01*
X147111558Y-136627474D01*
X147138730Y-136775183D01*
X147138751Y-136775290D01*
X147169511Y-136930006D01*
X147169592Y-136930460D01*
X147196146Y-137098343D01*
X147196254Y-137099258D01*
X147210934Y-137286902D01*
X147210967Y-137288080D01*
X147206290Y-137494265D01*
X147202676Y-137502459D01*
X147197817Y-137505247D01*
X145949674Y-137863043D01*
X145940777Y-137862029D01*
X145935086Y-137854578D01*
X145796260Y-137287494D01*
X145626343Y-136593403D01*
X145627704Y-136584553D01*
X145631671Y-136580600D01*
X145808123Y-136474349D01*
X145809158Y-136473794D01*
X145979195Y-136393428D01*
X145980034Y-136393071D01*
X146138833Y-136332725D01*
X146139259Y-136332573D01*
X146157137Y-136326563D01*
X146288734Y-136282325D01*
X146430506Y-136232304D01*
X146430722Y-136232209D01*
X146565825Y-136172772D01*
X146565830Y-136172769D01*
X146566165Y-136172622D01*
X146697523Y-136093317D01*
X146826391Y-135984428D01*
X146835424Y-135973969D01*
X146874388Y-135928850D01*
X146954580Y-135835992D01*
X147077846Y-135647317D01*
X147085241Y-135642265D01*
X147093492Y-135643583D01*
G37*
%TD.AperFunction*%
%TD*%
%TA.AperFunction,Conductor*%
%TO.N,GND*%
G36*
X189176463Y-125552699D02*
G01*
X190422980Y-125577067D01*
X190484301Y-125787036D01*
X190520063Y-125975756D01*
X190539416Y-126147679D01*
X190551513Y-126307256D01*
X190556694Y-126363413D01*
X190565506Y-126458937D01*
X190590546Y-126607175D01*
X190635788Y-126756419D01*
X190710381Y-126911121D01*
X190710626Y-126911478D01*
X190710628Y-126911481D01*
X190740628Y-126955145D01*
X190823480Y-127075732D01*
X190896869Y-127157436D01*
X190976825Y-127246452D01*
X190979804Y-127254896D01*
X190976394Y-127262543D01*
X190815300Y-127423637D01*
X190807027Y-127427064D01*
X190799209Y-127424068D01*
X190628775Y-127270982D01*
X190628488Y-127270724D01*
X190537496Y-127208206D01*
X190464237Y-127157872D01*
X190464234Y-127157870D01*
X190463877Y-127157625D01*
X190309175Y-127083032D01*
X190230200Y-127059092D01*
X190160285Y-127037898D01*
X190160280Y-127037897D01*
X190159931Y-127037791D01*
X190011693Y-127012750D01*
X190011489Y-127012731D01*
X190011480Y-127012730D01*
X189860012Y-126998757D01*
X189700648Y-126986676D01*
X189700223Y-126986636D01*
X189621288Y-126977751D01*
X189528933Y-126967354D01*
X189528072Y-126967224D01*
X189339792Y-126931545D01*
X189129824Y-126870223D01*
X189104269Y-125562994D01*
X189105117Y-125560828D01*
X189105278Y-125560891D01*
X189107540Y-125555111D01*
X189116204Y-125551521D01*
X189176463Y-125552699D01*
G37*
%TD.AperFunction*%
%TD*%
%TA.AperFunction,Conductor*%
%TO.N,GND*%
G36*
X189176463Y-125552699D02*
G01*
X190422980Y-125577067D01*
X190484301Y-125787036D01*
X190520063Y-125975756D01*
X190539416Y-126147679D01*
X190551513Y-126307256D01*
X190556694Y-126363413D01*
X190565506Y-126458937D01*
X190590546Y-126607175D01*
X190635788Y-126756419D01*
X190710381Y-126911121D01*
X190710626Y-126911478D01*
X190710628Y-126911481D01*
X190740628Y-126955145D01*
X190823480Y-127075732D01*
X190896869Y-127157436D01*
X190976825Y-127246452D01*
X190979804Y-127254896D01*
X190976394Y-127262543D01*
X190815300Y-127423637D01*
X190807027Y-127427064D01*
X190799209Y-127424068D01*
X190628775Y-127270982D01*
X190628488Y-127270724D01*
X190537496Y-127208206D01*
X190464237Y-127157872D01*
X190464234Y-127157870D01*
X190463877Y-127157625D01*
X190309175Y-127083032D01*
X190230200Y-127059092D01*
X190160285Y-127037898D01*
X190160280Y-127037897D01*
X190159931Y-127037791D01*
X190011693Y-127012750D01*
X190011489Y-127012731D01*
X190011480Y-127012730D01*
X189860012Y-126998757D01*
X189700648Y-126986676D01*
X189700223Y-126986636D01*
X189621288Y-126977751D01*
X189528933Y-126967354D01*
X189528072Y-126967224D01*
X189339792Y-126931545D01*
X189129824Y-126870223D01*
X189104269Y-125562994D01*
X189105117Y-125560828D01*
X189105278Y-125560891D01*
X189107540Y-125555111D01*
X189116204Y-125551521D01*
X189176463Y-125552699D01*
G37*
%TD.AperFunction*%
%TD*%
%TA.AperFunction,Conductor*%
%TO.N,GND*%
G36*
X208564065Y-132578649D02*
G01*
X208561939Y-132579791D01*
X208489081Y-132601069D01*
X208487790Y-132601446D01*
X208354624Y-132640338D01*
X208353524Y-132640601D01*
X208165806Y-132676174D01*
X208164945Y-132676304D01*
X208072590Y-132686701D01*
X207993655Y-132695586D01*
X207993230Y-132695626D01*
X207833866Y-132707707D01*
X207682398Y-132721680D01*
X207682389Y-132721681D01*
X207682185Y-132721700D01*
X207533947Y-132746741D01*
X207533598Y-132746847D01*
X207533593Y-132746848D01*
X207463678Y-132768042D01*
X207384703Y-132791982D01*
X207230001Y-132866575D01*
X207229644Y-132866820D01*
X207229641Y-132866822D01*
X207156382Y-132917156D01*
X207065390Y-132979674D01*
X207065103Y-132979932D01*
X206894670Y-133133018D01*
X206886226Y-133135997D01*
X206878579Y-133132587D01*
X206717485Y-132971493D01*
X206714058Y-132963220D01*
X206717054Y-132955402D01*
X206870140Y-132784969D01*
X206870398Y-132784682D01*
X206969391Y-132640602D01*
X206983250Y-132620431D01*
X206983252Y-132620428D01*
X206983497Y-132620071D01*
X207058090Y-132465369D01*
X207103331Y-132316125D01*
X207128372Y-132167887D01*
X207142365Y-132016206D01*
X207154446Y-131856842D01*
X207154486Y-131856417D01*
X207173767Y-131685131D01*
X207173899Y-131684262D01*
X207209470Y-131496550D01*
X207209734Y-131495448D01*
X207268490Y-131294267D01*
X207274099Y-131287286D01*
X207279492Y-131285849D01*
X207342667Y-131284614D01*
X208122207Y-131269375D01*
X208122208Y-131269375D01*
X208123834Y-131269343D01*
X208589839Y-131260233D01*
X208564065Y-132578649D01*
G37*
%TD.AperFunction*%
%TD*%
%TA.AperFunction,Conductor*%
%TO.N,GND*%
G36*
X208564065Y-132578649D02*
G01*
X208561939Y-132579791D01*
X208489081Y-132601069D01*
X208487790Y-132601446D01*
X208354624Y-132640338D01*
X208353524Y-132640601D01*
X208165806Y-132676174D01*
X208164945Y-132676304D01*
X208072590Y-132686701D01*
X207993655Y-132695586D01*
X207993230Y-132695626D01*
X207833866Y-132707707D01*
X207682398Y-132721680D01*
X207682389Y-132721681D01*
X207682185Y-132721700D01*
X207533947Y-132746741D01*
X207533598Y-132746847D01*
X207533593Y-132746848D01*
X207463678Y-132768042D01*
X207384703Y-132791982D01*
X207230001Y-132866575D01*
X207229644Y-132866820D01*
X207229641Y-132866822D01*
X207156382Y-132917156D01*
X207065390Y-132979674D01*
X207065103Y-132979932D01*
X206894670Y-133133018D01*
X206886226Y-133135997D01*
X206878579Y-133132587D01*
X206717485Y-132971493D01*
X206714058Y-132963220D01*
X206717054Y-132955402D01*
X206870140Y-132784969D01*
X206870398Y-132784682D01*
X206969391Y-132640602D01*
X206983250Y-132620431D01*
X206983252Y-132620428D01*
X206983497Y-132620071D01*
X207058090Y-132465369D01*
X207103331Y-132316125D01*
X207128372Y-132167887D01*
X207142365Y-132016206D01*
X207154446Y-131856842D01*
X207154486Y-131856417D01*
X207173767Y-131685131D01*
X207173899Y-131684262D01*
X207209470Y-131496550D01*
X207209734Y-131495448D01*
X207268490Y-131294267D01*
X207274099Y-131287286D01*
X207279492Y-131285849D01*
X207342667Y-131284614D01*
X208122207Y-131269375D01*
X208122208Y-131269375D01*
X208123834Y-131269343D01*
X208589839Y-131260233D01*
X208564065Y-132578649D01*
G37*
%TD.AperFunction*%
%TD*%
%TA.AperFunction,Conductor*%
%TO.N,GND*%
G36*
X262389505Y-120728965D02*
G01*
X262393093Y-120737627D01*
X262373196Y-121755434D01*
X262369608Y-121763638D01*
X262364815Y-121766425D01*
X262211053Y-121811886D01*
X262210034Y-121812138D01*
X262089869Y-121836207D01*
X262065031Y-121841182D01*
X262064248Y-121841310D01*
X261931966Y-121858510D01*
X261931653Y-121858546D01*
X261808561Y-121870709D01*
X261691397Y-121884654D01*
X261576826Y-121907227D01*
X261461353Y-121945287D01*
X261341483Y-122005695D01*
X261213723Y-122095309D01*
X261213457Y-122095549D01*
X261213446Y-122095558D01*
X261082830Y-122213537D01*
X261074394Y-122216540D01*
X261066715Y-122213128D01*
X260905665Y-122052078D01*
X260902238Y-122043805D01*
X260905256Y-122035963D01*
X261023235Y-121905347D01*
X261023244Y-121905336D01*
X261023484Y-121905070D01*
X261056145Y-121858507D01*
X261112858Y-121777652D01*
X261113098Y-121777310D01*
X261173506Y-121657440D01*
X261211566Y-121541967D01*
X261234139Y-121427396D01*
X261248084Y-121310232D01*
X261260247Y-121187140D01*
X261260286Y-121186801D01*
X261277482Y-121054548D01*
X261277612Y-121053759D01*
X261306655Y-120908759D01*
X261306907Y-120907740D01*
X261352368Y-120753978D01*
X261358000Y-120747016D01*
X261363359Y-120745597D01*
X262381166Y-120725700D01*
X262389505Y-120728965D01*
G37*
%TD.AperFunction*%
%TD*%
%TA.AperFunction,Conductor*%
%TO.N,GND*%
G36*
X238703180Y-166521001D02*
G01*
X239245290Y-167042322D01*
X239245291Y-167042322D01*
X239647849Y-167429443D01*
X238918758Y-168130575D01*
X238703180Y-168337885D01*
X238694841Y-168341150D01*
X238689448Y-168339713D01*
X238505649Y-168239006D01*
X238504683Y-168238414D01*
X238346789Y-168130825D01*
X238346081Y-168130303D01*
X238211327Y-168022819D01*
X238210999Y-168022547D01*
X238089809Y-167918436D01*
X238089716Y-167918358D01*
X237972805Y-167821196D01*
X237972626Y-167821047D01*
X237972446Y-167820919D01*
X237850395Y-167734143D01*
X237850387Y-167734138D01*
X237850100Y-167733934D01*
X237712578Y-167660393D01*
X237712143Y-167660241D01*
X237550871Y-167603898D01*
X237550868Y-167603897D01*
X237550441Y-167603748D01*
X237354071Y-167567323D01*
X237124922Y-167555037D01*
X237116845Y-167551172D01*
X237113849Y-167543354D01*
X237113849Y-167315532D01*
X237117276Y-167307259D01*
X237124922Y-167303849D01*
X237354071Y-167291562D01*
X237550441Y-167255137D01*
X237550868Y-167254988D01*
X237550871Y-167254987D01*
X237712143Y-167198644D01*
X237712578Y-167198492D01*
X237850100Y-167124951D01*
X237850387Y-167124747D01*
X237850395Y-167124742D01*
X237972446Y-167037966D01*
X237972626Y-167037838D01*
X238089776Y-166940477D01*
X238211005Y-166836333D01*
X238211327Y-166836066D01*
X238346081Y-166728582D01*
X238346789Y-166728060D01*
X238504683Y-166620471D01*
X238505649Y-166619879D01*
X238689448Y-166519173D01*
X238698350Y-166518203D01*
X238703180Y-166521001D01*
G37*
%TD.AperFunction*%
%TD*%
%TA.AperFunction,Conductor*%
%TO.N,GND*%
G36*
X238703180Y-166521001D02*
G01*
X239245290Y-167042322D01*
X239245291Y-167042322D01*
X239647849Y-167429443D01*
X238918758Y-168130575D01*
X238703180Y-168337885D01*
X238694841Y-168341150D01*
X238689448Y-168339713D01*
X238505649Y-168239006D01*
X238504683Y-168238414D01*
X238346789Y-168130825D01*
X238346081Y-168130303D01*
X238211327Y-168022819D01*
X238210999Y-168022547D01*
X238089809Y-167918436D01*
X238089716Y-167918358D01*
X237972805Y-167821196D01*
X237972626Y-167821047D01*
X237972446Y-167820919D01*
X237850395Y-167734143D01*
X237850387Y-167734138D01*
X237850100Y-167733934D01*
X237712578Y-167660393D01*
X237712143Y-167660241D01*
X237550871Y-167603898D01*
X237550868Y-167603897D01*
X237550441Y-167603748D01*
X237354071Y-167567323D01*
X237124922Y-167555037D01*
X237116845Y-167551172D01*
X237113849Y-167543354D01*
X237113849Y-167315532D01*
X237117276Y-167307259D01*
X237124922Y-167303849D01*
X237354071Y-167291562D01*
X237550441Y-167255137D01*
X237550868Y-167254988D01*
X237550871Y-167254987D01*
X237712143Y-167198644D01*
X237712578Y-167198492D01*
X237850100Y-167124951D01*
X237850387Y-167124747D01*
X237850395Y-167124742D01*
X237972446Y-167037966D01*
X237972626Y-167037838D01*
X238089776Y-166940477D01*
X238211005Y-166836333D01*
X238211327Y-166836066D01*
X238346081Y-166728582D01*
X238346789Y-166728060D01*
X238504683Y-166620471D01*
X238505649Y-166619879D01*
X238689448Y-166519173D01*
X238698350Y-166518203D01*
X238703180Y-166521001D01*
G37*
%TD.AperFunction*%
%TD*%
%TA.AperFunction,Conductor*%
%TO.N,GND*%
G36*
X226874960Y-135677317D02*
G01*
X226936281Y-135887286D01*
X226972043Y-136076006D01*
X226991396Y-136247929D01*
X227003493Y-136407506D01*
X227016208Y-136545338D01*
X227017486Y-136559187D01*
X227042527Y-136707425D01*
X227087768Y-136856669D01*
X227162361Y-137011371D01*
X227162606Y-137011728D01*
X227162608Y-137011731D01*
X227176467Y-137031902D01*
X227275460Y-137175982D01*
X227348849Y-137257686D01*
X227428805Y-137346702D01*
X227431784Y-137355146D01*
X227428374Y-137362793D01*
X227267280Y-137523887D01*
X227259007Y-137527314D01*
X227251189Y-137524318D01*
X227080755Y-137371232D01*
X227080468Y-137370974D01*
X226989476Y-137308456D01*
X226916217Y-137258122D01*
X226916214Y-137258120D01*
X226915857Y-137257875D01*
X226761155Y-137183282D01*
X226682180Y-137159342D01*
X226612265Y-137138148D01*
X226612260Y-137138147D01*
X226611911Y-137138041D01*
X226463673Y-137113000D01*
X226463469Y-137112981D01*
X226463460Y-137112980D01*
X226311992Y-137099007D01*
X226152628Y-137086926D01*
X226152203Y-137086886D01*
X226073268Y-137078001D01*
X225980913Y-137067604D01*
X225980052Y-137067474D01*
X225792334Y-137031901D01*
X225791234Y-137031638D01*
X225590054Y-136972882D01*
X225583073Y-136967273D01*
X225581636Y-136961880D01*
X225579021Y-136828114D01*
X225556020Y-135651533D01*
X226874960Y-135677317D01*
G37*
%TD.AperFunction*%
%TD*%
%TA.AperFunction,Conductor*%
%TO.N,GND*%
G36*
X226874960Y-135677317D02*
G01*
X226936281Y-135887286D01*
X226972043Y-136076006D01*
X226991396Y-136247929D01*
X227003493Y-136407506D01*
X227016208Y-136545338D01*
X227017486Y-136559187D01*
X227042527Y-136707425D01*
X227087768Y-136856669D01*
X227162361Y-137011371D01*
X227162606Y-137011728D01*
X227162608Y-137011731D01*
X227176467Y-137031902D01*
X227275460Y-137175982D01*
X227348849Y-137257686D01*
X227428805Y-137346702D01*
X227431784Y-137355146D01*
X227428374Y-137362793D01*
X227267280Y-137523887D01*
X227259007Y-137527314D01*
X227251189Y-137524318D01*
X227080755Y-137371232D01*
X227080468Y-137370974D01*
X226989476Y-137308456D01*
X226916217Y-137258122D01*
X226916214Y-137258120D01*
X226915857Y-137257875D01*
X226761155Y-137183282D01*
X226682180Y-137159342D01*
X226612265Y-137138148D01*
X226612260Y-137138147D01*
X226611911Y-137138041D01*
X226463673Y-137113000D01*
X226463469Y-137112981D01*
X226463460Y-137112980D01*
X226311992Y-137099007D01*
X226152628Y-137086926D01*
X226152203Y-137086886D01*
X226073268Y-137078001D01*
X225980913Y-137067604D01*
X225980052Y-137067474D01*
X225792334Y-137031901D01*
X225791234Y-137031638D01*
X225590054Y-136972882D01*
X225583073Y-136967273D01*
X225581636Y-136961880D01*
X225579021Y-136828114D01*
X225556020Y-135651533D01*
X226874960Y-135677317D01*
G37*
%TD.AperFunction*%
%TD*%
%TA.AperFunction,Conductor*%
%TO.N,GND*%
G36*
X222770274Y-158676300D02*
G01*
X222938336Y-158777376D01*
X222939707Y-158778340D01*
X223096847Y-158906673D01*
X223097606Y-158907350D01*
X223241042Y-159046926D01*
X223241307Y-159047192D01*
X223374853Y-159185765D01*
X223374872Y-159185785D01*
X223374922Y-159185836D01*
X223502504Y-159311150D01*
X223627969Y-159410831D01*
X223755360Y-159472705D01*
X223756419Y-159472799D01*
X223756421Y-159472800D01*
X223887473Y-159484492D01*
X223887474Y-159484492D01*
X223888719Y-159484603D01*
X223889900Y-159484189D01*
X223889901Y-159484189D01*
X224031164Y-159434674D01*
X224031163Y-159434674D01*
X224032086Y-159434351D01*
X224181337Y-159316242D01*
X224189950Y-159313796D01*
X224196869Y-159317144D01*
X224357607Y-159477882D01*
X224361034Y-159486155D01*
X224357207Y-159494809D01*
X224268643Y-159575366D01*
X224208732Y-159629860D01*
X224207773Y-159630643D01*
X224063817Y-159736099D01*
X224062742Y-159736800D01*
X223929034Y-159813808D01*
X223928040Y-159814319D01*
X223801574Y-159871851D01*
X223800933Y-159872119D01*
X223678633Y-159919110D01*
X223557898Y-159964338D01*
X223436265Y-160016585D01*
X223310951Y-160084758D01*
X223179174Y-160177761D01*
X223038150Y-160304501D01*
X221825068Y-159593894D01*
X221819662Y-159586756D01*
X221820887Y-159577885D01*
X221822872Y-159575366D01*
X222120043Y-159289592D01*
X222120045Y-159289590D01*
X222756134Y-158677893D01*
X222764473Y-158674628D01*
X222770274Y-158676300D01*
G37*
%TD.AperFunction*%
%TD*%
%TA.AperFunction,Conductor*%
%TO.N,GND*%
G36*
X222770274Y-158676300D02*
G01*
X222938336Y-158777376D01*
X222939707Y-158778340D01*
X223096847Y-158906673D01*
X223097606Y-158907350D01*
X223241042Y-159046926D01*
X223241307Y-159047192D01*
X223374853Y-159185765D01*
X223374872Y-159185785D01*
X223374922Y-159185836D01*
X223502504Y-159311150D01*
X223627969Y-159410831D01*
X223755360Y-159472705D01*
X223756419Y-159472799D01*
X223756421Y-159472800D01*
X223887473Y-159484492D01*
X223887474Y-159484492D01*
X223888719Y-159484603D01*
X223889900Y-159484189D01*
X223889901Y-159484189D01*
X224031164Y-159434674D01*
X224031163Y-159434674D01*
X224032086Y-159434351D01*
X224181337Y-159316242D01*
X224189950Y-159313796D01*
X224196869Y-159317144D01*
X224357607Y-159477882D01*
X224361034Y-159486155D01*
X224357207Y-159494809D01*
X224268643Y-159575366D01*
X224208732Y-159629860D01*
X224207773Y-159630643D01*
X224063817Y-159736099D01*
X224062742Y-159736800D01*
X223929034Y-159813808D01*
X223928040Y-159814319D01*
X223801574Y-159871851D01*
X223800933Y-159872119D01*
X223678633Y-159919110D01*
X223557898Y-159964338D01*
X223436265Y-160016585D01*
X223310951Y-160084758D01*
X223179174Y-160177761D01*
X223038150Y-160304501D01*
X221825068Y-159593894D01*
X221819662Y-159586756D01*
X221820887Y-159577885D01*
X221822872Y-159575366D01*
X222120043Y-159289592D01*
X222120045Y-159289590D01*
X222756134Y-158677893D01*
X222764473Y-158674628D01*
X222770274Y-158676300D01*
G37*
%TD.AperFunction*%
%TD*%
%TA.AperFunction,Conductor*%
%TO.N,GND*%
G36*
X254377988Y-116119740D02*
G01*
X254408272Y-116288777D01*
X254449019Y-116409686D01*
X254449019Y-116409687D01*
X254455438Y-116428733D01*
X254516780Y-116547748D01*
X254589591Y-116653959D01*
X254671165Y-116755505D01*
X254727869Y-116823463D01*
X254758672Y-116860379D01*
X254758914Y-116860679D01*
X254849514Y-116976823D01*
X254850001Y-116977494D01*
X254941102Y-117113098D01*
X254941662Y-117114022D01*
X255026857Y-117270284D01*
X255027809Y-117279188D01*
X255025018Y-117283995D01*
X254250725Y-118089165D01*
X254242521Y-118092753D01*
X254233859Y-118089165D01*
X253459566Y-117283995D01*
X253456301Y-117275656D01*
X253457727Y-117270284D01*
X253542921Y-117114022D01*
X253543481Y-117113098D01*
X253634582Y-116977494D01*
X253635069Y-116976823D01*
X253725669Y-116860679D01*
X253725911Y-116860379D01*
X253756714Y-116823463D01*
X253813418Y-116755505D01*
X253894992Y-116653959D01*
X253967803Y-116547748D01*
X254029145Y-116428733D01*
X254076311Y-116288777D01*
X254106595Y-116119740D01*
X254117292Y-115913484D01*
X254367292Y-115913484D01*
X254377988Y-116119740D01*
G37*
%TD.AperFunction*%
%TD*%
%TA.AperFunction,Conductor*%
%TO.N,GND*%
G36*
X254766529Y-115048545D02*
G01*
X254766529Y-115048546D01*
X255016571Y-115494029D01*
X255108021Y-115656958D01*
X255126658Y-115690163D01*
X255127719Y-115699055D01*
X255125032Y-115703848D01*
X255013132Y-115824456D01*
X255012521Y-115825067D01*
X254898950Y-115930641D01*
X254898560Y-115930988D01*
X254790600Y-116022724D01*
X254790578Y-116022743D01*
X254690314Y-116107514D01*
X254599972Y-116192120D01*
X254521557Y-116283545D01*
X254457075Y-116388774D01*
X254456884Y-116389270D01*
X254456883Y-116389272D01*
X254449754Y-116407778D01*
X254449754Y-116407780D01*
X254408533Y-116514791D01*
X254377936Y-116668580D01*
X254367292Y-116857125D01*
X254117292Y-116857125D01*
X254106745Y-116633592D01*
X254077512Y-116448745D01*
X254051731Y-116358550D01*
X254033300Y-116294068D01*
X254033297Y-116294060D01*
X254033204Y-116293734D01*
X253990920Y-116192120D01*
X253977526Y-116159933D01*
X253977523Y-116159926D01*
X253977432Y-116159708D01*
X253913806Y-116037819D01*
X253852674Y-115930988D01*
X253845973Y-115919277D01*
X253845884Y-115919118D01*
X253793661Y-115824456D01*
X253777606Y-115795354D01*
X253777287Y-115794729D01*
X253712148Y-115656956D01*
X253711732Y-115655960D01*
X253653190Y-115495181D01*
X253652837Y-115494029D01*
X253604255Y-115300656D01*
X254573928Y-114705401D01*
X254766529Y-115048545D01*
G37*
%TD.AperFunction*%
%TD*%
%TA.AperFunction,Conductor*%
%TO.N,GND*%
G36*
X239892535Y-110486297D02*
G01*
X240048803Y-110571495D01*
X240049722Y-110572052D01*
X240185326Y-110663153D01*
X240185997Y-110663640D01*
X240302141Y-110754240D01*
X240302441Y-110754482D01*
X240305875Y-110757347D01*
X240407315Y-110841989D01*
X240508861Y-110923563D01*
X240615072Y-110996374D01*
X240615396Y-110996541D01*
X240733700Y-111057517D01*
X240733705Y-111057519D01*
X240734087Y-111057716D01*
X240874043Y-111104882D01*
X240874473Y-111104959D01*
X241042720Y-111135102D01*
X241042728Y-111135103D01*
X241043080Y-111135166D01*
X241116641Y-111138981D01*
X241238242Y-111145287D01*
X241246327Y-111149137D01*
X241249336Y-111156971D01*
X241249336Y-111384753D01*
X241245909Y-111393026D01*
X241238242Y-111396437D01*
X241109933Y-111403092D01*
X241043080Y-111406559D01*
X241042728Y-111406622D01*
X241042720Y-111406623D01*
X240886177Y-111434669D01*
X240874043Y-111436843D01*
X240734087Y-111484009D01*
X240733705Y-111484206D01*
X240733700Y-111484208D01*
X240615396Y-111545184D01*
X240615072Y-111545351D01*
X240508861Y-111618162D01*
X240407315Y-111699736D01*
X240339357Y-111756440D01*
X240302441Y-111787243D01*
X240302141Y-111787485D01*
X240185997Y-111878085D01*
X240185326Y-111878572D01*
X240049722Y-111969673D01*
X240048803Y-111970230D01*
X239892535Y-112055427D01*
X239883631Y-112056379D01*
X239878825Y-112053588D01*
X239379816Y-111573715D01*
X239064886Y-111270862D01*
X239598014Y-110758179D01*
X239878825Y-110488136D01*
X239887164Y-110484871D01*
X239892535Y-110486297D01*
G37*
%TD.AperFunction*%
%TD*%
%TA.AperFunction,Conductor*%
%TO.N,GND*%
G36*
X253325487Y-113813680D02*
G01*
X253470643Y-113944524D01*
X253611585Y-114042636D01*
X253743900Y-114108249D01*
X253871431Y-114149030D01*
X253871782Y-114149095D01*
X253871784Y-114149096D01*
X253997820Y-114172610D01*
X253997823Y-114172610D01*
X253998019Y-114172647D01*
X254127504Y-114186770D01*
X254263539Y-114199050D01*
X254263922Y-114199091D01*
X254300172Y-114203570D01*
X254410137Y-114217157D01*
X254410930Y-114217284D01*
X254571238Y-114248753D01*
X254572273Y-114249006D01*
X254743021Y-114299262D01*
X254749989Y-114304884D01*
X254751415Y-114310254D01*
X254773485Y-115439268D01*
X253635900Y-115417030D01*
X253583224Y-115238062D01*
X253582967Y-115237012D01*
X253551502Y-115076727D01*
X253551371Y-115075908D01*
X253547991Y-115048546D01*
X253533307Y-114929706D01*
X253533266Y-114929323D01*
X253520986Y-114793288D01*
X253506885Y-114664009D01*
X253506863Y-114663803D01*
X253483246Y-114537215D01*
X253442465Y-114409684D01*
X253376852Y-114277369D01*
X253278740Y-114136427D01*
X253253164Y-114108053D01*
X253147897Y-113991270D01*
X253144904Y-113982830D01*
X253148315Y-113975163D01*
X253309381Y-113814097D01*
X253317654Y-113810670D01*
X253325487Y-113813680D01*
G37*
%TD.AperFunction*%
%TD*%
%TA.AperFunction,Conductor*%
%TO.N,GND*%
G36*
X238250755Y-110061114D02*
G01*
X238380834Y-110067758D01*
X238382161Y-110067902D01*
X238476153Y-110083576D01*
X238534046Y-110093230D01*
X238535383Y-110093536D01*
X238622063Y-110118777D01*
X238663434Y-110130825D01*
X238664566Y-110131218D01*
X238776237Y-110176577D01*
X238776909Y-110176875D01*
X238824438Y-110199829D01*
X238879561Y-110226452D01*
X238879657Y-110226499D01*
X238980140Y-110276166D01*
X238980150Y-110276171D01*
X238980262Y-110276226D01*
X238980375Y-110276275D01*
X238980388Y-110276281D01*
X239085486Y-110321834D01*
X239085493Y-110321837D01*
X239085750Y-110321948D01*
X239086020Y-110322035D01*
X239086024Y-110322036D01*
X239202903Y-110359489D01*
X239202911Y-110359491D01*
X239203251Y-110359600D01*
X239203604Y-110359666D01*
X239203608Y-110359667D01*
X239264359Y-110371021D01*
X239339951Y-110385150D01*
X239383860Y-110387684D01*
X239494541Y-110394073D01*
X239502603Y-110397971D01*
X239505187Y-110402796D01*
X239812854Y-111580680D01*
X238868657Y-111562222D01*
X238684230Y-111558617D01*
X238676026Y-111555029D01*
X238673105Y-111549743D01*
X238633012Y-111388567D01*
X238632725Y-111386916D01*
X238615347Y-111214519D01*
X238615289Y-111213507D01*
X238612929Y-111042357D01*
X238612930Y-111041985D01*
X238615901Y-110877293D01*
X238615903Y-110877195D01*
X238614423Y-110724014D01*
X238598688Y-110587584D01*
X238558897Y-110472856D01*
X238485250Y-110384780D01*
X238484126Y-110384239D01*
X238484125Y-110384238D01*
X238422751Y-110354690D01*
X238367946Y-110328304D01*
X238207531Y-110309585D01*
X238199711Y-110305222D01*
X238197187Y-110297964D01*
X238197187Y-110070691D01*
X238200614Y-110062418D01*
X238209484Y-110059006D01*
X238250755Y-110061114D01*
G37*
%TD.AperFunction*%
%TD*%
%TA.AperFunction,Conductor*%
%TO.N,GND*%
G36*
X225478561Y-135102301D02*
G01*
X225941487Y-135547475D01*
X225941489Y-135547476D01*
X226423230Y-136010743D01*
X225578915Y-136822680D01*
X225577323Y-136824211D01*
X225478561Y-136919185D01*
X225470222Y-136922450D01*
X225464829Y-136921013D01*
X225289608Y-136825007D01*
X225281026Y-136820305D01*
X225280064Y-136819715D01*
X225122170Y-136712126D01*
X225121462Y-136711604D01*
X224986708Y-136604120D01*
X224986380Y-136603848D01*
X224865190Y-136499737D01*
X224865097Y-136499659D01*
X224748186Y-136402497D01*
X224748007Y-136402348D01*
X224747827Y-136402220D01*
X224625776Y-136315444D01*
X224625768Y-136315439D01*
X224625481Y-136315235D01*
X224487959Y-136241694D01*
X224487524Y-136241542D01*
X224326252Y-136185199D01*
X224326249Y-136185198D01*
X224325822Y-136185049D01*
X224129452Y-136148624D01*
X223900304Y-136136337D01*
X223892226Y-136132472D01*
X223889230Y-136124654D01*
X223889230Y-135896832D01*
X223892657Y-135888559D01*
X223900303Y-135885149D01*
X224129452Y-135872863D01*
X224325822Y-135836438D01*
X224326249Y-135836289D01*
X224326252Y-135836288D01*
X224487524Y-135779945D01*
X224487959Y-135779793D01*
X224625481Y-135706252D01*
X224625768Y-135706048D01*
X224625776Y-135706043D01*
X224747827Y-135619267D01*
X224748007Y-135619139D01*
X224843698Y-135539612D01*
X224865109Y-135521818D01*
X224865190Y-135521750D01*
X224986380Y-135417639D01*
X224986708Y-135417367D01*
X225121462Y-135309883D01*
X225122170Y-135309361D01*
X225280064Y-135201772D01*
X225281030Y-135201180D01*
X225464829Y-135100473D01*
X225473731Y-135099503D01*
X225478561Y-135102301D01*
G37*
%TD.AperFunction*%
%TD*%
%TA.AperFunction,Conductor*%
%TO.N,GND*%
G36*
X225478561Y-135102301D02*
G01*
X225941487Y-135547475D01*
X225941489Y-135547476D01*
X226423230Y-136010743D01*
X225578915Y-136822680D01*
X225577323Y-136824211D01*
X225478561Y-136919185D01*
X225470222Y-136922450D01*
X225464829Y-136921013D01*
X225289608Y-136825007D01*
X225281026Y-136820305D01*
X225280064Y-136819715D01*
X225122170Y-136712126D01*
X225121462Y-136711604D01*
X224986708Y-136604120D01*
X224986380Y-136603848D01*
X224865190Y-136499737D01*
X224865097Y-136499659D01*
X224748186Y-136402497D01*
X224748007Y-136402348D01*
X224747827Y-136402220D01*
X224625776Y-136315444D01*
X224625768Y-136315439D01*
X224625481Y-136315235D01*
X224487959Y-136241694D01*
X224487524Y-136241542D01*
X224326252Y-136185199D01*
X224326249Y-136185198D01*
X224325822Y-136185049D01*
X224129452Y-136148624D01*
X223900304Y-136136337D01*
X223892226Y-136132472D01*
X223889230Y-136124654D01*
X223889230Y-135896832D01*
X223892657Y-135888559D01*
X223900303Y-135885149D01*
X224129452Y-135872863D01*
X224325822Y-135836438D01*
X224326249Y-135836289D01*
X224326252Y-135836288D01*
X224487524Y-135779945D01*
X224487959Y-135779793D01*
X224625481Y-135706252D01*
X224625768Y-135706048D01*
X224625776Y-135706043D01*
X224747827Y-135619267D01*
X224748007Y-135619139D01*
X224843698Y-135539612D01*
X224865109Y-135521818D01*
X224865190Y-135521750D01*
X224986380Y-135417639D01*
X224986708Y-135417367D01*
X225121462Y-135309883D01*
X225122170Y-135309361D01*
X225280064Y-135201772D01*
X225281030Y-135201180D01*
X225464829Y-135100473D01*
X225473731Y-135099503D01*
X225478561Y-135102301D01*
G37*
%TD.AperFunction*%
%TD*%
%TA.AperFunction,Conductor*%
%TO.N,GND*%
G36*
X189796676Y-126870223D02*
G01*
X189586707Y-126931545D01*
X189398427Y-126967224D01*
X189397566Y-126967354D01*
X189305211Y-126977751D01*
X189226276Y-126986636D01*
X189225851Y-126986676D01*
X189066487Y-126998757D01*
X188915019Y-127012730D01*
X188915010Y-127012731D01*
X188914806Y-127012750D01*
X188766568Y-127037791D01*
X188766219Y-127037897D01*
X188766214Y-127037898D01*
X188696299Y-127059092D01*
X188617324Y-127083032D01*
X188462622Y-127157625D01*
X188462265Y-127157870D01*
X188462262Y-127157872D01*
X188389003Y-127208206D01*
X188298011Y-127270724D01*
X188297724Y-127270982D01*
X188127291Y-127424068D01*
X188118847Y-127427047D01*
X188111200Y-127423637D01*
X187950106Y-127262543D01*
X187946679Y-127254270D01*
X187949675Y-127246452D01*
X188102761Y-127076019D01*
X188103019Y-127075732D01*
X188185871Y-126955145D01*
X188215871Y-126911481D01*
X188215873Y-126911478D01*
X188216118Y-126911121D01*
X188290711Y-126756419D01*
X188335952Y-126607175D01*
X188360993Y-126458937D01*
X188374986Y-126307256D01*
X188387067Y-126147892D01*
X188387107Y-126147467D01*
X188406388Y-125976181D01*
X188406520Y-125975312D01*
X188442091Y-125787600D01*
X188442355Y-125786498D01*
X188501111Y-125585317D01*
X188506720Y-125578336D01*
X188512113Y-125576899D01*
X189822460Y-125551283D01*
X189796676Y-126870223D01*
G37*
%TD.AperFunction*%
%TD*%
%TA.AperFunction,Conductor*%
%TO.N,GND*%
G36*
X189796676Y-126870223D02*
G01*
X189586707Y-126931545D01*
X189398427Y-126967224D01*
X189397566Y-126967354D01*
X189305211Y-126977751D01*
X189226276Y-126986636D01*
X189225851Y-126986676D01*
X189066487Y-126998757D01*
X188915019Y-127012730D01*
X188915010Y-127012731D01*
X188914806Y-127012750D01*
X188766568Y-127037791D01*
X188766219Y-127037897D01*
X188766214Y-127037898D01*
X188696299Y-127059092D01*
X188617324Y-127083032D01*
X188462622Y-127157625D01*
X188462265Y-127157870D01*
X188462262Y-127157872D01*
X188389003Y-127208206D01*
X188298011Y-127270724D01*
X188297724Y-127270982D01*
X188127291Y-127424068D01*
X188118847Y-127427047D01*
X188111200Y-127423637D01*
X187950106Y-127262543D01*
X187946679Y-127254270D01*
X187949675Y-127246452D01*
X188102761Y-127076019D01*
X188103019Y-127075732D01*
X188185871Y-126955145D01*
X188215871Y-126911481D01*
X188215873Y-126911478D01*
X188216118Y-126911121D01*
X188290711Y-126756419D01*
X188335952Y-126607175D01*
X188360993Y-126458937D01*
X188374986Y-126307256D01*
X188387067Y-126147892D01*
X188387107Y-126147467D01*
X188406388Y-125976181D01*
X188406520Y-125975312D01*
X188442091Y-125787600D01*
X188442355Y-125786498D01*
X188501111Y-125585317D01*
X188506720Y-125578336D01*
X188512113Y-125576899D01*
X189822460Y-125551283D01*
X189796676Y-126870223D01*
G37*
%TD.AperFunction*%
%TD*%
%TA.AperFunction,Conductor*%
%TO.N,GND*%
G36*
X171195972Y-133902458D02*
G01*
X171195933Y-133904436D01*
X171195933Y-133904437D01*
X171191763Y-134117780D01*
X171188175Y-134125984D01*
X171183345Y-134128782D01*
X170982164Y-134187538D01*
X170981064Y-134187801D01*
X170793346Y-134223374D01*
X170792485Y-134223504D01*
X170700130Y-134233901D01*
X170621195Y-134242786D01*
X170620770Y-134242826D01*
X170461406Y-134254907D01*
X170309938Y-134268880D01*
X170309929Y-134268881D01*
X170309725Y-134268900D01*
X170161487Y-134293941D01*
X170161138Y-134294047D01*
X170161133Y-134294048D01*
X170091218Y-134315242D01*
X170012243Y-134339182D01*
X169857541Y-134413775D01*
X169857184Y-134414020D01*
X169857181Y-134414022D01*
X169783922Y-134464356D01*
X169692930Y-134526874D01*
X169692643Y-134527132D01*
X169522210Y-134680218D01*
X169513766Y-134683197D01*
X169506119Y-134679787D01*
X169345025Y-134518693D01*
X169341598Y-134510420D01*
X169344594Y-134502602D01*
X169497680Y-134332169D01*
X169497938Y-134331882D01*
X169596931Y-134187802D01*
X169610790Y-134167631D01*
X169610792Y-134167628D01*
X169611037Y-134167271D01*
X169685630Y-134012569D01*
X169718697Y-133903486D01*
X169730764Y-133863679D01*
X169730765Y-133863674D01*
X169730871Y-133863325D01*
X169755912Y-133715087D01*
X169769905Y-133563406D01*
X169781986Y-133404042D01*
X169782026Y-133403617D01*
X169801307Y-133232331D01*
X169801439Y-133231462D01*
X169837010Y-133043750D01*
X169837274Y-133042648D01*
X169896030Y-132841467D01*
X169901639Y-132834486D01*
X169907032Y-132833049D01*
X169939826Y-132832408D01*
X170695486Y-132817636D01*
X170695487Y-132817636D01*
X170697922Y-132817588D01*
X171217379Y-132807433D01*
X171195972Y-133902458D01*
G37*
%TD.AperFunction*%
%TD*%
%TA.AperFunction,Conductor*%
%TO.N,GND*%
G36*
X171195972Y-133902458D02*
G01*
X171195933Y-133904436D01*
X171195933Y-133904437D01*
X171191763Y-134117780D01*
X171188175Y-134125984D01*
X171183345Y-134128782D01*
X170982164Y-134187538D01*
X170981064Y-134187801D01*
X170793346Y-134223374D01*
X170792485Y-134223504D01*
X170700130Y-134233901D01*
X170621195Y-134242786D01*
X170620770Y-134242826D01*
X170461406Y-134254907D01*
X170309938Y-134268880D01*
X170309929Y-134268881D01*
X170309725Y-134268900D01*
X170161487Y-134293941D01*
X170161138Y-134294047D01*
X170161133Y-134294048D01*
X170091218Y-134315242D01*
X170012243Y-134339182D01*
X169857541Y-134413775D01*
X169857184Y-134414020D01*
X169857181Y-134414022D01*
X169783922Y-134464356D01*
X169692930Y-134526874D01*
X169692643Y-134527132D01*
X169522210Y-134680218D01*
X169513766Y-134683197D01*
X169506119Y-134679787D01*
X169345025Y-134518693D01*
X169341598Y-134510420D01*
X169344594Y-134502602D01*
X169497680Y-134332169D01*
X169497938Y-134331882D01*
X169596931Y-134187802D01*
X169610790Y-134167631D01*
X169610792Y-134167628D01*
X169611037Y-134167271D01*
X169685630Y-134012569D01*
X169718697Y-133903486D01*
X169730764Y-133863679D01*
X169730765Y-133863674D01*
X169730871Y-133863325D01*
X169755912Y-133715087D01*
X169769905Y-133563406D01*
X169781986Y-133404042D01*
X169782026Y-133403617D01*
X169801307Y-133232331D01*
X169801439Y-133231462D01*
X169837010Y-133043750D01*
X169837274Y-133042648D01*
X169896030Y-132841467D01*
X169901639Y-132834486D01*
X169907032Y-132833049D01*
X169939826Y-132832408D01*
X170695486Y-132817636D01*
X170695487Y-132817636D01*
X170697922Y-132817588D01*
X171217379Y-132807433D01*
X171195972Y-133902458D01*
G37*
%TD.AperFunction*%
%TD*%
%TA.AperFunction,Conductor*%
%TO.N,GND*%
G36*
X189913652Y-125000224D02*
G01*
X190097449Y-125100931D01*
X190098415Y-125101523D01*
X190256309Y-125209112D01*
X190257017Y-125209634D01*
X190391771Y-125317118D01*
X190392093Y-125317385D01*
X190513321Y-125421529D01*
X190630471Y-125518890D01*
X190630651Y-125519018D01*
X190752702Y-125605795D01*
X190752710Y-125605800D01*
X190752997Y-125606004D01*
X190890519Y-125679545D01*
X190890954Y-125679697D01*
X191052225Y-125736040D01*
X191052228Y-125736041D01*
X191052655Y-125736190D01*
X191249025Y-125772615D01*
X191478174Y-125784901D01*
X191486251Y-125788766D01*
X191489247Y-125796584D01*
X191489248Y-126024405D01*
X191485821Y-126032678D01*
X191478175Y-126036088D01*
X191249025Y-126048375D01*
X191052655Y-126084800D01*
X191052228Y-126084949D01*
X191052225Y-126084950D01*
X190890954Y-126141293D01*
X190890519Y-126141445D01*
X190752996Y-126214986D01*
X190752709Y-126215190D01*
X190752701Y-126215195D01*
X190630650Y-126301971D01*
X190630470Y-126302099D01*
X190513320Y-126399460D01*
X190391928Y-126503744D01*
X190256675Y-126611627D01*
X190097943Y-126719785D01*
X189906112Y-126824893D01*
X188955251Y-125910492D01*
X189324307Y-125555589D01*
X189325985Y-125553975D01*
X189325986Y-125553975D01*
X189463714Y-125421529D01*
X189899920Y-125002052D01*
X189908259Y-124998787D01*
X189913652Y-125000224D01*
G37*
%TD.AperFunction*%
%TD*%
%TA.AperFunction,Conductor*%
%TO.N,GND*%
G36*
X189913652Y-125000224D02*
G01*
X190097449Y-125100931D01*
X190098415Y-125101523D01*
X190256309Y-125209112D01*
X190257017Y-125209634D01*
X190391771Y-125317118D01*
X190392093Y-125317385D01*
X190513321Y-125421529D01*
X190630471Y-125518890D01*
X190630651Y-125519018D01*
X190752702Y-125605795D01*
X190752710Y-125605800D01*
X190752997Y-125606004D01*
X190890519Y-125679545D01*
X190890954Y-125679697D01*
X191052225Y-125736040D01*
X191052228Y-125736041D01*
X191052655Y-125736190D01*
X191249025Y-125772615D01*
X191478174Y-125784901D01*
X191486251Y-125788766D01*
X191489247Y-125796584D01*
X191489248Y-126024405D01*
X191485821Y-126032678D01*
X191478175Y-126036088D01*
X191249025Y-126048375D01*
X191052655Y-126084800D01*
X191052228Y-126084949D01*
X191052225Y-126084950D01*
X190890954Y-126141293D01*
X190890519Y-126141445D01*
X190752996Y-126214986D01*
X190752709Y-126215190D01*
X190752701Y-126215195D01*
X190630650Y-126301971D01*
X190630470Y-126302099D01*
X190513320Y-126399460D01*
X190391928Y-126503744D01*
X190256675Y-126611627D01*
X190097943Y-126719785D01*
X189906112Y-126824893D01*
X188955251Y-125910492D01*
X189324307Y-125555589D01*
X189325985Y-125553975D01*
X189325986Y-125553975D01*
X189463714Y-125421529D01*
X189899920Y-125002052D01*
X189908259Y-124998787D01*
X189913652Y-125000224D01*
G37*
%TD.AperFunction*%
%TD*%
%TA.AperFunction,Conductor*%
%TO.N,GND*%
G36*
X189904439Y-107995736D02*
G01*
X190087687Y-108094054D01*
X190088687Y-108094657D01*
X190245955Y-108200481D01*
X190246695Y-108201022D01*
X190380683Y-108307314D01*
X190381008Y-108307581D01*
X190501404Y-108411067D01*
X190617572Y-108508141D01*
X190738979Y-108595249D01*
X190739296Y-108595421D01*
X190739300Y-108595423D01*
X190810821Y-108634116D01*
X190875236Y-108668966D01*
X190875660Y-108669116D01*
X190875662Y-108669117D01*
X190994472Y-108711177D01*
X191035958Y-108725864D01*
X191036411Y-108725949D01*
X191036410Y-108725949D01*
X191230379Y-108762445D01*
X191230384Y-108762446D01*
X191230758Y-108762516D01*
X191231135Y-108762537D01*
X191231139Y-108762537D01*
X191458184Y-108774892D01*
X191466258Y-108778764D01*
X191469248Y-108786575D01*
X191469249Y-109014415D01*
X191465822Y-109022688D01*
X191458189Y-109026098D01*
X191281980Y-109035745D01*
X191232365Y-109038461D01*
X191174883Y-109049362D01*
X191039439Y-109075048D01*
X191039434Y-109075049D01*
X191038993Y-109075133D01*
X190879605Y-109132164D01*
X190744677Y-109206208D01*
X190624684Y-109293919D01*
X190510098Y-109391951D01*
X190510025Y-109392016D01*
X190391551Y-109496820D01*
X190391222Y-109497100D01*
X190259390Y-109605315D01*
X190258695Y-109605843D01*
X190104006Y-109714184D01*
X190103044Y-109714791D01*
X189975963Y-109786267D01*
X189922824Y-109816155D01*
X189913933Y-109817224D01*
X189909064Y-109814472D01*
X188964130Y-108923968D01*
X188960459Y-108915800D01*
X188963959Y-108907102D01*
X189890712Y-107997695D01*
X189899018Y-107994347D01*
X189904439Y-107995736D01*
G37*
%TD.AperFunction*%
%TD*%
%TA.AperFunction,Conductor*%
%TO.N,GND*%
G36*
X189904439Y-107995736D02*
G01*
X190087687Y-108094054D01*
X190088687Y-108094657D01*
X190245955Y-108200481D01*
X190246695Y-108201022D01*
X190380683Y-108307314D01*
X190381008Y-108307581D01*
X190501404Y-108411067D01*
X190617572Y-108508141D01*
X190738979Y-108595249D01*
X190739296Y-108595421D01*
X190739300Y-108595423D01*
X190810821Y-108634116D01*
X190875236Y-108668966D01*
X190875660Y-108669116D01*
X190875662Y-108669117D01*
X190994472Y-108711177D01*
X191035958Y-108725864D01*
X191036411Y-108725949D01*
X191036410Y-108725949D01*
X191230379Y-108762445D01*
X191230384Y-108762446D01*
X191230758Y-108762516D01*
X191231135Y-108762537D01*
X191231139Y-108762537D01*
X191458184Y-108774892D01*
X191466258Y-108778764D01*
X191469248Y-108786575D01*
X191469249Y-109014415D01*
X191465822Y-109022688D01*
X191458189Y-109026098D01*
X191281980Y-109035745D01*
X191232365Y-109038461D01*
X191174883Y-109049362D01*
X191039439Y-109075048D01*
X191039434Y-109075049D01*
X191038993Y-109075133D01*
X190879605Y-109132164D01*
X190744677Y-109206208D01*
X190624684Y-109293919D01*
X190510098Y-109391951D01*
X190510025Y-109392016D01*
X190391551Y-109496820D01*
X190391222Y-109497100D01*
X190259390Y-109605315D01*
X190258695Y-109605843D01*
X190104006Y-109714184D01*
X190103044Y-109714791D01*
X189975963Y-109786267D01*
X189922824Y-109816155D01*
X189913933Y-109817224D01*
X189909064Y-109814472D01*
X188964130Y-108923968D01*
X188960459Y-108915800D01*
X188963959Y-108907102D01*
X189890712Y-107997695D01*
X189899018Y-107994347D01*
X189904439Y-107995736D01*
G37*
%TD.AperFunction*%
%TD*%
%TA.AperFunction,Conductor*%
%TO.N,GND*%
G36*
X189940211Y-91013846D02*
G01*
X190120581Y-91119445D01*
X190121486Y-91120034D01*
X190206145Y-91180931D01*
X190276554Y-91231579D01*
X190277213Y-91232089D01*
X190341755Y-91285882D01*
X190409751Y-91342555D01*
X190410000Y-91342770D01*
X190529477Y-91449022D01*
X190529528Y-91449066D01*
X190529555Y-91449089D01*
X190585249Y-91496589D01*
X190645234Y-91547750D01*
X190766654Y-91635658D01*
X190903251Y-91709567D01*
X190903686Y-91709720D01*
X191064107Y-91766143D01*
X191064110Y-91766144D01*
X191064540Y-91766295D01*
X191260035Y-91802665D01*
X191488177Y-91814900D01*
X191496254Y-91818765D01*
X191499250Y-91826583D01*
X191499250Y-92054393D01*
X191495823Y-92062666D01*
X191488165Y-92066077D01*
X191356247Y-92073019D01*
X191255409Y-92078326D01*
X191142889Y-92098745D01*
X191056220Y-92114473D01*
X191056217Y-92114474D01*
X191055797Y-92114550D01*
X191055396Y-92114686D01*
X191055390Y-92114688D01*
X190943467Y-92152781D01*
X190890648Y-92170758D01*
X190750192Y-92243542D01*
X190749899Y-92243743D01*
X190749895Y-92243745D01*
X190624841Y-92329373D01*
X190624663Y-92329495D01*
X190624497Y-92329627D01*
X190504292Y-92425208D01*
X190379482Y-92527136D01*
X190379122Y-92527418D01*
X190240315Y-92632017D01*
X190239582Y-92632526D01*
X190076931Y-92736534D01*
X190075958Y-92737092D01*
X189982592Y-92784708D01*
X189886695Y-92833615D01*
X189877768Y-92834321D01*
X189873025Y-92831383D01*
X188963988Y-91904248D01*
X188960643Y-91895942D01*
X188964484Y-91887389D01*
X189926444Y-91015276D01*
X189934874Y-91012258D01*
X189940211Y-91013846D01*
G37*
%TD.AperFunction*%
%TD*%
%TA.AperFunction,Conductor*%
%TO.N,GND*%
G36*
X189940211Y-91013846D02*
G01*
X190120581Y-91119445D01*
X190121486Y-91120034D01*
X190206145Y-91180931D01*
X190276554Y-91231579D01*
X190277213Y-91232089D01*
X190341755Y-91285882D01*
X190409751Y-91342555D01*
X190410000Y-91342770D01*
X190529477Y-91449022D01*
X190529528Y-91449066D01*
X190529555Y-91449089D01*
X190585249Y-91496589D01*
X190645234Y-91547750D01*
X190766654Y-91635658D01*
X190903251Y-91709567D01*
X190903686Y-91709720D01*
X191064107Y-91766143D01*
X191064110Y-91766144D01*
X191064540Y-91766295D01*
X191260035Y-91802665D01*
X191488177Y-91814900D01*
X191496254Y-91818765D01*
X191499250Y-91826583D01*
X191499250Y-92054393D01*
X191495823Y-92062666D01*
X191488165Y-92066077D01*
X191356247Y-92073019D01*
X191255409Y-92078326D01*
X191142889Y-92098745D01*
X191056220Y-92114473D01*
X191056217Y-92114474D01*
X191055797Y-92114550D01*
X191055396Y-92114686D01*
X191055390Y-92114688D01*
X190943467Y-92152781D01*
X190890648Y-92170758D01*
X190750192Y-92243542D01*
X190749899Y-92243743D01*
X190749895Y-92243745D01*
X190624841Y-92329373D01*
X190624663Y-92329495D01*
X190624497Y-92329627D01*
X190504292Y-92425208D01*
X190379482Y-92527136D01*
X190379122Y-92527418D01*
X190240315Y-92632017D01*
X190239582Y-92632526D01*
X190076931Y-92736534D01*
X190075958Y-92737092D01*
X189982592Y-92784708D01*
X189886695Y-92833615D01*
X189877768Y-92834321D01*
X189873025Y-92831383D01*
X188963988Y-91904248D01*
X188960643Y-91895942D01*
X188964484Y-91887389D01*
X189926444Y-91015276D01*
X189934874Y-91012258D01*
X189940211Y-91013846D01*
G37*
%TD.AperFunction*%
%TD*%
%TA.AperFunction,Conductor*%
%TO.N,GND*%
G36*
X223188717Y-159035834D02*
G01*
X223302267Y-159191134D01*
X223393595Y-159338316D01*
X223472924Y-159477527D01*
X223550473Y-159608916D01*
X223636463Y-159732629D01*
X223741113Y-159848817D01*
X223779715Y-159880272D01*
X223874646Y-159957625D01*
X223875019Y-159957844D01*
X223875024Y-159957848D01*
X224045095Y-160057916D01*
X224047280Y-160059202D01*
X224047630Y-160059351D01*
X224259032Y-160149352D01*
X224265302Y-160155746D01*
X224265443Y-160164119D01*
X224187524Y-160378200D01*
X224181475Y-160384802D01*
X224173124Y-160385391D01*
X223954565Y-160318891D01*
X223954197Y-160318779D01*
X223757743Y-160286054D01*
X223672117Y-160285064D01*
X223586948Y-160284078D01*
X223586944Y-160284078D01*
X223586491Y-160284073D01*
X223492393Y-160297762D01*
X223432940Y-160306411D01*
X223432938Y-160306411D01*
X223432563Y-160306466D01*
X223288077Y-160346861D01*
X223145157Y-160398888D01*
X223083918Y-160422396D01*
X222996101Y-160456107D01*
X222995712Y-160456248D01*
X222832912Y-160512213D01*
X222832081Y-160512465D01*
X222647522Y-160560918D01*
X222646430Y-160561149D01*
X222440013Y-160594538D01*
X222431299Y-160592476D01*
X222427683Y-160588226D01*
X222111962Y-159957625D01*
X221846388Y-159427183D01*
X221845748Y-159418251D01*
X221852024Y-159411287D01*
X223042727Y-158872268D01*
X223188717Y-159035834D01*
G37*
%TD.AperFunction*%
%TD*%
%TA.AperFunction,Conductor*%
%TO.N,GND*%
G36*
X223188717Y-159035834D02*
G01*
X223302267Y-159191134D01*
X223393595Y-159338316D01*
X223472924Y-159477527D01*
X223550473Y-159608916D01*
X223636463Y-159732629D01*
X223741113Y-159848817D01*
X223779715Y-159880272D01*
X223874646Y-159957625D01*
X223875019Y-159957844D01*
X223875024Y-159957848D01*
X224045095Y-160057916D01*
X224047280Y-160059202D01*
X224047630Y-160059351D01*
X224259032Y-160149352D01*
X224265302Y-160155746D01*
X224265443Y-160164119D01*
X224187524Y-160378200D01*
X224181475Y-160384802D01*
X224173124Y-160385391D01*
X223954565Y-160318891D01*
X223954197Y-160318779D01*
X223757743Y-160286054D01*
X223672117Y-160285064D01*
X223586948Y-160284078D01*
X223586944Y-160284078D01*
X223586491Y-160284073D01*
X223492393Y-160297762D01*
X223432940Y-160306411D01*
X223432938Y-160306411D01*
X223432563Y-160306466D01*
X223288077Y-160346861D01*
X223145157Y-160398888D01*
X223083918Y-160422396D01*
X222996101Y-160456107D01*
X222995712Y-160456248D01*
X222832912Y-160512213D01*
X222832081Y-160512465D01*
X222647522Y-160560918D01*
X222646430Y-160561149D01*
X222440013Y-160594538D01*
X222431299Y-160592476D01*
X222427683Y-160588226D01*
X222111962Y-159957625D01*
X221846388Y-159427183D01*
X221845748Y-159418251D01*
X221852024Y-159411287D01*
X223042727Y-158872268D01*
X223188717Y-159035834D01*
G37*
%TD.AperFunction*%
%TD*%
%TA.AperFunction,Conductor*%
%TO.N,GND*%
G36*
X239991407Y-166878010D02*
G01*
X239995290Y-166882031D01*
X240079741Y-167027247D01*
X240099108Y-167060550D01*
X240099632Y-167061561D01*
X240178132Y-167233223D01*
X240178468Y-167234037D01*
X240237528Y-167394024D01*
X240237666Y-167394419D01*
X240287128Y-167544724D01*
X240336770Y-167687008D01*
X240396402Y-167822961D01*
X240475900Y-167954468D01*
X240476198Y-167954819D01*
X240476201Y-167954824D01*
X240534587Y-168023741D01*
X240585139Y-168083412D01*
X240585486Y-168083711D01*
X240585489Y-168083714D01*
X240601004Y-168097083D01*
X240733993Y-168211677D01*
X240923062Y-168335093D01*
X240928117Y-168342484D01*
X240926800Y-168350740D01*
X240926323Y-168351567D01*
X240812879Y-168548058D01*
X240805775Y-168553508D01*
X240797454Y-168552641D01*
X240593490Y-168449168D01*
X240405745Y-168383050D01*
X240405306Y-168382968D01*
X240405300Y-168382966D01*
X240237915Y-168351567D01*
X240237911Y-168351567D01*
X240237471Y-168351484D01*
X240228581Y-168351208D01*
X240082400Y-168346661D01*
X240082393Y-168346661D01*
X240082032Y-168346650D01*
X239932797Y-168360732D01*
X239932610Y-168360763D01*
X239932598Y-168360765D01*
X239783164Y-168385905D01*
X239783149Y-168385908D01*
X239783130Y-168385911D01*
X239626615Y-168414329D01*
X239626151Y-168414403D01*
X239456441Y-168438221D01*
X239455523Y-168438314D01*
X239372521Y-168443345D01*
X239265791Y-168449814D01*
X239264631Y-168449826D01*
X239119756Y-168444095D01*
X239056089Y-168441576D01*
X239047958Y-168437825D01*
X239045254Y-168432925D01*
X239040270Y-168414403D01*
X238704671Y-167167367D01*
X239246969Y-167043936D01*
X239982579Y-166876505D01*
X239991407Y-166878010D01*
G37*
%TD.AperFunction*%
%TD*%
%TA.AperFunction,Conductor*%
%TO.N,GND*%
G36*
X239991407Y-166878010D02*
G01*
X239995290Y-166882031D01*
X240079741Y-167027247D01*
X240099108Y-167060550D01*
X240099632Y-167061561D01*
X240178132Y-167233223D01*
X240178468Y-167234037D01*
X240237528Y-167394024D01*
X240237666Y-167394419D01*
X240287128Y-167544724D01*
X240336770Y-167687008D01*
X240396402Y-167822961D01*
X240475900Y-167954468D01*
X240476198Y-167954819D01*
X240476201Y-167954824D01*
X240534587Y-168023741D01*
X240585139Y-168083412D01*
X240585486Y-168083711D01*
X240585489Y-168083714D01*
X240601004Y-168097083D01*
X240733993Y-168211677D01*
X240923062Y-168335093D01*
X240928117Y-168342484D01*
X240926800Y-168350740D01*
X240926323Y-168351567D01*
X240812879Y-168548058D01*
X240805775Y-168553508D01*
X240797454Y-168552641D01*
X240593490Y-168449168D01*
X240405745Y-168383050D01*
X240405306Y-168382968D01*
X240405300Y-168382966D01*
X240237915Y-168351567D01*
X240237911Y-168351567D01*
X240237471Y-168351484D01*
X240228581Y-168351208D01*
X240082400Y-168346661D01*
X240082393Y-168346661D01*
X240082032Y-168346650D01*
X239932797Y-168360732D01*
X239932610Y-168360763D01*
X239932598Y-168360765D01*
X239783164Y-168385905D01*
X239783149Y-168385908D01*
X239783130Y-168385911D01*
X239626615Y-168414329D01*
X239626151Y-168414403D01*
X239456441Y-168438221D01*
X239455523Y-168438314D01*
X239372521Y-168443345D01*
X239265791Y-168449814D01*
X239264631Y-168449826D01*
X239119756Y-168444095D01*
X239056089Y-168441576D01*
X239047958Y-168437825D01*
X239045254Y-168432925D01*
X239040270Y-168414403D01*
X238704671Y-167167367D01*
X239246969Y-167043936D01*
X239982579Y-166876505D01*
X239991407Y-166878010D01*
G37*
%TD.AperFunction*%
%TD*%
%TA.AperFunction,Conductor*%
%TO.N,GND*%
G36*
X208847455Y-130812588D02*
G01*
X209004406Y-130942762D01*
X209005180Y-130943465D01*
X209138483Y-131075814D01*
X209138998Y-131076359D01*
X209251953Y-131203862D01*
X209252131Y-131204068D01*
X209307328Y-131269375D01*
X209354021Y-131324621D01*
X209454051Y-131435958D01*
X209454237Y-131436131D01*
X209454241Y-131436135D01*
X209561177Y-131535577D01*
X209561183Y-131535582D01*
X209561480Y-131535858D01*
X209561813Y-131536089D01*
X209561816Y-131536092D01*
X209685253Y-131621928D01*
X209685258Y-131621931D01*
X209685658Y-131622209D01*
X209835936Y-131692903D01*
X209898731Y-131710796D01*
X210021290Y-131745720D01*
X210021296Y-131745721D01*
X210021667Y-131745827D01*
X210022052Y-131745882D01*
X210022051Y-131745882D01*
X210241241Y-131777301D01*
X210248944Y-131781867D01*
X210251236Y-131789903D01*
X210231381Y-132016848D01*
X210227247Y-132024791D01*
X210219307Y-132027521D01*
X210101370Y-132023300D01*
X209981013Y-132018991D01*
X209774158Y-132037066D01*
X209773771Y-132037156D01*
X209773765Y-132037157D01*
X209700903Y-132054109D01*
X209600170Y-132077545D01*
X209599791Y-132077691D01*
X209599786Y-132077693D01*
X209463008Y-132130557D01*
X209449371Y-132135828D01*
X209312085Y-132207317D01*
X209311946Y-132207400D01*
X209311936Y-132207406D01*
X209178634Y-132287413D01*
X209039584Y-132371369D01*
X209039097Y-132371647D01*
X208884964Y-132454791D01*
X208884092Y-132455215D01*
X208705062Y-132533110D01*
X208703957Y-132533525D01*
X208493064Y-132600781D01*
X208490153Y-132601316D01*
X208489287Y-132601364D01*
X207732085Y-131521885D01*
X208833648Y-130811760D01*
X208842457Y-130810158D01*
X208847455Y-130812588D01*
G37*
%TD.AperFunction*%
%TD*%
%TA.AperFunction,Conductor*%
%TO.N,GND*%
G36*
X208847455Y-130812588D02*
G01*
X209004406Y-130942762D01*
X209005180Y-130943465D01*
X209138483Y-131075814D01*
X209138998Y-131076359D01*
X209251953Y-131203862D01*
X209252131Y-131204068D01*
X209307328Y-131269375D01*
X209354021Y-131324621D01*
X209454051Y-131435958D01*
X209454237Y-131436131D01*
X209454241Y-131436135D01*
X209561177Y-131535577D01*
X209561183Y-131535582D01*
X209561480Y-131535858D01*
X209561813Y-131536089D01*
X209561816Y-131536092D01*
X209685253Y-131621928D01*
X209685258Y-131621931D01*
X209685658Y-131622209D01*
X209835936Y-131692903D01*
X209898731Y-131710796D01*
X210021290Y-131745720D01*
X210021296Y-131745721D01*
X210021667Y-131745827D01*
X210022052Y-131745882D01*
X210022051Y-131745882D01*
X210241241Y-131777301D01*
X210248944Y-131781867D01*
X210251236Y-131789903D01*
X210231381Y-132016848D01*
X210227247Y-132024791D01*
X210219307Y-132027521D01*
X210101370Y-132023300D01*
X209981013Y-132018991D01*
X209774158Y-132037066D01*
X209773771Y-132037156D01*
X209773765Y-132037157D01*
X209700903Y-132054109D01*
X209600170Y-132077545D01*
X209599791Y-132077691D01*
X209599786Y-132077693D01*
X209463008Y-132130557D01*
X209449371Y-132135828D01*
X209312085Y-132207317D01*
X209311946Y-132207400D01*
X209311936Y-132207406D01*
X209178634Y-132287413D01*
X209039584Y-132371369D01*
X209039097Y-132371647D01*
X208884964Y-132454791D01*
X208884092Y-132455215D01*
X208705062Y-132533110D01*
X208703957Y-132533525D01*
X208493064Y-132600781D01*
X208490153Y-132601316D01*
X208489287Y-132601364D01*
X207732085Y-131521885D01*
X208833648Y-130811760D01*
X208842457Y-130810158D01*
X208847455Y-130812588D01*
G37*
%TD.AperFunction*%
%TD*%
%TA.AperFunction,Conductor*%
%TO.N,GND*%
G36*
X210280172Y-113842102D02*
G01*
X210447975Y-113965408D01*
X210448801Y-113966075D01*
X210550017Y-114055988D01*
X210591313Y-114092673D01*
X210591901Y-114093232D01*
X210712500Y-114216333D01*
X210712696Y-114216540D01*
X210820984Y-114333879D01*
X210926474Y-114443032D01*
X210926637Y-114443175D01*
X210926640Y-114443178D01*
X211038455Y-114541361D01*
X211038459Y-114541364D01*
X211038738Y-114541609D01*
X211039046Y-114541814D01*
X211039051Y-114541818D01*
X211150961Y-114616353D01*
X211167451Y-114627336D01*
X211167865Y-114627525D01*
X211167869Y-114627527D01*
X211243404Y-114661969D01*
X211322289Y-114697938D01*
X211322721Y-114698059D01*
X211322725Y-114698060D01*
X211512556Y-114751036D01*
X211512564Y-114751038D01*
X211512927Y-114751139D01*
X211623070Y-114766777D01*
X211738064Y-114783105D01*
X211745773Y-114787661D01*
X211748074Y-114795709D01*
X211728219Y-115022647D01*
X211724085Y-115030590D01*
X211716154Y-115033320D01*
X211596363Y-115029115D01*
X211481608Y-115025087D01*
X211278158Y-115043566D01*
X211107396Y-115084835D01*
X210959822Y-115144580D01*
X210825933Y-115218487D01*
X210696228Y-115302242D01*
X210561384Y-115391413D01*
X210561019Y-115391643D01*
X210411753Y-115481804D01*
X210410952Y-115482246D01*
X210237711Y-115569198D01*
X210236663Y-115569661D01*
X210037229Y-115646378D01*
X210028278Y-115646150D01*
X210023866Y-115642734D01*
X209216440Y-114625881D01*
X209213979Y-114617271D01*
X209218691Y-114609165D01*
X210266332Y-113842090D01*
X210275032Y-113839967D01*
X210280172Y-113842102D01*
G37*
%TD.AperFunction*%
%TD*%
%TA.AperFunction,Conductor*%
%TO.N,GND*%
G36*
X210280172Y-113842102D02*
G01*
X210447975Y-113965408D01*
X210448801Y-113966075D01*
X210550017Y-114055988D01*
X210591313Y-114092673D01*
X210591901Y-114093232D01*
X210712500Y-114216333D01*
X210712696Y-114216540D01*
X210820984Y-114333879D01*
X210926474Y-114443032D01*
X210926637Y-114443175D01*
X210926640Y-114443178D01*
X211038455Y-114541361D01*
X211038459Y-114541364D01*
X211038738Y-114541609D01*
X211039046Y-114541814D01*
X211039051Y-114541818D01*
X211150961Y-114616353D01*
X211167451Y-114627336D01*
X211167865Y-114627525D01*
X211167869Y-114627527D01*
X211243404Y-114661969D01*
X211322289Y-114697938D01*
X211322721Y-114698059D01*
X211322725Y-114698060D01*
X211512556Y-114751036D01*
X211512564Y-114751038D01*
X211512927Y-114751139D01*
X211623070Y-114766777D01*
X211738064Y-114783105D01*
X211745773Y-114787661D01*
X211748074Y-114795709D01*
X211728219Y-115022647D01*
X211724085Y-115030590D01*
X211716154Y-115033320D01*
X211596363Y-115029115D01*
X211481608Y-115025087D01*
X211278158Y-115043566D01*
X211107396Y-115084835D01*
X210959822Y-115144580D01*
X210825933Y-115218487D01*
X210696228Y-115302242D01*
X210561384Y-115391413D01*
X210561019Y-115391643D01*
X210411753Y-115481804D01*
X210410952Y-115482246D01*
X210237711Y-115569198D01*
X210236663Y-115569661D01*
X210037229Y-115646378D01*
X210028278Y-115646150D01*
X210023866Y-115642734D01*
X209216440Y-114625881D01*
X209213979Y-114617271D01*
X209218691Y-114609165D01*
X210266332Y-113842090D01*
X210275032Y-113839967D01*
X210280172Y-113842102D01*
G37*
%TD.AperFunction*%
%TD*%
%TA.AperFunction,Conductor*%
%TO.N,GND*%
G36*
X211753588Y-96901243D02*
G01*
X211842259Y-96965109D01*
X211923000Y-97023263D01*
X211923849Y-97023937D01*
X212067714Y-97149464D01*
X212068315Y-97150026D01*
X212190011Y-97272295D01*
X212190262Y-97272556D01*
X212299404Y-97389231D01*
X212299429Y-97389257D01*
X212299445Y-97389274D01*
X212405712Y-97498030D01*
X212405886Y-97498182D01*
X212405895Y-97498190D01*
X212518365Y-97596120D01*
X212518650Y-97596368D01*
X212647981Y-97681980D01*
X212648406Y-97682173D01*
X212803012Y-97752372D01*
X212803017Y-97752374D01*
X212803427Y-97752560D01*
X212994712Y-97805799D01*
X212995087Y-97805852D01*
X212995091Y-97805853D01*
X213220581Y-97837833D01*
X213228291Y-97842388D01*
X213230593Y-97850437D01*
X213210738Y-98077377D01*
X213206604Y-98085320D01*
X213198675Y-98088050D01*
X213050901Y-98082889D01*
X212964910Y-98079886D01*
X212762161Y-98098461D01*
X212592054Y-98139891D01*
X212591650Y-98140056D01*
X212591647Y-98140057D01*
X212539035Y-98161546D01*
X212445125Y-98199903D01*
X212444808Y-98200080D01*
X212312097Y-98274118D01*
X212312088Y-98274123D01*
X212311906Y-98274225D01*
X212182932Y-98358585D01*
X212182898Y-98358608D01*
X212048938Y-98448573D01*
X212048558Y-98448818D01*
X211905473Y-98536866D01*
X211900227Y-98540094D01*
X211899439Y-98540537D01*
X211727313Y-98628904D01*
X211726283Y-98629371D01*
X211652438Y-98658595D01*
X211528137Y-98707785D01*
X211519184Y-98707643D01*
X211514740Y-98704270D01*
X210697500Y-97695288D01*
X210694956Y-97686702D01*
X210699589Y-97678551D01*
X210940978Y-97498190D01*
X211086804Y-97389231D01*
X211739747Y-96901364D01*
X211748426Y-96899158D01*
X211753588Y-96901243D01*
G37*
%TD.AperFunction*%
%TD*%
%TA.AperFunction,Conductor*%
%TO.N,GND*%
G36*
X211753588Y-96901243D02*
G01*
X211842259Y-96965109D01*
X211923000Y-97023263D01*
X211923849Y-97023937D01*
X212067714Y-97149464D01*
X212068315Y-97150026D01*
X212190011Y-97272295D01*
X212190262Y-97272556D01*
X212299404Y-97389231D01*
X212299429Y-97389257D01*
X212299445Y-97389274D01*
X212405712Y-97498030D01*
X212405886Y-97498182D01*
X212405895Y-97498190D01*
X212518365Y-97596120D01*
X212518650Y-97596368D01*
X212647981Y-97681980D01*
X212648406Y-97682173D01*
X212803012Y-97752372D01*
X212803017Y-97752374D01*
X212803427Y-97752560D01*
X212994712Y-97805799D01*
X212995087Y-97805852D01*
X212995091Y-97805853D01*
X213220581Y-97837833D01*
X213228291Y-97842388D01*
X213230593Y-97850437D01*
X213210738Y-98077377D01*
X213206604Y-98085320D01*
X213198675Y-98088050D01*
X213050901Y-98082889D01*
X212964910Y-98079886D01*
X212762161Y-98098461D01*
X212592054Y-98139891D01*
X212591650Y-98140056D01*
X212591647Y-98140057D01*
X212539035Y-98161546D01*
X212445125Y-98199903D01*
X212444808Y-98200080D01*
X212312097Y-98274118D01*
X212312088Y-98274123D01*
X212311906Y-98274225D01*
X212182932Y-98358585D01*
X212182898Y-98358608D01*
X212048938Y-98448573D01*
X212048558Y-98448818D01*
X211905473Y-98536866D01*
X211900227Y-98540094D01*
X211899439Y-98540537D01*
X211727313Y-98628904D01*
X211726283Y-98629371D01*
X211652438Y-98658595D01*
X211528137Y-98707785D01*
X211519184Y-98707643D01*
X211514740Y-98704270D01*
X210697500Y-97695288D01*
X210694956Y-97686702D01*
X210699589Y-97678551D01*
X210940978Y-97498190D01*
X211086804Y-97389231D01*
X211739747Y-96901364D01*
X211748426Y-96899158D01*
X211753588Y-96901243D01*
G37*
%TD.AperFunction*%
%TD*%
%TA.AperFunction,Conductor*%
%TO.N,GND*%
G36*
X229469307Y-101314037D02*
G01*
X229630604Y-101439677D01*
X229631429Y-101440384D01*
X229768267Y-101569062D01*
X229768831Y-101569630D01*
X229884499Y-101694376D01*
X229884712Y-101694612D01*
X229988678Y-101813249D01*
X230090253Y-101923349D01*
X230198830Y-102022552D01*
X230241078Y-102051624D01*
X230323491Y-102108335D01*
X230323495Y-102108337D01*
X230323900Y-102108616D01*
X230324343Y-102108823D01*
X230324346Y-102108825D01*
X230474527Y-102179095D01*
X230474957Y-102179296D01*
X230475408Y-102179424D01*
X230475410Y-102179425D01*
X230661114Y-102232241D01*
X230661494Y-102232349D01*
X230882044Y-102263959D01*
X230889747Y-102268525D01*
X230892039Y-102276561D01*
X230872182Y-102503521D01*
X230868048Y-102511464D01*
X230860122Y-102514194D01*
X230625779Y-102506078D01*
X230625422Y-102506111D01*
X230625417Y-102506111D01*
X230499406Y-102517700D01*
X230422503Y-102524772D01*
X230422090Y-102524872D01*
X230422085Y-102524873D01*
X230252258Y-102566062D01*
X230252254Y-102566063D01*
X230251843Y-102566163D01*
X230251450Y-102566322D01*
X230251449Y-102566322D01*
X230104574Y-102625626D01*
X230104568Y-102625629D01*
X230104253Y-102625756D01*
X230037143Y-102662449D01*
X229970355Y-102698966D01*
X229970348Y-102698970D01*
X229970191Y-102699056D01*
X229840112Y-102781567D01*
X229840086Y-102781584D01*
X229704694Y-102868651D01*
X229704237Y-102868930D01*
X229554155Y-102955992D01*
X229553297Y-102956444D01*
X229378873Y-103039156D01*
X229377774Y-103039610D01*
X229176863Y-103110930D01*
X229167920Y-103110468D01*
X229163590Y-103106925D01*
X228532406Y-102265530D01*
X228384430Y-102068271D01*
X228382206Y-102059598D01*
X228387139Y-102051624D01*
X229455468Y-101313640D01*
X229464222Y-101311758D01*
X229469307Y-101314037D01*
G37*
%TD.AperFunction*%
%TD*%
%TA.AperFunction,Conductor*%
%TO.N,GND*%
G36*
X229469307Y-101314037D02*
G01*
X229630604Y-101439677D01*
X229631429Y-101440384D01*
X229768267Y-101569062D01*
X229768831Y-101569630D01*
X229884499Y-101694376D01*
X229884712Y-101694612D01*
X229988678Y-101813249D01*
X230090253Y-101923349D01*
X230198830Y-102022552D01*
X230241078Y-102051624D01*
X230323491Y-102108335D01*
X230323495Y-102108337D01*
X230323900Y-102108616D01*
X230324343Y-102108823D01*
X230324346Y-102108825D01*
X230474527Y-102179095D01*
X230474957Y-102179296D01*
X230475408Y-102179424D01*
X230475410Y-102179425D01*
X230661114Y-102232241D01*
X230661494Y-102232349D01*
X230882044Y-102263959D01*
X230889747Y-102268525D01*
X230892039Y-102276561D01*
X230872182Y-102503521D01*
X230868048Y-102511464D01*
X230860122Y-102514194D01*
X230625779Y-102506078D01*
X230625422Y-102506111D01*
X230625417Y-102506111D01*
X230499406Y-102517700D01*
X230422503Y-102524772D01*
X230422090Y-102524872D01*
X230422085Y-102524873D01*
X230252258Y-102566062D01*
X230252254Y-102566063D01*
X230251843Y-102566163D01*
X230251450Y-102566322D01*
X230251449Y-102566322D01*
X230104574Y-102625626D01*
X230104568Y-102625629D01*
X230104253Y-102625756D01*
X230037143Y-102662449D01*
X229970355Y-102698966D01*
X229970348Y-102698970D01*
X229970191Y-102699056D01*
X229840112Y-102781567D01*
X229840086Y-102781584D01*
X229704694Y-102868651D01*
X229704237Y-102868930D01*
X229554155Y-102955992D01*
X229553297Y-102956444D01*
X229378873Y-103039156D01*
X229377774Y-103039610D01*
X229176863Y-103110930D01*
X229167920Y-103110468D01*
X229163590Y-103106925D01*
X228532406Y-102265530D01*
X228384430Y-102068271D01*
X228382206Y-102059598D01*
X228387139Y-102051624D01*
X229455468Y-101313640D01*
X229464222Y-101311758D01*
X229469307Y-101314037D01*
G37*
%TD.AperFunction*%
%TD*%
%TA.AperFunction,Conductor*%
%TO.N,GND*%
G36*
X227884806Y-118184761D02*
G01*
X227997845Y-118253130D01*
X228065713Y-118294178D01*
X228066685Y-118294835D01*
X228220144Y-118410120D01*
X228220868Y-118410710D01*
X228350276Y-118525276D01*
X228350624Y-118525599D01*
X228465981Y-118636828D01*
X228466033Y-118636877D01*
X228577343Y-118742088D01*
X228694436Y-118838396D01*
X228694731Y-118838584D01*
X228694735Y-118838587D01*
X228739642Y-118867213D01*
X228827370Y-118923136D01*
X228986206Y-118993643D01*
X228986620Y-118993757D01*
X228986623Y-118993758D01*
X229043573Y-119009431D01*
X229181000Y-119047251D01*
X229410830Y-119079743D01*
X229418542Y-119084294D01*
X229420847Y-119092348D01*
X229400990Y-119319308D01*
X229396856Y-119327251D01*
X229388954Y-119329982D01*
X229164528Y-119322664D01*
X229164521Y-119322664D01*
X229164145Y-119322652D01*
X229163771Y-119322690D01*
X229163764Y-119322690D01*
X228969836Y-119342280D01*
X228969831Y-119342281D01*
X228969375Y-119342327D01*
X228888002Y-119363858D01*
X228807078Y-119385270D01*
X228807073Y-119385272D01*
X228806630Y-119385389D01*
X228806208Y-119385578D01*
X228806204Y-119385579D01*
X228755699Y-119408148D01*
X228666828Y-119447861D01*
X228540886Y-119525764D01*
X228419720Y-119615121D01*
X228419645Y-119615179D01*
X228294414Y-119711825D01*
X228294118Y-119712047D01*
X228155725Y-119812039D01*
X228155030Y-119812504D01*
X227994529Y-119911837D01*
X227993558Y-119912376D01*
X227808872Y-120003709D01*
X227799938Y-120004304D01*
X227795231Y-120001309D01*
X227205923Y-119385270D01*
X226897683Y-119063047D01*
X226894441Y-119054701D01*
X226898387Y-119046196D01*
X227871002Y-118186009D01*
X227879469Y-118183095D01*
X227884806Y-118184761D01*
G37*
%TD.AperFunction*%
%TD*%
%TA.AperFunction,Conductor*%
%TO.N,GND*%
G36*
X227884806Y-118184761D02*
G01*
X227997845Y-118253130D01*
X228065713Y-118294178D01*
X228066685Y-118294835D01*
X228220144Y-118410120D01*
X228220868Y-118410710D01*
X228350276Y-118525276D01*
X228350624Y-118525599D01*
X228465981Y-118636828D01*
X228466033Y-118636877D01*
X228577343Y-118742088D01*
X228694436Y-118838396D01*
X228694731Y-118838584D01*
X228694735Y-118838587D01*
X228739642Y-118867213D01*
X228827370Y-118923136D01*
X228986206Y-118993643D01*
X228986620Y-118993757D01*
X228986623Y-118993758D01*
X229043573Y-119009431D01*
X229181000Y-119047251D01*
X229410830Y-119079743D01*
X229418542Y-119084294D01*
X229420847Y-119092348D01*
X229400990Y-119319308D01*
X229396856Y-119327251D01*
X229388954Y-119329982D01*
X229164528Y-119322664D01*
X229164521Y-119322664D01*
X229164145Y-119322652D01*
X229163771Y-119322690D01*
X229163764Y-119322690D01*
X228969836Y-119342280D01*
X228969831Y-119342281D01*
X228969375Y-119342327D01*
X228888002Y-119363858D01*
X228807078Y-119385270D01*
X228807073Y-119385272D01*
X228806630Y-119385389D01*
X228806208Y-119385578D01*
X228806204Y-119385579D01*
X228755699Y-119408148D01*
X228666828Y-119447861D01*
X228540886Y-119525764D01*
X228419720Y-119615121D01*
X228419645Y-119615179D01*
X228294414Y-119711825D01*
X228294118Y-119712047D01*
X228155725Y-119812039D01*
X228155030Y-119812504D01*
X227994529Y-119911837D01*
X227993558Y-119912376D01*
X227808872Y-120003709D01*
X227799938Y-120004304D01*
X227795231Y-120001309D01*
X227205923Y-119385270D01*
X226897683Y-119063047D01*
X226894441Y-119054701D01*
X226898387Y-119046196D01*
X227871002Y-118186009D01*
X227879469Y-118183095D01*
X227884806Y-118184761D01*
G37*
%TD.AperFunction*%
%TD*%
%TA.AperFunction,Conductor*%
%TO.N,GND*%
G36*
X226472104Y-135161411D02*
G01*
X226573996Y-135234302D01*
X226642048Y-135282985D01*
X226642907Y-135283662D01*
X226704361Y-135336958D01*
X226787254Y-135408847D01*
X226787834Y-135409388D01*
X226909891Y-135531364D01*
X226910144Y-135531625D01*
X227019652Y-135648158D01*
X227019693Y-135648199D01*
X227019717Y-135648225D01*
X227071569Y-135701095D01*
X227126180Y-135756778D01*
X227239343Y-135855033D01*
X227239658Y-135855241D01*
X227368307Y-135940229D01*
X227368879Y-135940607D01*
X227369300Y-135940798D01*
X227369302Y-135940799D01*
X227415800Y-135961881D01*
X227524529Y-136011179D01*
X227524964Y-136011300D01*
X227715654Y-136064327D01*
X227715658Y-136064328D01*
X227716029Y-136064431D01*
X227716411Y-136064485D01*
X227716415Y-136064486D01*
X227819023Y-136079033D01*
X227942140Y-136096487D01*
X227949850Y-136101041D01*
X227952152Y-136109091D01*
X227932298Y-136336032D01*
X227928164Y-136343975D01*
X227920235Y-136346705D01*
X227841935Y-136343975D01*
X227686740Y-136338564D01*
X227686382Y-136338597D01*
X227686378Y-136338597D01*
X227484662Y-136357132D01*
X227484657Y-136357133D01*
X227484231Y-136357172D01*
X227429945Y-136370428D01*
X227314766Y-136398554D01*
X227314761Y-136398556D01*
X227314350Y-136398656D01*
X227313957Y-136398817D01*
X227313954Y-136398818D01*
X227167973Y-136458623D01*
X227167968Y-136458626D01*
X227167642Y-136458759D01*
X227167333Y-136458932D01*
X227167331Y-136458933D01*
X227034831Y-136533121D01*
X227034824Y-136533125D01*
X227034653Y-136533221D01*
X226905929Y-136617784D01*
X226772016Y-136708190D01*
X226623460Y-136800178D01*
X226450806Y-136889492D01*
X226244601Y-136971872D01*
X225410937Y-135949487D01*
X225943166Y-135549089D01*
X225945312Y-135547475D01*
X226458265Y-135161578D01*
X226466937Y-135159343D01*
X226472104Y-135161411D01*
G37*
%TD.AperFunction*%
%TD*%
%TA.AperFunction,Conductor*%
%TO.N,GND*%
G36*
X226472104Y-135161411D02*
G01*
X226573996Y-135234302D01*
X226642048Y-135282985D01*
X226642907Y-135283662D01*
X226704361Y-135336958D01*
X226787254Y-135408847D01*
X226787834Y-135409388D01*
X226909891Y-135531364D01*
X226910144Y-135531625D01*
X227019652Y-135648158D01*
X227019693Y-135648199D01*
X227019717Y-135648225D01*
X227071569Y-135701095D01*
X227126180Y-135756778D01*
X227239343Y-135855033D01*
X227239658Y-135855241D01*
X227368307Y-135940229D01*
X227368879Y-135940607D01*
X227369300Y-135940798D01*
X227369302Y-135940799D01*
X227415800Y-135961881D01*
X227524529Y-136011179D01*
X227524964Y-136011300D01*
X227715654Y-136064327D01*
X227715658Y-136064328D01*
X227716029Y-136064431D01*
X227716411Y-136064485D01*
X227716415Y-136064486D01*
X227819023Y-136079033D01*
X227942140Y-136096487D01*
X227949850Y-136101041D01*
X227952152Y-136109091D01*
X227932298Y-136336032D01*
X227928164Y-136343975D01*
X227920235Y-136346705D01*
X227841935Y-136343975D01*
X227686740Y-136338564D01*
X227686382Y-136338597D01*
X227686378Y-136338597D01*
X227484662Y-136357132D01*
X227484657Y-136357133D01*
X227484231Y-136357172D01*
X227429945Y-136370428D01*
X227314766Y-136398554D01*
X227314761Y-136398556D01*
X227314350Y-136398656D01*
X227313957Y-136398817D01*
X227313954Y-136398818D01*
X227167973Y-136458623D01*
X227167968Y-136458626D01*
X227167642Y-136458759D01*
X227167333Y-136458932D01*
X227167331Y-136458933D01*
X227034831Y-136533121D01*
X227034824Y-136533125D01*
X227034653Y-136533221D01*
X226905929Y-136617784D01*
X226772016Y-136708190D01*
X226623460Y-136800178D01*
X226450806Y-136889492D01*
X226244601Y-136971872D01*
X225410937Y-135949487D01*
X225943166Y-135549089D01*
X225945312Y-135547475D01*
X226458265Y-135161578D01*
X226466937Y-135159343D01*
X226472104Y-135161411D01*
G37*
%TD.AperFunction*%
%TD*%
%TA.AperFunction,Conductor*%
%TO.N,GND*%
G36*
X156243544Y-153602600D02*
G01*
X156327754Y-153619143D01*
X156328875Y-153619422D01*
X156393353Y-153638902D01*
X156513319Y-153675147D01*
X156514198Y-153675451D01*
X156675687Y-153738630D01*
X156676139Y-153738818D01*
X156823320Y-153803634D01*
X156964559Y-153864104D01*
X157108194Y-153914200D01*
X157262794Y-153947995D01*
X157263233Y-153948024D01*
X157263239Y-153948025D01*
X157436485Y-153959533D01*
X157436487Y-153959533D01*
X157436924Y-153959562D01*
X157639152Y-153942974D01*
X157639520Y-153942896D01*
X157867188Y-153894606D01*
X157875992Y-153896241D01*
X157880917Y-153903023D01*
X157939882Y-154123081D01*
X157938714Y-154131959D01*
X157932218Y-154137229D01*
X157717539Y-154207449D01*
X157540398Y-154292702D01*
X157401421Y-154388940D01*
X157290702Y-154495557D01*
X157198334Y-154611950D01*
X157198200Y-154612151D01*
X157198196Y-154612156D01*
X157116287Y-154734710D01*
X157114412Y-154737515D01*
X157029125Y-154871498D01*
X157028926Y-154871800D01*
X156932512Y-155013404D01*
X156932023Y-155014070D01*
X156814603Y-155162764D01*
X156813882Y-155163594D01*
X156670995Y-155313198D01*
X156662803Y-155316814D01*
X156657360Y-155315611D01*
X155757176Y-154871800D01*
X155492770Y-154741442D01*
X155486865Y-154734710D01*
X155487660Y-154725369D01*
X155814460Y-154123081D01*
X156106900Y-153584120D01*
X156113858Y-153578483D01*
X156119439Y-153578219D01*
X156243544Y-153602600D01*
G37*
%TD.AperFunction*%
%TD*%
%TA.AperFunction,Conductor*%
%TO.N,GND*%
G36*
X156243544Y-153602600D02*
G01*
X156327754Y-153619143D01*
X156328875Y-153619422D01*
X156393353Y-153638902D01*
X156513319Y-153675147D01*
X156514198Y-153675451D01*
X156675687Y-153738630D01*
X156676139Y-153738818D01*
X156823320Y-153803634D01*
X156964559Y-153864104D01*
X157108194Y-153914200D01*
X157262794Y-153947995D01*
X157263233Y-153948024D01*
X157263239Y-153948025D01*
X157436485Y-153959533D01*
X157436487Y-153959533D01*
X157436924Y-153959562D01*
X157639152Y-153942974D01*
X157639520Y-153942896D01*
X157867188Y-153894606D01*
X157875992Y-153896241D01*
X157880917Y-153903023D01*
X157939882Y-154123081D01*
X157938714Y-154131959D01*
X157932218Y-154137229D01*
X157717539Y-154207449D01*
X157540398Y-154292702D01*
X157401421Y-154388940D01*
X157290702Y-154495557D01*
X157198334Y-154611950D01*
X157198200Y-154612151D01*
X157198196Y-154612156D01*
X157116287Y-154734710D01*
X157114412Y-154737515D01*
X157029125Y-154871498D01*
X157028926Y-154871800D01*
X156932512Y-155013404D01*
X156932023Y-155014070D01*
X156814603Y-155162764D01*
X156813882Y-155163594D01*
X156670995Y-155313198D01*
X156662803Y-155316814D01*
X156657360Y-155315611D01*
X155757176Y-154871800D01*
X155492770Y-154741442D01*
X155486865Y-154734710D01*
X155487660Y-154725369D01*
X155814460Y-154123081D01*
X156106900Y-153584120D01*
X156113858Y-153578483D01*
X156119439Y-153578219D01*
X156243544Y-153602600D01*
G37*
%TD.AperFunction*%
%TD*%
%TA.AperFunction,Conductor*%
%TO.N,GND*%
G36*
X151789215Y-137170575D02*
G01*
X151987970Y-137224321D01*
X151989045Y-137224669D01*
X152165177Y-137291351D01*
X152165967Y-137291684D01*
X152320200Y-137363718D01*
X152320554Y-137363892D01*
X152461071Y-137435665D01*
X152461129Y-137435694D01*
X152461204Y-137435732D01*
X152596348Y-137501667D01*
X152667599Y-137529758D01*
X152733749Y-137555839D01*
X152733752Y-137555840D01*
X152734097Y-137555976D01*
X152787162Y-137569204D01*
X152882297Y-137592919D01*
X152882302Y-137592920D01*
X152882740Y-137593029D01*
X152958887Y-137599457D01*
X153050110Y-137607159D01*
X153050116Y-137607159D01*
X153050566Y-137607197D01*
X153184250Y-137597376D01*
X153245485Y-137592877D01*
X153245488Y-137592877D01*
X153245863Y-137592849D01*
X153309762Y-137579438D01*
X153466082Y-137546630D01*
X153474882Y-137548285D01*
X153479786Y-137555053D01*
X153538756Y-137775131D01*
X153537588Y-137784009D01*
X153531091Y-137789280D01*
X153450438Y-137815647D01*
X153313981Y-137860258D01*
X153313977Y-137860260D01*
X153313621Y-137860376D01*
X153313280Y-137860539D01*
X153313276Y-137860541D01*
X153202560Y-137913596D01*
X153134050Y-137946425D01*
X152992669Y-138043120D01*
X152992337Y-138043432D01*
X152879506Y-138149346D01*
X152879502Y-138149350D01*
X152879237Y-138149599D01*
X152879005Y-138149879D01*
X152879001Y-138149883D01*
X152783647Y-138264833D01*
X152783638Y-138264845D01*
X152783510Y-138264999D01*
X152783389Y-138265168D01*
X152783383Y-138265176D01*
X152695249Y-138388455D01*
X152604352Y-138518903D01*
X152604070Y-138519291D01*
X152500433Y-138655719D01*
X152499839Y-138656439D01*
X152373226Y-138798100D01*
X152372398Y-138798937D01*
X152218367Y-138939782D01*
X152209949Y-138942836D01*
X152204579Y-138941255D01*
X151082908Y-138287235D01*
X151077487Y-138280108D01*
X151078932Y-138270845D01*
X151776294Y-137175584D01*
X151783627Y-137170447D01*
X151789215Y-137170575D01*
G37*
%TD.AperFunction*%
%TD*%
%TA.AperFunction,Conductor*%
%TO.N,GND*%
G36*
X151789215Y-137170575D02*
G01*
X151987970Y-137224321D01*
X151989045Y-137224669D01*
X152165177Y-137291351D01*
X152165967Y-137291684D01*
X152320200Y-137363718D01*
X152320554Y-137363892D01*
X152461071Y-137435665D01*
X152461129Y-137435694D01*
X152461204Y-137435732D01*
X152596348Y-137501667D01*
X152667599Y-137529758D01*
X152733749Y-137555839D01*
X152733752Y-137555840D01*
X152734097Y-137555976D01*
X152787162Y-137569204D01*
X152882297Y-137592919D01*
X152882302Y-137592920D01*
X152882740Y-137593029D01*
X152958887Y-137599457D01*
X153050110Y-137607159D01*
X153050116Y-137607159D01*
X153050566Y-137607197D01*
X153184250Y-137597376D01*
X153245485Y-137592877D01*
X153245488Y-137592877D01*
X153245863Y-137592849D01*
X153309762Y-137579438D01*
X153466082Y-137546630D01*
X153474882Y-137548285D01*
X153479786Y-137555053D01*
X153538756Y-137775131D01*
X153537588Y-137784009D01*
X153531091Y-137789280D01*
X153450438Y-137815647D01*
X153313981Y-137860258D01*
X153313977Y-137860260D01*
X153313621Y-137860376D01*
X153313280Y-137860539D01*
X153313276Y-137860541D01*
X153202560Y-137913596D01*
X153134050Y-137946425D01*
X152992669Y-138043120D01*
X152992337Y-138043432D01*
X152879506Y-138149346D01*
X152879502Y-138149350D01*
X152879237Y-138149599D01*
X152879005Y-138149879D01*
X152879001Y-138149883D01*
X152783647Y-138264833D01*
X152783638Y-138264845D01*
X152783510Y-138264999D01*
X152783389Y-138265168D01*
X152783383Y-138265176D01*
X152695249Y-138388455D01*
X152604352Y-138518903D01*
X152604070Y-138519291D01*
X152500433Y-138655719D01*
X152499839Y-138656439D01*
X152373226Y-138798100D01*
X152372398Y-138798937D01*
X152218367Y-138939782D01*
X152209949Y-138942836D01*
X152204579Y-138941255D01*
X151082908Y-138287235D01*
X151077487Y-138280108D01*
X151078932Y-138270845D01*
X151776294Y-137175584D01*
X151783627Y-137170447D01*
X151789215Y-137170575D01*
G37*
%TD.AperFunction*%
%TD*%
%TA.AperFunction,Conductor*%
%TO.N,GND*%
G36*
X134988324Y-143974230D02*
G01*
X135070186Y-144000540D01*
X135183883Y-144037083D01*
X135184893Y-144037460D01*
X135358399Y-144111457D01*
X135359118Y-144111793D01*
X135511280Y-144189271D01*
X135511565Y-144189421D01*
X135650532Y-144265079D01*
X135650615Y-144265124D01*
X135650664Y-144265149D01*
X135784242Y-144333467D01*
X135784252Y-144333471D01*
X135784462Y-144333579D01*
X135784689Y-144333672D01*
X135784692Y-144333673D01*
X135920801Y-144389224D01*
X135920806Y-144389226D01*
X135921167Y-144389373D01*
X136068911Y-144427160D01*
X136235876Y-144441594D01*
X136430246Y-144427329D01*
X136430622Y-144427250D01*
X136430629Y-144427249D01*
X136553210Y-144401496D01*
X136649362Y-144381295D01*
X136658162Y-144382948D01*
X136663068Y-144389717D01*
X136676958Y-144441554D01*
X136722032Y-144609773D01*
X136720864Y-144618651D01*
X136714346Y-144623929D01*
X136506356Y-144691491D01*
X136490522Y-144696634D01*
X136305118Y-144783814D01*
X136158183Y-144881113D01*
X136039207Y-144987607D01*
X135937677Y-145102368D01*
X135937563Y-145102515D01*
X135937559Y-145102520D01*
X135843083Y-145224474D01*
X135745071Y-145352790D01*
X135744742Y-145353201D01*
X135632966Y-145486644D01*
X135632322Y-145487352D01*
X135496220Y-145625174D01*
X135495354Y-145625967D01*
X135330469Y-145762337D01*
X135321912Y-145764969D01*
X135316634Y-145763128D01*
X134892754Y-145487352D01*
X134228276Y-145055043D01*
X134223210Y-145047659D01*
X134225106Y-145038477D01*
X134975196Y-143978609D01*
X134982771Y-143973837D01*
X134988324Y-143974230D01*
G37*
%TD.AperFunction*%
%TD*%
%TA.AperFunction,Conductor*%
%TO.N,GND*%
G36*
X134988324Y-143974230D02*
G01*
X135070186Y-144000540D01*
X135183883Y-144037083D01*
X135184893Y-144037460D01*
X135358399Y-144111457D01*
X135359118Y-144111793D01*
X135511280Y-144189271D01*
X135511565Y-144189421D01*
X135650532Y-144265079D01*
X135650615Y-144265124D01*
X135650664Y-144265149D01*
X135784242Y-144333467D01*
X135784252Y-144333471D01*
X135784462Y-144333579D01*
X135784689Y-144333672D01*
X135784692Y-144333673D01*
X135920801Y-144389224D01*
X135920806Y-144389226D01*
X135921167Y-144389373D01*
X136068911Y-144427160D01*
X136235876Y-144441594D01*
X136430246Y-144427329D01*
X136430622Y-144427250D01*
X136430629Y-144427249D01*
X136553210Y-144401496D01*
X136649362Y-144381295D01*
X136658162Y-144382948D01*
X136663068Y-144389717D01*
X136676958Y-144441554D01*
X136722032Y-144609773D01*
X136720864Y-144618651D01*
X136714346Y-144623929D01*
X136506356Y-144691491D01*
X136490522Y-144696634D01*
X136305118Y-144783814D01*
X136158183Y-144881113D01*
X136039207Y-144987607D01*
X135937677Y-145102368D01*
X135937563Y-145102515D01*
X135937559Y-145102520D01*
X135843083Y-145224474D01*
X135745071Y-145352790D01*
X135744742Y-145353201D01*
X135632966Y-145486644D01*
X135632322Y-145487352D01*
X135496220Y-145625174D01*
X135495354Y-145625967D01*
X135330469Y-145762337D01*
X135321912Y-145764969D01*
X135316634Y-145763128D01*
X134892754Y-145487352D01*
X134228276Y-145055043D01*
X134223210Y-145047659D01*
X134225106Y-145038477D01*
X134975196Y-143978609D01*
X134982771Y-143973837D01*
X134988324Y-143974230D01*
G37*
%TD.AperFunction*%
%TD*%
%TA.AperFunction,Conductor*%
%TO.N,GND*%
G36*
X171238744Y-132225037D02*
G01*
X171364395Y-132281966D01*
X171429560Y-132311491D01*
X171430554Y-132312000D01*
X171596367Y-132407145D01*
X171597096Y-132407600D01*
X171740015Y-132504204D01*
X171740346Y-132504436D01*
X171830795Y-132570236D01*
X171869676Y-132598521D01*
X171869714Y-132598548D01*
X171869734Y-132598562D01*
X171994282Y-132685752D01*
X171994465Y-132685880D01*
X172123813Y-132762313D01*
X172266981Y-132823736D01*
X172433228Y-132866064D01*
X172631813Y-132885215D01*
X172860916Y-132877477D01*
X172869299Y-132880622D01*
X172872964Y-132888149D01*
X172892820Y-133115097D01*
X172890128Y-133123638D01*
X172882802Y-133127702D01*
X172799035Y-133139539D01*
X172653975Y-133160037D01*
X172653623Y-133160134D01*
X172462788Y-133212723D01*
X172460066Y-133213473D01*
X172302120Y-133283962D01*
X172170199Y-133369006D01*
X172054364Y-133466109D01*
X172054225Y-133466245D01*
X172054213Y-133466255D01*
X171944676Y-133572774D01*
X171944634Y-133572816D01*
X171831364Y-133686336D01*
X171831050Y-133686640D01*
X171704307Y-133804502D01*
X171703635Y-133805080D01*
X171556913Y-133922130D01*
X171553557Y-133924807D01*
X171552638Y-133925470D01*
X171375834Y-134040414D01*
X171367030Y-134042051D01*
X171362005Y-134039625D01*
X171223453Y-133925161D01*
X170351612Y-133204895D01*
X170747519Y-132762120D01*
X170978031Y-132504319D01*
X171225195Y-132227894D01*
X171233263Y-132224012D01*
X171238744Y-132225037D01*
G37*
%TD.AperFunction*%
%TD*%
%TA.AperFunction,Conductor*%
%TO.N,GND*%
G36*
X171238744Y-132225037D02*
G01*
X171364395Y-132281966D01*
X171429560Y-132311491D01*
X171430554Y-132312000D01*
X171596367Y-132407145D01*
X171597096Y-132407600D01*
X171740015Y-132504204D01*
X171740346Y-132504436D01*
X171830795Y-132570236D01*
X171869676Y-132598521D01*
X171869714Y-132598548D01*
X171869734Y-132598562D01*
X171994282Y-132685752D01*
X171994465Y-132685880D01*
X172123813Y-132762313D01*
X172266981Y-132823736D01*
X172433228Y-132866064D01*
X172631813Y-132885215D01*
X172860916Y-132877477D01*
X172869299Y-132880622D01*
X172872964Y-132888149D01*
X172892820Y-133115097D01*
X172890128Y-133123638D01*
X172882802Y-133127702D01*
X172799035Y-133139539D01*
X172653975Y-133160037D01*
X172653623Y-133160134D01*
X172462788Y-133212723D01*
X172460066Y-133213473D01*
X172302120Y-133283962D01*
X172170199Y-133369006D01*
X172054364Y-133466109D01*
X172054225Y-133466245D01*
X172054213Y-133466255D01*
X171944676Y-133572774D01*
X171944634Y-133572816D01*
X171831364Y-133686336D01*
X171831050Y-133686640D01*
X171704307Y-133804502D01*
X171703635Y-133805080D01*
X171556913Y-133922130D01*
X171553557Y-133924807D01*
X171552638Y-133925470D01*
X171375834Y-134040414D01*
X171367030Y-134042051D01*
X171362005Y-134039625D01*
X171223453Y-133925161D01*
X170351612Y-133204895D01*
X170747519Y-132762120D01*
X170978031Y-132504319D01*
X171225195Y-132227894D01*
X171233263Y-132224012D01*
X171238744Y-132225037D01*
G37*
%TD.AperFunction*%
%TD*%
%TA.AperFunction,Conductor*%
%TO.N,GND*%
G36*
X169794736Y-115305869D02*
G01*
X169893944Y-115355791D01*
X169977807Y-115397992D01*
X169978777Y-115398539D01*
X170137870Y-115498592D01*
X170138561Y-115499062D01*
X170275723Y-115599664D01*
X170275942Y-115599829D01*
X170400193Y-115697084D01*
X170400264Y-115697137D01*
X170520128Y-115786707D01*
X170520135Y-115786712D01*
X170520324Y-115786853D01*
X170645268Y-115865089D01*
X170784062Y-115927827D01*
X170784529Y-115927952D01*
X170945289Y-115970979D01*
X170945295Y-115970980D01*
X170945743Y-115971100D01*
X170946206Y-115971147D01*
X170946209Y-115971148D01*
X171138953Y-115990901D01*
X171138959Y-115990901D01*
X171139347Y-115990941D01*
X171223648Y-115988225D01*
X171362846Y-115983741D01*
X171371225Y-115986900D01*
X171374878Y-115994415D01*
X171394735Y-116221382D01*
X171392043Y-116229923D01*
X171384720Y-116233986D01*
X171322452Y-116242802D01*
X171155501Y-116266438D01*
X171155130Y-116266491D01*
X171154777Y-116266588D01*
X171154774Y-116266589D01*
X170960977Y-116320037D01*
X170960972Y-116320039D01*
X170960558Y-116320153D01*
X170801911Y-116390706D01*
X170669116Y-116475437D01*
X170668845Y-116475660D01*
X170668842Y-116475662D01*
X170552264Y-116571497D01*
X170552255Y-116571505D01*
X170552098Y-116571634D01*
X170551939Y-116571783D01*
X170551940Y-116571783D01*
X170440783Y-116676586D01*
X170325280Y-116787402D01*
X170324902Y-116787749D01*
X170195324Y-116901584D01*
X170194582Y-116902184D01*
X170040775Y-117016495D01*
X170039802Y-117017143D01*
X169860697Y-117123939D01*
X169858455Y-117125276D01*
X169849594Y-117126570D01*
X169844653Y-117123939D01*
X169725184Y-117016841D01*
X168877839Y-116257243D01*
X168873966Y-116249169D01*
X168877249Y-116240387D01*
X169781077Y-115308176D01*
X169789296Y-115304621D01*
X169794736Y-115305869D01*
G37*
%TD.AperFunction*%
%TD*%
%TA.AperFunction,Conductor*%
%TO.N,GND*%
G36*
X169794736Y-115305869D02*
G01*
X169893944Y-115355791D01*
X169977807Y-115397992D01*
X169978777Y-115398539D01*
X170137870Y-115498592D01*
X170138561Y-115499062D01*
X170275723Y-115599664D01*
X170275942Y-115599829D01*
X170400193Y-115697084D01*
X170400264Y-115697137D01*
X170520128Y-115786707D01*
X170520135Y-115786712D01*
X170520324Y-115786853D01*
X170645268Y-115865089D01*
X170784062Y-115927827D01*
X170784529Y-115927952D01*
X170945289Y-115970979D01*
X170945295Y-115970980D01*
X170945743Y-115971100D01*
X170946206Y-115971147D01*
X170946209Y-115971148D01*
X171138953Y-115990901D01*
X171138959Y-115990901D01*
X171139347Y-115990941D01*
X171223648Y-115988225D01*
X171362846Y-115983741D01*
X171371225Y-115986900D01*
X171374878Y-115994415D01*
X171394735Y-116221382D01*
X171392043Y-116229923D01*
X171384720Y-116233986D01*
X171322452Y-116242802D01*
X171155501Y-116266438D01*
X171155130Y-116266491D01*
X171154777Y-116266588D01*
X171154774Y-116266589D01*
X170960977Y-116320037D01*
X170960972Y-116320039D01*
X170960558Y-116320153D01*
X170801911Y-116390706D01*
X170669116Y-116475437D01*
X170668845Y-116475660D01*
X170668842Y-116475662D01*
X170552264Y-116571497D01*
X170552255Y-116571505D01*
X170552098Y-116571634D01*
X170551939Y-116571783D01*
X170551940Y-116571783D01*
X170440783Y-116676586D01*
X170325280Y-116787402D01*
X170324902Y-116787749D01*
X170195324Y-116901584D01*
X170194582Y-116902184D01*
X170040775Y-117016495D01*
X170039802Y-117017143D01*
X169860697Y-117123939D01*
X169858455Y-117125276D01*
X169849594Y-117126570D01*
X169844653Y-117123939D01*
X169725184Y-117016841D01*
X168877839Y-116257243D01*
X168873966Y-116249169D01*
X168877249Y-116240387D01*
X169781077Y-115308176D01*
X169789296Y-115304621D01*
X169794736Y-115305869D01*
G37*
%TD.AperFunction*%
%TD*%
%TA.AperFunction,Conductor*%
%TO.N,GND*%
G36*
X168275775Y-98354587D02*
G01*
X168390613Y-98406901D01*
X168463355Y-98440038D01*
X168464372Y-98440564D01*
X168625371Y-98534141D01*
X168627198Y-98535203D01*
X168627955Y-98535682D01*
X168768094Y-98632201D01*
X168768444Y-98632452D01*
X168895089Y-98726782D01*
X169017223Y-98814641D01*
X169017407Y-98814753D01*
X169017413Y-98814757D01*
X169055782Y-98838116D01*
X169143850Y-98891733D01*
X169284146Y-98953892D01*
X169331988Y-98966519D01*
X169446842Y-98996833D01*
X169446847Y-98996834D01*
X169447287Y-98996950D01*
X169642452Y-99016742D01*
X169836319Y-99010472D01*
X169867749Y-99009456D01*
X169876128Y-99012614D01*
X169879782Y-99020130D01*
X169899640Y-99247108D01*
X169896948Y-99255649D01*
X169889639Y-99259711D01*
X169664563Y-99291848D01*
X169664206Y-99291948D01*
X169664198Y-99291950D01*
X169474508Y-99345239D01*
X169474074Y-99345361D01*
X169473665Y-99345548D01*
X169319671Y-99415896D01*
X169319664Y-99415900D01*
X169319261Y-99416084D01*
X169318883Y-99416334D01*
X169190557Y-99501214D01*
X169190551Y-99501219D01*
X169190251Y-99501417D01*
X169077167Y-99598762D01*
X169077028Y-99598900D01*
X169077020Y-99598908D01*
X168970136Y-99705518D01*
X168859435Y-99818929D01*
X168859101Y-99819257D01*
X168735059Y-99936556D01*
X168734362Y-99937164D01*
X168587062Y-100055893D01*
X168586111Y-100056584D01*
X168412237Y-100169971D01*
X168403436Y-100171620D01*
X168398392Y-100169188D01*
X167397675Y-99341872D01*
X167393482Y-99333960D01*
X167396411Y-99325053D01*
X168262206Y-98357432D01*
X168270276Y-98353552D01*
X168275775Y-98354587D01*
G37*
%TD.AperFunction*%
%TD*%
%TA.AperFunction,Conductor*%
%TO.N,GND*%
G36*
X168275775Y-98354587D02*
G01*
X168390613Y-98406901D01*
X168463355Y-98440038D01*
X168464372Y-98440564D01*
X168625371Y-98534141D01*
X168627198Y-98535203D01*
X168627955Y-98535682D01*
X168768094Y-98632201D01*
X168768444Y-98632452D01*
X168895089Y-98726782D01*
X169017223Y-98814641D01*
X169017407Y-98814753D01*
X169017413Y-98814757D01*
X169055782Y-98838116D01*
X169143850Y-98891733D01*
X169284146Y-98953892D01*
X169331988Y-98966519D01*
X169446842Y-98996833D01*
X169446847Y-98996834D01*
X169447287Y-98996950D01*
X169642452Y-99016742D01*
X169836319Y-99010472D01*
X169867749Y-99009456D01*
X169876128Y-99012614D01*
X169879782Y-99020130D01*
X169899640Y-99247108D01*
X169896948Y-99255649D01*
X169889639Y-99259711D01*
X169664563Y-99291848D01*
X169664206Y-99291948D01*
X169664198Y-99291950D01*
X169474508Y-99345239D01*
X169474074Y-99345361D01*
X169473665Y-99345548D01*
X169319671Y-99415896D01*
X169319664Y-99415900D01*
X169319261Y-99416084D01*
X169318883Y-99416334D01*
X169190557Y-99501214D01*
X169190551Y-99501219D01*
X169190251Y-99501417D01*
X169077167Y-99598762D01*
X169077028Y-99598900D01*
X169077020Y-99598908D01*
X168970136Y-99705518D01*
X168859435Y-99818929D01*
X168859101Y-99819257D01*
X168735059Y-99936556D01*
X168734362Y-99937164D01*
X168587062Y-100055893D01*
X168586111Y-100056584D01*
X168412237Y-100169971D01*
X168403436Y-100171620D01*
X168398392Y-100169188D01*
X167397675Y-99341872D01*
X167393482Y-99333960D01*
X167396411Y-99325053D01*
X168262206Y-98357432D01*
X168270276Y-98353552D01*
X168275775Y-98354587D01*
G37*
%TD.AperFunction*%
%TD*%
%TA.AperFunction,Conductor*%
%TO.N,P7*%
G36*
X151484643Y-152008867D02*
G01*
X151681930Y-152122771D01*
X151687381Y-152129875D01*
X151686511Y-152138203D01*
X151582988Y-152341960D01*
X151582863Y-152342312D01*
X151582861Y-152342318D01*
X151534485Y-152479149D01*
X151516682Y-152529504D01*
X151485125Y-152697601D01*
X151485113Y-152698052D01*
X151485112Y-152698057D01*
X151483100Y-152770774D01*
X151480828Y-152852900D01*
X151480867Y-152853273D01*
X151480867Y-152853281D01*
X151486221Y-152904899D01*
X151496298Y-153002056D01*
X151496337Y-153002264D01*
X151496338Y-153002274D01*
X151524038Y-153151669D01*
X151524059Y-153151776D01*
X151556548Y-153308371D01*
X151556617Y-153308733D01*
X151586346Y-153478770D01*
X151586460Y-153479589D01*
X151606003Y-153669742D01*
X151606064Y-153670833D01*
X151607940Y-153879926D01*
X151604587Y-153888230D01*
X151599851Y-153891159D01*
X150364836Y-154292014D01*
X150355909Y-154291309D01*
X150349963Y-154284060D01*
X149997685Y-153034327D01*
X149998739Y-153025435D01*
X150002546Y-153021359D01*
X150180769Y-152904899D01*
X150181749Y-152904324D01*
X150353142Y-152814740D01*
X150353954Y-152814354D01*
X150513996Y-152745788D01*
X150514406Y-152745623D01*
X150665047Y-152687962D01*
X150665101Y-152687941D01*
X150808064Y-152631114D01*
X150808065Y-152631114D01*
X150808235Y-152631046D01*
X150945526Y-152564842D01*
X150978357Y-152543750D01*
X151078548Y-152479383D01*
X151078549Y-152479382D01*
X151078912Y-152479149D01*
X151210332Y-152363784D01*
X151341724Y-152208566D01*
X151468981Y-152012626D01*
X151476361Y-152007555D01*
X151484643Y-152008867D01*
G37*
%TD.AperFunction*%
%TD*%
M02*
