%TF.GenerationSoftware,KiCad,Pcbnew,(6.0.4)*%
%TF.CreationDate,2022-04-14T15:36:21+01:00*%
%TF.ProjectId,axo,61786f2e-6b69-4636-9164-5f7063625858,VERSION_HERE*%
%TF.SameCoordinates,Original*%
%TF.FileFunction,Legend,Bot*%
%TF.FilePolarity,Positive*%
%FSLAX46Y46*%
G04 Gerber Fmt 4.6, Leading zero omitted, Abs format (unit mm)*
G04 Created by KiCad (PCBNEW (6.0.4)) date 2022-04-14 15:36:21*
%MOMM*%
%LPD*%
G01*
G04 APERTURE LIST*
G04 Aperture macros list*
%AMRotRect*
0 Rectangle, with rotation*
0 The origin of the aperture is its center*
0 $1 length*
0 $2 width*
0 $3 Rotation angle, in degrees counterclockwise*
0 Add horizontal line*
21,1,$1,$2,0,0,$3*%
G04 Aperture macros list end*
%ADD10C,0.300000*%
%ADD11RotRect,1.752600X1.752600X265.000000*%
%ADD12C,1.752600*%
G04 APERTURE END LIST*
D10*
%TO.C,G\u002A\u002A\u002A*%
X145776299Y-118098625D02*
X145614315Y-118088902D01*
X145425769Y-117980045D01*
X145273509Y-117808339D01*
X145220383Y-117610071D01*
X145230106Y-117448087D01*
X145312400Y-117160407D01*
X145421257Y-116971861D01*
X145629249Y-116756752D01*
X145764669Y-116667340D01*
X145962938Y-116614214D01*
X146187769Y-116660223D01*
X146313467Y-116732794D01*
X146465727Y-116904500D01*
X146492290Y-117003634D01*
X146238290Y-117443575D01*
X145986895Y-117298432D01*
X146557046Y-118633188D02*
X146738475Y-118318945D01*
X146351660Y-118263213D02*
X146738475Y-118318945D01*
X146980147Y-118626071D01*
X146695071Y-117958693D02*
X146738475Y-118318945D01*
X147072163Y-118176407D01*
X147562625Y-119213760D02*
X147744054Y-118899516D01*
X147357239Y-118843785D02*
X147744054Y-118899516D01*
X147985726Y-119206642D01*
X147700650Y-118539264D02*
X147744054Y-118899516D01*
X148077743Y-118756978D01*
X148568204Y-119794331D02*
X148749633Y-119480087D01*
X148362818Y-119424356D02*
X148749633Y-119480087D01*
X148991305Y-119787213D01*
X148706230Y-119119836D02*
X148749633Y-119480087D01*
X149083322Y-119337550D01*
G36*
X155366915Y-100884101D02*
G01*
X155534840Y-100948066D01*
X155702765Y-101012032D01*
X155638683Y-100838658D01*
X155638293Y-100837603D01*
X155603620Y-100736654D01*
X155596007Y-100670789D01*
X155618700Y-100612951D01*
X155674938Y-100536075D01*
X155708744Y-100489809D01*
X155747238Y-100424834D01*
X155752437Y-100393681D01*
X155739970Y-100390482D01*
X155674739Y-100388105D01*
X155579349Y-100392906D01*
X155520759Y-100397155D01*
X155451724Y-100393537D01*
X155408270Y-100366075D01*
X155364094Y-100303889D01*
X155353469Y-100286338D01*
X155327791Y-100224166D01*
X155336429Y-100195524D01*
X155385017Y-100200772D01*
X155488064Y-100227108D01*
X155632617Y-100271611D01*
X155807948Y-100330789D01*
X156003329Y-100401152D01*
X156208033Y-100479207D01*
X156387718Y-100556548D01*
X156629403Y-100674192D01*
X156896969Y-100815411D01*
X157175908Y-100971817D01*
X157451711Y-101135025D01*
X157709874Y-101296651D01*
X157935885Y-101448307D01*
X158115241Y-101581609D01*
X158502370Y-101909283D01*
X159020653Y-102412728D01*
X159482206Y-102946701D01*
X159890652Y-103515940D01*
X160249616Y-104125177D01*
X160449443Y-104542548D01*
X160562722Y-104779150D01*
X160583812Y-104829467D01*
X160651419Y-105004863D01*
X160722253Y-105206638D01*
X160793518Y-105424855D01*
X160862413Y-105649579D01*
X160926142Y-105870874D01*
X160981907Y-106078806D01*
X161021955Y-106243110D01*
X161026910Y-106263439D01*
X161058352Y-106414838D01*
X161073436Y-106523066D01*
X161069364Y-106578189D01*
X161055979Y-106615721D01*
X161056900Y-106635812D01*
X161059622Y-106695195D01*
X161061444Y-106753879D01*
X161061759Y-106764040D01*
X161034341Y-106849116D01*
X161034057Y-106849666D01*
X161003896Y-106910007D01*
X161006681Y-106915265D01*
X161044412Y-106869482D01*
X161062183Y-106848849D01*
X161114300Y-106813106D01*
X161139777Y-106836569D01*
X161130309Y-106914852D01*
X161115976Y-106954239D01*
X161054945Y-107043131D01*
X160975650Y-107094419D01*
X160895684Y-107094619D01*
X160852252Y-107064509D01*
X160848914Y-107026264D01*
X160898845Y-107007047D01*
X160910361Y-107005372D01*
X160957061Y-106970937D01*
X160956052Y-106956539D01*
X160917390Y-106969578D01*
X160877283Y-106983741D01*
X160813260Y-106976905D01*
X160809317Y-106974671D01*
X160778191Y-106968816D01*
X160778751Y-107014791D01*
X160809275Y-107071775D01*
X160875390Y-107128397D01*
X160902675Y-107142631D01*
X160971249Y-107152589D01*
X161043875Y-107110051D01*
X161048363Y-107106405D01*
X161108571Y-107063764D01*
X161141931Y-107051235D01*
X161146688Y-107061629D01*
X161157693Y-107125245D01*
X161169505Y-107233534D01*
X161180971Y-107371718D01*
X161190940Y-107525017D01*
X161198255Y-107678657D01*
X161201767Y-107817859D01*
X161196622Y-108202396D01*
X161139406Y-108907527D01*
X161019405Y-109601911D01*
X160835674Y-110289462D01*
X160587263Y-110974102D01*
X160273227Y-111659747D01*
X160106047Y-111990797D01*
X160100850Y-111991838D01*
X159937255Y-112024612D01*
X159879101Y-112035475D01*
X159770369Y-112051940D01*
X159694705Y-112058417D01*
X159672968Y-112058929D01*
X159632892Y-112075156D01*
X159633211Y-112108563D01*
X159633430Y-112131504D01*
X159634393Y-112136641D01*
X159663601Y-112192014D01*
X159732713Y-112229435D01*
X159855122Y-112256454D01*
X159870794Y-112259837D01*
X159887697Y-112274728D01*
X159878980Y-112309564D01*
X159840230Y-112375790D01*
X159767033Y-112484849D01*
X159679113Y-112605094D01*
X159531612Y-112806825D01*
X159126239Y-113284277D01*
X158672266Y-113739850D01*
X158180487Y-114163758D01*
X157661700Y-114546220D01*
X157126700Y-114877451D01*
X156762353Y-115065983D01*
X156329456Y-115258967D01*
X155873120Y-115434818D01*
X155411868Y-115586954D01*
X154964227Y-115708788D01*
X154548722Y-115793738D01*
X154506751Y-115800994D01*
X154443067Y-115813507D01*
X154369134Y-115829977D01*
X154280831Y-115851601D01*
X154174036Y-115879580D01*
X154044625Y-115915110D01*
X153888480Y-115959390D01*
X153701476Y-116013617D01*
X153479493Y-116078991D01*
X153227822Y-116153908D01*
X153218409Y-116156710D01*
X152980735Y-116227988D01*
X152914101Y-116247971D01*
X152562448Y-116353973D01*
X152159328Y-116475915D01*
X151700621Y-116614995D01*
X151182202Y-116772409D01*
X151167684Y-116776818D01*
X150898899Y-116857802D01*
X150650003Y-116931624D01*
X150428314Y-116996200D01*
X150241149Y-117049447D01*
X150095826Y-117089283D01*
X149999661Y-117113623D01*
X149959973Y-117120385D01*
X149949086Y-117103545D01*
X149967074Y-117039909D01*
X150025841Y-116927172D01*
X150070446Y-116845281D01*
X150135473Y-116712327D01*
X150182640Y-116599754D01*
X150235050Y-116453916D01*
X150572280Y-116493061D01*
X150646679Y-116501849D01*
X150822595Y-116523592D01*
X150987881Y-116545168D01*
X151114678Y-116562985D01*
X151241420Y-116575159D01*
X151358561Y-116561549D01*
X151428189Y-116512252D01*
X151456859Y-116424617D01*
X151465474Y-116335224D01*
X151133404Y-116327137D01*
X151119350Y-116326788D01*
X150986991Y-116322478D01*
X150876516Y-116318880D01*
X150630336Y-116307689D01*
X150576169Y-116304587D01*
X150390824Y-116293973D01*
X150167986Y-116278494D01*
X150052995Y-116268830D01*
X149971834Y-116262008D01*
X149880305Y-116252404D01*
X149812377Y-116245276D01*
X149699624Y-116229058D01*
X149643585Y-116214113D01*
X149622427Y-116216324D01*
X149584532Y-116257099D01*
X149574972Y-116278606D01*
X149587872Y-116330736D01*
X149663638Y-116364947D01*
X149803119Y-116381726D01*
X149951686Y-116388845D01*
X149978691Y-116531268D01*
X149983588Y-116559852D01*
X149994873Y-116671176D01*
X149993406Y-116743495D01*
X149993101Y-116758552D01*
X149991956Y-116766368D01*
X149984950Y-116802891D01*
X149969280Y-116831456D01*
X149934307Y-116858672D01*
X149869391Y-116891151D01*
X149763895Y-116935502D01*
X149607178Y-116998335D01*
X149366277Y-117094604D01*
X149483588Y-117162334D01*
X149510719Y-117178442D01*
X149572569Y-117219788D01*
X149593920Y-117242153D01*
X149589807Y-117253509D01*
X149578619Y-117306740D01*
X149576293Y-117316279D01*
X149542195Y-117339342D01*
X149463142Y-117323180D01*
X149420035Y-117308776D01*
X149325619Y-117281762D01*
X149267339Y-117282062D01*
X149224997Y-117313777D01*
X149178398Y-117381010D01*
X149134910Y-117439719D01*
X149044236Y-117541271D01*
X148943791Y-117637163D01*
X148934530Y-117645241D01*
X148809806Y-117769326D01*
X148722898Y-117885801D01*
X148677604Y-117986426D01*
X148677725Y-118062963D01*
X148727060Y-118107171D01*
X148731331Y-118108373D01*
X148800129Y-118093989D01*
X148894312Y-118031721D01*
X149004154Y-117929307D01*
X149119932Y-117794488D01*
X149158533Y-117745899D01*
X149238666Y-117656302D01*
X149295226Y-117615314D01*
X149335880Y-117616623D01*
X149337959Y-117640550D01*
X149317512Y-117713272D01*
X149276624Y-117820636D01*
X149221003Y-117948883D01*
X149156359Y-118084255D01*
X149088401Y-118212996D01*
X149050972Y-118281998D01*
X149022212Y-118351078D01*
X149024335Y-118394061D01*
X149054476Y-118429206D01*
X149102057Y-118455407D01*
X149189256Y-118444552D01*
X149240495Y-118425884D01*
X149268823Y-118428126D01*
X149267191Y-118443837D01*
X149257160Y-118491821D01*
X149237295Y-118575350D01*
X149206536Y-118698561D01*
X149199047Y-118727851D01*
X149163898Y-118865309D01*
X149163827Y-118865587D01*
X149131572Y-118990030D01*
X149108105Y-119080562D01*
X149038315Y-119347623D01*
X148971253Y-119602920D01*
X148953396Y-119670902D01*
X148882811Y-119938724D01*
X148871390Y-119982057D01*
X148852289Y-120054534D01*
X148849863Y-120063728D01*
X148843432Y-120087960D01*
X148782644Y-120317006D01*
X148729328Y-120513297D01*
X148687360Y-120660047D01*
X148654184Y-120764702D01*
X148627246Y-120834709D01*
X148603991Y-120877513D01*
X148581863Y-120900561D01*
X148558308Y-120911298D01*
X148525611Y-120916451D01*
X148430312Y-120926689D01*
X148283017Y-120940272D01*
X148091986Y-120956502D01*
X147865481Y-120974682D01*
X147611765Y-120994117D01*
X147339099Y-121014108D01*
X146193244Y-121096290D01*
X145963985Y-120992722D01*
X145908803Y-120967104D01*
X145757582Y-120892935D01*
X145588146Y-120805856D01*
X145427834Y-120719786D01*
X145322705Y-120663205D01*
X145235364Y-120620195D01*
X145195389Y-120606538D01*
X145207886Y-120624447D01*
X145294830Y-120698476D01*
X144156459Y-122659173D01*
X144046314Y-122848775D01*
X143859020Y-123170662D01*
X143682957Y-123472601D01*
X143520903Y-123749865D01*
X143375635Y-123997729D01*
X143249931Y-124211461D01*
X143146566Y-124386336D01*
X143068322Y-124517625D01*
X143017972Y-124600602D01*
X142998296Y-124630537D01*
X142983481Y-124653082D01*
X142936842Y-124729649D01*
X142860686Y-124856758D01*
X142757252Y-125030616D01*
X142628779Y-125247430D01*
X142477506Y-125503406D01*
X142305672Y-125794753D01*
X142115515Y-126117674D01*
X141909275Y-126468381D01*
X141689191Y-126843078D01*
X141457500Y-127237971D01*
X141216444Y-127649269D01*
X141006889Y-128006844D01*
X140773830Y-128404130D01*
X140552083Y-128781721D01*
X140343883Y-129135823D01*
X140151472Y-129462645D01*
X139977087Y-129758392D01*
X139822968Y-130019273D01*
X139691352Y-130241494D01*
X139584478Y-130421263D01*
X139504587Y-130554786D01*
X139453916Y-130638270D01*
X139434704Y-130667921D01*
X139433531Y-130669237D01*
X139408053Y-130709333D01*
X139352137Y-130801890D01*
X139268386Y-130942476D01*
X139159413Y-131126657D01*
X139027824Y-131350000D01*
X138876229Y-131608072D01*
X138707235Y-131896442D01*
X138523451Y-132210674D01*
X138327484Y-132546339D01*
X138121944Y-132898999D01*
X138026444Y-133062963D01*
X137797427Y-133455822D01*
X137598738Y-133795982D01*
X137428130Y-134087128D01*
X137283360Y-134332944D01*
X137162184Y-134537113D01*
X137062356Y-134703320D01*
X136981631Y-134835250D01*
X136917766Y-134936585D01*
X136868513Y-135011010D01*
X136831632Y-135062208D01*
X136804874Y-135093865D01*
X136785997Y-135109664D01*
X136772755Y-135113289D01*
X136726805Y-135096732D01*
X136635015Y-135052841D01*
X136512290Y-134988626D01*
X136372328Y-134911007D01*
X136028011Y-134714925D01*
X136860823Y-133316895D01*
X136964130Y-133143249D01*
X137141196Y-132844899D01*
X137348411Y-132495047D01*
X137583649Y-132097304D01*
X137844785Y-131655281D01*
X138129691Y-131172590D01*
X138436242Y-130652841D01*
X138762312Y-130099646D01*
X139105774Y-129516616D01*
X139464504Y-128907361D01*
X139836374Y-128275495D01*
X140219258Y-127624626D01*
X140611030Y-126958366D01*
X141009565Y-126280328D01*
X141412737Y-125594120D01*
X141818418Y-124903356D01*
X142224483Y-124211646D01*
X142628807Y-123522601D01*
X143029262Y-122839832D01*
X143169589Y-122600655D01*
X143382050Y-122239064D01*
X143584143Y-121895749D01*
X143773276Y-121575081D01*
X143946856Y-121281433D01*
X144102292Y-121019177D01*
X144236990Y-120792684D01*
X144348356Y-120606328D01*
X144433802Y-120464478D01*
X144490731Y-120371507D01*
X144516553Y-120331787D01*
X144535705Y-120306806D01*
X144553444Y-120264781D01*
X144522987Y-120248154D01*
X144517502Y-120244808D01*
X144478428Y-120200373D01*
X144410278Y-120110442D01*
X144318228Y-119982726D01*
X144207451Y-119824935D01*
X144083124Y-119644780D01*
X143950419Y-119449973D01*
X143841189Y-119287820D01*
X147648859Y-119287820D01*
X147666544Y-119312134D01*
X147683052Y-119318882D01*
X147696941Y-119303989D01*
X147694702Y-119298084D01*
X147658400Y-119281737D01*
X147648859Y-119287820D01*
X143841189Y-119287820D01*
X143814516Y-119248223D01*
X143783728Y-119202021D01*
X147575956Y-119202021D01*
X147582064Y-119224818D01*
X147604861Y-119218710D01*
X147598753Y-119195912D01*
X147575956Y-119202021D01*
X143783728Y-119202021D01*
X143680586Y-119047242D01*
X143622069Y-118958390D01*
X147593631Y-118958390D01*
X147620136Y-119033890D01*
X147680480Y-119129422D01*
X147769688Y-119233615D01*
X147820057Y-119281329D01*
X147915565Y-119360911D01*
X148024656Y-119443406D01*
X148134247Y-119519816D01*
X148216939Y-119572093D01*
X148231258Y-119581145D01*
X148302606Y-119618393D01*
X148335209Y-119622566D01*
X148335564Y-119585435D01*
X148297115Y-119508366D01*
X148223944Y-119408514D01*
X148126249Y-119296175D01*
X148014233Y-119181647D01*
X147898098Y-119075230D01*
X147788047Y-118987223D01*
X147694278Y-118927922D01*
X147665456Y-118919228D01*
X147626995Y-118907627D01*
X147605946Y-118914294D01*
X147593631Y-118958390D01*
X143622069Y-118958390D01*
X143553807Y-118854740D01*
X143439352Y-118678428D01*
X143342397Y-118526016D01*
X143293116Y-118445870D01*
X147461721Y-118445870D01*
X147472123Y-118584415D01*
X147544839Y-118709893D01*
X147676165Y-118815442D01*
X147732655Y-118846476D01*
X147803263Y-118874764D01*
X147827921Y-118865736D01*
X147828519Y-118860821D01*
X147859896Y-118854785D01*
X147929620Y-118885911D01*
X147941712Y-118893068D01*
X148004282Y-118944401D01*
X148007463Y-118988664D01*
X148003908Y-118996329D01*
X148016749Y-119040494D01*
X148088637Y-119093341D01*
X148194845Y-119154660D01*
X148168757Y-119038012D01*
X148159862Y-119003746D01*
X148077009Y-118832887D01*
X147930251Y-118666513D01*
X147863230Y-118614821D01*
X148429426Y-118614821D01*
X148454514Y-118653494D01*
X148493908Y-118698252D01*
X148550864Y-118734112D01*
X148600861Y-118717431D01*
X148621298Y-118695423D01*
X148627829Y-118642987D01*
X148585722Y-118602856D01*
X148507070Y-118591293D01*
X148449152Y-118598288D01*
X148429426Y-118614821D01*
X147863230Y-118614821D01*
X147792170Y-118560014D01*
X148727677Y-118560014D01*
X148759380Y-118593747D01*
X148814737Y-118609336D01*
X148866511Y-118595050D01*
X148905497Y-118558370D01*
X148938792Y-118496308D01*
X148915450Y-118453024D01*
X148857232Y-118450638D01*
X148784870Y-118483185D01*
X148730917Y-118536654D01*
X148727677Y-118560014D01*
X147792170Y-118560014D01*
X147718170Y-118502940D01*
X147482819Y-118346751D01*
X147465583Y-118425204D01*
X147461721Y-118445870D01*
X143293116Y-118445870D01*
X143268118Y-118405216D01*
X143234638Y-118346464D01*
X148232171Y-118346464D01*
X148256431Y-118396012D01*
X148272841Y-118415540D01*
X148321708Y-118453252D01*
X148389402Y-118459025D01*
X148408290Y-118457180D01*
X148424666Y-118438513D01*
X148391426Y-118388766D01*
X148339016Y-118339489D01*
X148275798Y-118311834D01*
X148233956Y-118329348D01*
X148232171Y-118346464D01*
X143234638Y-118346464D01*
X143221687Y-118323738D01*
X143208283Y-118289293D01*
X143226985Y-118269296D01*
X143264691Y-118235485D01*
X148538661Y-118235485D01*
X148538962Y-118277479D01*
X148587838Y-118333884D01*
X148611896Y-118350560D01*
X148661426Y-118365022D01*
X148697642Y-118327273D01*
X148707831Y-118307191D01*
X148705824Y-118264226D01*
X148648465Y-118228875D01*
X148585487Y-118214129D01*
X148538661Y-118235485D01*
X143264691Y-118235485D01*
X143285904Y-118216463D01*
X143368526Y-118147246D01*
X143437074Y-118088343D01*
X143560718Y-117971706D01*
X143689538Y-117840362D01*
X143758988Y-117764492D01*
X145059278Y-117764492D01*
X145060235Y-117764640D01*
X145102479Y-117766073D01*
X145191963Y-117767292D01*
X145310977Y-117768048D01*
X145411607Y-117765328D01*
X145527206Y-117748253D01*
X145581781Y-117716218D01*
X145586867Y-117705470D01*
X145579144Y-117653049D01*
X145525353Y-117618290D01*
X145442878Y-117613987D01*
X145409507Y-117622185D01*
X145319649Y-117651986D01*
X145213062Y-117693276D01*
X145147464Y-117721125D01*
X145080599Y-117751558D01*
X145059278Y-117764492D01*
X143758988Y-117764492D01*
X143809742Y-117709047D01*
X143907540Y-117592499D01*
X143969139Y-117505452D01*
X144020921Y-117438983D01*
X144093668Y-117406582D01*
X144112302Y-117406342D01*
X144142376Y-117400062D01*
X144140335Y-117398457D01*
X144185075Y-117398457D01*
X144191184Y-117421255D01*
X144213981Y-117415145D01*
X144213903Y-117414853D01*
X144262330Y-117414853D01*
X144304588Y-117423543D01*
X144405024Y-117435027D01*
X144452718Y-117437268D01*
X144548254Y-117422773D01*
X144613100Y-117387494D01*
X144629338Y-117339095D01*
X144607739Y-117313727D01*
X144544094Y-117291613D01*
X144472424Y-117290295D01*
X144426558Y-117313969D01*
X144392910Y-117348720D01*
X144320627Y-117386968D01*
X144319709Y-117387263D01*
X144270090Y-117404308D01*
X144262330Y-117414853D01*
X144213903Y-117414853D01*
X144207872Y-117392349D01*
X144185075Y-117398457D01*
X144140335Y-117398457D01*
X144114557Y-117378186D01*
X144092772Y-117352358D01*
X144086530Y-117289736D01*
X144109857Y-117228993D01*
X144155433Y-117201720D01*
X144236210Y-117199841D01*
X144310872Y-117185781D01*
X144345591Y-117149881D01*
X144356222Y-117082748D01*
X144358355Y-117058088D01*
X144389236Y-116964095D01*
X144464545Y-116857297D01*
X144524600Y-116785023D01*
X144632425Y-116650066D01*
X144705750Y-116546412D01*
X144751890Y-116461568D01*
X144778164Y-116383036D01*
X144791889Y-116298322D01*
X144796579Y-116213018D01*
X144783491Y-116132917D01*
X144743645Y-116046873D01*
X144669373Y-115931955D01*
X144659224Y-115917209D01*
X144590792Y-115819819D01*
X144538460Y-115748744D01*
X144512862Y-115718486D01*
X144498010Y-115730250D01*
X144478227Y-115785206D01*
X144472630Y-115804225D01*
X144441578Y-115886807D01*
X144392609Y-116003417D01*
X144333503Y-116135232D01*
X144308631Y-116189887D01*
X144254983Y-116314445D01*
X144216052Y-116414352D01*
X144198935Y-116471850D01*
X144198524Y-116474982D01*
X144183582Y-116522369D01*
X144164048Y-116513841D01*
X144145817Y-116458997D01*
X144134784Y-116367430D01*
X144142597Y-116257049D01*
X144206903Y-116091585D01*
X144253012Y-116007684D01*
X144323319Y-115852696D01*
X144350635Y-115740048D01*
X144333914Y-115673187D01*
X144324205Y-115658958D01*
X144319336Y-115611162D01*
X144342225Y-115532524D01*
X144396003Y-115409749D01*
X144396475Y-115408747D01*
X144460939Y-115283372D01*
X144511052Y-115207925D01*
X144543215Y-115184985D01*
X144553832Y-115217133D01*
X144539305Y-115306951D01*
X144526760Y-115376091D01*
X144525679Y-115460299D01*
X144544854Y-115504109D01*
X144581514Y-115495162D01*
X144599781Y-115485655D01*
X144656582Y-115493138D01*
X144656830Y-115493282D01*
X144677545Y-115526592D01*
X144641976Y-115579174D01*
X144641899Y-115579253D01*
X144609409Y-115624557D01*
X144618697Y-115668271D01*
X144674469Y-115732611D01*
X144689014Y-115747226D01*
X144756411Y-115810404D01*
X144803012Y-115847249D01*
X144823328Y-115865821D01*
X144874404Y-115930321D01*
X144934400Y-116019672D01*
X144971601Y-116076986D01*
X145025282Y-116151506D01*
X145059337Y-116188156D01*
X145093766Y-116232478D01*
X145120328Y-116307386D01*
X145130732Y-116382532D01*
X145117732Y-116428144D01*
X145061740Y-116471957D01*
X145014822Y-116514102D01*
X145006542Y-116537644D01*
X145027860Y-116555389D01*
X145059720Y-116592237D01*
X145088529Y-116666509D01*
X145096476Y-116715792D01*
X145081639Y-116759371D01*
X145020988Y-116796897D01*
X145010998Y-116802331D01*
X144938730Y-116867986D01*
X144889657Y-116955695D01*
X144872635Y-117043279D01*
X144896522Y-117108556D01*
X144919604Y-117155490D01*
X144895723Y-117236668D01*
X144869571Y-117289241D01*
X144855748Y-117376179D01*
X144894789Y-117453055D01*
X144902685Y-117463693D01*
X144909707Y-117512700D01*
X144887488Y-117545912D01*
X144865943Y-117578117D01*
X144824884Y-117638246D01*
X144829180Y-117673981D01*
X144847322Y-117679682D01*
X144909137Y-117661237D01*
X144971053Y-117605714D01*
X145011686Y-117529986D01*
X145040285Y-117470954D01*
X145092085Y-117455868D01*
X145147703Y-117437743D01*
X145206517Y-117357779D01*
X145264238Y-117250701D01*
X145186934Y-117312055D01*
X145179884Y-117317595D01*
X145117260Y-117358095D01*
X145085859Y-117355217D01*
X145085542Y-117304979D01*
X145116167Y-117203405D01*
X145177596Y-117046515D01*
X145189382Y-117017624D01*
X145245371Y-116867240D01*
X145249076Y-116854725D01*
X149218589Y-116854725D01*
X149221159Y-116901305D01*
X149226526Y-116911264D01*
X149254528Y-116946721D01*
X149296511Y-116958834D01*
X149368997Y-116948566D01*
X149488505Y-116916880D01*
X149581763Y-116886840D01*
X149727620Y-116820642D01*
X149827171Y-116747012D01*
X149870306Y-116672423D01*
X149871671Y-116661670D01*
X149855688Y-116588614D01*
X149801844Y-116551457D01*
X149727044Y-116550827D01*
X149648191Y-116587358D01*
X149582191Y-116661678D01*
X149540497Y-116712889D01*
X149479115Y-116757628D01*
X149423318Y-116776787D01*
X149393912Y-116759551D01*
X149393012Y-116729884D01*
X149399458Y-116647274D01*
X149412441Y-116538024D01*
X149429123Y-116425149D01*
X149446667Y-116331666D01*
X149453156Y-116231567D01*
X149414501Y-116165887D01*
X149373722Y-116143450D01*
X149338442Y-116149307D01*
X149331127Y-116166563D01*
X149321760Y-116201740D01*
X149310579Y-116243728D01*
X149305367Y-116269362D01*
X149287163Y-116358886D01*
X149272542Y-116443108D01*
X149263568Y-116494801D01*
X149250240Y-116582935D01*
X149242482Y-116634236D01*
X149234006Y-116701303D01*
X149227499Y-116752789D01*
X149226593Y-116759956D01*
X149218589Y-116854725D01*
X145249076Y-116854725D01*
X145280713Y-116747857D01*
X145292928Y-116669325D01*
X145279535Y-116641499D01*
X145270262Y-116639600D01*
X145255009Y-116605374D01*
X145264729Y-116552687D01*
X145295426Y-116513688D01*
X145305121Y-116501353D01*
X145281797Y-116470755D01*
X145272676Y-116464053D01*
X145262042Y-116418022D01*
X145296434Y-116334679D01*
X145297209Y-116333249D01*
X145330529Y-116268058D01*
X145329652Y-116254116D01*
X145294312Y-116285279D01*
X145242993Y-116319231D01*
X145190435Y-116321657D01*
X145174001Y-116301445D01*
X145184568Y-116252351D01*
X145235589Y-116166096D01*
X145284955Y-116083161D01*
X145301831Y-116019830D01*
X145284978Y-115963732D01*
X145277110Y-115947558D01*
X145263551Y-115877652D01*
X145289553Y-115841387D01*
X145347006Y-115853214D01*
X145396046Y-115912246D01*
X145439068Y-116022176D01*
X145471338Y-116165778D01*
X145489136Y-116326388D01*
X145488734Y-116487349D01*
X145487474Y-116506615D01*
X145484179Y-116599412D01*
X145487831Y-116645116D01*
X145497825Y-116634021D01*
X145523281Y-116565611D01*
X145568918Y-116471077D01*
X145572901Y-116460913D01*
X148869480Y-116460913D01*
X148876030Y-116483006D01*
X148878169Y-116485201D01*
X148919790Y-116527910D01*
X148926420Y-116531607D01*
X148955871Y-116540722D01*
X148941744Y-116502635D01*
X148919779Y-116467555D01*
X149041926Y-116467555D01*
X149046365Y-116485957D01*
X149050158Y-116501675D01*
X149084290Y-116541716D01*
X149139497Y-116518997D01*
X149158882Y-116472723D01*
X149132435Y-116426021D01*
X149074627Y-116405939D01*
X149047738Y-116415488D01*
X149041926Y-116467555D01*
X148919779Y-116467555D01*
X148913907Y-116458176D01*
X148881890Y-116434033D01*
X148869480Y-116460913D01*
X145572901Y-116460913D01*
X145578722Y-116446056D01*
X145586886Y-116347772D01*
X145580069Y-116281373D01*
X148992409Y-116281373D01*
X148998517Y-116304169D01*
X149021314Y-116298061D01*
X149015206Y-116275264D01*
X148992409Y-116281373D01*
X145580069Y-116281373D01*
X145573560Y-116217979D01*
X145559929Y-116155620D01*
X149041627Y-116155620D01*
X149061860Y-116186578D01*
X149082884Y-116195251D01*
X149139770Y-116193019D01*
X149151198Y-116180352D01*
X149130966Y-116149396D01*
X149109941Y-116140722D01*
X149053054Y-116142954D01*
X149041627Y-116155620D01*
X145559929Y-116155620D01*
X145552299Y-116120718D01*
X149702188Y-116120718D01*
X149715244Y-116136743D01*
X149762266Y-116122515D01*
X149765377Y-116120215D01*
X149819799Y-116120215D01*
X149848480Y-116129451D01*
X149957909Y-116147159D01*
X150062115Y-116143321D01*
X150132056Y-116118131D01*
X150134599Y-116115995D01*
X150170059Y-116070119D01*
X150148683Y-116045983D01*
X150077142Y-116045456D01*
X149962100Y-116070412D01*
X149907533Y-116086557D01*
X149840093Y-116109119D01*
X149819799Y-116120215D01*
X149765377Y-116120215D01*
X149778625Y-116110422D01*
X149756878Y-116102409D01*
X149738886Y-116103919D01*
X149704239Y-116116514D01*
X149702188Y-116120718D01*
X145552299Y-116120718D01*
X145542937Y-116077890D01*
X145528879Y-116036364D01*
X149217403Y-116036364D01*
X149253016Y-116057232D01*
X149348835Y-116064549D01*
X149428753Y-116071616D01*
X149534569Y-116094779D01*
X149576569Y-116106582D01*
X149616385Y-116100030D01*
X149626882Y-116049359D01*
X149607228Y-115974318D01*
X149542322Y-115920327D01*
X149449180Y-115905190D01*
X149447499Y-115905690D01*
X149345525Y-115936041D01*
X149327185Y-115946250D01*
X149256465Y-115989819D01*
X149221386Y-116018531D01*
X149217403Y-116036364D01*
X145528879Y-116036364D01*
X145499205Y-115948713D01*
X145446556Y-115851662D01*
X145399548Y-115804013D01*
X145297608Y-115762152D01*
X145188887Y-115781195D01*
X145180363Y-115785276D01*
X145070860Y-115829253D01*
X144983733Y-115839203D01*
X144888504Y-115818957D01*
X144830988Y-115797965D01*
X144728275Y-115734247D01*
X144728011Y-115733806D01*
X149212195Y-115733806D01*
X149213193Y-115745791D01*
X149222275Y-115767877D01*
X149227824Y-115781370D01*
X149232864Y-115781770D01*
X149241100Y-115750494D01*
X149240102Y-115738510D01*
X149225471Y-115702931D01*
X149220432Y-115702530D01*
X149212195Y-115733806D01*
X144728011Y-115733806D01*
X144708896Y-115701916D01*
X148956699Y-115701916D01*
X148967255Y-115700911D01*
X149009729Y-115674723D01*
X149027073Y-115655177D01*
X149023402Y-115624806D01*
X149007712Y-115622260D01*
X148970371Y-115652000D01*
X148960222Y-115672479D01*
X148956699Y-115701916D01*
X144708896Y-115701916D01*
X144682424Y-115657750D01*
X144698380Y-115574826D01*
X144751340Y-115519794D01*
X144817962Y-115519062D01*
X144881632Y-115581549D01*
X144902478Y-115610977D01*
X144933646Y-115619380D01*
X144976847Y-115572044D01*
X145031348Y-115523057D01*
X145089692Y-115531221D01*
X145127133Y-115548133D01*
X145199014Y-115562018D01*
X145223016Y-115564360D01*
X145281338Y-115597479D01*
X145315230Y-115621596D01*
X145348385Y-115603772D01*
X145363487Y-115546622D01*
X145362052Y-115536147D01*
X149363474Y-115536147D01*
X149398826Y-115553092D01*
X149488798Y-115531864D01*
X149529846Y-115518829D01*
X149595158Y-115512129D01*
X149622494Y-115541608D01*
X149624332Y-115546918D01*
X149666665Y-115599342D01*
X149740202Y-115653245D01*
X149800760Y-115693897D01*
X149828309Y-115743623D01*
X149818581Y-115821221D01*
X149817111Y-115827691D01*
X149815943Y-115838098D01*
X149808816Y-115901620D01*
X149808062Y-115908336D01*
X149818518Y-115957060D01*
X149829579Y-115964237D01*
X149892681Y-115968829D01*
X149978521Y-115952831D01*
X150059217Y-115923071D01*
X150106887Y-115886388D01*
X150137361Y-115859254D01*
X150208176Y-115839274D01*
X150236991Y-115837685D01*
X150270201Y-115824943D01*
X150284638Y-115783468D01*
X150289178Y-115721450D01*
X150432364Y-115721450D01*
X150446990Y-115925252D01*
X150447571Y-115927348D01*
X150461044Y-115975930D01*
X150496373Y-116063382D01*
X150531485Y-116110093D01*
X150568398Y-116122411D01*
X150596952Y-116097289D01*
X150586363Y-116028276D01*
X150584750Y-116023218D01*
X150588085Y-115967462D01*
X150624339Y-115880059D01*
X150697683Y-115750597D01*
X150701985Y-115743473D01*
X150801378Y-115556138D01*
X150852122Y-115400181D01*
X150856419Y-115264216D01*
X150816474Y-115136857D01*
X150769326Y-115048248D01*
X150720626Y-114992140D01*
X150672992Y-114990661D01*
X150616092Y-115038752D01*
X150568965Y-115115930D01*
X150573710Y-115206986D01*
X150579542Y-115283948D01*
X150536518Y-115409633D01*
X150484214Y-115515603D01*
X150432364Y-115721450D01*
X150289178Y-115721450D01*
X150291167Y-115694282D01*
X150294051Y-115661375D01*
X150319382Y-115529826D01*
X150359751Y-115404050D01*
X150374768Y-115363617D01*
X150404302Y-115246437D01*
X150411650Y-115148522D01*
X150413382Y-115058421D01*
X150430768Y-114991639D01*
X150439678Y-114955017D01*
X150397317Y-114932757D01*
X150388141Y-114931248D01*
X150307737Y-114915841D01*
X150207763Y-114894527D01*
X150168340Y-114886875D01*
X150096627Y-114887457D01*
X150067913Y-114921309D01*
X150050504Y-114953567D01*
X149991068Y-114987699D01*
X149950417Y-115005057D01*
X149903878Y-115077693D01*
X149898759Y-115094311D01*
X149870913Y-115135978D01*
X149823967Y-115123498D01*
X149784931Y-115109476D01*
X149706223Y-115112687D01*
X149675093Y-115130812D01*
X149652333Y-115179395D01*
X149647193Y-115273511D01*
X149645765Y-115358277D01*
X149633350Y-115429424D01*
X149605104Y-115444676D01*
X149557023Y-115410097D01*
X149523474Y-115382894D01*
X149480731Y-115381987D01*
X149424958Y-115432223D01*
X149383868Y-115482784D01*
X149363474Y-115536147D01*
X145362052Y-115536147D01*
X145352358Y-115465366D01*
X145328106Y-115344310D01*
X146172593Y-115344310D01*
X146178757Y-115434338D01*
X146214788Y-115489818D01*
X146229715Y-115498040D01*
X146258056Y-115501080D01*
X146253554Y-115452359D01*
X146251769Y-115443188D01*
X146254441Y-115397355D01*
X146255330Y-115396197D01*
X149023354Y-115396197D01*
X149024265Y-115404854D01*
X149049942Y-115447425D01*
X149076601Y-115454389D01*
X149117035Y-115434584D01*
X149120872Y-115392414D01*
X149090334Y-115364772D01*
X149045014Y-115363016D01*
X149023354Y-115396197D01*
X146255330Y-115396197D01*
X146288805Y-115352582D01*
X146367510Y-115290958D01*
X146410005Y-115259684D01*
X146480390Y-115203600D01*
X146501773Y-115179090D01*
X146472804Y-115189131D01*
X146436624Y-115210466D01*
X146392130Y-115236704D01*
X146360651Y-115255505D01*
X146335604Y-115265254D01*
X146278173Y-115287610D01*
X146226562Y-115271858D01*
X146197590Y-115250068D01*
X146182512Y-115270001D01*
X146172593Y-115344310D01*
X145328106Y-115344310D01*
X145323252Y-115320081D01*
X145329777Y-115132375D01*
X146167859Y-115132375D01*
X146168857Y-115144360D01*
X146183488Y-115179939D01*
X146188528Y-115180340D01*
X146196764Y-115149064D01*
X146195766Y-115137079D01*
X146193651Y-115131937D01*
X146534248Y-115131937D01*
X146540356Y-115154733D01*
X146563153Y-115148626D01*
X146557044Y-115125828D01*
X146534248Y-115131937D01*
X146193651Y-115131937D01*
X146181135Y-115101500D01*
X146177289Y-115101194D01*
X146603383Y-115101194D01*
X146609467Y-115110737D01*
X146633780Y-115093050D01*
X146640529Y-115076543D01*
X146625635Y-115062653D01*
X146619730Y-115064893D01*
X146603383Y-115101194D01*
X146177289Y-115101194D01*
X146176095Y-115101099D01*
X146167859Y-115132375D01*
X145329777Y-115132375D01*
X145329883Y-115129330D01*
X145386083Y-114918959D01*
X145447536Y-114781745D01*
X146159102Y-114781745D01*
X146160040Y-114822483D01*
X146164423Y-114941439D01*
X146170059Y-115025995D01*
X146175969Y-115059977D01*
X146179280Y-115052303D01*
X146187139Y-114994367D01*
X146188970Y-114973357D01*
X146715732Y-114973357D01*
X146721816Y-114982898D01*
X146746128Y-114965211D01*
X146752877Y-114948704D01*
X146737984Y-114934816D01*
X146732078Y-114937055D01*
X146715732Y-114973357D01*
X146188970Y-114973357D01*
X146196084Y-114891721D01*
X146198181Y-114859526D01*
X146824131Y-114859526D01*
X146839546Y-114847953D01*
X146876220Y-114789806D01*
X146893671Y-114757848D01*
X146897682Y-114747995D01*
X150074424Y-114747995D01*
X150081939Y-114763693D01*
X150125163Y-114777891D01*
X150214274Y-114793834D01*
X150359451Y-114814769D01*
X150390920Y-114819001D01*
X150503350Y-114830081D01*
X150552021Y-114825769D01*
X150537937Y-114806016D01*
X150534590Y-114804028D01*
X150453626Y-114770497D01*
X150346316Y-114742376D01*
X150235100Y-114723523D01*
X150142418Y-114717802D01*
X150090711Y-114729071D01*
X150074424Y-114747995D01*
X146897682Y-114747995D01*
X146908940Y-114720339D01*
X146892076Y-114731964D01*
X146860597Y-114775400D01*
X146825904Y-114847923D01*
X146824131Y-114859526D01*
X146198181Y-114859526D01*
X146204752Y-114758634D01*
X146208038Y-114681006D01*
X146207887Y-114568950D01*
X146202653Y-114515586D01*
X147018735Y-114515586D01*
X147025941Y-114526285D01*
X147054175Y-114487872D01*
X147073103Y-114445784D01*
X147060456Y-114443323D01*
X147049085Y-114454203D01*
X147018735Y-114515586D01*
X146202653Y-114515586D01*
X146200910Y-114497810D01*
X146187884Y-114480402D01*
X146183264Y-114487009D01*
X146169171Y-114547547D01*
X146160543Y-114651793D01*
X146159102Y-114781745D01*
X145447536Y-114781745D01*
X145493703Y-114678663D01*
X145531618Y-114606198D01*
X145616028Y-114454159D01*
X145672290Y-114369192D01*
X147066956Y-114369192D01*
X147077081Y-114374440D01*
X147104041Y-114340018D01*
X147115816Y-114308933D01*
X147096660Y-114312472D01*
X147082391Y-114326520D01*
X147066956Y-114369192D01*
X145672290Y-114369192D01*
X145683097Y-114352871D01*
X145739525Y-114294728D01*
X145792009Y-114272128D01*
X145847252Y-114277470D01*
X145884445Y-114283728D01*
X146001357Y-114277630D01*
X146140152Y-114246670D01*
X146275134Y-114195753D01*
X146300184Y-114184611D01*
X146355740Y-114175303D01*
X146384254Y-114210442D01*
X146387832Y-114219231D01*
X146422148Y-114250434D01*
X146490763Y-114239531D01*
X146558614Y-114228714D01*
X146627158Y-114241334D01*
X146659874Y-114246256D01*
X146745201Y-114224917D01*
X146858473Y-114172546D01*
X146943761Y-114129273D01*
X147036852Y-114089604D01*
X147094766Y-114074244D01*
X147116528Y-114070630D01*
X147158304Y-114032680D01*
X147200193Y-113942409D01*
X147234857Y-113839241D01*
X147239482Y-113770703D01*
X147203934Y-113730368D01*
X147119357Y-113708424D01*
X146976893Y-113695061D01*
X146947937Y-113693112D01*
X146830099Y-113687478D01*
X146745298Y-113687124D01*
X146710273Y-113692228D01*
X146714389Y-113697176D01*
X146762917Y-113707680D01*
X146849561Y-113715332D01*
X146891381Y-113717759D01*
X146972260Y-113724251D01*
X147010025Y-113730111D01*
X147011380Y-113736259D01*
X147006427Y-113787697D01*
X146992800Y-113871996D01*
X146990493Y-113884044D01*
X146975496Y-113962404D01*
X146974816Y-113965961D01*
X146956791Y-114046398D01*
X146943042Y-114090113D01*
X146930436Y-114089759D01*
X146889623Y-114058600D01*
X146843691Y-114039854D01*
X146742277Y-114020076D01*
X146599745Y-114002512D01*
X146429328Y-113989160D01*
X146415608Y-113988349D01*
X146258071Y-113978406D01*
X146127398Y-113969045D01*
X146036853Y-113961288D01*
X145999700Y-113956152D01*
X145991586Y-113936646D01*
X146015288Y-113894201D01*
X146062395Y-113853486D01*
X146113037Y-113835627D01*
X146170778Y-113815446D01*
X146232697Y-113758270D01*
X146255976Y-113724640D01*
X146263813Y-113702920D01*
X146318792Y-113702920D01*
X146320330Y-113713874D01*
X146352375Y-113718960D01*
X146433044Y-113721812D01*
X146497546Y-113720982D01*
X146541975Y-113712110D01*
X146532393Y-113705667D01*
X146587268Y-113705667D01*
X146600325Y-113721694D01*
X146647345Y-113707466D01*
X146663705Y-113695373D01*
X146641958Y-113687359D01*
X146623965Y-113688869D01*
X146589319Y-113701464D01*
X146587268Y-113705667D01*
X146532393Y-113705667D01*
X146523804Y-113699892D01*
X146441305Y-113690815D01*
X146430841Y-113690390D01*
X146355803Y-113691428D01*
X146320783Y-113699302D01*
X146318792Y-113702920D01*
X146263813Y-113702920D01*
X146265150Y-113699215D01*
X146231196Y-113714036D01*
X146199007Y-113730409D01*
X146153154Y-113734768D01*
X146151993Y-113697023D01*
X146189684Y-113638225D01*
X147574045Y-113638225D01*
X147574451Y-113642965D01*
X147602224Y-113686611D01*
X147607791Y-113689209D01*
X147643331Y-113678228D01*
X147645101Y-113664984D01*
X147615152Y-113629840D01*
X147595078Y-113622216D01*
X147574045Y-113638225D01*
X146189684Y-113638225D01*
X146198317Y-113624758D01*
X146206847Y-113614146D01*
X146241374Y-113560644D01*
X146253583Y-113503362D01*
X146244508Y-113422252D01*
X146215179Y-113297263D01*
X146206770Y-113258267D01*
X146189965Y-113127268D01*
X146180038Y-112965301D01*
X146176802Y-112788613D01*
X146178912Y-112675509D01*
X146824033Y-112675509D01*
X146852424Y-112734020D01*
X146903707Y-112823156D01*
X146963674Y-112936952D01*
X147031048Y-113092790D01*
X147084276Y-113244669D01*
X147156331Y-113486986D01*
X147120585Y-113333599D01*
X147841159Y-113333599D01*
X147945789Y-113482245D01*
X147996775Y-113558140D01*
X148025837Y-113625418D01*
X148021661Y-113690413D01*
X147988222Y-113781129D01*
X147968245Y-113829436D01*
X147956130Y-113858822D01*
X147931403Y-113918803D01*
X147926215Y-113931479D01*
X147909338Y-113972719D01*
X147907949Y-113977926D01*
X147929595Y-113985183D01*
X147988618Y-113959643D01*
X148079176Y-113917195D01*
X148178947Y-113884912D01*
X148221271Y-113877188D01*
X148267918Y-113881773D01*
X148313572Y-113915752D01*
X148379694Y-113990402D01*
X148417647Y-114033734D01*
X148473743Y-114091116D01*
X148503152Y-114111622D01*
X148509397Y-114097685D01*
X148516724Y-114033591D01*
X148519113Y-113935939D01*
X148518002Y-113764831D01*
X148679162Y-113692807D01*
X148840320Y-113620783D01*
X148505993Y-113479707D01*
X148478235Y-113300114D01*
X148450477Y-113120522D01*
X148410191Y-113167095D01*
X148329477Y-113260405D01*
X148324399Y-113266272D01*
X148254289Y-113342698D01*
X148208655Y-113372330D01*
X148198820Y-113378716D01*
X148183460Y-113379845D01*
X148131247Y-113383679D01*
X148105102Y-113379568D01*
X148024818Y-113366944D01*
X147841159Y-113333599D01*
X147120585Y-113333599D01*
X147100920Y-113249218D01*
X147093768Y-113220381D01*
X147050344Y-113082460D01*
X146993676Y-112940468D01*
X146931768Y-112811438D01*
X146872623Y-112712402D01*
X146824244Y-112660396D01*
X146824033Y-112675509D01*
X146178912Y-112675509D01*
X146180070Y-112613448D01*
X146180681Y-112603426D01*
X146760784Y-112603426D01*
X146766893Y-112626224D01*
X146789690Y-112620115D01*
X146783581Y-112597318D01*
X146760784Y-112603426D01*
X146180681Y-112603426D01*
X146185076Y-112531284D01*
X146693631Y-112531284D01*
X146711318Y-112555597D01*
X146727825Y-112562346D01*
X146741714Y-112547452D01*
X146739474Y-112541547D01*
X146703174Y-112525201D01*
X146693631Y-112531284D01*
X146185076Y-112531284D01*
X146189659Y-112456051D01*
X146191650Y-112440430D01*
X146596141Y-112440430D01*
X146630563Y-112467390D01*
X146661648Y-112479165D01*
X146658110Y-112460009D01*
X146644061Y-112445741D01*
X146601390Y-112430304D01*
X146596141Y-112440430D01*
X146191650Y-112440430D01*
X146205382Y-112332669D01*
X146227052Y-112259547D01*
X146238737Y-112247677D01*
X146294520Y-112246495D01*
X146395025Y-112285692D01*
X146424081Y-112298575D01*
X146429821Y-112295788D01*
X146385013Y-112265104D01*
X146294225Y-112209955D01*
X146240255Y-112178767D01*
X146155207Y-112133436D01*
X146109106Y-112114775D01*
X146110952Y-112126866D01*
X146134316Y-112161289D01*
X146154077Y-112236017D01*
X146161654Y-112353818D01*
X146158413Y-112526197D01*
X146153850Y-112624515D01*
X146145687Y-112754824D01*
X146137083Y-112849797D01*
X146129280Y-112893740D01*
X146122325Y-112884505D01*
X146099788Y-112821515D01*
X146064305Y-112706691D01*
X146017911Y-112547634D01*
X145962639Y-112351946D01*
X145900525Y-112127230D01*
X145844890Y-111922605D01*
X146167057Y-111922605D01*
X146177183Y-111927854D01*
X146204142Y-111893432D01*
X146215918Y-111862347D01*
X146196762Y-111865885D01*
X146182493Y-111879934D01*
X146167057Y-111922605D01*
X145844890Y-111922605D01*
X145833602Y-111881089D01*
X145763903Y-111621125D01*
X145693464Y-111354941D01*
X145624319Y-111090140D01*
X145558501Y-110834322D01*
X145498045Y-110595093D01*
X145444985Y-110380053D01*
X145401355Y-110196807D01*
X145369189Y-110052954D01*
X145353284Y-109972278D01*
X145324345Y-109798274D01*
X145297276Y-109603744D01*
X145273255Y-109401045D01*
X145253458Y-109202536D01*
X145239064Y-109020577D01*
X145231249Y-108867526D01*
X145231192Y-108755742D01*
X145240069Y-108697583D01*
X145250628Y-108696623D01*
X145303806Y-108717791D01*
X145384797Y-108761870D01*
X145467046Y-108806355D01*
X145514008Y-108816685D01*
X145533336Y-108792241D01*
X145540326Y-108767188D01*
X145585808Y-108654496D01*
X145650777Y-108532361D01*
X145721364Y-108424926D01*
X145783705Y-108356334D01*
X145787083Y-108353752D01*
X145859740Y-108309340D01*
X145901029Y-108317753D01*
X145922613Y-108381070D01*
X145923146Y-108384048D01*
X145953292Y-108450098D01*
X145999217Y-108472001D01*
X146041963Y-108440342D01*
X146043537Y-108437531D01*
X146065779Y-108373210D01*
X146050796Y-108311646D01*
X145991879Y-108240533D01*
X145882318Y-108147567D01*
X145819740Y-108098586D01*
X145700519Y-108009159D01*
X145617401Y-107956439D01*
X145559903Y-107935880D01*
X145517539Y-107942935D01*
X145479823Y-107973058D01*
X145432305Y-108039662D01*
X145442347Y-108081688D01*
X145511446Y-108094048D01*
X145563022Y-108094278D01*
X145612393Y-108108347D01*
X145621022Y-108147524D01*
X145589119Y-108221226D01*
X145516892Y-108338869D01*
X145513029Y-108344829D01*
X145427506Y-108466534D01*
X145359640Y-108538176D01*
X145299786Y-108570023D01*
X145255326Y-108579966D01*
X145221502Y-108569109D01*
X145209283Y-108511066D01*
X145214824Y-108439057D01*
X145247791Y-108348317D01*
X145253226Y-108338543D01*
X145294474Y-108210280D01*
X145290389Y-108081588D01*
X145241402Y-107977575D01*
X145216744Y-107937138D01*
X145200265Y-107873195D01*
X145193280Y-107776823D01*
X145195015Y-107636708D01*
X145198457Y-107567311D01*
X146710939Y-107567311D01*
X146710972Y-107580449D01*
X146712545Y-108196929D01*
X146719906Y-108312661D01*
X146796845Y-108952995D01*
X146932961Y-109577719D01*
X147126065Y-110179798D01*
X147373967Y-110752197D01*
X147674477Y-111287881D01*
X147674727Y-111288276D01*
X148033395Y-111804910D01*
X148424931Y-112270453D01*
X148859907Y-112696308D01*
X149348896Y-113093878D01*
X149463171Y-113177655D01*
X149719760Y-113353100D01*
X149973535Y-113505831D01*
X150247011Y-113648856D01*
X150562703Y-113795184D01*
X150990937Y-113967087D01*
X151615023Y-114157918D01*
X152249662Y-114283993D01*
X152891087Y-114345202D01*
X153535535Y-114341434D01*
X154179242Y-114272579D01*
X154818442Y-114138523D01*
X155449373Y-113939159D01*
X155532838Y-113907436D01*
X156077826Y-113663037D01*
X156605614Y-113362911D01*
X157105033Y-113014731D01*
X157564912Y-112626172D01*
X157609711Y-112580048D01*
X159112024Y-112580048D01*
X159119007Y-112676544D01*
X159139092Y-112721977D01*
X159196767Y-112797117D01*
X159266701Y-112850547D01*
X159332205Y-112871166D01*
X159376590Y-112847873D01*
X159376962Y-112828946D01*
X159339382Y-112795500D01*
X159315861Y-112784480D01*
X159241676Y-112736588D01*
X159232820Y-112698857D01*
X159288551Y-112672754D01*
X159408127Y-112659741D01*
X159495277Y-112651707D01*
X159567730Y-112624264D01*
X159615158Y-112568170D01*
X159639833Y-112503369D01*
X159625792Y-112420631D01*
X159608231Y-112396293D01*
X159540092Y-112334195D01*
X159465054Y-112295101D01*
X159407689Y-112293353D01*
X159405350Y-112308444D01*
X159403903Y-112317778D01*
X159449224Y-112355873D01*
X159485108Y-112385846D01*
X159493973Y-112434518D01*
X159452243Y-112471959D01*
X159369081Y-112483572D01*
X159268224Y-112484713D01*
X159162428Y-112515591D01*
X159112024Y-112580048D01*
X157609711Y-112580048D01*
X157834560Y-112348551D01*
X158791273Y-112348551D01*
X158791786Y-112350223D01*
X158821951Y-112393461D01*
X158876697Y-112448911D01*
X158933325Y-112495629D01*
X158969138Y-112512669D01*
X158988170Y-112495013D01*
X159014707Y-112436513D01*
X159022936Y-112417958D01*
X159077386Y-112352046D01*
X159158966Y-112287121D01*
X159191900Y-112265582D01*
X159251489Y-112219612D01*
X159271667Y-112180198D01*
X159265874Y-112127235D01*
X159254620Y-112086657D01*
X159214962Y-112032395D01*
X159155181Y-112040025D01*
X159093937Y-112091080D01*
X159072135Y-112109255D01*
X159054175Y-112127476D01*
X158962938Y-112209724D01*
X158878775Y-112272623D01*
X158872385Y-112276681D01*
X158813005Y-112320543D01*
X158791273Y-112348551D01*
X157834560Y-112348551D01*
X157974078Y-112204908D01*
X158048786Y-112118929D01*
X158169752Y-111975677D01*
X158469452Y-111975677D01*
X158495003Y-112053282D01*
X158526741Y-112105405D01*
X158606469Y-112175934D01*
X158693831Y-112198576D01*
X158781995Y-112173748D01*
X158890436Y-112106473D01*
X158968803Y-112018834D01*
X158976204Y-112004976D01*
X158999909Y-111899993D01*
X159315607Y-111899993D01*
X159329137Y-111945856D01*
X159381022Y-112001503D01*
X159383301Y-112003191D01*
X159441150Y-112033519D01*
X159465516Y-112011745D01*
X159451985Y-111965882D01*
X159400101Y-111910235D01*
X159397822Y-111908547D01*
X159339973Y-111878219D01*
X159315607Y-111899993D01*
X158999909Y-111899993D01*
X159000292Y-111898297D01*
X158977756Y-111795478D01*
X158919026Y-111712197D01*
X158834535Y-111664133D01*
X158734711Y-111666964D01*
X158730308Y-111668404D01*
X158653920Y-111708483D01*
X158637622Y-111765414D01*
X158677658Y-111851335D01*
X158692402Y-111874940D01*
X158731934Y-111958042D01*
X158724327Y-112007686D01*
X158669026Y-112035761D01*
X158605331Y-112036735D01*
X158543035Y-111986352D01*
X158516875Y-111958275D01*
X158478726Y-111941244D01*
X158469452Y-111975677D01*
X158169752Y-111975677D01*
X158214764Y-111922373D01*
X158352610Y-111747539D01*
X158473656Y-111578011D01*
X158589234Y-111397377D01*
X158710675Y-111189220D01*
X158849313Y-110937126D01*
X158999761Y-110647163D01*
X159207109Y-110191163D01*
X159368498Y-109747343D01*
X159488930Y-109298871D01*
X159573410Y-108828906D01*
X159626941Y-108320613D01*
X159633050Y-108230268D01*
X159640110Y-107577562D01*
X159582751Y-106935365D01*
X159529433Y-106656371D01*
X160379715Y-106656371D01*
X160387997Y-106737350D01*
X160418989Y-106788340D01*
X160445717Y-106807337D01*
X160503073Y-106858114D01*
X160540271Y-106882860D01*
X160608926Y-106891724D01*
X160666853Y-106867139D01*
X160669777Y-106839174D01*
X160607306Y-106817950D01*
X160544782Y-106800119D01*
X160507511Y-106763423D01*
X160522789Y-106722745D01*
X160584650Y-106688933D01*
X160687125Y-106672837D01*
X160717505Y-106671012D01*
X160801969Y-106655249D01*
X160846781Y-106629944D01*
X160848849Y-106620538D01*
X160815247Y-106609589D01*
X160732378Y-106620771D01*
X160647509Y-106639013D01*
X160523873Y-106663699D01*
X160451045Y-106672579D01*
X160419503Y-106664853D01*
X160419731Y-106639722D01*
X160442210Y-106596384D01*
X160444848Y-106592009D01*
X160503372Y-106546547D01*
X160605270Y-106539279D01*
X160627334Y-106540565D01*
X160718972Y-106526673D01*
X160867864Y-106526673D01*
X160873972Y-106549470D01*
X160896770Y-106543361D01*
X160890661Y-106520564D01*
X160867864Y-106526673D01*
X160718972Y-106526673D01*
X160723998Y-106525911D01*
X160795142Y-106466365D01*
X160834301Y-106410060D01*
X160828694Y-106375088D01*
X160768635Y-106342161D01*
X160699218Y-106321843D01*
X160651067Y-106326330D01*
X160649412Y-106330380D01*
X160641431Y-106349897D01*
X160684348Y-106385353D01*
X160727479Y-106416796D01*
X160737981Y-106460089D01*
X160692399Y-106492856D01*
X160596975Y-106506446D01*
X160571710Y-106507273D01*
X160477713Y-106520252D01*
X160417436Y-106543609D01*
X160394357Y-106578260D01*
X160379715Y-106656371D01*
X159529433Y-106656371D01*
X159483089Y-106413865D01*
X160058129Y-106413865D01*
X160058627Y-106467855D01*
X160082784Y-106500386D01*
X160145902Y-106552474D01*
X160165942Y-106562817D01*
X160202331Y-106564307D01*
X160240126Y-106527851D01*
X160293812Y-106442703D01*
X160325639Y-106393204D01*
X160389374Y-106314596D01*
X160441909Y-106273521D01*
X160455498Y-106268045D01*
X160487130Y-106236686D01*
X160471651Y-106177014D01*
X160432850Y-106111972D01*
X160379575Y-106087607D01*
X160371682Y-106091959D01*
X160314104Y-106123710D01*
X160255508Y-106192399D01*
X160230845Y-106221311D01*
X160183528Y-106283133D01*
X160137785Y-106336405D01*
X160119520Y-106357675D01*
X160076697Y-106396306D01*
X160058129Y-106413865D01*
X159483089Y-106413865D01*
X159462787Y-106307628D01*
X159380195Y-106029205D01*
X159632724Y-106029205D01*
X159668380Y-106125039D01*
X159712629Y-106198416D01*
X159796713Y-106269908D01*
X159808934Y-106276190D01*
X159851506Y-106292148D01*
X159846104Y-106276232D01*
X159824906Y-106249514D01*
X159987286Y-106249514D01*
X159993393Y-106272311D01*
X160016191Y-106266202D01*
X160010082Y-106243406D01*
X159987286Y-106249514D01*
X159824906Y-106249514D01*
X159822495Y-106246475D01*
X159837114Y-106223105D01*
X159903710Y-106193143D01*
X159936530Y-106172753D01*
X160085721Y-106172753D01*
X160096802Y-106170888D01*
X160130178Y-106120040D01*
X160141221Y-106100266D01*
X160159735Y-106057664D01*
X160146163Y-106061823D01*
X160125584Y-106087086D01*
X160087753Y-106162992D01*
X160085721Y-106172753D01*
X159936530Y-106172753D01*
X159982745Y-106144041D01*
X160070091Y-106039336D01*
X160093787Y-106000647D01*
X160133667Y-105956243D01*
X160160031Y-105966998D01*
X160171839Y-105976579D01*
X160170040Y-105960716D01*
X160506705Y-105960716D01*
X160545991Y-106006852D01*
X160592967Y-106032575D01*
X160618082Y-106009933D01*
X160618959Y-106003091D01*
X160598742Y-105954276D01*
X160551836Y-105924229D01*
X160507225Y-105933052D01*
X160506705Y-105960716D01*
X160170040Y-105960716D01*
X160167411Y-105937528D01*
X160115467Y-105831632D01*
X160021860Y-105770654D01*
X159897170Y-105766308D01*
X159823663Y-105784052D01*
X159786800Y-105811206D01*
X159785310Y-105858704D01*
X159800357Y-105901816D01*
X159847829Y-105957026D01*
X159895936Y-106010816D01*
X159908186Y-106086818D01*
X159874698Y-106150412D01*
X159854372Y-106162597D01*
X159804874Y-106158142D01*
X159730921Y-106108267D01*
X159632724Y-106029205D01*
X159380195Y-106029205D01*
X159282034Y-105698299D01*
X159042305Y-105111332D01*
X158745414Y-104550675D01*
X158393176Y-104020278D01*
X157987407Y-103524093D01*
X157529918Y-103066069D01*
X157022527Y-102650157D01*
X156710532Y-102429486D01*
X156407547Y-102239710D01*
X156103402Y-102076845D01*
X155776148Y-101928173D01*
X155767781Y-101924894D01*
X155559840Y-101843379D01*
X155386556Y-101775450D01*
X155379933Y-101772854D01*
X155213502Y-101720502D01*
X155121456Y-101691548D01*
X154798163Y-101589852D01*
X154223538Y-101465531D01*
X153645689Y-101397819D01*
X153054247Y-101384646D01*
X152729949Y-101401766D01*
X152191401Y-101469358D01*
X151646235Y-101582497D01*
X151111274Y-101736760D01*
X150603335Y-101927723D01*
X150139239Y-102150969D01*
X150125451Y-102158653D01*
X150031074Y-102215106D01*
X149899602Y-102297560D01*
X149745873Y-102396327D01*
X149584722Y-102501724D01*
X149430988Y-102604060D01*
X149299507Y-102693651D01*
X149205118Y-102760810D01*
X149148010Y-102805031D01*
X149001094Y-102928781D01*
X148833982Y-103079823D01*
X148663291Y-103242904D01*
X148505638Y-103402773D01*
X148390172Y-103527524D01*
X148379588Y-103540509D01*
X147983811Y-104026081D01*
X147629452Y-104560151D01*
X147329187Y-105124137D01*
X147085111Y-105712443D01*
X146899314Y-106319471D01*
X146773893Y-106939626D01*
X146743865Y-107239024D01*
X146710939Y-107567311D01*
X145198457Y-107567311D01*
X145204695Y-107441540D01*
X145218991Y-107242683D01*
X145236267Y-107055409D01*
X145957812Y-107055409D01*
X145979271Y-107126727D01*
X146046548Y-107241412D01*
X146131295Y-107347101D01*
X146217850Y-107408993D01*
X146294119Y-107418794D01*
X146350759Y-107372480D01*
X146359611Y-107356832D01*
X146371491Y-107320453D01*
X146343615Y-107303175D01*
X146262579Y-107292902D01*
X146207535Y-107280793D01*
X146155168Y-107242980D01*
X146152787Y-107196271D01*
X146206818Y-107156390D01*
X146254097Y-107124306D01*
X146247974Y-107084950D01*
X146189818Y-107048163D01*
X146086632Y-107021787D01*
X146056897Y-107017958D01*
X145983309Y-107021229D01*
X145957812Y-107055409D01*
X145236267Y-107055409D01*
X145239293Y-107022605D01*
X145262424Y-106815625D01*
X145277521Y-106707016D01*
X145972020Y-106707016D01*
X145987432Y-106765418D01*
X146003982Y-106794847D01*
X146051313Y-106849760D01*
X146100605Y-106885666D01*
X146131053Y-106885217D01*
X146139805Y-106852894D01*
X146152928Y-106782225D01*
X146149734Y-106705258D01*
X146104436Y-106660668D01*
X146021059Y-106669212D01*
X146004033Y-106676069D01*
X145972020Y-106707016D01*
X145277521Y-106707016D01*
X145285649Y-106648545D01*
X145308825Y-106517475D01*
X145343989Y-106341054D01*
X145385091Y-106150785D01*
X145428985Y-105959890D01*
X145472528Y-105781595D01*
X145512575Y-105629121D01*
X145545981Y-105515690D01*
X145569602Y-105454527D01*
X145570284Y-105453390D01*
X145622490Y-105414585D01*
X145706068Y-105389594D01*
X145731053Y-105386548D01*
X145808500Y-105393439D01*
X145860424Y-105439323D01*
X145865040Y-105447614D01*
X145885018Y-105518627D01*
X145904891Y-105636024D01*
X145923080Y-105783382D01*
X145938006Y-105944283D01*
X145948090Y-106102305D01*
X145951752Y-106241026D01*
X145947414Y-106344027D01*
X145946171Y-106371924D01*
X145972158Y-106466693D01*
X146035369Y-106530205D01*
X146120649Y-106544889D01*
X146177877Y-106509599D01*
X146240047Y-106421473D01*
X146295178Y-106296789D01*
X146336475Y-106151183D01*
X146357152Y-106000293D01*
X146362358Y-105927919D01*
X146378428Y-105779945D01*
X146398235Y-105653939D01*
X146406560Y-105599793D01*
X146415086Y-105470523D01*
X146414358Y-105324378D01*
X146405602Y-105178066D01*
X146390041Y-105048303D01*
X146368899Y-104951797D01*
X146343402Y-104905260D01*
X146286353Y-104907767D01*
X146207651Y-104970997D01*
X146159409Y-105017163D01*
X146104846Y-105041982D01*
X146048254Y-105023496D01*
X146014185Y-105001612D01*
X146000266Y-104974188D01*
X146025608Y-104933360D01*
X146094907Y-104862976D01*
X146104116Y-104853573D01*
X146116875Y-104821171D01*
X146069320Y-104802067D01*
X146046406Y-104793593D01*
X145979297Y-104735097D01*
X145929314Y-104649926D01*
X145915840Y-104567678D01*
X145922616Y-104557068D01*
X145961056Y-104560396D01*
X146039512Y-104595704D01*
X146165464Y-104665935D01*
X146287716Y-104733904D01*
X146386810Y-104775724D01*
X146455908Y-104780107D01*
X146508176Y-104747467D01*
X146556783Y-104678215D01*
X146574458Y-104643960D01*
X146572147Y-104601700D01*
X146514412Y-104569051D01*
X146496401Y-104561217D01*
X146402659Y-104508278D01*
X146307696Y-104439317D01*
X146226096Y-104366981D01*
X146172440Y-104303916D01*
X146161309Y-104262773D01*
X146171198Y-104252428D01*
X146208179Y-104252151D01*
X146277043Y-104282946D01*
X146388790Y-104348980D01*
X146422456Y-104369559D01*
X146563548Y-104444352D01*
X146666857Y-104474018D01*
X146740837Y-104459672D01*
X146793935Y-104402428D01*
X146859252Y-104327805D01*
X146991642Y-104254822D01*
X147184455Y-104201792D01*
X147205197Y-104197538D01*
X147313220Y-104162980D01*
X147392786Y-104104849D01*
X147457766Y-104009190D01*
X147522028Y-103862043D01*
X147528098Y-103846047D01*
X147572019Y-103702602D01*
X147586748Y-103591806D01*
X147572133Y-103522713D01*
X147528023Y-103504375D01*
X147517328Y-103507105D01*
X147482734Y-103534189D01*
X147447345Y-103598712D01*
X147403087Y-103714241D01*
X147372535Y-103800783D01*
X147332260Y-103914869D01*
X147139917Y-103977252D01*
X147087343Y-103993160D01*
X146875708Y-104029560D01*
X146698893Y-104010989D01*
X146558446Y-103937824D01*
X146455916Y-103810444D01*
X146435250Y-103770849D01*
X146416553Y-103717799D01*
X146421183Y-103665307D01*
X146452615Y-103593987D01*
X146466197Y-103569878D01*
X146636855Y-103569878D01*
X146670740Y-103614449D01*
X146754768Y-103659687D01*
X146821538Y-103691566D01*
X146851958Y-103731661D01*
X146860376Y-103759437D01*
X146921661Y-103807362D01*
X147033206Y-103837360D01*
X147048303Y-103839052D01*
X147097860Y-103831063D01*
X147142619Y-103789389D01*
X147198914Y-103700543D01*
X147205396Y-103689024D01*
X147256047Y-103570107D01*
X147281124Y-103454350D01*
X147278436Y-103360202D01*
X147245789Y-103306106D01*
X147198050Y-103302756D01*
X147126046Y-103328112D01*
X147062341Y-103370191D01*
X147035550Y-103414273D01*
X147038179Y-103429285D01*
X147074890Y-103477221D01*
X147095994Y-103497385D01*
X147123556Y-103561031D01*
X147122153Y-103588274D01*
X147097037Y-103589983D01*
X147037462Y-103561410D01*
X146932914Y-103499139D01*
X146830194Y-103431828D01*
X146763806Y-103375038D01*
X146752467Y-103339247D01*
X146763937Y-103326626D01*
X146811221Y-103324992D01*
X146843132Y-103324042D01*
X146909982Y-103297358D01*
X146972448Y-103261898D01*
X147493606Y-103261898D01*
X147499138Y-103309089D01*
X147542311Y-103362720D01*
X147616457Y-103368853D01*
X147707634Y-103323476D01*
X147755293Y-103285508D01*
X147820501Y-103217720D01*
X147833603Y-103163324D01*
X147799661Y-103110608D01*
X147759758Y-103072631D01*
X147691159Y-103027837D01*
X147635064Y-103036062D01*
X147573705Y-103096171D01*
X147566528Y-103105252D01*
X147515663Y-103189262D01*
X147493606Y-103261898D01*
X146972448Y-103261898D01*
X146984807Y-103254882D01*
X147044309Y-103210199D01*
X147065195Y-103176891D01*
X147059591Y-103166491D01*
X147010406Y-103150045D01*
X146933182Y-103161060D01*
X146852161Y-103197223D01*
X146823118Y-103218575D01*
X146744914Y-103300955D01*
X146679762Y-103400882D01*
X146639722Y-103497482D01*
X146636855Y-103569878D01*
X146466197Y-103569878D01*
X146514320Y-103484455D01*
X146583150Y-103372495D01*
X146673329Y-103239722D01*
X146753736Y-103134434D01*
X146777897Y-103105694D01*
X146865288Y-103001047D01*
X146970788Y-102874033D01*
X147076668Y-102745977D01*
X147290101Y-102499139D01*
X147771013Y-102015361D01*
X148300185Y-101570826D01*
X148870464Y-101170778D01*
X149474695Y-100820463D01*
X150105728Y-100525124D01*
X150127323Y-100516202D01*
X150319641Y-100439063D01*
X150503315Y-100369180D01*
X150667747Y-100310232D01*
X150802339Y-100265892D01*
X150896494Y-100239841D01*
X150939613Y-100235756D01*
X150948603Y-100246847D01*
X150948008Y-100301295D01*
X150921718Y-100372079D01*
X150878358Y-100431634D01*
X150838174Y-100452905D01*
X150769389Y-100445801D01*
X150762569Y-100442275D01*
X150683152Y-100431439D01*
X150589378Y-100451343D01*
X150508253Y-100492939D01*
X150466782Y-100547182D01*
X150466562Y-100548137D01*
X150425258Y-100606983D01*
X150343083Y-100660225D01*
X150266918Y-100706837D01*
X150210018Y-100791712D01*
X150207394Y-100800504D01*
X150174757Y-100854279D01*
X150115539Y-100857348D01*
X150045026Y-100867865D01*
X150001687Y-100922642D01*
X150003986Y-101000820D01*
X150008939Y-101011347D01*
X150053028Y-101075303D01*
X150126951Y-101166373D01*
X150216754Y-101268969D01*
X150308484Y-101367502D01*
X150388190Y-101446386D01*
X150441914Y-101490033D01*
X150495984Y-101499220D01*
X150530699Y-101461801D01*
X150525907Y-101392182D01*
X150492306Y-101338334D01*
X150431433Y-101272109D01*
X150369660Y-101211256D01*
X150311929Y-101145698D01*
X150282573Y-101108623D01*
X150225082Y-101040861D01*
X150208403Y-101013216D01*
X150214032Y-100959869D01*
X150256474Y-100928309D01*
X150316200Y-100940121D01*
X150347742Y-100963815D01*
X150403804Y-101020055D01*
X150413846Y-101030435D01*
X150457909Y-101031552D01*
X150527508Y-100979990D01*
X150539690Y-100968745D01*
X150587669Y-100921101D01*
X150588366Y-100905634D01*
X150544304Y-100912154D01*
X150474941Y-100916832D01*
X150422779Y-100898873D01*
X150417044Y-100863502D01*
X150438095Y-100848702D01*
X150510602Y-100811810D01*
X150621371Y-100761279D01*
X150756810Y-100703512D01*
X150822356Y-100675791D01*
X150960945Y-100610897D01*
X151041409Y-100561760D01*
X151060830Y-100530049D01*
X151063023Y-100496020D01*
X151123702Y-100464012D01*
X151137545Y-100459362D01*
X151185100Y-100432964D01*
X151177549Y-100401468D01*
X151171562Y-100387599D01*
X151200255Y-100355594D01*
X151290418Y-100318712D01*
X151339874Y-100301254D01*
X151367795Y-100286707D01*
X151335700Y-100288769D01*
X151306171Y-100293249D01*
X151248139Y-100288360D01*
X151223648Y-100249209D01*
X151223724Y-100217474D01*
X151259735Y-100189179D01*
X151348883Y-100167382D01*
X151383016Y-100160496D01*
X151464794Y-100136577D01*
X151505621Y-100112855D01*
X151535987Y-100089712D01*
X151605416Y-100065504D01*
X151613712Y-100063739D01*
X151662488Y-100058889D01*
X151671939Y-100084644D01*
X151649764Y-100156860D01*
X151595458Y-100261194D01*
X151497062Y-100390483D01*
X151374043Y-100517528D01*
X151243237Y-100623026D01*
X151121011Y-100706622D01*
X151246084Y-100663211D01*
X151304616Y-100642007D01*
X151429015Y-100584554D01*
X151521403Y-100512805D01*
X151599456Y-100410406D01*
X151612681Y-100386132D01*
X152530105Y-100386132D01*
X152550937Y-100415635D01*
X152594619Y-100391115D01*
X152597308Y-100388816D01*
X152665840Y-100364706D01*
X152756566Y-100367573D01*
X152867751Y-100390370D01*
X152847987Y-100380573D01*
X152892678Y-100380573D01*
X152898786Y-100403371D01*
X152921583Y-100397262D01*
X152920139Y-100391873D01*
X152970052Y-100391873D01*
X152987738Y-100416185D01*
X153004245Y-100422935D01*
X153018135Y-100408042D01*
X153017438Y-100406205D01*
X153070582Y-100406205D01*
X153076690Y-100429002D01*
X153099488Y-100422894D01*
X153096214Y-100410677D01*
X153145081Y-100410677D01*
X153151190Y-100433474D01*
X153173987Y-100427366D01*
X153172297Y-100421057D01*
X153216545Y-100421057D01*
X153229601Y-100437084D01*
X153264847Y-100426419D01*
X153339233Y-100426419D01*
X153345195Y-100427331D01*
X153400870Y-100420030D01*
X153499352Y-100399575D01*
X153624111Y-100369284D01*
X153889523Y-100300912D01*
X153645877Y-100350048D01*
X153631613Y-100352925D01*
X153518417Y-100375708D01*
X153509105Y-100377582D01*
X153412274Y-100396996D01*
X153369682Y-100405458D01*
X153360999Y-100407183D01*
X153345782Y-100411469D01*
X153339233Y-100426419D01*
X153264847Y-100426419D01*
X153276622Y-100422856D01*
X153292982Y-100410763D01*
X153271234Y-100402750D01*
X153253242Y-100404259D01*
X153218596Y-100416854D01*
X153216545Y-100421057D01*
X153172297Y-100421057D01*
X153167879Y-100404568D01*
X153145081Y-100410677D01*
X153096214Y-100410677D01*
X153093379Y-100400096D01*
X153070582Y-100406205D01*
X153017438Y-100406205D01*
X153015895Y-100402136D01*
X152979594Y-100385790D01*
X152970052Y-100391873D01*
X152920139Y-100391873D01*
X152915475Y-100374464D01*
X152892678Y-100380573D01*
X152847987Y-100380573D01*
X152779851Y-100346797D01*
X152756431Y-100334262D01*
X152710486Y-100287846D01*
X152711680Y-100254493D01*
X153929360Y-100254493D01*
X153942417Y-100270519D01*
X153989438Y-100256291D01*
X154005797Y-100244198D01*
X153984051Y-100236185D01*
X153966059Y-100237694D01*
X153931412Y-100250289D01*
X153929360Y-100254493D01*
X152711680Y-100254493D01*
X152712951Y-100218997D01*
X152724237Y-100171222D01*
X152721633Y-100157174D01*
X152693294Y-100198536D01*
X152659031Y-100240228D01*
X152584494Y-100298556D01*
X152537394Y-100333986D01*
X152530105Y-100386132D01*
X151612681Y-100386132D01*
X151680854Y-100261004D01*
X151760812Y-100100701D01*
X152797325Y-100100701D01*
X152803408Y-100110243D01*
X152827720Y-100092556D01*
X152834469Y-100076049D01*
X152819576Y-100062160D01*
X152813671Y-100064399D01*
X152797325Y-100100701D01*
X151760812Y-100100701D01*
X151795742Y-100030673D01*
X152876296Y-100030673D01*
X152882379Y-100040214D01*
X152906692Y-100022528D01*
X152913441Y-100006022D01*
X152898547Y-99992133D01*
X152892642Y-99994372D01*
X152876296Y-100030673D01*
X151795742Y-100030673D01*
X151801021Y-100020089D01*
X152018132Y-99985323D01*
X152181532Y-99961928D01*
X152369475Y-99940875D01*
X152549443Y-99926110D01*
X152709804Y-99918182D01*
X152838924Y-99917643D01*
X152925171Y-99925042D01*
X152956911Y-99940928D01*
X152967396Y-99961705D01*
X153008641Y-99939391D01*
X153035196Y-99926337D01*
X153124096Y-99910181D01*
X153254203Y-99901770D01*
X153409688Y-99901023D01*
X153574716Y-99907854D01*
X153733458Y-99922181D01*
X153870080Y-99943922D01*
X153941075Y-99962038D01*
X154054222Y-100002754D01*
X154132849Y-100045871D01*
X154183247Y-100078385D01*
X154244967Y-100083987D01*
X154330578Y-100049237D01*
X154385863Y-100022993D01*
X154476225Y-99999908D01*
X154551110Y-100024382D01*
X154635605Y-100100637D01*
X154643133Y-100108473D01*
X154719916Y-100173345D01*
X154786524Y-100206997D01*
X154829581Y-100205208D01*
X154835708Y-100163760D01*
X154828428Y-100116699D01*
X154847859Y-100088240D01*
X154908479Y-100085613D01*
X155021748Y-100105209D01*
X155038147Y-100108628D01*
X155144169Y-100137610D01*
X155194424Y-100177556D01*
X155198373Y-100245013D01*
X155165479Y-100356525D01*
X155152480Y-100390304D01*
X155117208Y-100443137D01*
X155055999Y-100479985D01*
X154949086Y-100515357D01*
X154769725Y-100567278D01*
X154946069Y-100651650D01*
X155122414Y-100736023D01*
X155112305Y-100883040D01*
X155108550Y-100937637D01*
X155104114Y-101002157D01*
X155094687Y-101139250D01*
X155366915Y-100884101D01*
G37*
G36*
X140579339Y-136970948D02*
G01*
X140619558Y-136991631D01*
X140660896Y-137012766D01*
X140660478Y-137023346D01*
X140659163Y-137056632D01*
X140646461Y-137071327D01*
X140610865Y-137075651D01*
X140546277Y-137050538D01*
X140439481Y-136992104D01*
X140436267Y-136990252D01*
X140341750Y-136939032D01*
X140286515Y-136914279D01*
X140471568Y-136914279D01*
X140477676Y-136937075D01*
X140500473Y-136930967D01*
X140494365Y-136908169D01*
X140471568Y-136914279D01*
X140286515Y-136914279D01*
X140276418Y-136909754D01*
X140254244Y-136908711D01*
X140262792Y-136917176D01*
X140282003Y-136936201D01*
X140353104Y-136985995D01*
X140451201Y-137045976D01*
X140533021Y-137095293D01*
X140605352Y-137148797D01*
X140623518Y-137183406D01*
X140591689Y-137203803D01*
X140589372Y-137203534D01*
X140544933Y-137183307D01*
X140451721Y-137134499D01*
X140317259Y-137061249D01*
X140149067Y-136967694D01*
X139954669Y-136857970D01*
X139880802Y-136815763D01*
X140088326Y-136815763D01*
X140126738Y-136843997D01*
X140168828Y-136862926D01*
X140171288Y-136850278D01*
X140170866Y-136849837D01*
X140367707Y-136849837D01*
X140373095Y-136876695D01*
X140382197Y-136880511D01*
X140436554Y-136874792D01*
X140447591Y-136866370D01*
X140442201Y-136839513D01*
X140433100Y-136835697D01*
X140419024Y-136837178D01*
X140378743Y-136841415D01*
X140367707Y-136849837D01*
X140170866Y-136849837D01*
X140160407Y-136838906D01*
X140099024Y-136808557D01*
X140090597Y-136814234D01*
X140088326Y-136815763D01*
X139880802Y-136815763D01*
X139859107Y-136803367D01*
X140266193Y-136803367D01*
X140279250Y-136819393D01*
X140326270Y-136805165D01*
X140342631Y-136793072D01*
X140320884Y-136785059D01*
X140302891Y-136786568D01*
X140291143Y-136790839D01*
X140268245Y-136799164D01*
X140266193Y-136803367D01*
X139859107Y-136803367D01*
X139741585Y-136736216D01*
X139572249Y-136638572D01*
X139354306Y-136511414D01*
X139276864Y-136465128D01*
X139494014Y-136465128D01*
X139494524Y-136470429D01*
X139570170Y-136525082D01*
X139691105Y-136604699D01*
X139813541Y-136678520D01*
X139918908Y-136735491D01*
X139988637Y-136764556D01*
X139994104Y-136758524D01*
X139971679Y-136741541D01*
X140187459Y-136741541D01*
X140188874Y-136744641D01*
X140204780Y-136779518D01*
X140216546Y-136783285D01*
X140234216Y-136757972D01*
X140233277Y-136745896D01*
X140220293Y-136711394D01*
X140216974Y-136710480D01*
X140190857Y-136732939D01*
X140187459Y-136741541D01*
X139971679Y-136741541D01*
X139951007Y-136725885D01*
X139890496Y-136687467D01*
X140069766Y-136687467D01*
X140084305Y-136707453D01*
X140087453Y-136711779D01*
X140103959Y-136718527D01*
X140117848Y-136703635D01*
X140115609Y-136697729D01*
X140079307Y-136681383D01*
X140069766Y-136687467D01*
X139890496Y-136687467D01*
X139865670Y-136671705D01*
X139785334Y-136624464D01*
X140002972Y-136624464D01*
X140003971Y-136636449D01*
X140018601Y-136672028D01*
X140023641Y-136672428D01*
X140031878Y-136641152D01*
X140030879Y-136629168D01*
X140016249Y-136593589D01*
X140011209Y-136593188D01*
X140009257Y-136600599D01*
X140002972Y-136624464D01*
X139785334Y-136624464D01*
X139746405Y-136601572D01*
X139689855Y-136569727D01*
X139861517Y-136569727D01*
X139874573Y-136585753D01*
X139921595Y-136571526D01*
X139937954Y-136559432D01*
X139916207Y-136551419D01*
X139910642Y-136551886D01*
X139898215Y-136552928D01*
X139870718Y-136562924D01*
X139863569Y-136565524D01*
X139861517Y-136569727D01*
X139689855Y-136569727D01*
X139631904Y-136537093D01*
X139566147Y-136501535D01*
X139823431Y-136501535D01*
X139829539Y-136524332D01*
X139852337Y-136518224D01*
X139846228Y-136495427D01*
X139823431Y-136501535D01*
X139566147Y-136501535D01*
X139542669Y-136488839D01*
X139494014Y-136465128D01*
X139276864Y-136465128D01*
X139198798Y-136418469D01*
X139629529Y-136418469D01*
X139635415Y-136424187D01*
X139661023Y-136449063D01*
X139697108Y-136462690D01*
X139705966Y-136437020D01*
X139696495Y-136416361D01*
X139648980Y-136404120D01*
X139629529Y-136418469D01*
X139198798Y-136418469D01*
X139187709Y-136411841D01*
X139068091Y-136337093D01*
X138991087Y-136284410D01*
X138952332Y-136251032D01*
X138947460Y-136234199D01*
X138992467Y-136233487D01*
X139082175Y-136261184D01*
X139202974Y-136313117D01*
X139208047Y-136315525D01*
X139278967Y-136347880D01*
X139298437Y-136353052D01*
X139264689Y-136329814D01*
X139175952Y-136276933D01*
X139030456Y-136193179D01*
X138996979Y-136173872D01*
X139222525Y-136173872D01*
X139223922Y-136185094D01*
X139252606Y-136229780D01*
X139263612Y-136233166D01*
X139264551Y-136231710D01*
X139339830Y-136231710D01*
X139352358Y-136248832D01*
X139361924Y-136261905D01*
X139417846Y-136310096D01*
X139464604Y-136338341D01*
X139481638Y-136335404D01*
X139459485Y-136305273D01*
X139403624Y-136257018D01*
X139356732Y-136228564D01*
X139339830Y-136231710D01*
X139264551Y-136231710D01*
X139280335Y-136207249D01*
X139278939Y-136196028D01*
X139250254Y-136151342D01*
X139239249Y-136147957D01*
X139222525Y-136173872D01*
X138996979Y-136173872D01*
X138935991Y-136138698D01*
X138884085Y-136107375D01*
X139089052Y-136107375D01*
X139090467Y-136110476D01*
X139106373Y-136145353D01*
X139118138Y-136149119D01*
X139135809Y-136123807D01*
X139134870Y-136111731D01*
X139121886Y-136077228D01*
X139118567Y-136076314D01*
X139105858Y-136087244D01*
X139092450Y-136098774D01*
X139089052Y-136107375D01*
X138884085Y-136107375D01*
X138780455Y-136044838D01*
X138694891Y-135986547D01*
X138855737Y-135986547D01*
X138873424Y-136010859D01*
X138889931Y-136017608D01*
X138889970Y-136017566D01*
X138985173Y-136017566D01*
X138991281Y-136040364D01*
X139014079Y-136034255D01*
X139007970Y-136011459D01*
X138985173Y-136017566D01*
X138889970Y-136017566D01*
X138903819Y-136002715D01*
X138901580Y-135996809D01*
X138865279Y-135980464D01*
X138859992Y-135983835D01*
X138855737Y-135986547D01*
X138694891Y-135986547D01*
X138679762Y-135976240D01*
X138630495Y-135930040D01*
X138629690Y-135912964D01*
X138737240Y-135912964D01*
X138743349Y-135935761D01*
X138766146Y-135929653D01*
X138762873Y-135917435D01*
X138811741Y-135917435D01*
X138817848Y-135940232D01*
X138840646Y-135934124D01*
X138834537Y-135911327D01*
X138811741Y-135917435D01*
X138762873Y-135917435D01*
X138760038Y-135906855D01*
X138737240Y-135912964D01*
X138629690Y-135912964D01*
X138629238Y-135903379D01*
X138672575Y-135893393D01*
X138686739Y-135892596D01*
X138707910Y-135887152D01*
X138700693Y-135872368D01*
X138657514Y-135842630D01*
X138570795Y-135792323D01*
X138432959Y-135715833D01*
X138373157Y-135682208D01*
X138285843Y-135627458D01*
X138248072Y-135591215D01*
X138252210Y-135567204D01*
X138252797Y-135566739D01*
X138269962Y-135565699D01*
X138305725Y-135576733D01*
X138363643Y-135601785D01*
X138447278Y-135642801D01*
X138560189Y-135701726D01*
X138705935Y-135780508D01*
X138888077Y-135881090D01*
X139110174Y-136005421D01*
X139375784Y-136155444D01*
X139688469Y-136333107D01*
X140051789Y-136540353D01*
X140469301Y-136779132D01*
X140573259Y-136835710D01*
X140647472Y-136869950D01*
X140678817Y-136876421D01*
X140661846Y-136854103D01*
X140591114Y-136801974D01*
X140534584Y-136752764D01*
X140506397Y-136704777D01*
X140501574Y-136685233D01*
X140481253Y-136698261D01*
X140467627Y-136704977D01*
X140422223Y-136694549D01*
X140340381Y-136657675D01*
X140328511Y-136651363D01*
X140546280Y-136651363D01*
X140548213Y-136660537D01*
X140583985Y-136690128D01*
X140607061Y-136697798D01*
X140627855Y-136676286D01*
X140621499Y-136658014D01*
X140583039Y-136636612D01*
X140560444Y-136645679D01*
X140546280Y-136651363D01*
X140328511Y-136651363D01*
X140273647Y-136622188D01*
X140421808Y-136622188D01*
X140427892Y-136631731D01*
X140452205Y-136614044D01*
X140458954Y-136597537D01*
X140444059Y-136583648D01*
X140438155Y-136585888D01*
X140421808Y-136622188D01*
X140273647Y-136622188D01*
X140215460Y-136591246D01*
X140073564Y-136510732D01*
X140213162Y-136510732D01*
X140240845Y-136516315D01*
X140307677Y-136530601D01*
X140393303Y-136549180D01*
X140315476Y-136500405D01*
X140257395Y-136474841D01*
X140220961Y-136480536D01*
X140217237Y-136487468D01*
X140213162Y-136510732D01*
X140073564Y-136510732D01*
X140040821Y-136492153D01*
X139957185Y-136443652D01*
X139920933Y-136422126D01*
X140119792Y-136422126D01*
X140120791Y-136434111D01*
X140135421Y-136469690D01*
X140140461Y-136470090D01*
X140148698Y-136438814D01*
X140147699Y-136426829D01*
X140133069Y-136391250D01*
X140128029Y-136390850D01*
X140120894Y-136417944D01*
X140119792Y-136422126D01*
X139920933Y-136422126D01*
X139815697Y-136359638D01*
X139721576Y-136299500D01*
X139706434Y-136287866D01*
X139891096Y-136287866D01*
X139908482Y-136313164D01*
X139966920Y-136353136D01*
X139977223Y-136358943D01*
X140037583Y-136385969D01*
X140061834Y-136383846D01*
X140043603Y-136357648D01*
X139987781Y-136317004D01*
X139934850Y-136292276D01*
X139892867Y-136286293D01*
X139891096Y-136287866D01*
X139706434Y-136287866D01*
X139667154Y-136257685D01*
X139644760Y-136228639D01*
X139646724Y-136206811D01*
X139682166Y-136186698D01*
X139758474Y-136213519D01*
X139824496Y-136239722D01*
X139870223Y-136220226D01*
X139909929Y-136200334D01*
X139990442Y-136228953D01*
X140190794Y-136338879D01*
X140402514Y-136456179D01*
X140565167Y-136548174D01*
X140684320Y-136618277D01*
X140765543Y-136669901D01*
X140814407Y-136706460D01*
X140836480Y-136731367D01*
X140837331Y-136748036D01*
X140809178Y-136763940D01*
X140764028Y-136754906D01*
X140748449Y-136751789D01*
X140681138Y-136718176D01*
X140738944Y-136768252D01*
X140747852Y-136776447D01*
X140774173Y-136830246D01*
X140772461Y-136834976D01*
X140747843Y-136903034D01*
X140704934Y-136956636D01*
X140657287Y-136963692D01*
X140638310Y-136955583D01*
X140603147Y-136956181D01*
X140584303Y-136956501D01*
X140579339Y-136970948D01*
G37*
G36*
X139552480Y-136103031D02*
G01*
X139609332Y-136145237D01*
X139616703Y-136192056D01*
X139581033Y-136210106D01*
X139506071Y-136183415D01*
X139450705Y-136138991D01*
X139441847Y-136094390D01*
X139479660Y-136078987D01*
X139552480Y-136103031D01*
G37*
G36*
X141332493Y-136891705D02*
G01*
X141042147Y-136722205D01*
X141225356Y-136722205D01*
X141239598Y-136747474D01*
X141254367Y-136751103D01*
X141290959Y-136730199D01*
X141344083Y-136665842D01*
X141420949Y-136550186D01*
X141441565Y-136517487D01*
X141502141Y-136416869D01*
X141530775Y-136355534D01*
X141532005Y-136320782D01*
X141510369Y-136299910D01*
X141505513Y-136297294D01*
X141475994Y-136293326D01*
X141442817Y-136318707D01*
X141406663Y-136369575D01*
X141396866Y-136383358D01*
X141329018Y-136497200D01*
X141282443Y-136579998D01*
X141238361Y-136669952D01*
X141225356Y-136722205D01*
X141042147Y-136722205D01*
X140901681Y-136640203D01*
X141031547Y-136640203D01*
X141034726Y-136638926D01*
X141065241Y-136602279D01*
X141118982Y-136525463D01*
X141186774Y-136421407D01*
X141206980Y-136389007D01*
X141265613Y-136288140D01*
X141301681Y-136214817D01*
X141308031Y-136183090D01*
X141303621Y-136183650D01*
X141270639Y-136218868D01*
X141224512Y-136285517D01*
X141217306Y-136295927D01*
X141152803Y-136401886D01*
X141134061Y-136434633D01*
X141077790Y-136537070D01*
X141041228Y-136610294D01*
X141031547Y-136640203D01*
X140901681Y-136640203D01*
X140331351Y-136307253D01*
X140823297Y-136307253D01*
X140846771Y-136340819D01*
X140874514Y-136350182D01*
X140902210Y-136326783D01*
X140930867Y-136250831D01*
X140931726Y-136248075D01*
X140958163Y-136175286D01*
X140981489Y-136156153D01*
X141014444Y-136179855D01*
X141044919Y-136202091D01*
X141076592Y-136200115D01*
X141065180Y-136169559D01*
X141012229Y-136128022D01*
X140999513Y-136120836D01*
X140950091Y-136103265D01*
X140943133Y-136107400D01*
X140912519Y-136125595D01*
X140895431Y-136152092D01*
X140865985Y-136197750D01*
X140846342Y-136234585D01*
X140840198Y-136246106D01*
X140823297Y-136307253D01*
X140331351Y-136307253D01*
X140158834Y-136206540D01*
X140652139Y-136206540D01*
X140669156Y-136238273D01*
X140701071Y-136227560D01*
X140741923Y-136174299D01*
X140763171Y-136133266D01*
X140765096Y-136113086D01*
X140727566Y-136137104D01*
X140690923Y-136166279D01*
X140654799Y-136201079D01*
X140652139Y-136206540D01*
X140158834Y-136206540D01*
X140084159Y-136162946D01*
X140576310Y-136162946D01*
X140584238Y-136172357D01*
X140616566Y-136124406D01*
X140658793Y-136075583D01*
X140707651Y-136054779D01*
X140728255Y-136055573D01*
X140727920Y-136054860D01*
X140852131Y-136054860D01*
X140858240Y-136077657D01*
X140881036Y-136071548D01*
X140874929Y-136048751D01*
X140859730Y-136052824D01*
X140852131Y-136054860D01*
X140727920Y-136054860D01*
X140720925Y-136039961D01*
X140701746Y-136032612D01*
X140683075Y-136034336D01*
X140639916Y-136038324D01*
X140610379Y-136060818D01*
X140593720Y-136098368D01*
X140580107Y-136129051D01*
X140576310Y-136162946D01*
X140084159Y-136162946D01*
X139933511Y-136075000D01*
X140441897Y-136075000D01*
X140441921Y-136107079D01*
X140468634Y-136098608D01*
X140508540Y-136049189D01*
X140533193Y-136000156D01*
X140539177Y-135970528D01*
X140517946Y-135982410D01*
X140472560Y-136028416D01*
X140441897Y-136075000D01*
X139933511Y-136075000D01*
X139746953Y-135966090D01*
X140327963Y-135966090D01*
X140330635Y-136023558D01*
X140354925Y-136027478D01*
X140392917Y-135982435D01*
X140412714Y-135930607D01*
X140400411Y-135912407D01*
X140471888Y-135912407D01*
X140477997Y-135935205D01*
X140500794Y-135929096D01*
X140494686Y-135906299D01*
X140479295Y-135910423D01*
X140471888Y-135912407D01*
X140400411Y-135912407D01*
X140397389Y-135907936D01*
X140381426Y-135911153D01*
X140335107Y-135949058D01*
X140327963Y-135966090D01*
X139746953Y-135966090D01*
X139667187Y-135919524D01*
X140138296Y-135919524D01*
X140168574Y-135946219D01*
X140182765Y-135954142D01*
X140235798Y-135956557D01*
X140292727Y-135903623D01*
X140337328Y-135828458D01*
X140326809Y-135781563D01*
X140257855Y-135766307D01*
X140223172Y-135771264D01*
X140225582Y-135788301D01*
X140240078Y-135810345D01*
X140232866Y-135846942D01*
X140229220Y-135865442D01*
X140204678Y-135894499D01*
X140152684Y-135914563D01*
X140145901Y-135916902D01*
X140138296Y-135919524D01*
X139667187Y-135919524D01*
X139588112Y-135873361D01*
X140070486Y-135873361D01*
X140076595Y-135896158D01*
X140099391Y-135890049D01*
X140093283Y-135867252D01*
X140070486Y-135873361D01*
X139588112Y-135873361D01*
X139491016Y-135816678D01*
X139954926Y-135816678D01*
X139984392Y-135834537D01*
X140050973Y-135823716D01*
X140074386Y-135814774D01*
X140121993Y-135782929D01*
X140117398Y-135760009D01*
X140058869Y-135759975D01*
X140023901Y-135769411D01*
X139998657Y-135776222D01*
X139959499Y-135798578D01*
X139954926Y-135816678D01*
X139491016Y-135816678D01*
X139348111Y-135733252D01*
X139851602Y-135733252D01*
X139856746Y-135769228D01*
X139883160Y-135760428D01*
X139920134Y-135709501D01*
X139930503Y-135686759D01*
X139940565Y-135631775D01*
X139916776Y-135627605D01*
X139873484Y-135680976D01*
X139872620Y-135682041D01*
X139851602Y-135733252D01*
X139348111Y-135733252D01*
X139288981Y-135698733D01*
X139734645Y-135698733D01*
X139767967Y-135687776D01*
X139810622Y-135644683D01*
X139836520Y-135595025D01*
X139836747Y-135593823D01*
X139824450Y-135584796D01*
X139816668Y-135591927D01*
X139784415Y-135621481D01*
X139745280Y-135672260D01*
X139740928Y-135683091D01*
X139734645Y-135698733D01*
X139288981Y-135698733D01*
X139159308Y-135623032D01*
X139636904Y-135623032D01*
X139643013Y-135645829D01*
X139665809Y-135639721D01*
X139659702Y-135616924D01*
X139636904Y-135623032D01*
X139159308Y-135623032D01*
X138999722Y-135529868D01*
X139493841Y-135529868D01*
X139504948Y-135566117D01*
X139508419Y-135567753D01*
X139552074Y-135549694D01*
X139554249Y-135546696D01*
X139693824Y-135546696D01*
X139699907Y-135556238D01*
X139716258Y-135544343D01*
X139958937Y-135544343D01*
X139976624Y-135568655D01*
X139993130Y-135575405D01*
X140007019Y-135560511D01*
X140004780Y-135554605D01*
X139968479Y-135538260D01*
X139958937Y-135544343D01*
X139716258Y-135544343D01*
X139724219Y-135538552D01*
X139730968Y-135522045D01*
X139716075Y-135508156D01*
X139710170Y-135510395D01*
X139703006Y-135526304D01*
X139693824Y-135546696D01*
X139554249Y-135546696D01*
X139608598Y-135471798D01*
X139622889Y-135445523D01*
X139650875Y-135376245D01*
X139649483Y-135341240D01*
X139641715Y-135340674D01*
X139600289Y-135370443D01*
X139571834Y-135404469D01*
X139545833Y-135435560D01*
X139530949Y-135457137D01*
X139493841Y-135529868D01*
X138999722Y-135529868D01*
X138866070Y-135451844D01*
X139329902Y-135451844D01*
X139352941Y-135478356D01*
X139376408Y-135486346D01*
X139421904Y-135469997D01*
X139424495Y-135466412D01*
X139495721Y-135360525D01*
X139524122Y-135298417D01*
X139512077Y-135274943D01*
X139491505Y-135278487D01*
X139456793Y-135320270D01*
X139454054Y-135324760D01*
X139433795Y-135357976D01*
X139385983Y-135401081D01*
X139373247Y-135412562D01*
X139363237Y-135418937D01*
X139329902Y-135451844D01*
X138866070Y-135451844D01*
X138732865Y-135374081D01*
X139227869Y-135374081D01*
X139227893Y-135406159D01*
X139254605Y-135397688D01*
X139294511Y-135348269D01*
X139319165Y-135299237D01*
X139325149Y-135269608D01*
X139318111Y-135273547D01*
X139303917Y-135281490D01*
X139264586Y-135321358D01*
X139258531Y-135327496D01*
X139227869Y-135374081D01*
X138732865Y-135374081D01*
X138670965Y-135337945D01*
X139120350Y-135337945D01*
X139140515Y-135336016D01*
X139182619Y-135274034D01*
X139191672Y-135257622D01*
X139206094Y-135215943D01*
X139178761Y-135220136D01*
X139155520Y-135237094D01*
X139121950Y-135293323D01*
X139120350Y-135337945D01*
X138670965Y-135337945D01*
X138559297Y-135272755D01*
X138996830Y-135272755D01*
X139002998Y-135272380D01*
X139040418Y-135240286D01*
X139063464Y-135211488D01*
X139257860Y-135211488D01*
X139263968Y-135234285D01*
X139286765Y-135228176D01*
X139280657Y-135205379D01*
X139257860Y-135211488D01*
X139063464Y-135211488D01*
X139093254Y-135174264D01*
X139108152Y-135152327D01*
X139143342Y-135083398D01*
X139141366Y-135047878D01*
X139133010Y-135046987D01*
X139093322Y-135077769D01*
X139060247Y-135124669D01*
X139044941Y-135146370D01*
X139030490Y-135172492D01*
X138999969Y-135240348D01*
X138996830Y-135272755D01*
X138559297Y-135272755D01*
X138459682Y-135214601D01*
X138562332Y-135214601D01*
X138565362Y-135215323D01*
X138597628Y-135189313D01*
X138852303Y-135189313D01*
X138858471Y-135188937D01*
X138895891Y-135156843D01*
X138948727Y-135090821D01*
X138963625Y-135068884D01*
X138998816Y-134999956D01*
X138996838Y-134964435D01*
X138988483Y-134963544D01*
X138948794Y-134994326D01*
X138900414Y-135062928D01*
X138885964Y-135089049D01*
X138884508Y-135092285D01*
X138855443Y-135156906D01*
X138852303Y-135189313D01*
X138597628Y-135189313D01*
X138599558Y-135187757D01*
X138655249Y-135112611D01*
X138724745Y-135000046D01*
X138736593Y-134979303D01*
X138795480Y-134867066D01*
X138828050Y-134787423D01*
X138829349Y-134752114D01*
X138826318Y-134751391D01*
X138792123Y-134778958D01*
X138736433Y-134854103D01*
X138666935Y-134966669D01*
X138655087Y-134987411D01*
X138596201Y-135099649D01*
X138563631Y-135179291D01*
X138562332Y-135214601D01*
X138459682Y-135214601D01*
X138233791Y-135082729D01*
X138233956Y-135082389D01*
X138358488Y-135082389D01*
X138374446Y-135106125D01*
X138397901Y-135109852D01*
X138432249Y-135084312D01*
X138480769Y-135017385D01*
X138551313Y-134899915D01*
X138609067Y-134796694D01*
X138647957Y-134714600D01*
X138657422Y-134667373D01*
X138641463Y-134643638D01*
X138618009Y-134639912D01*
X138583661Y-134665450D01*
X138535141Y-134732379D01*
X138464597Y-134849849D01*
X138406842Y-134953070D01*
X138367953Y-135035162D01*
X138358488Y-135082389D01*
X138233956Y-135082389D01*
X138299444Y-134947201D01*
X138321281Y-134905086D01*
X138393254Y-134784418D01*
X138471464Y-134670745D01*
X138577831Y-134529819D01*
X141666554Y-136313094D01*
X141580515Y-136462118D01*
X141332493Y-136891705D01*
G37*
G36*
X144317316Y-116807924D02*
G01*
X144243649Y-116844531D01*
X144210472Y-116855626D01*
X144168408Y-116861218D01*
X144154946Y-116829837D01*
X144156914Y-116746612D01*
X144161867Y-116690422D01*
X144167915Y-116674623D01*
X144333197Y-116674623D01*
X144339306Y-116697420D01*
X144362102Y-116691312D01*
X144355994Y-116668515D01*
X144333197Y-116674623D01*
X144167915Y-116674623D01*
X144181060Y-116640283D01*
X144228273Y-116594104D01*
X144315145Y-116534567D01*
X144491139Y-116534567D01*
X144497248Y-116557364D01*
X144520044Y-116551256D01*
X144513936Y-116528459D01*
X144491139Y-116534567D01*
X144315145Y-116534567D01*
X144318031Y-116532589D01*
X144416970Y-116463158D01*
X144486835Y-116401686D01*
X144507668Y-116364080D01*
X144477312Y-116354748D01*
X144393611Y-116378098D01*
X144361961Y-116389060D01*
X144282482Y-116404554D01*
X144253989Y-116384999D01*
X144255873Y-116370489D01*
X144298099Y-116317889D01*
X144379253Y-116273310D01*
X144477389Y-116243939D01*
X144570562Y-116236968D01*
X144636826Y-116259586D01*
X144648666Y-116272042D01*
X144659126Y-116323777D01*
X144623831Y-116404869D01*
X144615709Y-116419323D01*
X144588628Y-116489079D01*
X144607898Y-116515908D01*
X144626295Y-116524793D01*
X144627356Y-116565649D01*
X144599600Y-116597187D01*
X144591149Y-116606789D01*
X144512079Y-116673782D01*
X144432679Y-116732059D01*
X144413797Y-116745917D01*
X144317316Y-116807924D01*
G37*
G36*
X145236866Y-116722903D02*
G01*
X145237568Y-116763928D01*
X145207744Y-116827831D01*
X145158242Y-116895141D01*
X145099912Y-116946387D01*
X145088396Y-116953188D01*
X145020209Y-116971481D01*
X144984883Y-116933432D01*
X144997998Y-116900413D01*
X145047950Y-116842849D01*
X145116133Y-116781348D01*
X145182604Y-116733666D01*
X145227415Y-116717555D01*
X145236866Y-116722903D01*
G37*
G36*
X144262394Y-115362765D02*
G01*
X144256134Y-115435821D01*
X144241869Y-115545459D01*
X144222247Y-115675242D01*
X144199919Y-115808726D01*
X144177537Y-115929477D01*
X144157752Y-116021052D01*
X144143214Y-116067013D01*
X144138543Y-116069446D01*
X144121031Y-116037959D01*
X144102158Y-115963124D01*
X144091047Y-115906192D01*
X144064996Y-115777139D01*
X144037452Y-115644682D01*
X143997544Y-115456178D01*
X144119511Y-115393846D01*
X144147741Y-115379940D01*
X144221557Y-115349139D01*
X144260153Y-115341818D01*
X144262394Y-115362765D01*
G37*
G36*
X145178823Y-115915583D02*
G01*
X145159173Y-115978287D01*
X145132737Y-116005886D01*
X145083423Y-116009359D01*
X145063616Y-115994339D01*
X145059545Y-115953439D01*
X145114495Y-115895780D01*
X145118267Y-115892845D01*
X145162029Y-115881269D01*
X145178823Y-115915583D01*
G37*
G36*
X144570431Y-115462669D02*
G01*
X144547635Y-115468778D01*
X144541526Y-115445981D01*
X144564323Y-115439872D01*
X144570431Y-115462669D01*
G37*
G36*
X145878419Y-114162437D02*
G01*
X145871818Y-114209915D01*
X145857041Y-114227978D01*
X145817880Y-114236585D01*
X145807407Y-114224015D01*
X145814007Y-114176538D01*
X145828785Y-114158474D01*
X145867946Y-114149868D01*
X145878419Y-114162437D01*
G37*
G36*
X146140558Y-106214457D02*
G01*
X146153944Y-106252292D01*
X146147880Y-106331457D01*
X146121744Y-106463022D01*
X146118739Y-106474383D01*
X146086191Y-106517810D01*
X146044569Y-106504954D01*
X146010746Y-106439405D01*
X146008749Y-106417143D01*
X146024684Y-106348920D01*
X146059478Y-106276678D01*
X146100682Y-106223136D01*
X146135850Y-106211018D01*
X146140558Y-106214457D01*
G37*
G36*
X145814883Y-104967610D02*
G01*
X145828848Y-105042997D01*
X145836578Y-105137385D01*
X145836115Y-105224558D01*
X145825508Y-105278300D01*
X145801023Y-105291691D01*
X145767509Y-105261354D01*
X145738895Y-105197346D01*
X145725692Y-105116684D01*
X145731369Y-105002257D01*
X145756442Y-104939294D01*
X145800161Y-104938367D01*
X145814883Y-104967610D01*
G37*
G36*
X146238870Y-105306981D02*
G01*
X146241753Y-105308679D01*
X146277725Y-105348559D01*
X146252268Y-105381393D01*
X146170494Y-105400211D01*
X146085666Y-105397480D01*
X146027949Y-105377194D01*
X146017622Y-105346075D01*
X146028202Y-105334084D01*
X146091322Y-105305763D01*
X146173391Y-105294635D01*
X146238870Y-105306981D01*
G37*
G36*
X146427738Y-104084489D02*
G01*
X146518921Y-104144027D01*
X146591261Y-104201607D01*
X146634015Y-104242943D01*
X146638160Y-104267092D01*
X146611743Y-104286396D01*
X146586359Y-104288923D01*
X146515625Y-104266248D01*
X146430207Y-104220548D01*
X146352824Y-104164796D01*
X146306191Y-104111960D01*
X146299392Y-104095795D01*
X146305785Y-104058535D01*
X146352630Y-104055379D01*
X146427738Y-104084489D01*
G37*
G36*
X150864406Y-100503221D02*
G01*
X150941174Y-100519177D01*
X150977582Y-100543737D01*
X150977301Y-100550045D01*
X150941412Y-100577878D01*
X150865265Y-100600785D01*
X150792622Y-100607806D01*
X150707044Y-100596568D01*
X150654896Y-100566265D01*
X150652655Y-100522932D01*
X150693915Y-100503794D01*
X150773309Y-100497538D01*
X150864406Y-100503221D01*
G37*
G36*
X151176808Y-100192844D02*
G01*
X151169854Y-100213190D01*
X151122362Y-100243984D01*
X151074954Y-100255277D01*
X151027218Y-100246435D01*
X151024275Y-100212274D01*
X151033422Y-100201911D01*
X151084550Y-100179948D01*
X151143947Y-100175448D01*
X151176808Y-100192844D01*
G37*
G36*
X149829178Y-115309896D02*
G01*
X149841716Y-115339012D01*
X149894672Y-115395562D01*
X149898603Y-115397894D01*
X149943149Y-115445548D01*
X149929831Y-115483557D01*
X149864669Y-115492471D01*
X149839808Y-115488296D01*
X149744450Y-115451626D01*
X149695674Y-115396686D01*
X149699376Y-115335584D01*
X149761450Y-115280428D01*
X149804508Y-115269409D01*
X149829178Y-115309896D01*
G37*
G36*
X150082150Y-115286039D02*
G01*
X150121828Y-115338193D01*
X150120653Y-115395264D01*
X150101674Y-115418183D01*
X150063340Y-115411264D01*
X150019868Y-115338835D01*
X150007744Y-115292928D01*
X150030713Y-115267891D01*
X150082150Y-115286039D01*
G37*
G36*
X150090867Y-115123430D02*
G01*
X150102436Y-115155294D01*
X150065980Y-115202462D01*
X149990566Y-115249648D01*
X149988316Y-115250690D01*
X149909545Y-115274100D01*
X149870957Y-115258727D01*
X149881837Y-115208119D01*
X149895449Y-115190913D01*
X149958464Y-115148365D01*
X150034413Y-115121491D01*
X150090867Y-115123430D01*
G37*
G36*
X159396027Y-108127565D02*
G01*
X159352097Y-108598209D01*
X159336895Y-108761070D01*
X159211981Y-109386167D01*
X159184713Y-109491655D01*
X159112714Y-109750008D01*
X159039218Y-109976594D01*
X158957096Y-110188862D01*
X158859220Y-110404258D01*
X158738462Y-110640230D01*
X158587693Y-110914225D01*
X158574913Y-110936920D01*
X158453092Y-111150523D01*
X158352019Y-111320522D01*
X158262270Y-111461082D01*
X158174425Y-111586367D01*
X158079060Y-111710543D01*
X157966756Y-111847776D01*
X157807742Y-112031112D01*
X157685841Y-112153309D01*
X157354577Y-112485376D01*
X156862827Y-112887274D01*
X156336638Y-113235046D01*
X155780158Y-113526932D01*
X155197535Y-113761175D01*
X154598095Y-113934517D01*
X154592914Y-113936015D01*
X154377306Y-113975391D01*
X153970444Y-114049694D01*
X153715121Y-114070065D01*
X153334271Y-114100451D01*
X152688543Y-114086529D01*
X152638913Y-114082412D01*
X152500632Y-114067422D01*
X152340816Y-114046547D01*
X152172001Y-114021846D01*
X152006721Y-113995375D01*
X151857510Y-113969196D01*
X151736904Y-113945364D01*
X151657436Y-113925938D01*
X151631642Y-113912977D01*
X151629890Y-113909611D01*
X151588363Y-113894338D01*
X151508265Y-113876345D01*
X151434335Y-113857813D01*
X151306495Y-113818544D01*
X151149670Y-113765916D01*
X150981498Y-113706057D01*
X150819613Y-113645094D01*
X150681654Y-113589155D01*
X150543267Y-113523879D01*
X150359055Y-113425926D01*
X150152087Y-113307496D01*
X149934042Y-113175974D01*
X149815700Y-113101287D01*
X151767232Y-113101287D01*
X151780260Y-113189757D01*
X151805832Y-113240701D01*
X151890108Y-113328554D01*
X152001250Y-113394741D01*
X152113663Y-113421473D01*
X152137456Y-113420603D01*
X152258132Y-113379619D01*
X152355926Y-113285333D01*
X152418652Y-113148648D01*
X152430461Y-113009581D01*
X152382170Y-112891752D01*
X152271811Y-112798322D01*
X152264551Y-112794329D01*
X152173927Y-112763982D01*
X152071499Y-112753350D01*
X151982330Y-112762836D01*
X151931486Y-112792844D01*
X151937524Y-112828497D01*
X151983170Y-112871752D01*
X152046001Y-112903244D01*
X152101531Y-112906594D01*
X152117703Y-112901507D01*
X152197269Y-112906571D01*
X152249626Y-112957674D01*
X152265429Y-113038910D01*
X152235334Y-113134370D01*
X152182177Y-113205524D01*
X152103409Y-113261077D01*
X152028582Y-113270955D01*
X151971828Y-113234368D01*
X151947280Y-113150523D01*
X151931626Y-113094520D01*
X151867496Y-113027379D01*
X151845426Y-113015446D01*
X151796989Y-113006214D01*
X151772771Y-113047275D01*
X151767232Y-113101287D01*
X149815700Y-113101287D01*
X149716601Y-113038745D01*
X149511443Y-112903195D01*
X149330249Y-112776711D01*
X149243344Y-112711012D01*
X150995946Y-112711012D01*
X151066121Y-112766510D01*
X151071598Y-112770798D01*
X151119854Y-112797829D01*
X151161546Y-112783252D01*
X151218858Y-112720361D01*
X151234593Y-112701187D01*
X151286025Y-112649719D01*
X151329243Y-112645104D01*
X151389534Y-112681601D01*
X151402257Y-112690774D01*
X151449010Y-112733929D01*
X151450149Y-112777918D01*
X151408702Y-112849211D01*
X151398754Y-112864433D01*
X151364309Y-112928292D01*
X151372377Y-112966587D01*
X151425611Y-113003500D01*
X151451295Y-113017787D01*
X151498084Y-113031621D01*
X151535003Y-113005675D01*
X151582640Y-112930363D01*
X151606552Y-112890765D01*
X151681003Y-112777076D01*
X151759661Y-112666430D01*
X151865503Y-112525200D01*
X151774761Y-112472810D01*
X151769807Y-112469993D01*
X151706219Y-112442257D01*
X151674925Y-112444075D01*
X151655528Y-112480921D01*
X151615457Y-112547076D01*
X151580954Y-112592711D01*
X151540656Y-112601372D01*
X151476370Y-112563126D01*
X151425824Y-112520656D01*
X151408199Y-112469367D01*
X151431614Y-112390316D01*
X151443558Y-112357694D01*
X151451895Y-112284348D01*
X151415867Y-112234017D01*
X151376863Y-112206524D01*
X151348114Y-112194900D01*
X151341529Y-112203649D01*
X151304885Y-112256127D01*
X151244128Y-112344747D01*
X151227694Y-112368935D01*
X151168006Y-112456790D01*
X150995946Y-112711012D01*
X149243344Y-112711012D01*
X149184698Y-112666677D01*
X149086469Y-112580477D01*
X149084164Y-112578140D01*
X149015040Y-112510349D01*
X148917945Y-112417730D01*
X148813133Y-112319613D01*
X148761883Y-112270659D01*
X150365715Y-112270659D01*
X150366867Y-112299328D01*
X150408242Y-112336191D01*
X150499495Y-112392251D01*
X150565452Y-112432180D01*
X150656963Y-112493163D01*
X150714283Y-112538604D01*
X150740249Y-112559853D01*
X150782146Y-112559868D01*
X150837808Y-112508226D01*
X150877136Y-112457858D01*
X150945392Y-112357681D01*
X151014122Y-112245629D01*
X151033907Y-112211270D01*
X151080171Y-112125204D01*
X151095159Y-112072803D01*
X151080675Y-112035506D01*
X151038526Y-111994752D01*
X151023456Y-111982040D01*
X150933290Y-111915685D01*
X150832165Y-111851521D01*
X150829180Y-111849802D01*
X150748227Y-111808761D01*
X150702191Y-111804861D01*
X150672327Y-111836320D01*
X150669979Y-111840502D01*
X150664320Y-111864584D01*
X150660552Y-111880618D01*
X150689922Y-111918516D01*
X150769025Y-111969230D01*
X150785391Y-111978767D01*
X150855646Y-112025981D01*
X150878194Y-112062899D01*
X150863969Y-112105176D01*
X150862626Y-112107479D01*
X150833223Y-112140230D01*
X150792097Y-112134586D01*
X150719583Y-112088242D01*
X150659485Y-112049052D01*
X150611079Y-112034645D01*
X150582149Y-112059269D01*
X150577376Y-112070057D01*
X150589355Y-112123747D01*
X150658313Y-112194365D01*
X150703762Y-112235216D01*
X150739303Y-112289425D01*
X150729136Y-112338713D01*
X150718502Y-112355105D01*
X150689559Y-112372726D01*
X150641904Y-112356903D01*
X150558325Y-112304154D01*
X150551970Y-112299881D01*
X150466918Y-112248504D01*
X150414864Y-112234960D01*
X150378630Y-112254498D01*
X150365715Y-112270659D01*
X148761883Y-112270659D01*
X148734127Y-112244147D01*
X148446799Y-111933130D01*
X148375092Y-111841645D01*
X149691517Y-111841645D01*
X149693509Y-111880522D01*
X149745491Y-111917860D01*
X149770505Y-111931229D01*
X149825840Y-111940779D01*
X149865585Y-111898553D01*
X149901398Y-111852512D01*
X149984537Y-111815881D01*
X150083039Y-111842960D01*
X150122599Y-111872193D01*
X150125768Y-111910330D01*
X150084121Y-111975292D01*
X150045383Y-112034448D01*
X150042864Y-112079172D01*
X150086117Y-112123240D01*
X150090968Y-112127060D01*
X150130896Y-112152445D01*
X150164877Y-112148163D01*
X150207676Y-112105891D01*
X150274060Y-112017306D01*
X150322748Y-111948543D01*
X150398871Y-111835388D01*
X150455749Y-111744165D01*
X150503088Y-111662171D01*
X153210044Y-111662171D01*
X153265358Y-111849472D01*
X153377619Y-112009064D01*
X153386113Y-112017672D01*
X153470333Y-112094064D01*
X153548903Y-112138343D01*
X153654463Y-112169416D01*
X153781513Y-112184292D01*
X153986359Y-112162122D01*
X154206965Y-112092999D01*
X154430066Y-111981456D01*
X154642399Y-111832021D01*
X154668321Y-111810191D01*
X154859523Y-111622280D01*
X155051613Y-111390716D01*
X155238489Y-111126764D01*
X155414053Y-110841692D01*
X155572200Y-110546764D01*
X155706833Y-110253246D01*
X155811849Y-109972404D01*
X155881147Y-109715506D01*
X155908627Y-109493814D01*
X155908180Y-109405900D01*
X155880731Y-109199008D01*
X155810390Y-109024514D01*
X155691194Y-108874012D01*
X155517180Y-108739104D01*
X155282386Y-108611386D01*
X155136986Y-108555570D01*
X154896592Y-108506189D01*
X154643694Y-108496502D01*
X154395587Y-108525400D01*
X154169567Y-108591778D01*
X153982930Y-108694528D01*
X153819545Y-108844098D01*
X153662460Y-109039187D01*
X153521060Y-109263689D01*
X153402471Y-109503186D01*
X153313825Y-109743257D01*
X153262245Y-109969484D01*
X153254862Y-110167445D01*
X153268492Y-110237318D01*
X153282600Y-110280348D01*
X153308842Y-110360383D01*
X153363827Y-110484019D01*
X153414385Y-110586976D01*
X153457204Y-110708715D01*
X153461237Y-110814261D01*
X153425972Y-110926746D01*
X153350898Y-111069299D01*
X153271106Y-111234294D01*
X153211889Y-111454623D01*
X153210044Y-111662171D01*
X150503088Y-111662171D01*
X150520055Y-111632784D01*
X150309044Y-111510957D01*
X150201762Y-111453867D01*
X150102402Y-111412721D01*
X150043323Y-111403791D01*
X150032177Y-111407670D01*
X149968436Y-111461440D01*
X149967755Y-111462696D01*
X149923625Y-111544102D01*
X149916443Y-111623302D01*
X149915048Y-111667131D01*
X149864167Y-111687544D01*
X149863990Y-111687570D01*
X149797201Y-111719952D01*
X149730528Y-111783965D01*
X149691517Y-111841645D01*
X148375092Y-111841645D01*
X148166571Y-111575610D01*
X148051950Y-111405925D01*
X149054695Y-111405925D01*
X149090500Y-111472053D01*
X149097779Y-111478198D01*
X149149587Y-111504752D01*
X149184486Y-111476150D01*
X149229005Y-111414770D01*
X149300648Y-111377328D01*
X149385693Y-111401806D01*
X149436946Y-111438377D01*
X149445254Y-111480374D01*
X149410907Y-111551255D01*
X149381168Y-111609746D01*
X149379270Y-111656794D01*
X149420832Y-111691878D01*
X149431869Y-111697929D01*
X149477087Y-111708621D01*
X149522080Y-111681684D01*
X149584976Y-111607835D01*
X149605120Y-111581184D01*
X149688020Y-111461993D01*
X149761899Y-111343845D01*
X149843012Y-111203353D01*
X149632002Y-111081526D01*
X149524720Y-111024437D01*
X149425360Y-110983290D01*
X149366281Y-110974360D01*
X149323740Y-110998376D01*
X149272727Y-111058912D01*
X149243158Y-111127935D01*
X149249727Y-111179572D01*
X149251237Y-111181389D01*
X149252598Y-111212530D01*
X149195021Y-111240950D01*
X149138312Y-111267591D01*
X149073199Y-111332097D01*
X149054695Y-111405925D01*
X148051950Y-111405925D01*
X147904208Y-111187206D01*
X147839982Y-111076282D01*
X148573708Y-111076282D01*
X148576655Y-111118701D01*
X148619880Y-111152367D01*
X148671073Y-111174851D01*
X148708349Y-111174539D01*
X148726908Y-111150628D01*
X148769069Y-111093658D01*
X148812475Y-111053852D01*
X148900789Y-110994825D01*
X149010081Y-110934710D01*
X149107692Y-110885146D01*
X149182260Y-110845141D01*
X149213234Y-110825566D01*
X149200186Y-110802670D01*
X149152932Y-110756196D01*
X149113271Y-110729038D01*
X149055138Y-110724997D01*
X148971883Y-110762796D01*
X148948474Y-110775750D01*
X148879748Y-110810153D01*
X148846581Y-110820765D01*
X148844818Y-110817514D01*
X148843777Y-110770935D01*
X148851510Y-110688719D01*
X148856233Y-110624506D01*
X148838614Y-110559858D01*
X148781002Y-110513119D01*
X148694354Y-110463093D01*
X148686045Y-110674183D01*
X148683049Y-110722497D01*
X148657364Y-110879415D01*
X148612676Y-110997959D01*
X148609989Y-111002625D01*
X148573708Y-111076282D01*
X147839982Y-111076282D01*
X147670479Y-110783533D01*
X147476148Y-110380210D01*
X147262648Y-109807764D01*
X147220142Y-109648336D01*
X150712979Y-109648336D01*
X150727904Y-109910573D01*
X150777056Y-110152252D01*
X150858272Y-110359985D01*
X150969391Y-110520386D01*
X151045175Y-110593496D01*
X151255877Y-110737388D01*
X151489104Y-110820229D01*
X151741550Y-110841977D01*
X152009913Y-110802594D01*
X152290888Y-110702036D01*
X152581170Y-110540264D01*
X152708777Y-110449038D01*
X152841336Y-110337206D01*
X152950017Y-110227487D01*
X153023934Y-110131007D01*
X153052200Y-110058891D01*
X153063398Y-109960074D01*
X153109300Y-109776264D01*
X153183060Y-109568384D01*
X153276842Y-109353821D01*
X153382806Y-109149960D01*
X153493116Y-108974189D01*
X153599934Y-108843892D01*
X153713836Y-108722744D01*
X153804713Y-108597974D01*
X153855946Y-108478515D01*
X153876698Y-108347952D01*
X153871485Y-108183980D01*
X153813321Y-107943142D01*
X153701494Y-107712784D01*
X153543103Y-107506402D01*
X153345247Y-107337491D01*
X153281935Y-107295929D01*
X153178067Y-107239656D01*
X153076433Y-107208566D01*
X152944569Y-107190772D01*
X152898305Y-107187165D01*
X152635994Y-107199278D01*
X152379114Y-107268760D01*
X152124761Y-107397364D01*
X152086127Y-107426102D01*
X151870034Y-107586843D01*
X151612033Y-107838951D01*
X151347854Y-108155440D01*
X151338685Y-108167432D01*
X151181247Y-108389495D01*
X151036741Y-108622280D01*
X150913267Y-108850857D01*
X150818925Y-109060297D01*
X150761815Y-109235666D01*
X150734445Y-109378925D01*
X150712979Y-109648336D01*
X147220142Y-109648336D01*
X147101536Y-109203482D01*
X146998897Y-108587802D01*
X146955747Y-107969409D01*
X146971160Y-107425606D01*
X149231070Y-107425606D01*
X149288564Y-107692915D01*
X149412482Y-107966221D01*
X149440634Y-108017150D01*
X149483470Y-108115479D01*
X149491832Y-108200259D01*
X149465252Y-108294769D01*
X149403257Y-108422289D01*
X149337952Y-108572005D01*
X149283817Y-108775245D01*
X149264367Y-108975043D01*
X149280932Y-109154410D01*
X149334842Y-109296355D01*
X149363592Y-109338354D01*
X149497398Y-109467345D01*
X149661481Y-109547078D01*
X149839662Y-109568823D01*
X149850420Y-109568029D01*
X149987540Y-109536601D01*
X150146829Y-109471209D01*
X150304587Y-109383160D01*
X150437111Y-109283765D01*
X150449964Y-109272033D01*
X150508672Y-109213337D01*
X150558696Y-109149476D01*
X150608701Y-109066370D01*
X150667349Y-108949935D01*
X150743307Y-108786087D01*
X150951025Y-108385992D01*
X151197963Y-108023128D01*
X151485443Y-107700172D01*
X151599107Y-107583841D01*
X151738941Y-107421034D01*
X151831634Y-107279170D01*
X151882798Y-107149019D01*
X151890566Y-107083975D01*
X154268598Y-107083975D01*
X154269562Y-107143586D01*
X154312439Y-107219598D01*
X154393548Y-107302669D01*
X154509204Y-107383451D01*
X154538195Y-107399995D01*
X154630058Y-107443178D01*
X154704045Y-107453089D01*
X154788721Y-107434996D01*
X154843797Y-107412254D01*
X154952821Y-107347435D01*
X155056473Y-107266166D01*
X155137967Y-107196517D01*
X155233764Y-107137735D01*
X155311326Y-107127651D01*
X155382360Y-107162541D01*
X155403221Y-107180873D01*
X155419905Y-107216730D01*
X155404816Y-107270270D01*
X155355365Y-107360451D01*
X155307101Y-107435237D01*
X155239491Y-107505148D01*
X155158184Y-107543338D01*
X155095256Y-107568784D01*
X155047870Y-107620493D01*
X155065032Y-107687155D01*
X155146679Y-107770041D01*
X155155649Y-107777239D01*
X155281989Y-107877251D01*
X155367676Y-107941442D01*
X155422427Y-107976719D01*
X155455954Y-107989994D01*
X155502229Y-108001338D01*
X155580571Y-108024480D01*
X155594426Y-108028447D01*
X155670633Y-108026172D01*
X155706166Y-107972275D01*
X155699023Y-107869380D01*
X155695332Y-107844493D01*
X155703199Y-107772042D01*
X155738441Y-107678374D01*
X155804929Y-107555995D01*
X155906528Y-107397413D01*
X156047107Y-107195137D01*
X156076152Y-107154627D01*
X156152659Y-107053994D01*
X156210393Y-106993939D01*
X156262652Y-106962531D01*
X156322730Y-106947841D01*
X156388857Y-106934381D01*
X156423669Y-106907481D01*
X156425779Y-106852888D01*
X156421951Y-106833294D01*
X156403015Y-106796893D01*
X156398492Y-106792188D01*
X157092163Y-106792188D01*
X157136479Y-106879462D01*
X157142594Y-106887066D01*
X157216085Y-106955510D01*
X157324650Y-107035007D01*
X157450803Y-107115062D01*
X157577061Y-107185181D01*
X157685936Y-107234871D01*
X157759944Y-107253636D01*
X157827576Y-107236291D01*
X157854241Y-107179280D01*
X157827181Y-107087113D01*
X157823010Y-107078774D01*
X157808014Y-107041886D01*
X157805445Y-107003849D01*
X157819529Y-106953356D01*
X157854495Y-106879092D01*
X157914568Y-106769748D01*
X158003976Y-106614011D01*
X158042757Y-106547317D01*
X158134861Y-106394925D01*
X158204613Y-106291268D01*
X158257725Y-106228309D01*
X158299915Y-106198017D01*
X158310863Y-106193416D01*
X158347803Y-106184761D01*
X158372957Y-106204129D01*
X158394818Y-106263958D01*
X158421875Y-106376685D01*
X158429077Y-106408006D01*
X158460067Y-106523826D01*
X158490211Y-106587555D01*
X158527462Y-106610674D01*
X158579772Y-106604665D01*
X158590141Y-106600997D01*
X158650941Y-106545524D01*
X158702691Y-106449035D01*
X158738232Y-106333634D01*
X158750406Y-106221423D01*
X158732055Y-106134501D01*
X158715009Y-106117124D01*
X158649893Y-106067700D01*
X158549381Y-105999075D01*
X158426701Y-105920519D01*
X158372884Y-105886597D01*
X158215834Y-105783619D01*
X158062802Y-105678429D01*
X157940458Y-105589202D01*
X157740071Y-105435628D01*
X157585745Y-105482286D01*
X157582072Y-105483400D01*
X157481349Y-105521643D01*
X157419493Y-105571955D01*
X157370080Y-105655567D01*
X157360367Y-105675888D01*
X157332242Y-105750655D01*
X157340615Y-105797370D01*
X157387856Y-105840733D01*
X157440124Y-105869825D01*
X157512432Y-105874610D01*
X157616649Y-105844976D01*
X157688836Y-105822039D01*
X157763395Y-105815368D01*
X157808746Y-105843185D01*
X157820542Y-105860751D01*
X157826103Y-105890081D01*
X157813988Y-105933577D01*
X157779516Y-106001685D01*
X157718000Y-106104851D01*
X157624758Y-106253521D01*
X157566433Y-106344566D01*
X157504934Y-106435005D01*
X157464171Y-106494951D01*
X157382924Y-106596724D01*
X157315672Y-106656854D01*
X157255394Y-106682310D01*
X157195068Y-106680065D01*
X157137136Y-106680630D01*
X157093858Y-106720886D01*
X157092163Y-106792188D01*
X156398492Y-106792188D01*
X156361401Y-106753608D01*
X156288600Y-106696360D01*
X156176099Y-106618075D01*
X156015385Y-106511676D01*
X155843051Y-106401704D01*
X155664653Y-106297870D01*
X155522319Y-106230339D01*
X155407314Y-106195807D01*
X155310903Y-106190972D01*
X155284361Y-106197582D01*
X155224349Y-106212528D01*
X155196231Y-106226452D01*
X155108937Y-106305618D01*
X155042302Y-106416474D01*
X155007672Y-106535700D01*
X155016392Y-106639976D01*
X155023530Y-106659669D01*
X155034622Y-106736746D01*
X154996210Y-106774682D01*
X154901674Y-106781651D01*
X154827603Y-106786830D01*
X154761678Y-106814296D01*
X154684815Y-106846318D01*
X154541804Y-106971728D01*
X154476496Y-107024508D01*
X154376578Y-107047002D01*
X154313235Y-107050110D01*
X154268598Y-107083975D01*
X151890566Y-107083975D01*
X151898046Y-107021347D01*
X151893488Y-106944204D01*
X151864012Y-106771264D01*
X151813678Y-106589425D01*
X151750075Y-106423897D01*
X151680793Y-106299889D01*
X151626120Y-106239100D01*
X151504800Y-106142666D01*
X151326613Y-106030264D01*
X151232543Y-105976185D01*
X151160236Y-105938676D01*
X152508380Y-105938676D01*
X152517380Y-105994944D01*
X152527489Y-106017616D01*
X152586582Y-106086244D01*
X152680546Y-106163512D01*
X152792527Y-106238710D01*
X152905670Y-106301132D01*
X153003123Y-106340068D01*
X153068034Y-106344811D01*
X153097505Y-106330208D01*
X153120212Y-106289789D01*
X153116511Y-106226345D01*
X153344976Y-106226345D01*
X153357739Y-106384522D01*
X153424916Y-106552553D01*
X153455254Y-106602835D01*
X153572256Y-106735359D01*
X153721860Y-106847624D01*
X153883786Y-106926219D01*
X154037753Y-106957736D01*
X154063441Y-106957972D01*
X154211213Y-106936733D01*
X154332218Y-106868902D01*
X154444974Y-106744797D01*
X154495909Y-106660854D01*
X154544639Y-106494748D01*
X154538617Y-106323963D01*
X154483580Y-106158682D01*
X154385263Y-106009087D01*
X154249406Y-105885360D01*
X154238129Y-105879463D01*
X156015909Y-105879463D01*
X156065381Y-106052364D01*
X156171017Y-106221249D01*
X156209693Y-106266374D01*
X156353915Y-106398898D01*
X156505449Y-106476474D01*
X156679409Y-106507619D01*
X156763694Y-106505412D01*
X156924710Y-106458652D01*
X157057873Y-106364218D01*
X157155951Y-106233520D01*
X157211713Y-106077962D01*
X157217930Y-105908951D01*
X157167368Y-105737894D01*
X157110322Y-105638617D01*
X156971120Y-105482717D01*
X156801148Y-105375003D01*
X156611748Y-105321634D01*
X156414270Y-105328777D01*
X156323277Y-105354602D01*
X156176285Y-105440120D01*
X156078918Y-105557298D01*
X156074181Y-105562998D01*
X156019782Y-105712894D01*
X156015909Y-105879463D01*
X154238129Y-105879463D01*
X154081745Y-105797685D01*
X153888015Y-105756243D01*
X153868776Y-105755305D01*
X153711567Y-105778851D01*
X153564304Y-105849385D01*
X153445596Y-105955041D01*
X153374053Y-106083954D01*
X153344976Y-106226345D01*
X153116511Y-106226345D01*
X153115512Y-106209225D01*
X153119460Y-106124013D01*
X153171889Y-105977141D01*
X153278686Y-105793315D01*
X153440112Y-105572020D01*
X153457459Y-105550201D01*
X153541754Y-105455948D01*
X153614357Y-105402955D01*
X153693641Y-105377100D01*
X153738279Y-105366951D01*
X153795481Y-105337977D01*
X153809577Y-105289873D01*
X153809487Y-105288050D01*
X153783818Y-105216758D01*
X153723245Y-105120038D01*
X153687873Y-105074808D01*
X154861739Y-105074808D01*
X154885772Y-105248676D01*
X154960660Y-105413581D01*
X155080274Y-105557445D01*
X155233875Y-105669479D01*
X155401231Y-105734402D01*
X155571216Y-105751239D01*
X155732706Y-105719014D01*
X155874575Y-105636752D01*
X155985698Y-105503477D01*
X155999481Y-105478196D01*
X156053291Y-105309471D01*
X156050443Y-105139709D01*
X155998965Y-104977143D01*
X155906885Y-104830008D01*
X155782232Y-104706538D01*
X155633035Y-104614966D01*
X155467318Y-104563525D01*
X155387570Y-104562118D01*
X155293113Y-104560451D01*
X155118446Y-104613977D01*
X155066066Y-104644811D01*
X154954754Y-104758335D01*
X154885689Y-104906515D01*
X154861739Y-105074808D01*
X153687873Y-105074808D01*
X153642119Y-105016302D01*
X153554792Y-104923962D01*
X153475616Y-104861432D01*
X153382187Y-104806306D01*
X153257544Y-105020285D01*
X153226786Y-105073086D01*
X153203324Y-105112816D01*
X153101432Y-105277826D01*
X152986450Y-105455434D01*
X152879050Y-105613515D01*
X152827155Y-105686553D01*
X152748798Y-105790322D01*
X152690425Y-105853825D01*
X152641540Y-105887610D01*
X152591646Y-105902219D01*
X152535219Y-105913713D01*
X152508380Y-105938676D01*
X151160236Y-105938676D01*
X151120598Y-105918114D01*
X151027364Y-105882995D01*
X150930133Y-105862972D01*
X150806196Y-105850187D01*
X150668088Y-105846997D01*
X150501869Y-105858471D01*
X150362706Y-105883192D01*
X150227753Y-105929204D01*
X149985440Y-106059705D01*
X149760973Y-106239484D01*
X149563871Y-106457246D01*
X149403651Y-106701693D01*
X149289828Y-106961527D01*
X149231922Y-107225453D01*
X149231070Y-107425606D01*
X146971160Y-107425606D01*
X146973105Y-107356987D01*
X147051986Y-106759218D01*
X147103186Y-106504964D01*
X147193047Y-106141189D01*
X147300725Y-105803892D01*
X147427741Y-105488043D01*
X151801337Y-105488043D01*
X151823411Y-105560587D01*
X151832535Y-105573420D01*
X151900448Y-105639929D01*
X152001113Y-105717076D01*
X152113903Y-105791078D01*
X152218185Y-105848153D01*
X152293331Y-105874521D01*
X152303683Y-105875398D01*
X152372339Y-105860957D01*
X152409670Y-105821095D01*
X152398231Y-105772739D01*
X152386296Y-105745594D01*
X152395281Y-105665349D01*
X152438110Y-105555827D01*
X152506839Y-105428159D01*
X152593520Y-105293477D01*
X152690208Y-105162910D01*
X152788956Y-105047590D01*
X152881819Y-104958649D01*
X152960849Y-104907217D01*
X153018101Y-104904425D01*
X153054479Y-104903045D01*
X153079974Y-104857686D01*
X153085544Y-104787561D01*
X153065794Y-104714189D01*
X153023917Y-104654721D01*
X152951967Y-104575446D01*
X152936700Y-104560614D01*
X153856131Y-104560614D01*
X153884453Y-104673523D01*
X153886078Y-104677013D01*
X153965630Y-104787881D01*
X154092743Y-104896855D01*
X154122614Y-104917517D01*
X154213869Y-104972096D01*
X154285984Y-104993394D01*
X154363640Y-104989888D01*
X154402520Y-104981506D01*
X154523361Y-104918743D01*
X154642458Y-104797961D01*
X154764271Y-104614984D01*
X154806002Y-104544509D01*
X154872634Y-104446344D01*
X154926647Y-104396985D01*
X154978557Y-104388730D01*
X155038881Y-104413877D01*
X155101944Y-104438099D01*
X155145487Y-104422351D01*
X155144436Y-104390923D01*
X155122596Y-104310526D01*
X155084157Y-104199834D01*
X155035674Y-104075502D01*
X154983704Y-103954189D01*
X154934800Y-103852549D01*
X154895520Y-103787238D01*
X154863462Y-103756250D01*
X154797945Y-103740226D01*
X154744238Y-103782249D01*
X154715319Y-103827140D01*
X154658504Y-103875078D01*
X154586741Y-103872809D01*
X154482771Y-103823023D01*
X154413888Y-103784391D01*
X154358643Y-103763178D01*
X154327819Y-103776655D01*
X154302668Y-103825028D01*
X154287107Y-103872055D01*
X154299197Y-103923405D01*
X154361438Y-103977729D01*
X154415107Y-104018660D01*
X154466908Y-104078347D01*
X154474938Y-104142866D01*
X154439111Y-104227332D01*
X154359343Y-104346858D01*
X154284621Y-104446958D01*
X154209842Y-104527666D01*
X154194077Y-104535835D01*
X154147628Y-104559903D01*
X154086223Y-104548872D01*
X154013874Y-104499777D01*
X154000403Y-104488904D01*
X153939848Y-104446681D01*
X153904517Y-104447383D01*
X153873437Y-104489470D01*
X153856131Y-104560614D01*
X152936700Y-104560614D01*
X152865434Y-104491377D01*
X152779113Y-104416130D01*
X152707799Y-104363320D01*
X152666291Y-104346562D01*
X152649174Y-104364521D01*
X152603391Y-104430061D01*
X152538602Y-104531897D01*
X152462852Y-104657721D01*
X152301015Y-104925553D01*
X152245485Y-105010754D01*
X152160508Y-105141137D01*
X152045590Y-105297364D01*
X151956691Y-105393651D01*
X151894242Y-105429417D01*
X151839875Y-105442690D01*
X151801337Y-105488043D01*
X147427741Y-105488043D01*
X147433250Y-105474344D01*
X147597650Y-105133816D01*
X147800954Y-104763579D01*
X147895856Y-104600059D01*
X147917217Y-104564607D01*
X151024351Y-104564607D01*
X151046175Y-104727999D01*
X151107953Y-104871103D01*
X151226785Y-105006992D01*
X151378397Y-105093826D01*
X151549486Y-105118331D01*
X151733983Y-105078497D01*
X151740883Y-105075798D01*
X151890490Y-104986501D01*
X151992766Y-104864847D01*
X152049743Y-104722267D01*
X152063454Y-104570191D01*
X152035932Y-104420046D01*
X151969210Y-104283266D01*
X151865319Y-104171278D01*
X151726294Y-104095514D01*
X151554167Y-104067403D01*
X151445391Y-104082037D01*
X151298386Y-104138032D01*
X151167635Y-104223255D01*
X151078374Y-104324091D01*
X151043934Y-104407773D01*
X151024351Y-104564607D01*
X147917217Y-104564607D01*
X148018802Y-104396012D01*
X148130119Y-104225107D01*
X148241316Y-104071771D01*
X148327237Y-103965695D01*
X152965809Y-103965695D01*
X152985807Y-104100847D01*
X153062158Y-104215430D01*
X153124926Y-104273137D01*
X153189669Y-104324185D01*
X153264828Y-104369722D01*
X153375438Y-104426623D01*
X153464137Y-104465745D01*
X153580049Y-104489102D01*
X153675713Y-104461333D01*
X153767254Y-104380540D01*
X153808674Y-104313323D01*
X153791022Y-104271235D01*
X153712617Y-104256394D01*
X153573587Y-104268877D01*
X153509537Y-104278063D01*
X153438568Y-104281220D01*
X153403636Y-104263907D01*
X153386023Y-104221386D01*
X153381223Y-104197567D01*
X153397525Y-104129465D01*
X153469504Y-104092979D01*
X153599448Y-104086664D01*
X153774990Y-104073749D01*
X153917715Y-104014382D01*
X154014629Y-103911146D01*
X154055889Y-103820390D01*
X154067500Y-103702791D01*
X154022506Y-103590770D01*
X153917950Y-103478132D01*
X153750875Y-103358684D01*
X153688719Y-103320395D01*
X153590433Y-103267872D01*
X153518412Y-103249933D01*
X153453549Y-103263952D01*
X153376729Y-103307307D01*
X153369532Y-103312377D01*
X153318508Y-103348321D01*
X153292366Y-103387493D01*
X153298720Y-103439628D01*
X153305527Y-103461095D01*
X153330144Y-103492043D01*
X153382886Y-103502861D01*
X153482847Y-103499790D01*
X153546099Y-103498337D01*
X153649001Y-103514918D01*
X153693664Y-103558028D01*
X153678037Y-103626335D01*
X153663806Y-103643609D01*
X153592572Y-103671606D01*
X153466590Y-103674852D01*
X153377203Y-103671073D01*
X153234020Y-103674469D01*
X153135028Y-103696674D01*
X153065777Y-103742152D01*
X153011811Y-103815370D01*
X153004516Y-103828644D01*
X152965809Y-103965695D01*
X148327237Y-103965695D01*
X148363904Y-103920427D01*
X148509394Y-103755496D01*
X148689296Y-103561406D01*
X148713627Y-103537579D01*
X152157424Y-103537579D01*
X152178045Y-103604293D01*
X152178848Y-103605539D01*
X152232350Y-103661215D01*
X152324157Y-103734612D01*
X152434561Y-103811905D01*
X152543847Y-103879270D01*
X152632305Y-103922881D01*
X152645534Y-103927558D01*
X152733261Y-103934409D01*
X152781351Y-103889884D01*
X152782976Y-103799571D01*
X152780487Y-103785775D01*
X152783242Y-103716711D01*
X152814535Y-103629540D01*
X152880204Y-103506673D01*
X152935786Y-103414202D01*
X152988550Y-103342655D01*
X153036146Y-103305811D01*
X153092142Y-103289782D01*
X153158836Y-103271454D01*
X153211180Y-103220952D01*
X153202613Y-103143572D01*
X153133171Y-103039486D01*
X153002898Y-102908862D01*
X152927970Y-102845332D01*
X152859314Y-102801000D01*
X152818468Y-102798133D01*
X152794793Y-102821623D01*
X152739386Y-102891842D01*
X152664149Y-102995734D01*
X152578339Y-103120855D01*
X152552459Y-103159126D01*
X152524286Y-103200788D01*
X152442751Y-103314687D01*
X152381020Y-103387553D01*
X152329521Y-103429982D01*
X152278683Y-103452570D01*
X152195609Y-103487365D01*
X152157424Y-103537579D01*
X148713627Y-103537579D01*
X148953836Y-103302350D01*
X149294657Y-103014100D01*
X149534042Y-102837182D01*
X151316677Y-102837182D01*
X151334572Y-102940205D01*
X151387151Y-103053520D01*
X151469180Y-103159668D01*
X151587352Y-103262931D01*
X151727633Y-103334845D01*
X151891810Y-103364136D01*
X152026572Y-103357266D01*
X152185168Y-103301811D01*
X152310858Y-103202766D01*
X152399197Y-103070640D01*
X152445746Y-102915944D01*
X152446060Y-102749186D01*
X152395699Y-102580875D01*
X152377264Y-102553025D01*
X153001137Y-102553025D01*
X153010791Y-102645227D01*
X153019468Y-102665464D01*
X153079337Y-102744232D01*
X153169476Y-102820969D01*
X153184970Y-102831400D01*
X153303537Y-102892613D01*
X153394556Y-102907946D01*
X153450380Y-102880668D01*
X153463361Y-102814050D01*
X153425851Y-102711360D01*
X153418207Y-102698180D01*
X153330201Y-102595734D01*
X153213793Y-102512168D01*
X153097188Y-102468341D01*
X153092017Y-102467664D01*
X153031024Y-102488081D01*
X153001137Y-102553025D01*
X152377264Y-102553025D01*
X152290220Y-102421523D01*
X152187382Y-102325077D01*
X152035931Y-102247517D01*
X151854127Y-102223108D01*
X151853864Y-102223108D01*
X151741025Y-102244980D01*
X151625540Y-102301191D01*
X151530347Y-102377343D01*
X151478381Y-102459033D01*
X151471042Y-102501917D01*
X151486085Y-102540648D01*
X151536563Y-102583850D01*
X151634021Y-102645344D01*
X151698294Y-102684914D01*
X151840546Y-102782639D01*
X151922899Y-102860118D01*
X151947013Y-102920414D01*
X151914552Y-102966593D01*
X151827174Y-103001719D01*
X151802781Y-103007423D01*
X151685955Y-103005239D01*
X151582291Y-102945560D01*
X151482977Y-102823829D01*
X151403520Y-102701339D01*
X151347166Y-102752781D01*
X151338701Y-102761906D01*
X151316677Y-102837182D01*
X149534042Y-102837182D01*
X149665279Y-102740191D01*
X150046784Y-102494508D01*
X150420254Y-102290935D01*
X150532717Y-102237133D01*
X151136572Y-101990684D01*
X151753142Y-101808538D01*
X152378944Y-101691022D01*
X153010492Y-101638458D01*
X153644301Y-101651170D01*
X154276887Y-101729484D01*
X154904764Y-101873723D01*
X155138871Y-101945300D01*
X155726504Y-102172012D01*
X156283308Y-102455182D01*
X156805784Y-102791192D01*
X157290434Y-103176429D01*
X157733758Y-103607279D01*
X158132258Y-104080126D01*
X158482434Y-104591356D01*
X158780787Y-105137355D01*
X159023818Y-105714507D01*
X159165760Y-106180444D01*
X159208029Y-106319198D01*
X159316967Y-106847036D01*
X159326991Y-106935841D01*
X159389383Y-107488577D01*
X159396027Y-108127565D01*
G37*
G36*
X158869867Y-111758187D02*
G01*
X158907992Y-111805399D01*
X158907158Y-111842833D01*
X158857218Y-111878836D01*
X158806411Y-111887546D01*
X158759529Y-111859056D01*
X158760266Y-111790996D01*
X158765128Y-111780177D01*
X158811616Y-111748745D01*
X158869867Y-111758187D01*
G37*
G36*
X160392146Y-106161313D02*
G01*
X160409027Y-106202971D01*
X160385615Y-106257920D01*
X160380869Y-106263356D01*
X160329991Y-106323622D01*
X160266343Y-106400993D01*
X160259034Y-106409768D01*
X160193957Y-106468034D01*
X160145719Y-106475878D01*
X160144771Y-106475317D01*
X160129851Y-106448814D01*
X160149786Y-106398053D01*
X160209463Y-106310342D01*
X160250500Y-106257246D01*
X160311399Y-106188384D01*
X160350956Y-106156440D01*
X160392146Y-106161313D01*
G37*
G36*
X160001489Y-105822964D02*
G01*
X160063707Y-105865285D01*
X160087022Y-105917627D01*
X160047037Y-105972209D01*
X159995647Y-105991463D01*
X159944218Y-105967583D01*
X159929074Y-105906448D01*
X159930982Y-105892405D01*
X159922405Y-105865651D01*
X159874054Y-105880521D01*
X159826935Y-105892189D01*
X159809069Y-105861717D01*
X159809596Y-105850326D01*
X159842395Y-105804393D01*
X159912515Y-105794033D01*
X160001489Y-105822964D01*
G37*
G36*
X150159773Y-111580957D02*
G01*
X150245713Y-111623989D01*
X150257824Y-111657674D01*
X150238147Y-111720538D01*
X150231345Y-111731251D01*
X150176898Y-111768130D01*
X150116933Y-111745882D01*
X150064370Y-111668384D01*
X150056631Y-111610892D01*
X150091942Y-111577767D01*
X150159773Y-111580957D01*
G37*
G36*
X149536960Y-111149350D02*
G01*
X149573531Y-111167253D01*
X149601039Y-111203326D01*
X149577792Y-111262201D01*
X149556749Y-111294697D01*
X149517877Y-111315435D01*
X149459644Y-111283265D01*
X149410648Y-111228754D01*
X149418813Y-111170414D01*
X149462810Y-111134609D01*
X149536960Y-111149350D01*
G37*
G36*
X154843163Y-109341045D02*
G01*
X154886514Y-109376855D01*
X154930182Y-109450164D01*
X154932098Y-109457758D01*
X154934134Y-109497581D01*
X154913122Y-109538355D01*
X154859161Y-109593403D01*
X154762355Y-109676046D01*
X154663294Y-109762454D01*
X154542492Y-109876536D01*
X154445470Y-109977181D01*
X154385118Y-110038566D01*
X154308940Y-110099275D01*
X154255209Y-110122443D01*
X154184966Y-110103200D01*
X154119607Y-110025336D01*
X154083430Y-109888807D01*
X154079016Y-109847743D01*
X154081895Y-109766899D01*
X154110679Y-109690012D01*
X154173714Y-109589407D01*
X154243949Y-109499577D01*
X154386101Y-109376792D01*
X154540076Y-109306948D01*
X154695790Y-109293785D01*
X154843163Y-109341045D01*
G37*
G36*
X152704020Y-108272365D02*
G01*
X152770299Y-108341652D01*
X152802549Y-108468277D01*
X152800389Y-108652058D01*
X152794171Y-108697530D01*
X152765428Y-108800000D01*
X152710134Y-108925136D01*
X152621894Y-109088573D01*
X152531241Y-109236820D01*
X152365321Y-109453158D01*
X152196154Y-109604666D01*
X152024689Y-109690390D01*
X151971967Y-109702173D01*
X151851958Y-109695355D01*
X151759049Y-109643005D01*
X151709077Y-109552064D01*
X151701117Y-109493266D01*
X151715236Y-109321399D01*
X151773134Y-109128298D01*
X151867828Y-108927375D01*
X151992335Y-108732042D01*
X152139670Y-108555710D01*
X152302852Y-108411789D01*
X152304797Y-108410371D01*
X152470889Y-108306541D01*
X152604090Y-108260600D01*
X152704020Y-108272365D01*
G37*
G36*
X150739256Y-106749062D02*
G01*
X150809971Y-106804081D01*
X150844310Y-106886223D01*
X150814321Y-106983177D01*
X150810089Y-106990169D01*
X150746843Y-107076411D01*
X150651848Y-107188402D01*
X150541002Y-107308801D01*
X150430209Y-107420269D01*
X150335367Y-107505465D01*
X150281236Y-107544302D01*
X150189848Y-107575086D01*
X150115376Y-107542534D01*
X150051551Y-107445316D01*
X150029607Y-107359240D01*
X150026289Y-107227246D01*
X150045137Y-107091310D01*
X150083980Y-106982459D01*
X150097160Y-106961079D01*
X150196943Y-106855976D01*
X150329952Y-106775487D01*
X150477279Y-106726350D01*
X150620016Y-106715296D01*
X150739256Y-106749062D01*
G37*
G36*
X155771064Y-106609333D02*
G01*
X155778638Y-106622893D01*
X155788511Y-106672564D01*
X155768611Y-106739205D01*
X155714383Y-106841463D01*
X155670229Y-106913374D01*
X155618127Y-106986168D01*
X155584797Y-107017855D01*
X155557574Y-107015239D01*
X155499007Y-106975333D01*
X155445294Y-106909170D01*
X155417176Y-106838894D01*
X155426099Y-106755936D01*
X155474053Y-106671138D01*
X155547587Y-106604309D01*
X155631641Y-106565218D01*
X155711153Y-106563636D01*
X155771064Y-106609333D01*
G37*
G36*
X154162571Y-106071237D02*
G01*
X154197845Y-106109736D01*
X154208908Y-106187149D01*
X154173755Y-106289553D01*
X154099558Y-106399179D01*
X153995791Y-106502219D01*
X153871924Y-106584865D01*
X153865323Y-106588110D01*
X153777495Y-106599543D01*
X153708256Y-106557771D01*
X153678187Y-106474516D01*
X153678151Y-106472141D01*
X153703737Y-106399836D01*
X153769414Y-106308829D01*
X153859525Y-106215434D01*
X153958412Y-106135965D01*
X154050412Y-106086736D01*
X154105527Y-106070371D01*
X154162571Y-106071237D01*
G37*
G36*
X151971148Y-104618729D02*
G01*
X151931561Y-104774270D01*
X151840625Y-104901283D01*
X151709744Y-104987857D01*
X151550319Y-105022076D01*
X151397994Y-104997572D01*
X151268396Y-104921980D01*
X151173128Y-104808178D01*
X151119760Y-104669154D01*
X151118592Y-104623887D01*
X151261037Y-104623887D01*
X151270273Y-104675942D01*
X151273653Y-104678954D01*
X151324538Y-104682506D01*
X151399409Y-104654532D01*
X151437454Y-104636500D01*
X151509318Y-104626292D01*
X151539208Y-104664461D01*
X151521152Y-104746499D01*
X151506734Y-104808667D01*
X151538215Y-104859365D01*
X151562892Y-104867954D01*
X151598658Y-104854293D01*
X151646316Y-104802290D01*
X151716809Y-104702327D01*
X151717869Y-104700751D01*
X151780826Y-104606287D01*
X151825571Y-104537481D01*
X151842478Y-104509126D01*
X151826767Y-104487796D01*
X151768603Y-104443261D01*
X151687919Y-104393046D01*
X151606518Y-104350430D01*
X151546204Y-104328694D01*
X151495622Y-104325442D01*
X151453253Y-104350469D01*
X151417940Y-104423989D01*
X151413060Y-104436251D01*
X151374956Y-104505550D01*
X151339813Y-104534412D01*
X151336232Y-104534667D01*
X151288559Y-104565528D01*
X151261037Y-104623887D01*
X151118592Y-104623887D01*
X151115857Y-104517901D01*
X151168986Y-104367408D01*
X151216510Y-104306002D01*
X151334870Y-104224286D01*
X151480114Y-104179221D01*
X151630935Y-104176065D01*
X151766023Y-104220078D01*
X151858334Y-104297083D01*
X151939379Y-104429601D01*
X151971829Y-104581650D01*
X151971790Y-104583784D01*
X151971148Y-104618729D01*
G37*
G36*
X156853076Y-105663340D02*
G01*
X156881106Y-105725731D01*
X156879603Y-105774208D01*
X156837251Y-105885110D01*
X156753778Y-105994562D01*
X156643693Y-106085775D01*
X156521501Y-106141955D01*
X156512220Y-106144403D01*
X156420517Y-106159319D01*
X156371499Y-106138511D01*
X156348991Y-106075775D01*
X156353988Y-106026832D01*
X156396233Y-105934875D01*
X156466818Y-105835366D01*
X156551189Y-105747853D01*
X156634792Y-105691887D01*
X156674487Y-105675747D01*
X156785729Y-105646889D01*
X156853076Y-105663340D01*
G37*
G36*
X155643053Y-104864045D02*
G01*
X155698379Y-104899594D01*
X155712113Y-104968578D01*
X155690495Y-105058691D01*
X155639771Y-105157625D01*
X155566184Y-105253074D01*
X155475976Y-105332729D01*
X155375391Y-105384284D01*
X155292557Y-105392404D01*
X155221178Y-105363591D01*
X155190989Y-105305001D01*
X155209673Y-105228440D01*
X155270535Y-105128127D01*
X155359045Y-105026624D01*
X155460116Y-104938778D01*
X155558664Y-104879437D01*
X155639605Y-104863448D01*
X155643053Y-104864045D01*
G37*
G36*
X152101051Y-102462789D02*
G01*
X152146209Y-102528056D01*
X152161718Y-102609089D01*
X152144506Y-102682538D01*
X152091505Y-102725056D01*
X152073126Y-102725510D01*
X152006688Y-102700279D01*
X151934936Y-102651626D01*
X151886873Y-102597612D01*
X151881952Y-102552952D01*
X151917000Y-102492202D01*
X151981078Y-102447832D01*
X152053912Y-102439086D01*
X152101051Y-102462789D01*
G37*
G36*
X151616469Y-104448990D02*
G01*
X151645045Y-104466390D01*
X151674106Y-104518753D01*
X151663362Y-104570864D01*
X151613383Y-104595640D01*
X151585458Y-104590238D01*
X151534910Y-104550973D01*
X151506462Y-104495420D01*
X151517246Y-104449609D01*
X151549200Y-104438482D01*
X151616469Y-104448990D01*
G37*
%TD*%
D11*
%TO.C,C1*%
X239724411Y-108740527D03*
D12*
X239503036Y-111270862D03*
X239281660Y-113801196D03*
X239060284Y-116331531D03*
X238838909Y-118861865D03*
X238617533Y-121392200D03*
X238396158Y-123922535D03*
X238174782Y-126452869D03*
X237953406Y-128983204D03*
X237732031Y-131513538D03*
X237510655Y-134043873D03*
X237289280Y-136574207D03*
X254906418Y-110068781D03*
X254685043Y-112599115D03*
X254463667Y-115129450D03*
X254242292Y-117659784D03*
X254020916Y-120190119D03*
X253799540Y-122720453D03*
X253578165Y-125250788D03*
X253356789Y-127781123D03*
X253135414Y-130311457D03*
X252914038Y-132841792D03*
X252692662Y-135372126D03*
X252471287Y-137902461D03*
%TD*%
M02*
