%TF.GenerationSoftware,KiCad,Pcbnew,(6.0.4)*%
%TF.CreationDate,2022-04-14T15:36:21+01:00*%
%TF.ProjectId,axo,61786f2e-6b69-4636-9164-5f7063625858,VERSION_HERE*%
%TF.SameCoordinates,Original*%
%TF.FileFunction,Legend,Top*%
%TF.FilePolarity,Positive*%
%FSLAX46Y46*%
G04 Gerber Fmt 4.6, Leading zero omitted, Abs format (unit mm)*
G04 Created by KiCad (PCBNEW (6.0.4)) date 2022-04-14 15:36:21*
%MOMM*%
%LPD*%
G01*
G04 APERTURE LIST*
G04 Aperture macros list*
%AMRotRect*
0 Rectangle, with rotation*
0 The origin of the aperture is its center*
0 $1 length*
0 $2 width*
0 $3 Rotation angle, in degrees counterclockwise*
0 Add horizontal line*
21,1,$1,$2,0,0,$3*%
G04 Aperture macros list end*
%ADD10C,0.300000*%
%ADD11C,0.150000*%
%ADD12RotRect,1.752600X1.752600X265.000000*%
%ADD13C,1.752600*%
G04 APERTURE END LIST*
D10*
%TO.C,G\u002A\u002A\u002A*%
X229797428Y-274828000D02*
X229652285Y-274755428D01*
X229434571Y-274755428D01*
X229216857Y-274828000D01*
X229071714Y-274973142D01*
X228999142Y-275118285D01*
X228926571Y-275408571D01*
X228926571Y-275626285D01*
X228999142Y-275916571D01*
X229071714Y-276061714D01*
X229216857Y-276206857D01*
X229434571Y-276279428D01*
X229579714Y-276279428D01*
X229797428Y-276206857D01*
X229870000Y-276134285D01*
X229870000Y-275626285D01*
X229579714Y-275626285D01*
X230740857Y-274755428D02*
X230740857Y-275118285D01*
X230378000Y-274973142D02*
X230740857Y-275118285D01*
X231103714Y-274973142D01*
X230523142Y-275408571D02*
X230740857Y-275118285D01*
X230958571Y-275408571D01*
X231902000Y-274755428D02*
X231902000Y-275118285D01*
X231539142Y-274973142D02*
X231902000Y-275118285D01*
X232264857Y-274973142D01*
X231684285Y-275408571D02*
X231902000Y-275118285D01*
X232119714Y-275408571D01*
X233063142Y-274755428D02*
X233063142Y-275118285D01*
X232700285Y-274973142D02*
X233063142Y-275118285D01*
X233426000Y-274973142D01*
X232845428Y-275408571D02*
X233063142Y-275118285D01*
X233280857Y-275408571D01*
D11*
%TO.C,C1*%
X241761949Y-128953120D02*
X241692224Y-129750076D01*
X241388622Y-129723514D01*
X241316041Y-129678924D01*
X241281411Y-129637653D01*
X241250102Y-129558433D01*
X241260062Y-129444582D01*
X241304653Y-129372001D01*
X241345923Y-129337371D01*
X241425144Y-129306061D01*
X241728746Y-129332623D01*
X240547540Y-128846873D02*
X241002943Y-128886716D01*
X240775241Y-128866795D02*
X240705517Y-129663751D01*
X240791378Y-129556540D01*
X240873919Y-129487280D01*
X240953140Y-129455970D01*
X239756760Y-129580745D02*
X240136263Y-129613947D01*
X240207415Y-129237765D01*
X240166145Y-129272395D01*
X240086924Y-129303705D01*
X239897173Y-129287104D01*
X239824592Y-129242513D01*
X239789962Y-129201242D01*
X239758652Y-129122022D01*
X239775253Y-128932270D01*
X239819844Y-128859690D01*
X239861115Y-128825060D01*
X239940335Y-128793750D01*
X240130087Y-128810351D01*
X240202667Y-128854942D01*
X240237297Y-128896212D01*
X251546794Y-127259480D02*
X251477069Y-128056436D01*
X251173467Y-128029874D01*
X251100886Y-127985284D01*
X251066256Y-127944013D01*
X251034947Y-127864793D01*
X251044907Y-127750942D01*
X251089498Y-127678361D01*
X251130768Y-127643731D01*
X251209989Y-127612421D01*
X251513591Y-127638983D01*
X250528312Y-127973431D02*
X250452412Y-127966790D01*
X250379831Y-127922200D01*
X250345201Y-127880929D01*
X250313891Y-127801708D01*
X250289222Y-127646587D01*
X250305823Y-127456836D01*
X250357054Y-127308355D01*
X250401645Y-127235774D01*
X250442915Y-127201144D01*
X250522136Y-127169835D01*
X250598037Y-127176475D01*
X250670617Y-127221066D01*
X250705247Y-127262336D01*
X250736557Y-127341557D01*
X250761226Y-127496678D01*
X250744625Y-127686430D01*
X250693394Y-127834911D01*
X250648803Y-127907491D01*
X250607533Y-127942121D01*
X250528312Y-127973431D01*
X249541605Y-127887105D02*
X249921108Y-127920307D01*
X249992260Y-127544125D01*
X249950990Y-127578755D01*
X249871769Y-127610065D01*
X249682018Y-127593464D01*
X249609437Y-127548873D01*
X249574807Y-127507602D01*
X249543497Y-127428382D01*
X249560098Y-127238630D01*
X249604689Y-127166050D01*
X249645960Y-127131420D01*
X249725180Y-127100110D01*
X249914932Y-127116711D01*
X249987512Y-127161302D01*
X250022142Y-127202572D01*
X252226740Y-115335272D02*
X252299320Y-115379863D01*
X252413171Y-115389823D01*
X252530342Y-115361834D01*
X252612883Y-115292574D01*
X252657473Y-115219993D01*
X252708705Y-115071512D01*
X252718665Y-114957661D01*
X252693996Y-114802540D01*
X252662686Y-114723319D01*
X252593426Y-114640778D01*
X252482895Y-114592867D01*
X252406995Y-114586227D01*
X252289824Y-114614217D01*
X252248553Y-114648847D01*
X252225312Y-114914499D01*
X252377113Y-114927780D01*
X251913641Y-114543064D02*
X251843917Y-115340020D01*
X251458238Y-114503222D01*
X251388513Y-115300177D01*
X251078735Y-114470019D02*
X251009011Y-115266975D01*
X250819259Y-115250374D01*
X250708729Y-115202463D01*
X250639469Y-115119922D01*
X250608159Y-115040701D01*
X250583489Y-114885580D01*
X250593450Y-114771729D01*
X250644681Y-114623248D01*
X250689272Y-114550668D01*
X250771813Y-114481408D01*
X250888984Y-114453418D01*
X251078735Y-114470019D01*
X243115501Y-108673922D02*
X243347950Y-109076666D01*
X243570904Y-108713765D02*
X243501179Y-109510720D01*
X243197577Y-109484159D01*
X243124997Y-109439568D01*
X243090367Y-109398297D01*
X243059057Y-109319077D01*
X243069017Y-109205226D01*
X243113608Y-109132646D01*
X243154879Y-109098016D01*
X243234099Y-109066706D01*
X243537702Y-109093267D01*
X242791977Y-108875062D02*
X242412474Y-108841860D01*
X242887799Y-108654001D02*
X242552422Y-109427715D01*
X242356495Y-108607518D01*
X242097019Y-109387872D02*
X241976992Y-108574316D01*
X241775388Y-109130289D01*
X241673390Y-108547754D01*
X241413914Y-109328108D01*
X241983325Y-126422785D02*
X241913600Y-127219741D01*
X241609998Y-127193179D01*
X241537417Y-127148589D01*
X241502787Y-127107318D01*
X241471478Y-127028098D01*
X241481438Y-126914247D01*
X241526029Y-126841666D01*
X241567299Y-126807036D01*
X241646520Y-126775726D01*
X241950122Y-126802288D01*
X240768916Y-126316538D02*
X241224319Y-126356381D01*
X240996617Y-126336460D02*
X240926893Y-127133416D01*
X241012754Y-127026205D01*
X241095295Y-126956945D01*
X241174516Y-126925635D01*
X240273670Y-126732099D02*
X240346250Y-126776690D01*
X240380880Y-126817960D01*
X240412190Y-126897181D01*
X240408870Y-126935131D01*
X240364279Y-127007712D01*
X240323009Y-127042342D01*
X240243788Y-127073652D01*
X240091987Y-127060371D01*
X240019406Y-127015780D01*
X239984776Y-126974510D01*
X239953467Y-126895289D01*
X239956787Y-126857338D01*
X240001378Y-126784758D01*
X240042648Y-126750128D01*
X240121869Y-126718818D01*
X240273670Y-126732099D01*
X240352891Y-126700789D01*
X240394161Y-126666159D01*
X240438752Y-126593579D01*
X240452033Y-126441778D01*
X240420723Y-126362557D01*
X240386093Y-126321287D01*
X240313513Y-126276696D01*
X240161711Y-126263415D01*
X240082491Y-126294725D01*
X240041220Y-126329355D01*
X239996629Y-126401935D01*
X239983349Y-126553736D01*
X240014658Y-126632957D01*
X240049288Y-126674228D01*
X240121869Y-126718818D01*
X242884647Y-111968242D02*
X242957227Y-112012833D01*
X243071078Y-112022793D01*
X243188249Y-111994804D01*
X243270790Y-111925544D01*
X243315380Y-111852963D01*
X243366612Y-111704482D01*
X243376572Y-111590631D01*
X243351903Y-111435510D01*
X243320593Y-111356289D01*
X243251333Y-111273748D01*
X243140802Y-111225837D01*
X243064902Y-111219197D01*
X242947731Y-111247187D01*
X242906460Y-111281817D01*
X242883219Y-111547469D01*
X243035020Y-111560750D01*
X242571548Y-111176034D02*
X242501824Y-111972990D01*
X242116145Y-111136192D01*
X242046420Y-111933147D01*
X241736642Y-111102989D02*
X241666918Y-111899945D01*
X241477166Y-111883344D01*
X241366636Y-111835433D01*
X241297376Y-111752892D01*
X241266066Y-111673671D01*
X241241396Y-111518550D01*
X241251357Y-111404699D01*
X241302588Y-111256218D01*
X241347179Y-111183638D01*
X241429720Y-111114378D01*
X241546891Y-111086388D01*
X241736642Y-111102989D01*
X252005365Y-117865606D02*
X252077945Y-117910197D01*
X252191796Y-117920157D01*
X252308967Y-117892168D01*
X252391508Y-117822908D01*
X252436098Y-117750327D01*
X252487330Y-117601846D01*
X252497290Y-117487995D01*
X252472621Y-117332874D01*
X252441311Y-117253653D01*
X252372051Y-117171112D01*
X252261520Y-117123201D01*
X252185620Y-117116561D01*
X252068449Y-117144551D01*
X252027178Y-117179181D01*
X252003937Y-117444833D01*
X252155738Y-117458114D01*
X251692266Y-117073398D02*
X251622542Y-117870354D01*
X251236863Y-117033556D01*
X251167138Y-117830511D01*
X250857360Y-117000353D02*
X250787636Y-117797309D01*
X250597884Y-117780708D01*
X250487354Y-117732797D01*
X250418094Y-117650256D01*
X250386784Y-117571035D01*
X250362114Y-117415914D01*
X250372075Y-117302063D01*
X250423306Y-117153582D01*
X250467897Y-117081002D01*
X250550438Y-117011742D01*
X250667609Y-116983752D01*
X250857360Y-117000353D01*
X252210921Y-119668477D02*
X252141196Y-120465433D01*
X251837594Y-120438871D01*
X251765013Y-120394281D01*
X251730383Y-120353010D01*
X251699074Y-120273790D01*
X251709034Y-120159939D01*
X251753625Y-120087358D01*
X251794895Y-120052728D01*
X251874116Y-120021418D01*
X252177718Y-120047980D01*
X251192439Y-120382428D02*
X251116539Y-120375787D01*
X251043958Y-120331197D01*
X251009328Y-120289926D01*
X250978018Y-120210705D01*
X250953349Y-120055584D01*
X250969950Y-119865833D01*
X251021181Y-119717352D01*
X251065772Y-119644771D01*
X251107042Y-119610141D01*
X251186263Y-119578832D01*
X251262164Y-119585472D01*
X251334744Y-119630063D01*
X251369374Y-119671333D01*
X251400684Y-119750554D01*
X251425353Y-119905675D01*
X251408752Y-120095427D01*
X251357521Y-120243908D01*
X251312930Y-120316488D01*
X251271660Y-120351118D01*
X251192439Y-120382428D01*
X250629825Y-120256724D02*
X250588555Y-120291354D01*
X250509334Y-120322664D01*
X250319583Y-120306063D01*
X250247002Y-120261472D01*
X250212372Y-120220202D01*
X250181063Y-120140981D01*
X250187703Y-120065080D01*
X250235614Y-119954550D01*
X250730860Y-119538989D01*
X250237506Y-119495826D01*
X241097823Y-136544123D02*
X241028098Y-137341079D01*
X240724496Y-137314517D01*
X240651915Y-137269927D01*
X240617285Y-137228656D01*
X240585976Y-137149436D01*
X240595936Y-137035585D01*
X240640527Y-136963004D01*
X240681797Y-136928374D01*
X240761018Y-136897064D01*
X241064620Y-136923626D01*
X239883414Y-136437876D02*
X240338817Y-136477719D01*
X240111115Y-136457798D02*
X240041391Y-137254754D01*
X240127252Y-137147543D01*
X240209793Y-137078283D01*
X240289014Y-137046973D01*
X239320336Y-137191669D02*
X239244435Y-137185029D01*
X239171855Y-137140438D01*
X239137225Y-137099168D01*
X239105915Y-137019947D01*
X239081245Y-136864826D01*
X239097847Y-136675074D01*
X239149078Y-136526593D01*
X239193668Y-136454013D01*
X239234939Y-136419383D01*
X239314160Y-136388073D01*
X239390060Y-136394714D01*
X239462641Y-136439304D01*
X239497271Y-136480575D01*
X239528580Y-136559796D01*
X239553250Y-136714917D01*
X239536649Y-136904668D01*
X239485418Y-137053149D01*
X239440827Y-137125729D01*
X239399556Y-137160360D01*
X239320336Y-137191669D01*
X253096423Y-109547139D02*
X253026698Y-110344095D01*
X252723096Y-110317533D01*
X252650515Y-110272943D01*
X252615885Y-110231672D01*
X252584576Y-110152452D01*
X252594536Y-110038601D01*
X252639127Y-109966020D01*
X252680397Y-109931390D01*
X252759618Y-109900080D01*
X253063220Y-109926642D01*
X252077941Y-110261090D02*
X252002041Y-110254449D01*
X251929460Y-110209859D01*
X251894830Y-110168588D01*
X251863520Y-110089367D01*
X251838851Y-109934246D01*
X251855452Y-109744495D01*
X251906683Y-109596014D01*
X251951274Y-109523433D01*
X251992544Y-109488803D01*
X252071765Y-109457494D01*
X252147666Y-109464134D01*
X252220246Y-109508725D01*
X252254876Y-109549995D01*
X252286186Y-109629216D01*
X252310855Y-109784337D01*
X252294254Y-109974089D01*
X252243023Y-110122570D01*
X252198432Y-110195150D01*
X252157162Y-110229780D01*
X252077941Y-110261090D01*
X251123008Y-109374488D02*
X251578412Y-109414331D01*
X251350710Y-109394409D02*
X251280985Y-110191365D01*
X251366847Y-110084155D01*
X251449388Y-110014895D01*
X251528608Y-109983585D01*
X242558899Y-113724630D02*
X242791348Y-114127375D01*
X243014302Y-113764473D02*
X242944577Y-114561429D01*
X242640975Y-114534867D01*
X242568395Y-114490276D01*
X242533765Y-114449006D01*
X242502455Y-114369785D01*
X242512416Y-114255934D01*
X242557006Y-114183354D01*
X242598277Y-114148724D01*
X242677498Y-114117414D01*
X242981100Y-114143976D01*
X242251976Y-113736019D02*
X242141446Y-113688108D01*
X241951694Y-113671507D01*
X241872474Y-113702817D01*
X241831203Y-113737447D01*
X241786612Y-113810027D01*
X241779972Y-113885928D01*
X241811282Y-113965148D01*
X241845912Y-114006419D01*
X241918492Y-114051010D01*
X242066973Y-114102241D01*
X242139553Y-114146832D01*
X242174183Y-114188102D01*
X242205493Y-114267323D01*
X242198853Y-114343223D01*
X242154262Y-114415804D01*
X242112992Y-114450434D01*
X242033771Y-114481744D01*
X241844019Y-114465142D01*
X241733489Y-114417232D01*
X241502467Y-114435260D02*
X241047064Y-114395418D01*
X241344490Y-113618383D02*
X241274765Y-114415339D01*
X250661292Y-137380818D02*
X250591567Y-138177774D01*
X250287965Y-138151212D01*
X250215384Y-138106622D01*
X250180754Y-138065351D01*
X250149445Y-137986131D01*
X250159405Y-137872280D01*
X250203996Y-137799699D01*
X250245266Y-137765069D01*
X250324487Y-137733759D01*
X250628089Y-137760321D01*
X249642810Y-138094769D02*
X249566910Y-138088128D01*
X249494329Y-138043538D01*
X249459699Y-138002267D01*
X249428389Y-137923046D01*
X249403720Y-137767925D01*
X249420321Y-137578174D01*
X249471552Y-137429693D01*
X249516143Y-137357112D01*
X249557413Y-137322482D01*
X249636634Y-137291173D01*
X249712535Y-137297813D01*
X249785115Y-137342404D01*
X249819745Y-137383674D01*
X249851055Y-137462895D01*
X249875724Y-137618016D01*
X249859123Y-137807768D01*
X249807892Y-137956249D01*
X249763301Y-138028829D01*
X249722031Y-138063459D01*
X249642810Y-138094769D01*
X249067380Y-137241369D02*
X248915579Y-137228088D01*
X248836358Y-137259398D01*
X248795088Y-137294028D01*
X248709226Y-137401239D01*
X248657995Y-137549720D01*
X248631434Y-137853322D01*
X248662743Y-137932543D01*
X248697373Y-137973813D01*
X248769954Y-138018404D01*
X248921755Y-138031685D01*
X249000976Y-138000375D01*
X249042246Y-137965745D01*
X249086837Y-137893164D01*
X249103438Y-137703413D01*
X249072128Y-137624192D01*
X249037498Y-137582922D01*
X248964918Y-137538331D01*
X248813117Y-137525050D01*
X248733896Y-137556360D01*
X248692625Y-137590990D01*
X248648035Y-137663570D01*
X251104043Y-132320149D02*
X251034318Y-133117105D01*
X250730716Y-133090543D01*
X250658135Y-133045953D01*
X250623505Y-133004682D01*
X250592196Y-132925462D01*
X250602156Y-132811611D01*
X250646747Y-132739030D01*
X250688017Y-132704400D01*
X250767238Y-132673090D01*
X251070840Y-132699652D01*
X250085561Y-133034100D02*
X250009661Y-133027459D01*
X249937080Y-132982869D01*
X249902450Y-132941598D01*
X249871140Y-132862377D01*
X249846471Y-132707256D01*
X249863072Y-132517505D01*
X249914303Y-132369024D01*
X249958894Y-132296443D01*
X250000164Y-132261813D01*
X250079385Y-132230504D01*
X250155286Y-132237144D01*
X250227866Y-132281735D01*
X250262496Y-132323005D01*
X250293806Y-132402226D01*
X250318475Y-132557347D01*
X250301874Y-132747099D01*
X250250643Y-132895580D01*
X250206052Y-132968160D01*
X250164782Y-133002790D01*
X250085561Y-133034100D01*
X249554257Y-132987617D02*
X249022953Y-132941134D01*
X249434231Y-132174060D01*
X242426076Y-121362116D02*
X242356351Y-122159072D01*
X242052749Y-122132510D01*
X241980168Y-122087920D01*
X241945538Y-122046649D01*
X241914229Y-121967429D01*
X241924189Y-121853578D01*
X241968780Y-121780997D01*
X242010050Y-121746367D01*
X242089271Y-121715057D01*
X242392873Y-121741619D01*
X241603986Y-122016767D02*
X241562715Y-122051397D01*
X241483495Y-122082707D01*
X241293743Y-122066106D01*
X241221163Y-122021515D01*
X241186533Y-121980245D01*
X241155223Y-121901024D01*
X241161864Y-121825124D01*
X241209774Y-121714593D01*
X241705020Y-121299032D01*
X241211667Y-121255869D01*
X240648589Y-122009662D02*
X240572688Y-122003022D01*
X240500108Y-121958431D01*
X240465478Y-121917161D01*
X240434168Y-121837940D01*
X240409498Y-121682819D01*
X240426100Y-121493067D01*
X240477331Y-121344586D01*
X240521921Y-121272006D01*
X240563192Y-121237376D01*
X240642413Y-121206066D01*
X240718313Y-121212707D01*
X240790894Y-121257297D01*
X240825524Y-121298568D01*
X240856833Y-121377789D01*
X240881503Y-121532910D01*
X240864902Y-121722661D01*
X240813671Y-121871142D01*
X240769080Y-121943722D01*
X240727809Y-121978353D01*
X240648589Y-122009662D01*
X251768170Y-124729146D02*
X251698445Y-125526102D01*
X251394843Y-125499540D01*
X251322262Y-125454950D01*
X251287632Y-125413679D01*
X251256323Y-125334459D01*
X251266283Y-125220608D01*
X251310874Y-125148027D01*
X251352144Y-125113397D01*
X251431365Y-125082087D01*
X251734967Y-125108649D01*
X250749688Y-125443097D02*
X250673788Y-125436456D01*
X250601207Y-125391866D01*
X250566577Y-125350595D01*
X250535267Y-125271374D01*
X250510598Y-125116253D01*
X250527199Y-124926502D01*
X250578430Y-124778021D01*
X250623021Y-124705440D01*
X250664291Y-124670810D01*
X250743512Y-124639501D01*
X250819413Y-124646141D01*
X250891993Y-124690732D01*
X250926623Y-124732002D01*
X250957933Y-124811223D01*
X250982602Y-124966344D01*
X250966001Y-125156096D01*
X250914770Y-125304577D01*
X250870179Y-125377157D01*
X250828909Y-125411787D01*
X250749688Y-125443097D01*
X249824173Y-125094439D02*
X249870656Y-124563136D01*
X249987362Y-125414643D02*
X250226917Y-124861990D01*
X249733564Y-124818827D01*
X242893978Y-117106704D02*
X242698050Y-116286506D01*
X242362674Y-117060221D01*
X241704703Y-116276081D02*
X241745973Y-116241451D01*
X241863144Y-116213462D01*
X241939045Y-116220102D01*
X242049575Y-116268013D01*
X242118836Y-116350554D01*
X242150145Y-116429775D01*
X242174815Y-116584896D01*
X242164854Y-116698747D01*
X242113623Y-116847228D01*
X242069032Y-116919808D01*
X241986491Y-116989068D01*
X241869320Y-117017058D01*
X241793420Y-117010417D01*
X241682889Y-116962507D01*
X241648259Y-116921236D01*
X240907747Y-116206357D02*
X240949018Y-116171727D01*
X241066189Y-116143737D01*
X241142089Y-116150378D01*
X241252620Y-116198288D01*
X241321880Y-116280829D01*
X241353190Y-116360050D01*
X241377859Y-116515172D01*
X241367898Y-116629022D01*
X241316667Y-116777503D01*
X241272077Y-116850084D01*
X241189536Y-116919344D01*
X241072364Y-116947333D01*
X240996464Y-116940693D01*
X240885933Y-116892782D01*
X240851303Y-116851511D01*
X241319198Y-134013789D02*
X241249473Y-134810745D01*
X240945871Y-134784183D01*
X240873290Y-134739593D01*
X240838660Y-134698322D01*
X240807351Y-134619102D01*
X240817311Y-134505251D01*
X240861902Y-134432670D01*
X240903172Y-134398040D01*
X240982393Y-134366730D01*
X241285995Y-134393292D01*
X240104789Y-133907542D02*
X240560192Y-133947385D01*
X240332490Y-133927464D02*
X240262766Y-134724420D01*
X240348627Y-134617209D01*
X240431168Y-134547949D01*
X240510389Y-134516639D01*
X239351959Y-134644734D02*
X239503760Y-134658015D01*
X239582981Y-134626705D01*
X239624252Y-134592075D01*
X239710113Y-134484865D01*
X239761344Y-134336384D01*
X239787906Y-134032782D01*
X239756596Y-133953561D01*
X239721966Y-133912291D01*
X239649386Y-133867700D01*
X239497584Y-133854419D01*
X239418364Y-133885729D01*
X239377093Y-133920359D01*
X239332502Y-133992939D01*
X239315901Y-134182691D01*
X239347211Y-134261911D01*
X239381841Y-134303182D01*
X239454422Y-134347773D01*
X239606223Y-134361053D01*
X239685443Y-134329744D01*
X239726714Y-134295114D01*
X239771305Y-134222533D01*
X242647452Y-118831782D02*
X242577727Y-119628738D01*
X242274125Y-119602176D01*
X242201544Y-119557586D01*
X242166914Y-119516315D01*
X242135605Y-119437095D01*
X242145565Y-119323244D01*
X242190156Y-119250663D01*
X242231426Y-119216033D01*
X242310647Y-119184723D01*
X242614249Y-119211285D01*
X241825362Y-119486433D02*
X241784091Y-119521063D01*
X241704871Y-119552373D01*
X241515119Y-119535772D01*
X241442539Y-119491181D01*
X241407909Y-119449911D01*
X241376599Y-119370690D01*
X241383240Y-119294790D01*
X241431150Y-119184259D01*
X241926396Y-118768698D01*
X241433043Y-118725535D01*
X240674037Y-118659131D02*
X241129441Y-118698974D01*
X240901739Y-118679052D02*
X240832014Y-119476008D01*
X240917876Y-119368798D01*
X241000417Y-119299538D01*
X241079637Y-119268228D01*
X242204701Y-123892451D02*
X242134976Y-124689407D01*
X241831374Y-124662845D01*
X241758793Y-124618255D01*
X241724163Y-124576984D01*
X241692854Y-124497764D01*
X241702814Y-124383913D01*
X241747405Y-124311332D01*
X241788675Y-124276702D01*
X241867896Y-124245392D01*
X242171498Y-124271954D01*
X240990292Y-123786204D02*
X241445695Y-123826047D01*
X241217993Y-123806126D02*
X241148269Y-124603082D01*
X241234130Y-124495871D01*
X241316671Y-124426611D01*
X241395892Y-124395301D01*
X240610789Y-123753002D02*
X240458988Y-123739721D01*
X240379767Y-123771031D01*
X240338497Y-123805661D01*
X240252635Y-123912872D01*
X240201404Y-124061353D01*
X240174843Y-124364955D01*
X240206152Y-124444176D01*
X240240782Y-124485446D01*
X240313363Y-124530037D01*
X240465164Y-124543318D01*
X240544385Y-124512008D01*
X240585655Y-124477378D01*
X240630246Y-124404797D01*
X240646847Y-124215046D01*
X240615537Y-124135825D01*
X240580907Y-124094555D01*
X240508327Y-124049964D01*
X240356526Y-124036683D01*
X240277305Y-124067993D01*
X240236034Y-124102623D01*
X240191444Y-124175203D01*
X251989545Y-122198811D02*
X251919820Y-122995767D01*
X251616218Y-122969205D01*
X251543637Y-122924615D01*
X251509007Y-122883344D01*
X251477698Y-122804124D01*
X251487658Y-122690273D01*
X251532249Y-122617692D01*
X251573519Y-122583062D01*
X251652740Y-122551752D01*
X251956342Y-122578314D01*
X250971063Y-122912762D02*
X250895163Y-122906121D01*
X250822582Y-122861531D01*
X250787952Y-122820260D01*
X250756642Y-122741039D01*
X250731973Y-122585918D01*
X250748574Y-122396167D01*
X250799805Y-122247686D01*
X250844396Y-122175105D01*
X250885666Y-122140475D01*
X250964887Y-122109166D01*
X251040788Y-122115806D01*
X251113368Y-122160397D01*
X251147998Y-122201667D01*
X251179308Y-122280888D01*
X251203977Y-122436009D01*
X251187376Y-122625761D01*
X251136145Y-122774242D01*
X251091554Y-122846822D01*
X251050284Y-122881452D01*
X250971063Y-122912762D01*
X250439759Y-122866279D02*
X249946406Y-122823116D01*
X250238619Y-122542755D01*
X250124769Y-122532795D01*
X250052188Y-122488204D01*
X250017558Y-122446933D01*
X249986248Y-122367713D01*
X250002849Y-122177961D01*
X250047440Y-122105381D01*
X250088711Y-122070751D01*
X250167931Y-122039441D01*
X250395633Y-122059362D01*
X250468213Y-122103953D01*
X250502843Y-122145223D01*
X251325419Y-129789815D02*
X251255694Y-130586771D01*
X250952092Y-130560209D01*
X250879511Y-130515619D01*
X250844881Y-130474348D01*
X250813572Y-130395128D01*
X250823532Y-130281277D01*
X250868123Y-130208696D01*
X250909393Y-130174066D01*
X250988614Y-130142756D01*
X251292216Y-130169318D01*
X250306937Y-130503766D02*
X250231037Y-130497125D01*
X250158456Y-130452535D01*
X250123826Y-130411264D01*
X250092516Y-130332043D01*
X250067847Y-130176922D01*
X250084448Y-129987171D01*
X250135679Y-129838690D01*
X250180270Y-129766109D01*
X250221540Y-129731479D01*
X250300761Y-129700170D01*
X250376662Y-129706810D01*
X250449242Y-129751401D01*
X250483872Y-129792671D01*
X250515182Y-129871892D01*
X250539851Y-130027013D01*
X250523250Y-130216765D01*
X250472019Y-130365246D01*
X250427428Y-130437826D01*
X250386158Y-130472456D01*
X250306937Y-130503766D01*
X249358180Y-130420760D02*
X249509981Y-130434041D01*
X249589202Y-130402731D01*
X249630473Y-130368101D01*
X249716334Y-130260891D01*
X249767565Y-130112410D01*
X249794127Y-129808808D01*
X249762817Y-129729587D01*
X249728187Y-129688317D01*
X249655607Y-129643726D01*
X249503805Y-129630445D01*
X249424585Y-129661755D01*
X249383314Y-129696385D01*
X249338723Y-129768965D01*
X249322122Y-129958717D01*
X249353432Y-130037937D01*
X249388062Y-130079208D01*
X249460643Y-130123799D01*
X249612444Y-130137079D01*
X249691664Y-130105770D01*
X249732935Y-130071140D01*
X249777526Y-129998559D01*
X241540574Y-131483454D02*
X241470849Y-132280410D01*
X241167247Y-132253848D01*
X241094666Y-132209258D01*
X241060036Y-132167987D01*
X241028727Y-132088767D01*
X241038687Y-131974916D01*
X241083278Y-131902335D01*
X241124548Y-131867705D01*
X241203769Y-131836395D01*
X241507371Y-131862957D01*
X240326165Y-131377207D02*
X240781568Y-131417050D01*
X240553866Y-131397129D02*
X240484142Y-132194085D01*
X240570003Y-132086874D01*
X240652544Y-132017614D01*
X240731765Y-131986304D01*
X239596577Y-131848747D02*
X239643060Y-131317444D01*
X239759766Y-132168951D02*
X239999321Y-131616298D01*
X239505968Y-131573135D01*
X252875048Y-112077473D02*
X252805323Y-112874429D01*
X252501721Y-112847867D01*
X252429140Y-112803277D01*
X252394510Y-112762006D01*
X252363201Y-112682786D01*
X252373161Y-112568935D01*
X252417752Y-112496354D01*
X252459022Y-112461724D01*
X252538243Y-112430414D01*
X252841845Y-112456976D01*
X251856566Y-112791424D02*
X251780666Y-112784783D01*
X251708085Y-112740193D01*
X251673455Y-112698922D01*
X251642145Y-112619701D01*
X251617476Y-112464580D01*
X251634077Y-112274829D01*
X251685308Y-112126348D01*
X251729899Y-112053767D01*
X251771169Y-112019137D01*
X251850390Y-111987828D01*
X251926291Y-111994468D01*
X251998871Y-112039059D01*
X252033501Y-112080329D01*
X252064811Y-112159550D01*
X252089480Y-112314671D01*
X252072879Y-112504423D01*
X252021648Y-112652904D01*
X251977057Y-112725484D01*
X251935787Y-112760114D01*
X251856566Y-112791424D01*
X251097561Y-112725019D02*
X251021660Y-112718379D01*
X250949080Y-112673788D01*
X250914450Y-112632518D01*
X250883140Y-112553297D01*
X250858470Y-112398176D01*
X250875072Y-112208424D01*
X250926303Y-112059943D01*
X250970893Y-111987363D01*
X251012164Y-111952733D01*
X251091385Y-111921423D01*
X251167285Y-111928064D01*
X251239866Y-111972654D01*
X251274496Y-112013925D01*
X251305805Y-112093146D01*
X251330475Y-112248267D01*
X251313874Y-112438018D01*
X251262643Y-112586499D01*
X251218052Y-112659079D01*
X251176781Y-112693710D01*
X251097561Y-112725019D01*
X250882667Y-134850484D02*
X250812942Y-135647440D01*
X250509340Y-135620878D01*
X250436759Y-135576288D01*
X250402129Y-135535017D01*
X250370820Y-135455797D01*
X250380780Y-135341946D01*
X250425371Y-135269365D01*
X250466641Y-135234735D01*
X250545862Y-135203425D01*
X250849464Y-135229987D01*
X249864185Y-135564435D02*
X249788285Y-135557794D01*
X249715704Y-135513204D01*
X249681074Y-135471933D01*
X249649764Y-135392712D01*
X249625095Y-135237591D01*
X249641696Y-135047840D01*
X249692927Y-134899359D01*
X249737518Y-134826778D01*
X249778788Y-134792148D01*
X249858009Y-134760839D01*
X249933910Y-134767479D01*
X250006490Y-134812070D01*
X250041120Y-134853340D01*
X250072430Y-134932561D01*
X250097099Y-135087682D01*
X250080498Y-135277434D01*
X250029267Y-135425915D01*
X249984676Y-135498495D01*
X249943406Y-135533125D01*
X249864185Y-135564435D01*
X249173012Y-135159798D02*
X249245592Y-135204389D01*
X249280222Y-135245659D01*
X249311532Y-135324880D01*
X249308212Y-135362830D01*
X249263621Y-135435411D01*
X249222351Y-135470041D01*
X249143130Y-135501351D01*
X248991329Y-135488070D01*
X248918748Y-135443479D01*
X248884118Y-135402209D01*
X248852809Y-135322988D01*
X248856129Y-135285037D01*
X248900720Y-135212457D01*
X248941990Y-135177827D01*
X249021211Y-135146517D01*
X249173012Y-135159798D01*
X249252233Y-135128488D01*
X249293503Y-135093858D01*
X249338094Y-135021278D01*
X249351375Y-134869477D01*
X249320065Y-134790256D01*
X249285435Y-134748986D01*
X249212855Y-134704395D01*
X249061053Y-134691114D01*
X248981833Y-134722424D01*
X248940562Y-134757054D01*
X248895971Y-134829634D01*
X248882691Y-134981435D01*
X248914000Y-135060656D01*
X248948630Y-135101927D01*
X249021211Y-135146517D01*
%TO.C,G\u002A\u002A\u002A*%
G36*
X194022678Y-134131685D02*
G01*
X194066626Y-134187896D01*
X194096492Y-134313131D01*
X194120257Y-134533202D01*
X194132344Y-134686842D01*
X194165568Y-134986308D01*
X194215388Y-135267138D01*
X194272202Y-135477454D01*
X194284465Y-135508600D01*
X194344509Y-135681726D01*
X194360865Y-135805464D01*
X194354853Y-135826100D01*
X194259032Y-135891569D01*
X194144604Y-135844228D01*
X194037640Y-135697220D01*
X194019429Y-135656994D01*
X193884776Y-135234398D01*
X193810076Y-134784232D01*
X193802714Y-134443534D01*
X193823889Y-134245119D01*
X193864705Y-134147807D01*
X193940571Y-134119087D01*
X193956666Y-134118684D01*
X194022678Y-134131685D01*
G37*
G36*
X193312173Y-134811942D02*
G01*
X193478986Y-134973180D01*
X193639370Y-135236281D01*
X193746740Y-135488947D01*
X193856921Y-135789737D01*
X193673460Y-135556677D01*
X193435838Y-135275614D01*
X193249945Y-135096548D01*
X193122048Y-135019459D01*
X193058419Y-135044329D01*
X193065324Y-135171139D01*
X193149035Y-135399871D01*
X193224456Y-135558012D01*
X193306155Y-135737694D01*
X193343518Y-135858250D01*
X193335357Y-135890000D01*
X193277235Y-135835102D01*
X193184781Y-135692795D01*
X193100901Y-135538120D01*
X192971656Y-135241879D01*
X192928541Y-135027267D01*
X192969032Y-134876060D01*
X193003333Y-134833895D01*
X193149949Y-134762278D01*
X193312173Y-134811942D01*
G37*
G36*
X191941273Y-135409091D02*
G01*
X192208759Y-135474352D01*
X192504342Y-135590726D01*
X192806432Y-135753854D01*
X192954548Y-135852574D01*
X193225178Y-136051971D01*
X193396640Y-136196406D01*
X193482523Y-136302266D01*
X193496412Y-136385937D01*
X193456666Y-136458158D01*
X193379960Y-136534258D01*
X193305982Y-136541749D01*
X193203520Y-136470062D01*
X193054163Y-136321884D01*
X192810604Y-136117287D01*
X192508595Y-135931335D01*
X192191587Y-135785584D01*
X191903031Y-135701590D01*
X191779351Y-135689474D01*
X191607847Y-135676426D01*
X191534421Y-135626248D01*
X191523333Y-135563585D01*
X191576968Y-135449348D01*
X191723479Y-135399303D01*
X191941273Y-135409091D01*
G37*
G36*
X199051794Y-141479476D02*
G01*
X199038536Y-141586738D01*
X198945964Y-141733454D01*
X198841809Y-141842715D01*
X198670910Y-141986096D01*
X198571397Y-142031115D01*
X198528353Y-141981312D01*
X198523333Y-141918295D01*
X198570966Y-141795664D01*
X198686188Y-141645967D01*
X198827486Y-141513166D01*
X198953346Y-141441222D01*
X198976981Y-141437895D01*
X199051794Y-141479476D01*
G37*
G36*
X199945212Y-142681941D02*
G01*
X199929645Y-142794546D01*
X199819158Y-142963776D01*
X199784561Y-143004682D01*
X199617282Y-143166016D01*
X199485127Y-143237016D01*
X199405447Y-143211603D01*
X199390000Y-143142950D01*
X199435075Y-143043853D01*
X199544741Y-142903957D01*
X199680655Y-142763976D01*
X199804479Y-142664627D01*
X199862619Y-142641053D01*
X199945212Y-142681941D01*
G37*
G36*
X197978838Y-142811375D02*
G01*
X197956943Y-142948506D01*
X197858185Y-143056263D01*
X197725497Y-143111044D01*
X197601811Y-143089244D01*
X197557301Y-143043135D01*
X197581868Y-142970548D01*
X197693111Y-142871179D01*
X197736700Y-142842615D01*
X197881650Y-142762246D01*
X197951640Y-142755365D01*
X197978838Y-142811375D01*
G37*
G36*
X198517753Y-144475753D02*
G01*
X198555186Y-144553330D01*
X198513725Y-144664315D01*
X198399611Y-144825836D01*
X198261791Y-144952008D01*
X198128657Y-145026790D01*
X198028600Y-145034140D01*
X197990000Y-144960218D01*
X198034798Y-144858044D01*
X198145248Y-144725248D01*
X198285431Y-144594803D01*
X198419428Y-144499680D01*
X198511320Y-144472853D01*
X198517753Y-144475753D01*
G37*
G36*
X202672510Y-146393788D02*
G01*
X202690000Y-146446398D01*
X202643849Y-146545893D01*
X202548161Y-146568528D01*
X202502500Y-146541568D01*
X202454342Y-146434622D01*
X202491858Y-146347152D01*
X202573333Y-146330093D01*
X202672510Y-146393788D01*
G37*
G36*
X206523333Y-152099211D02*
G01*
X206490000Y-152132632D01*
X206456666Y-152099211D01*
X206490000Y-152065790D01*
X206523333Y-152099211D01*
G37*
G36*
X205110473Y-151577733D02*
G01*
X205266061Y-151621998D01*
X205468273Y-151689252D01*
X205678632Y-151765898D01*
X205858657Y-151838342D01*
X205969869Y-151892987D01*
X205983677Y-151903485D01*
X205944565Y-151919488D01*
X205807094Y-151923068D01*
X205687316Y-151918275D01*
X205356666Y-151898684D01*
X205377475Y-152349869D01*
X205383570Y-152575697D01*
X205379695Y-152737530D01*
X205366698Y-152801022D01*
X205366323Y-152801053D01*
X205326147Y-152744594D01*
X205261309Y-152601757D01*
X205228147Y-152516974D01*
X205156948Y-152296858D01*
X205095094Y-152054186D01*
X205050106Y-151826805D01*
X205029503Y-151652561D01*
X205039990Y-151570053D01*
X205110473Y-151577733D01*
G37*
G36*
X199281389Y-151475661D02*
G01*
X198933213Y-151012886D01*
X198573646Y-150534084D01*
X198530774Y-150476894D01*
X198858865Y-150476894D01*
X199136022Y-150873048D01*
X199284310Y-151078026D01*
X199388368Y-151192425D01*
X199477092Y-151237447D01*
X199579382Y-151234296D01*
X199618256Y-151226875D01*
X199761785Y-151181265D01*
X199990643Y-151090776D01*
X200270521Y-150969544D01*
X200503287Y-150862207D01*
X201056920Y-150576826D01*
X201663304Y-150224154D01*
X202301559Y-149819438D01*
X202950803Y-149377926D01*
X203590153Y-148914866D01*
X204198729Y-148445504D01*
X204755647Y-147985090D01*
X205240027Y-147548869D01*
X205630986Y-147152091D01*
X205715654Y-147056225D01*
X205946005Y-146778122D01*
X206089725Y-146567929D01*
X206153285Y-146397866D01*
X206143162Y-146240151D01*
X206065827Y-146067001D01*
X205978748Y-145927172D01*
X205855062Y-145747997D01*
X205758295Y-145624115D01*
X205715525Y-145585722D01*
X205658591Y-145634524D01*
X205557957Y-145763319D01*
X205487190Y-145866184D01*
X205237857Y-146187640D01*
X204887467Y-146557480D01*
X204452639Y-146963787D01*
X203949992Y-147394647D01*
X203396144Y-147838143D01*
X202807714Y-148282359D01*
X202201320Y-148715381D01*
X201593581Y-149125293D01*
X201001115Y-149500178D01*
X200440541Y-149828121D01*
X199928478Y-150097206D01*
X199481543Y-150295518D01*
X199164270Y-150399790D01*
X198858865Y-150476894D01*
X198530774Y-150476894D01*
X198214082Y-150054439D01*
X197865917Y-149589135D01*
X197540547Y-149153353D01*
X197249367Y-148762277D01*
X197003773Y-148431090D01*
X196815160Y-148174975D01*
X196728019Y-148055263D01*
X196524983Y-147774387D01*
X196311982Y-147480396D01*
X196128510Y-147227786D01*
X196094753Y-147181422D01*
X195949190Y-146979998D01*
X195738439Y-146686077D01*
X195637348Y-146544531D01*
X198750890Y-146544531D01*
X198816089Y-146724375D01*
X198863896Y-146799601D01*
X199029543Y-147012825D01*
X199152975Y-147107970D01*
X199245936Y-147089209D01*
X199319841Y-146961576D01*
X199398715Y-146858685D01*
X199550931Y-146719077D01*
X201588381Y-146719077D01*
X201664853Y-146960820D01*
X201865007Y-147169761D01*
X201891619Y-147188011D01*
X202108640Y-147296634D01*
X202275460Y-147309879D01*
X202358779Y-147249731D01*
X202343508Y-147163134D01*
X202250351Y-147039665D01*
X202224712Y-147014638D01*
X202106649Y-146861166D01*
X202072237Y-146718119D01*
X202127499Y-146621440D01*
X202156666Y-146608529D01*
X202230241Y-146646295D01*
X202343844Y-146765594D01*
X202413550Y-146857218D01*
X202531846Y-147014755D01*
X202612314Y-147078311D01*
X202689485Y-147066190D01*
X202744734Y-147032769D01*
X202923667Y-146845077D01*
X202996516Y-146614626D01*
X202966881Y-146374672D01*
X202838362Y-146158468D01*
X202633826Y-146008135D01*
X202373408Y-145935254D01*
X202127515Y-145981983D01*
X201876804Y-146153180D01*
X201812737Y-146214361D01*
X201637155Y-146463825D01*
X201588381Y-146719077D01*
X199550931Y-146719077D01*
X199563870Y-146707210D01*
X199788871Y-146529977D01*
X199946828Y-146417632D01*
X200790000Y-146417632D01*
X200823333Y-146451053D01*
X200856666Y-146417632D01*
X200823333Y-146384211D01*
X200790000Y-146417632D01*
X199946828Y-146417632D01*
X199964264Y-146405231D01*
X200157061Y-146269686D01*
X200934079Y-146269686D01*
X200950300Y-146307041D01*
X201017426Y-146378799D01*
X201056017Y-146364079D01*
X201056666Y-146354734D01*
X201009314Y-146298198D01*
X200979699Y-146277565D01*
X200934079Y-146269686D01*
X200157061Y-146269686D01*
X200207593Y-146234160D01*
X200406388Y-146084571D01*
X200536296Y-145975391D01*
X200573826Y-145931542D01*
X200543337Y-145840382D01*
X200478116Y-145765972D01*
X200950537Y-145765972D01*
X200981742Y-145920980D01*
X201079093Y-146112262D01*
X201083179Y-146118498D01*
X201218041Y-146277824D01*
X201354430Y-146370529D01*
X201464630Y-146386218D01*
X201520923Y-146314495D01*
X201523333Y-146283583D01*
X201574344Y-146199507D01*
X201709652Y-146066558D01*
X201902671Y-145910101D01*
X201955492Y-145871250D01*
X202184881Y-145695713D01*
X202302821Y-145569528D01*
X202312630Y-145474002D01*
X202217627Y-145390439D01*
X202054456Y-145313819D01*
X201993700Y-145281316D01*
X202656666Y-145281316D01*
X202690000Y-145314737D01*
X202723333Y-145281316D01*
X202690000Y-145247895D01*
X202656666Y-145281316D01*
X201993700Y-145281316D01*
X201917906Y-145240768D01*
X201856887Y-145175818D01*
X201856666Y-145172943D01*
X201805699Y-145115866D01*
X201790000Y-145114211D01*
X201730786Y-145168320D01*
X201723333Y-145214055D01*
X201670325Y-145315052D01*
X201539070Y-145441396D01*
X201371222Y-145563190D01*
X201208434Y-145650537D01*
X201092360Y-145673544D01*
X201085911Y-145671546D01*
X200985315Y-145673929D01*
X200950537Y-145765972D01*
X200478116Y-145765972D01*
X200434176Y-145715842D01*
X200282704Y-145592138D01*
X200125280Y-145503488D01*
X200114554Y-145499321D01*
X200008257Y-145490004D01*
X199937445Y-145580825D01*
X199916975Y-145633005D01*
X199825208Y-145770673D01*
X199654763Y-145939449D01*
X199441488Y-146112079D01*
X199221229Y-146261310D01*
X199029831Y-146359891D01*
X198928892Y-146384211D01*
X198789206Y-146426575D01*
X198750890Y-146544531D01*
X195637348Y-146544531D01*
X195474336Y-146316283D01*
X195168716Y-145887241D01*
X195107232Y-145800752D01*
X198197854Y-145800752D01*
X198280067Y-145979879D01*
X198392377Y-146132021D01*
X198560659Y-146294998D01*
X198693489Y-146335595D01*
X198785080Y-146253042D01*
X198808363Y-146187337D01*
X198873683Y-146101859D01*
X199026295Y-145963539D01*
X199242033Y-145792901D01*
X199448266Y-145643833D01*
X199693187Y-145467040D01*
X199890976Y-145311670D01*
X200019179Y-145196194D01*
X200056666Y-145143331D01*
X200006629Y-145067934D01*
X199884151Y-144955139D01*
X199758870Y-144858747D01*
X200337662Y-144858747D01*
X200352812Y-145064288D01*
X200435335Y-145233536D01*
X200627098Y-145464812D01*
X200835714Y-145577637D01*
X201046210Y-145567358D01*
X201201417Y-145471482D01*
X201289116Y-145329206D01*
X201322459Y-145096195D01*
X201323333Y-145037009D01*
X201333264Y-144834691D01*
X201369443Y-144736378D01*
X201431666Y-144713158D01*
X201504135Y-144742789D01*
X201510597Y-144853210D01*
X201500516Y-144911093D01*
X201496022Y-145085940D01*
X201561923Y-145156744D01*
X201683658Y-145112864D01*
X201727534Y-145076978D01*
X201829236Y-144951965D01*
X201837130Y-144863553D01*
X202172606Y-144863553D01*
X202212250Y-144927545D01*
X202332392Y-145010656D01*
X202487089Y-145089581D01*
X202630398Y-145141016D01*
X202716377Y-145141654D01*
X202718040Y-145140231D01*
X202696626Y-145079703D01*
X202607413Y-144966058D01*
X202589753Y-144946842D01*
X202430902Y-144822303D01*
X202285352Y-144782662D01*
X202186449Y-144834578D01*
X202172606Y-144863553D01*
X201837130Y-144863553D01*
X201840986Y-144820359D01*
X201758710Y-144651725D01*
X201651064Y-144505540D01*
X201451210Y-144311116D01*
X201258169Y-144248455D01*
X201063981Y-144316460D01*
X200953636Y-144409330D01*
X200828415Y-144593379D01*
X200790049Y-144832387D01*
X200790000Y-144843804D01*
X200775369Y-145012350D01*
X200738774Y-145106841D01*
X200723333Y-145114211D01*
X200681586Y-145054912D01*
X200658366Y-144906775D01*
X200656666Y-144846842D01*
X200646198Y-144658142D01*
X200604080Y-144590294D01*
X200514238Y-144631383D01*
X200445249Y-144690097D01*
X200337662Y-144858747D01*
X199758870Y-144858747D01*
X199730682Y-144837059D01*
X199587673Y-144745809D01*
X199501433Y-144713158D01*
X199444931Y-144768078D01*
X199390568Y-144878764D01*
X199297845Y-145012061D01*
X199125250Y-145178117D01*
X198908022Y-145350866D01*
X198681399Y-145504242D01*
X198480620Y-145612181D01*
X198349332Y-145648947D01*
X198220732Y-145688080D01*
X198197854Y-145800752D01*
X195107232Y-145800752D01*
X194975558Y-145615526D01*
X195123333Y-145615526D01*
X195156666Y-145648947D01*
X195190000Y-145615526D01*
X195156666Y-145582105D01*
X195123333Y-145615526D01*
X194975558Y-145615526D01*
X194833416Y-145415575D01*
X194480271Y-144917908D01*
X194347851Y-144730961D01*
X197523333Y-144730961D01*
X197579414Y-144983161D01*
X197724630Y-145214459D01*
X197924437Y-145371976D01*
X197949207Y-145382911D01*
X198192841Y-145437088D01*
X198450068Y-145426797D01*
X198660769Y-145356285D01*
X198698864Y-145329961D01*
X198899231Y-145097247D01*
X198986957Y-144833427D01*
X198959272Y-144566818D01*
X198813408Y-144325734D01*
X198798542Y-144310387D01*
X198705420Y-144241701D01*
X199735074Y-144241701D01*
X199838481Y-144429766D01*
X199886969Y-144482249D01*
X200055900Y-144598123D01*
X200236545Y-144644172D01*
X200383884Y-144613411D01*
X200431202Y-144566708D01*
X200431876Y-144481302D01*
X200401803Y-144460875D01*
X200326784Y-144387452D01*
X200362199Y-144267218D01*
X200501468Y-144117447D01*
X200546292Y-144081560D01*
X200736622Y-143952793D01*
X200857860Y-143918747D01*
X200931144Y-143975720D01*
X200947441Y-144011316D01*
X201017500Y-144101671D01*
X201132844Y-144079794D01*
X201180216Y-144052214D01*
X201235841Y-143981512D01*
X201201080Y-143865383D01*
X201191569Y-143847151D01*
X201148881Y-143711108D01*
X201209305Y-143592847D01*
X201224550Y-143575494D01*
X201296303Y-143465747D01*
X201275908Y-143378726D01*
X201150422Y-143300479D01*
X200906902Y-143217053D01*
X200886487Y-143211063D01*
X200623594Y-143148501D01*
X200468458Y-143149161D01*
X200410131Y-143215380D01*
X200423474Y-143309920D01*
X200415438Y-143408500D01*
X200317517Y-143522471D01*
X200160519Y-143641027D01*
X199892875Y-143857229D01*
X199752133Y-144054155D01*
X199735074Y-144241701D01*
X198705420Y-144241701D01*
X198532761Y-144114349D01*
X198260979Y-144051757D01*
X197985337Y-144122622D01*
X197731114Y-144304817D01*
X197579192Y-144487906D01*
X197524910Y-144681630D01*
X197523333Y-144730961D01*
X194347851Y-144730961D01*
X194121118Y-144410867D01*
X193956666Y-144178374D01*
X193713812Y-143832678D01*
X193450359Y-143453925D01*
X193187265Y-143072691D01*
X196274796Y-143072691D01*
X196326530Y-143254119D01*
X196446904Y-143443484D01*
X196583216Y-143594007D01*
X196712284Y-143689195D01*
X196810925Y-143712554D01*
X196855958Y-143647593D01*
X196856666Y-143631282D01*
X196904842Y-143517767D01*
X197017898Y-143383180D01*
X197148625Y-143276021D01*
X197234954Y-143242632D01*
X197313524Y-143284675D01*
X197289070Y-143410019D01*
X197161903Y-143617484D01*
X197121478Y-143672302D01*
X196975251Y-143901249D01*
X196933930Y-144080910D01*
X196995924Y-144242436D01*
X197086969Y-144348565D01*
X197244974Y-144471074D01*
X197374390Y-144508235D01*
X197448478Y-144455943D01*
X197456666Y-144405307D01*
X197497336Y-144286785D01*
X197597723Y-144131178D01*
X197623333Y-144099389D01*
X197733943Y-143924708D01*
X197788720Y-143754126D01*
X197790000Y-143731668D01*
X197812013Y-143610665D01*
X197887013Y-143599902D01*
X197890578Y-143601237D01*
X198071847Y-143607179D01*
X198256332Y-143516954D01*
X198409960Y-143362741D01*
X198498656Y-143176723D01*
X198499775Y-143025882D01*
X198455803Y-142928862D01*
X198919651Y-142928862D01*
X198964815Y-143169325D01*
X199065874Y-143339450D01*
X199303676Y-143551400D01*
X199574687Y-143643155D01*
X199854256Y-143612987D01*
X200117728Y-143459167D01*
X200163333Y-143416421D01*
X200344477Y-143163343D01*
X200393328Y-142903455D01*
X200309543Y-142642298D01*
X200219314Y-142514770D01*
X200003092Y-142336014D01*
X199763111Y-142260831D01*
X199519738Y-142274661D01*
X199293338Y-142362940D01*
X199104280Y-142511108D01*
X198972928Y-142704602D01*
X198919651Y-142928862D01*
X198455803Y-142928862D01*
X198440014Y-142894025D01*
X198323697Y-142707176D01*
X198173349Y-142494758D01*
X198011499Y-142286199D01*
X197860672Y-142110924D01*
X197743396Y-141998358D01*
X197693458Y-141972632D01*
X197611530Y-142029442D01*
X197564135Y-142133697D01*
X197484321Y-142261637D01*
X197319353Y-142423381D01*
X197103819Y-142593922D01*
X196872304Y-142748253D01*
X196659393Y-142861367D01*
X196499672Y-142908259D01*
X196492628Y-142908421D01*
X196331695Y-142951740D01*
X196274796Y-143072691D01*
X193187265Y-143072691D01*
X193181121Y-143063788D01*
X192920912Y-142683938D01*
X192684546Y-142336051D01*
X192486837Y-142041797D01*
X192342601Y-141822851D01*
X192290000Y-141740071D01*
X192200699Y-141604365D01*
X192167895Y-141556608D01*
X192550754Y-141556608D01*
X192555428Y-141663521D01*
X192617859Y-141795760D01*
X192731839Y-141971082D01*
X192857588Y-142147621D01*
X192955959Y-142268800D01*
X192998999Y-142305119D01*
X193060374Y-142256101D01*
X193152321Y-142134635D01*
X193159895Y-142123026D01*
X193304894Y-141933305D01*
X193530086Y-141680999D01*
X193641862Y-141565401D01*
X198036229Y-141565401D01*
X198041261Y-141796324D01*
X198143117Y-142038265D01*
X198318509Y-142244207D01*
X198402654Y-142305129D01*
X198671374Y-142421356D01*
X198925249Y-142417484D01*
X199125515Y-142339132D01*
X199332460Y-142165549D01*
X199476215Y-141918068D01*
X199523333Y-141680290D01*
X199466501Y-141483458D01*
X199319438Y-141281235D01*
X199117294Y-141113711D01*
X198960201Y-141038012D01*
X198685053Y-141011546D01*
X198418016Y-141095369D01*
X198194952Y-141269012D01*
X198051721Y-141512006D01*
X198036229Y-141565401D01*
X193641862Y-141565401D01*
X193812817Y-141388601D01*
X194130434Y-141078605D01*
X194460285Y-140773506D01*
X194779716Y-140495797D01*
X194787185Y-140489653D01*
X197148377Y-140489653D01*
X197181405Y-140655809D01*
X197259217Y-140807033D01*
X197442428Y-141067772D01*
X197602627Y-141225076D01*
X197730489Y-141274107D01*
X197816691Y-141210027D01*
X197845179Y-141111004D01*
X197903929Y-141016006D01*
X198041534Y-140871275D01*
X198227001Y-140702847D01*
X198429336Y-140536761D01*
X198617548Y-140399054D01*
X198760643Y-140315763D01*
X198807454Y-140302588D01*
X198830228Y-140360031D01*
X198824726Y-140504479D01*
X198817167Y-140559121D01*
X198816002Y-140767843D01*
X198886500Y-140867460D01*
X199014842Y-140850752D01*
X199160368Y-140738418D01*
X199293273Y-140548473D01*
X199303595Y-140354994D01*
X199190370Y-140139354D01*
X199125236Y-140059592D01*
X198958708Y-139846797D01*
X198800713Y-139610526D01*
X198775236Y-139567312D01*
X198649910Y-139371771D01*
X198535944Y-139278916D01*
X198392011Y-139268629D01*
X198234939Y-139304264D01*
X198040810Y-139391980D01*
X197945268Y-139502501D01*
X197950771Y-139608376D01*
X198059778Y-139682154D01*
X198199490Y-139700000D01*
X198336433Y-139717751D01*
X198367118Y-139774866D01*
X198287996Y-139877138D01*
X198095514Y-140030359D01*
X197924148Y-140149147D01*
X197666377Y-140308803D01*
X197483406Y-140387392D01*
X197352193Y-140394664D01*
X197346771Y-140393379D01*
X197204611Y-140396922D01*
X197148377Y-140489653D01*
X194787185Y-140489653D01*
X194890000Y-140405079D01*
X195580199Y-139866121D01*
X196274137Y-139359341D01*
X196956341Y-138894351D01*
X197611333Y-138480762D01*
X198223641Y-138128186D01*
X198777789Y-137846233D01*
X199258301Y-137644517D01*
X199423333Y-137589387D01*
X199635343Y-137523489D01*
X199789496Y-137472935D01*
X199847977Y-137450679D01*
X199824824Y-137392815D01*
X199740054Y-137258716D01*
X199625633Y-137096299D01*
X199493973Y-136933992D01*
X199363689Y-136826583D01*
X199216318Y-136775828D01*
X199033398Y-136783480D01*
X198796469Y-136851295D01*
X198487067Y-136981027D01*
X198086732Y-137174431D01*
X197919908Y-137258405D01*
X197430156Y-137523476D01*
X196903475Y-137838805D01*
X196353487Y-138193720D01*
X195793817Y-138577548D01*
X195238090Y-138979618D01*
X194699929Y-139389256D01*
X194192959Y-139795789D01*
X193730803Y-140188546D01*
X193327086Y-140556854D01*
X192995432Y-140890041D01*
X192749465Y-141177433D01*
X192602808Y-141408359D01*
X192592621Y-141431550D01*
X192550754Y-141556608D01*
X192167895Y-141556608D01*
X192052663Y-141388849D01*
X191865575Y-141121828D01*
X191659116Y-140831611D01*
X191633545Y-140795974D01*
X191421521Y-140496810D01*
X191222650Y-140209111D01*
X191058239Y-139964155D01*
X191004617Y-139879788D01*
X191304152Y-139879788D01*
X191593533Y-140291210D01*
X191736684Y-140488062D01*
X191851078Y-140633064D01*
X191915306Y-140699334D01*
X191919790Y-140700834D01*
X191972980Y-140647860D01*
X192066702Y-140515195D01*
X192123333Y-140425509D01*
X192331581Y-140146232D01*
X192641491Y-139815310D01*
X193037161Y-139444165D01*
X193502689Y-139044219D01*
X194022173Y-138626894D01*
X194579711Y-138203613D01*
X195159403Y-137785796D01*
X195745344Y-137384866D01*
X196321635Y-137012246D01*
X196872373Y-136679356D01*
X197381656Y-136397620D01*
X197833583Y-136178458D01*
X198212251Y-136033293D01*
X198256666Y-136020053D01*
X198448188Y-135958548D01*
X198584736Y-135902430D01*
X198614666Y-135884079D01*
X198604573Y-135811607D01*
X198525716Y-135664596D01*
X198394083Y-135471712D01*
X198357847Y-135423643D01*
X198194299Y-135216634D01*
X198080432Y-135097928D01*
X197987780Y-135047513D01*
X197887875Y-135045377D01*
X197833180Y-135054793D01*
X197544552Y-135142891D01*
X197166511Y-135307342D01*
X196712869Y-135539888D01*
X196197440Y-135832270D01*
X195634038Y-136176227D01*
X195036474Y-136563499D01*
X194418563Y-136985828D01*
X193794118Y-137434954D01*
X193556666Y-137611925D01*
X193180201Y-137908072D01*
X192796557Y-138232501D01*
X192424529Y-138567198D01*
X192082914Y-138894147D01*
X191790508Y-139195337D01*
X191566106Y-139452752D01*
X191428504Y-139648378D01*
X191424854Y-139655067D01*
X191304152Y-139879788D01*
X191004617Y-139879788D01*
X190949596Y-139793220D01*
X190943877Y-139783553D01*
X190777330Y-139499474D01*
X190949294Y-139205267D01*
X191085964Y-139021940D01*
X191291685Y-138803635D01*
X191526375Y-138592181D01*
X191572295Y-138555155D01*
X191780341Y-138389937D01*
X191946142Y-138256298D01*
X192043290Y-138175601D01*
X192056666Y-138163311D01*
X192121607Y-138105391D01*
X192259717Y-137988189D01*
X192440000Y-137837989D01*
X192616015Y-137684995D01*
X192741707Y-137561505D01*
X192789998Y-137494132D01*
X192790000Y-137493968D01*
X192735030Y-137445046D01*
X192581893Y-137341052D01*
X192348246Y-137193137D01*
X192051744Y-137012453D01*
X191710045Y-136810151D01*
X191673333Y-136788732D01*
X191321826Y-136583119D01*
X191007170Y-136397524D01*
X190748683Y-136243463D01*
X190565680Y-136132454D01*
X190477478Y-136076015D01*
X190475384Y-136074430D01*
X190462185Y-136041864D01*
X190960892Y-136041864D01*
X191014327Y-136090285D01*
X191165475Y-136193821D01*
X191396407Y-136341042D01*
X191689196Y-136520516D01*
X192023333Y-136719297D01*
X193090000Y-137345130D01*
X193356666Y-137147054D01*
X193515139Y-137031393D01*
X193751295Y-136861565D01*
X194033629Y-136660128D01*
X194330634Y-136449638D01*
X194340000Y-136443025D01*
X194616732Y-136239784D01*
X194840885Y-136059816D01*
X194993494Y-135919358D01*
X195055589Y-135834648D01*
X195056091Y-135829983D01*
X195043672Y-135735209D01*
X195009413Y-135530579D01*
X194957283Y-135237390D01*
X194891252Y-134876942D01*
X194815290Y-134470533D01*
X194733366Y-134039463D01*
X194649451Y-133605029D01*
X194567513Y-133188531D01*
X194514657Y-132924975D01*
X194435373Y-132533371D01*
X194061722Y-132560470D01*
X193579814Y-132660318D01*
X193139155Y-132881623D01*
X192751235Y-133215531D01*
X192427544Y-133653186D01*
X192282618Y-133931481D01*
X192108097Y-134258218D01*
X191925955Y-134469961D01*
X191714344Y-134584638D01*
X191451418Y-134620177D01*
X191443310Y-134620207D01*
X191223333Y-134620414D01*
X191209692Y-135049567D01*
X191183501Y-135324891D01*
X191130098Y-135588080D01*
X191080584Y-135734492D01*
X191007588Y-135905485D01*
X190964950Y-136023180D01*
X190960892Y-136041864D01*
X190462185Y-136041864D01*
X190447564Y-136005791D01*
X190501505Y-135887512D01*
X190607295Y-135744738D01*
X190707749Y-135609899D01*
X190773381Y-135483536D01*
X190814314Y-135329096D01*
X190840668Y-135110029D01*
X190859999Y-134832138D01*
X190883577Y-134534978D01*
X190914006Y-134274924D01*
X190946364Y-134090230D01*
X190962366Y-134036558D01*
X191015788Y-133939160D01*
X191087987Y-133928155D01*
X191215232Y-133986426D01*
X191483984Y-134076097D01*
X191703190Y-134042170D01*
X191868920Y-133886246D01*
X191957574Y-133684211D01*
X192056861Y-133461420D01*
X192221682Y-133194971D01*
X192419025Y-132931254D01*
X192615880Y-132716661D01*
X192693461Y-132650043D01*
X193202339Y-132343733D01*
X193769319Y-132156020D01*
X194184217Y-132097947D01*
X194486008Y-132085721D01*
X194671043Y-132099932D01*
X194753479Y-132141687D01*
X194753946Y-132142429D01*
X194780161Y-132227781D01*
X194827885Y-132425642D01*
X194893025Y-132717325D01*
X194971487Y-133084145D01*
X195059176Y-133507413D01*
X195132228Y-133869145D01*
X195223289Y-134320381D01*
X195307120Y-134726856D01*
X195379870Y-135070604D01*
X195437686Y-135333661D01*
X195476716Y-135498061D01*
X195491910Y-135546565D01*
X195532783Y-135553425D01*
X195618911Y-135521441D01*
X195765716Y-135442110D01*
X195988625Y-135306928D01*
X196303059Y-135107393D01*
X196390000Y-135051470D01*
X196865569Y-134757219D01*
X197253806Y-134545057D01*
X197567554Y-134408850D01*
X197819656Y-134342464D01*
X197890355Y-134334905D01*
X198140967Y-134319211D01*
X199111740Y-135589211D01*
X199853174Y-136566725D01*
X200656132Y-137639486D01*
X201508570Y-138791245D01*
X202398447Y-140005755D01*
X203068690Y-140928037D01*
X203301349Y-141251141D01*
X203581065Y-141642695D01*
X203899866Y-142091311D01*
X204249784Y-142585597D01*
X204622847Y-143114165D01*
X205011087Y-143665624D01*
X205406532Y-144228584D01*
X205801212Y-144791656D01*
X206187158Y-145343450D01*
X206556399Y-145872575D01*
X206900965Y-146367643D01*
X207212886Y-146817262D01*
X207484192Y-147210044D01*
X207706913Y-147534598D01*
X207873078Y-147779535D01*
X207974717Y-147933464D01*
X208001031Y-147976685D01*
X208042236Y-148087313D01*
X208029326Y-148205510D01*
X207954373Y-148377148D01*
X207920587Y-148442170D01*
X207822533Y-148594138D01*
X207674441Y-148763841D01*
X207460355Y-148966669D01*
X207164322Y-149218013D01*
X206875750Y-149450132D01*
X206586942Y-149683119D01*
X206341589Y-149889114D01*
X206156187Y-150053598D01*
X206047236Y-150162051D01*
X206025766Y-150198159D01*
X206091287Y-150245922D01*
X206253194Y-150346954D01*
X206491358Y-150489537D01*
X206785646Y-150661954D01*
X207115928Y-150852485D01*
X207462073Y-151049413D01*
X207803948Y-151241020D01*
X208056666Y-151380316D01*
X208362607Y-151550061D01*
X208565100Y-151669533D01*
X208679747Y-151748660D01*
X208722147Y-151797371D01*
X208723333Y-151804620D01*
X208673080Y-151861270D01*
X208538886Y-151974688D01*
X208345595Y-152124349D01*
X208256034Y-152190687D01*
X208022340Y-152375735D01*
X207817565Y-152562949D01*
X207677869Y-152718584D01*
X207656284Y-152750347D01*
X207565556Y-152985651D01*
X207525288Y-153274159D01*
X207538865Y-153556265D01*
X207599285Y-153754238D01*
X207632295Y-153849718D01*
X207600676Y-153938007D01*
X207486236Y-154054947D01*
X207415952Y-154115448D01*
X207213484Y-154272908D01*
X207009187Y-154411454D01*
X206941943Y-154450807D01*
X206831155Y-154505211D01*
X206728856Y-154530145D01*
X206599479Y-154524625D01*
X206407455Y-154487667D01*
X206161985Y-154429231D01*
X205874255Y-154363918D01*
X205692456Y-154336542D01*
X205595256Y-154345165D01*
X205564683Y-154374998D01*
X205484407Y-154436707D01*
X205320943Y-154492036D01*
X205246988Y-154507166D01*
X204940602Y-154619111D01*
X204782266Y-154747775D01*
X204571412Y-154893830D01*
X204326829Y-154944587D01*
X204095391Y-154893260D01*
X204034319Y-154856057D01*
X203967343Y-154752836D01*
X203890403Y-154531318D01*
X203801886Y-154186185D01*
X203727310Y-153844850D01*
X203650825Y-153502320D01*
X203573757Y-153202104D01*
X203503747Y-152971079D01*
X203448436Y-152836123D01*
X203435350Y-152817876D01*
X203294208Y-152751345D01*
X203031539Y-152716105D01*
X202873470Y-152710178D01*
X202614947Y-152712390D01*
X202426226Y-152740727D01*
X202249008Y-152811525D01*
X202024994Y-152941122D01*
X202004784Y-152953604D01*
X201638912Y-153158553D01*
X201300083Y-153308021D01*
X201017805Y-153390046D01*
X200898284Y-153402085D01*
X200763469Y-153342274D01*
X200578723Y-153167761D01*
X200452555Y-153017742D01*
X200332268Y-152862842D01*
X200143613Y-152616001D01*
X199897985Y-152292402D01*
X199751925Y-152099211D01*
X200061529Y-152099211D01*
X200388867Y-152545994D01*
X200716205Y-152992776D01*
X200969769Y-152922978D01*
X201167115Y-152857390D01*
X201423177Y-152757641D01*
X201637838Y-152665186D01*
X202156267Y-152407078D01*
X202697428Y-152099211D01*
X203655322Y-152099211D01*
X203793271Y-152801053D01*
X203906177Y-153369523D01*
X203998529Y-153819411D01*
X204073494Y-154163688D01*
X204134236Y-154415324D01*
X204183921Y-154587289D01*
X204225715Y-154692553D01*
X204262784Y-154744087D01*
X204268522Y-154748235D01*
X204378874Y-154798308D01*
X204436150Y-154756240D01*
X204455799Y-154604483D01*
X204456666Y-154534553D01*
X204484098Y-154268084D01*
X204559709Y-154084228D01*
X204673471Y-154005549D01*
X204692345Y-154004211D01*
X204768519Y-153972859D01*
X204782511Y-153866808D01*
X204734422Y-153668063D01*
X204694918Y-153550293D01*
X204626377Y-153307273D01*
X204571941Y-153032281D01*
X204561568Y-152957021D01*
X204523299Y-152633947D01*
X204647706Y-153035000D01*
X204785212Y-153446561D01*
X204906997Y-153746068D01*
X205009711Y-153925830D01*
X205054801Y-153969634D01*
X205147563Y-154003721D01*
X205341471Y-154060245D01*
X205607832Y-154131243D01*
X205906821Y-154206054D01*
X206680436Y-154393889D01*
X206902855Y-154223795D01*
X207022778Y-154126236D01*
X207085562Y-154038748D01*
X207104112Y-153918574D01*
X207091335Y-153722957D01*
X207082003Y-153630247D01*
X207064489Y-153372427D01*
X207083185Y-153180623D01*
X207149121Y-152989572D01*
X207213287Y-152853528D01*
X207457379Y-152492275D01*
X207724547Y-152254162D01*
X208061252Y-152008061D01*
X207608959Y-151757381D01*
X207366052Y-151622060D01*
X207050097Y-151445069D01*
X206704106Y-151250544D01*
X206407046Y-151082949D01*
X205657425Y-150659198D01*
X204807046Y-151264637D01*
X204501781Y-151482433D01*
X204224654Y-151680999D01*
X203998701Y-151843766D01*
X203846958Y-151954167D01*
X203805994Y-151984644D01*
X203655322Y-152099211D01*
X202697428Y-152099211D01*
X202724027Y-152084079D01*
X203324301Y-151708976D01*
X203940272Y-151294561D01*
X204555121Y-150853623D01*
X205152032Y-150398951D01*
X205714186Y-149943336D01*
X206224767Y-149499566D01*
X206666956Y-149080432D01*
X207023936Y-148698723D01*
X207268235Y-148383294D01*
X207450496Y-148111200D01*
X207143800Y-147648758D01*
X207002215Y-147437342D01*
X206892014Y-147276691D01*
X206831106Y-147192763D01*
X206824779Y-147186316D01*
X206785139Y-147237367D01*
X206695287Y-147369473D01*
X206604940Y-147507408D01*
X206354711Y-147834953D01*
X206002197Y-148210626D01*
X205564120Y-148622274D01*
X205057201Y-149057737D01*
X204498164Y-149504862D01*
X203903728Y-149951490D01*
X203290616Y-150385467D01*
X202675549Y-150794635D01*
X202075249Y-151166838D01*
X201506438Y-151489921D01*
X200985838Y-151751726D01*
X200530169Y-151940098D01*
X200486934Y-151955067D01*
X200061529Y-152099211D01*
X199751925Y-152099211D01*
X199606778Y-151907228D01*
X199281389Y-151475661D01*
G37*
%TO.C,C1*%
X235913425Y-137728687D02*
X253625766Y-139278316D01*
X241100266Y-107586048D02*
X238569932Y-107364672D01*
X238791307Y-104834338D02*
X235913425Y-137728687D01*
X240878891Y-110116382D02*
X238348556Y-109895007D01*
X241100266Y-107586048D02*
X240878891Y-110116382D01*
X253625766Y-139278316D02*
X256503649Y-106383967D01*
X256503649Y-106383967D02*
X238791307Y-104834338D01*
%TD*%
D12*
%TO.C,C1*%
X239724411Y-108740527D03*
D13*
X239503036Y-111270862D03*
X239281660Y-113801196D03*
X239060284Y-116331531D03*
X238838909Y-118861865D03*
X238617533Y-121392200D03*
X238396158Y-123922535D03*
X238174782Y-126452869D03*
X237953406Y-128983204D03*
X237732031Y-131513538D03*
X237510655Y-134043873D03*
X237289280Y-136574207D03*
X254906418Y-110068781D03*
X254685043Y-112599115D03*
X254463667Y-115129450D03*
X254242292Y-117659784D03*
X254020916Y-120190119D03*
X253799540Y-122720453D03*
X253578165Y-125250788D03*
X253356789Y-127781123D03*
X253135414Y-130311457D03*
X252914038Y-132841792D03*
X252692662Y-135372126D03*
X252471287Y-137902461D03*
%TD*%
M02*
